<?xml version="1.0" encoding="utf-8"?>
<!-- Generator: Adobe Illustrator 22.1.0, SVG Export Plug-In . SVG Version: 6.00 Build 0)  -->
<svg version="1.1" id="dublin" xmlns="http://www.w3.org/2000/svg" xmlns:xlink="http://www.w3.org/1999/xlink" x="0px" y="0px"
	 viewBox="0 0 573.4 139.7" style="enable-background:new 0 0 573.4 139.7;" xml:space="preserve">
<style type="text/css">
	.st0{fill:url(#dublin-skyline_1_);}
</style>
<linearGradient id="dublin-skyline_1_" gradientUnits="userSpaceOnUse" x1="286.7" y1="144.0932" x2="286.7" y2="1.2794" gradientTransform="matrix(1 0 0 -1 0 142)">
	<stop  offset="0" style="stop-color:#017CC0"/>
	<stop  offset="1" style="stop-color:#02659B"/>
</linearGradient>
<path id="dublin-skyline" class="st0" d="M570.9,128.6v-0.4l-0.2-0.2v-0.5l-0.2-0.2V126l0.1-0.1v-0.2h0.1v-0.1h-0.3v-0.2l-0.1-0.1
	v-0.1l0,0V125l-0.2-0.1v-0.6h0.1v-0.1l0,0v-0.4l0,0v-0.1h-0.1v-0.6h0.1V123l0,0v-0.4l0,0v-0.1h-0.1v-0.6h0.1v-0.1l0,0v-0.4l0,0v-0.1
	h-0.1v-0.6h0.1v-0.1l0,0v-0.4l0,0V120h-0.1v-0.6h0.1v-0.1l0,0v-0.4l0,0v-0.1h-0.1v-0.6h0.1v-0.1l0,0v-0.4l0,0v-0.1h-0.1v-0.9
	l0.2-0.2v-0.1l0,0v-0.1h-0.2v-0.4h0.1v-0.2l0.1-0.1h-0.1v-1h0.6v-0.5h0.3v-0.2h0.1v-0.1h0.1v-0.1H571v-0.1l-1.3-0.3v-1.1h-0.2v-0.3
	l-0.4-0.2V110h-0.4v-0.1l-0.1-0.1c0,0,0,0,0-0.1s0-0.1,0-0.1s0.1-0.2,0.1-0.3c0-0.1,0-0.2,0-0.3c0,0,0-0.1-0.1-0.2s-0.1-0.1-0.1-0.1
	s0-0.1-0.1-0.1c0,0-0.1-0.1-0.1-0.2s-0.1-0.1-0.1-0.1l0.1-0.2l-0.1-0.1c0,0,0-0.1,0-0.2l-0.1-0.1c0,0,0,0,0-0.1c0,0-0.1-0.1-0.1-0.2
	h-0.1c0,0,0,0,0-0.1v-0.1v-0.1h0.1V107l0,0v-0.1c0,0,0,0,0-0.1s0-0.1,0-0.1s0,0,0-0.1c0,0,0-0.1-0.1-0.1s-0.1,0-0.1,0s0,0-0.1,0
	s-0.1,0.1-0.1,0.1l0,0v-0.1l0.1-0.1v-0.1h-0.2c0-0.1,0-0.1-0.1-0.1c0-0.1-0.1-0.1-0.1-0.1V106l0,0v-5.8v-0.1v-0.3l0,0v-0.1h-0.1
	v-0.4h0.1v-0.1c0,0,0.1,0,0.1-0.2s-0.1-0.2-0.1-0.2V99l0,0v-0.2l0,0v-0.1l0,0V98h0.1v-0.5l0.1-0.2V97l0,0v-0.1h-0.3v-0.5h-0.1V96
	H567v-0.1l-0.1-0.1c0,0,0.1-0.1,0-0.3c-0.1-0.1-0.2-0.1-0.2-0.1s0.1,0,0.1-0.1s-0.2-0.1-0.2-0.1v-0.1h-0.1V95h-0.1
	c0,0-0.2-0.7-0.6-1.2c-0.3-0.5-0.9-0.9-0.9-0.9v-0.4l0,0v-0.3L565,92h-0.2c0,0,0.2-0.1,0.2-0.3c0-0.2-0.3-0.3-0.3-0.3v-1.6h0.1v-0.1
	l0,0v-0.3h0.2V89h0.1v-0.2h0.1c0,0-0.1-0.1-0.3-0.1c0,0,0-0.7-0.5-1.5s-0.9-0.9-0.9-0.9s-0.1-0.1-0.2-0.2V86l-0.1-0.1
	c0,0,0-0.2,0-0.3v-0.1c0,0,0.1,0,0.1-0.1c0.1-0.1,0-0.2-0.1-0.2v-0.1c0-0.1-0.1-0.1-0.1-0.1l0,0v-0.1H563v-0.2h0.1v-0.1
	c0,0,0,0,0-0.1s0-0.1,0-0.1l0,0v-0.1l0.1,0.1c0,0,0.1,0,0.1-0.1c0,0,0-0.1-0.1-0.1V84h0.1v0.1h0.1v0.1h0.1h0.1v-0.1h0.1
	c-0.1-0.1-0.1,0-0.1,0V84h-0.1c0,0,0,0-0.1,0v0.1c0,0,0,0-0.1,0v0.1h-0.1v-0.1c0,0,0.1,0,0.1-0.1l-0.1-0.1c0,0-0.1,0-0.1,0.1v-0.2
	l0,0v-0.1c0-0.1,0-0.1,0-0.1s0,0,0-0.1H563V83l0,0v0.2h-0.1v0.1c0,0,0,0,0,0.1s0,0.1,0,0.1l0,0v0.2l-0.1-0.1c0,0-0.1,0-0.1,0.1
	c0,0,0,0.1,0.1,0.1v0.1h-0.1v-0.1h-0.1v-0.1h-0.1h-0.1v0.1h-0.1c0.1,0.1,0.1,0,0.1,0v0.1h0.1c0,0,0,0,0.1,0v-0.1c0,0,0,0,0.1,0v-0.1
	h0.1v0.1c0,0-0.1,0-0.1,0.1l0.1,0.1c0,0,0.1,0,0.1-0.1V84l0,0v0.1c0,0.1,0,0.1,0,0.1s0,0,0,0.1h0.1v0.2h-0.1v0.1l0,0l-0.1,0.1
	c0,0.1,0,0.1,0,0.1c-0.1,0-0.1,0.1-0.1,0.2s0.1,0.1,0.1,0.1v0.1v0.3l-0.1,0.1v0.2c-0.1,0.1-0.2,0.2-0.2,0.2s-0.4,0.1-0.9,0.9
	s-0.5,1.5-0.5,1.5c-0.2,0-0.3,0.1-0.3,0.1h0.1V89h0.1v0.3h0.2v0.3l0,0v0.1h0.1v1.6c0,0-0.3,0.1-0.3,0.3c0,0.2,0.2,0.3,0.2,0.3H561
	l-0.1,0.1v0.3l0,0v0.4c0,0-0.6,0.4-0.9,0.9c-0.3,0.5-0.6,1.2-0.6,1.2h-0.1V95h-0.1v0.1c0,0-0.2,0-0.2,0.1s0.1,0.1,0.1,0.1
	s-0.2,0-0.2,0.1c-0.1,0.1,0,0.3,0,0.3l-0.1,0.1V96h-0.1v0.3h-0.1v0.5h-0.3V97l0,0v0.2l0.1,0.2v0.5h0.1v0.7l0,0v0.1l0,0V99l0,0v0.1
	c0,0-0.1,0-0.1,0.2s0,0.2,0,0.2v0.1h0.1v0.4h-0.1v0.1l0,0v0.3v0.1v5.8l0,0v0.1c0,0-0.1,0-0.1,0.1l-0.1,0.1H558v0.1l0.1,0.1v0.1l0,0
	c0,0-0.1-0.1-0.2-0.1c-0.1,0-0.1,0-0.1,0h-0.1c-0.1,0-0.1,0-0.1,0.1v0.1v0.1v0.1v0.1l0,0v0.1h0.1c0,0,0,0,0,0.1v0.1v0.1h-0.1
	c0,0-0.1,0.1-0.1,0.2v0.1c0,0,0,0.1-0.1,0.1v0.2l-0.1,0.1l0.1,0.2l-0.1,0.1c0,0.1-0.1,0.1-0.1,0.2s-0.1,0.1-0.1,0.1s-0.1,0-0.1,0.1
	c-0.1,0.1-0.1,0.1-0.1,0.2c0,0,0,0.2,0,0.3c0,0.1,0.1,0.3,0.1,0.3v0.1c0,0.1,0,0.1,0,0.1l-0.1,0.1c0,0,0,0,0,0.1h-0.4v1.7l-0.4,0.2
	v0.3h-0.2v1.1l-1.3,0.3v0.1h-0.4v0.1h0.1v0.1h0.1v0.2h0.3v0.5h0.6v1h-0.1l0.1,0.1v0.2h0.1v0.4h-0.2v0.1l0,0v0.1l0.2,0.2v0.9h-0.1
	v0.1l0,0v0.4l0,0v0.1h0.1v0.6h-0.1v0.1l0,0v0.4l0,0v0.1h0.1v0.6h-0.1v0.1l0,0v0.4l0,0v0.1h0.1v0.6h-0.1v0.1l0,0v0.4l0,0v0.1h0.1v0.6
	h-0.1v0.1l0,0v0.4l0,0v0.1h0.1v0.6h-0.1v0.1l0,0v0.4l0,0v0.1h0.1v0.6l-0.2,0.1v0.1l0,0v0.1l-0.1,0.1v0.2h-0.3v0.1h0.1v0.2l0.1,0.1
	v1.3l-0.2,0.2v0.5l-0.2,0.2v0.4h-1.8v-0.3l-0.2-0.3h-0.1v-0.2h-0.1v-7h0.1v-0.6h-0.1v-6.6h0.1v-0.2h0.2v-0.2l0,0l-0.1-0.1h-0.1v-0.4
	l0.3-0.3v-0.1h0.3v-0.1v-0.1h0.2l0.1-0.1V112h-0.9v-0.2l0.1-0.1v-0.1h-4.4l-5.3-2.4h-4.5v-2.6h0.1v-0.2l0.1-0.1V106l0,0v-0.2h0.3
	v-0.1h0.1l0.1-0.1v-0.1h-0.7v-0.2l0.1-0.1v-0.1h-0.4c0-0.1,0-0.2,0-0.3c0-0.1-0.1-0.2-0.1-0.2s0.1-0.1,0.1-0.2
	c0.1,0,0.2-0.1,0.2-0.3c0-0.2-0.2-0.3-0.3-0.4s-0.1-0.2-0.1-0.2l0.1-0.4c0-0.1-0.1-0.3-0.2-0.3c-0.1,0-0.2,0.2-0.2,0.3
	c0,0.1,0.1,0.4,0.1,0.4s0,0.2-0.1,0.2c-0.1,0.1-0.3,0.2-0.3,0.4c0,0.2,0.1,0.3,0.2,0.3c0,0.1,0.1,0.2,0.1,0.2s-0.1,0.1-0.1,0.2
	s0,0.2,0,0.3h-0.2v-0.4h-0.1v-0.4l-0.1-0.1V103v-0.1v-0.2h-0.2V97l0.1-0.1v-0.6l0,0v-0.6h-0.1v-0.5l0,0V95v-0.1v-0.3h0.3v-0.3
	l0.1-0.1v-0.1h-0.5V94c0-0.1-0.1-0.2-0.1-0.2s0.1-0.1,0.1-0.2c0,0,0.2-0.1,0.2-0.2c0-0.2-0.2-0.2-0.2-0.3c0-0.1,0-0.1-0.1-0.2
	c0,0,0.1-0.1,0-0.2c0-0.1-0.1-0.2-0.2-0.2s-0.1,0.1-0.2,0.2c0,0.1,0,0.1,0,0.2c0,0,0,0.1-0.1,0.2c0,0.1-0.2,0.1-0.2,0.3
	c0,0.1,0.1,0.2,0.1,0.2c0,0.1,0.1,0.2,0.1,0.2s-0.1,0.1-0.1,0.2l0,0h-0.2v-0.3l0,0c0,0,0-0.7,0-0.8c0-0.1,0-0.1,0-0.1v-0.1h0.1
	c0,0,0-0.1,0-0.2s-0.2-0.1-0.2-0.1s-0.1-0.7-0.2-1c-0.1-0.3-0.4-0.9-0.9-1.4c-0.5-0.4-1.5-1-1.5-1s0-0.1-0.1-0.3
	c-0.1-0.1-0.2-0.3-0.4-0.8c-0.2-0.4-0.3-0.8-0.3-1.3c-0.1-0.4-0.1-0.6-0.1-0.6s0.1-0.1,0.1-0.2s-0.2-0.2-0.2-0.2s0-0.1-0.1-0.1
	s-0.1-0.1-0.1-0.2c0.2-0.1,0.3-0.2,0.3-0.4s-0.1-0.3-0.3-0.4c0-0.1-0.1-0.2-0.1-0.2v-0.4v-0.1v-0.1v-1.2h-0.1v1.2v0.1v0.1v0.4
	c0,0-0.1,0.1-0.1,0.2c-0.2,0.1-0.3,0.2-0.3,0.4s0.1,0.3,0.3,0.4c0,0.1,0,0.1-0.1,0.2c-0.1,0-0.1,0.1-0.1,0.1s-0.2,0.1-0.2,0.2
	s0.1,0.2,0.1,0.2s0,0.2-0.1,0.6s-0.1,0.8-0.3,1.3c-0.2,0.4-0.4,0.6-0.4,0.8c-0.1,0.1-0.1,0.3-0.1,0.3s-0.9,0.6-1.4,1s-0.8,1-0.9,1.4
	c-0.1,0.3-0.2,1-0.2,1s-0.1,0-0.2,0.1c0,0.1,0,0.2,0,0.2h0.1v0.1v0.1c0,0.1,0,0.8,0,0.8l0,0V94h-0.2l0,0c0-0.1-0.1-0.2-0.1-0.2
	s0.1-0.1,0.1-0.2c0,0,0.1-0.1,0.1-0.2c0-0.2-0.2-0.2-0.2-0.3c0-0.1,0-0.1-0.1-0.2c0,0,0.1-0.1,0-0.2c0-0.1-0.1-0.2-0.2-0.2
	c-0.1,0-0.1,0.1-0.2,0.2c0,0.1,0,0.1,0,0.2c0,0,0,0.1-0.1,0.2c0,0.1-0.2,0.1-0.2,0.3c0,0.1,0.1,0.2,0.1,0.2c0,0.1,0.1,0.2,0.1,0.2
	s-0.1,0.1-0.1,0.2v0.1h-0.5v0.1l0.1,0.1v0.3h0.3v0.3V95v0.2l0,0v0.5h-0.1v0.6l0,0V97l0.1,0.1v5.7h-0.2v0.2v0.1v1.1l-0.1,0.1v0.4
	h-0.1v0.4h-0.2c0-0.1,0-0.2,0-0.3c0-0.1-0.1-0.2-0.1-0.2s0.1-0.1,0.1-0.2c0.1,0,0.2-0.1,0.2-0.3c0-0.2-0.2-0.3-0.3-0.4
	s-0.1-0.2-0.1-0.2l0.1-0.4c0-0.1-0.1-0.3-0.2-0.3c-0.1,0-0.2,0.2-0.2,0.3c0,0.1,0.1,0.4,0.1,0.4s0,0.2-0.1,0.2
	c-0.1,0.1-0.3,0.2-0.3,0.4c0,0.2,0.1,0.3,0.2,0.3c0,0.1,0.1,0.2,0.1,0.2s-0.1,0.1-0.1,0.2s0,0.2,0,0.3h-0.4v0.1l0.1,0.1v0.2h-0.7
	v0.1l0.1,0.1h0.1v0.1h0.3v0.2l0,0v0.2l0.1,0.1v0.2h0.1v2.6h-4.5l-5.3,2.4h-3.1v-1h-0.1v-4h0.4v-0.2l0.1-0.1V106h-0.5v-0.8h-2.9
	l-1.6-0.5H503v-1.9h0.1v-0.4h-0.4V102h0.3v-0.4h-0.4v0.4h-0.1v0.3h-0.1V102h-0.1v-0.4h-0.4v0.4h-0.1v0.3h-0.1V102h-0.1v-0.4h-0.4
	v0.4h-0.1v0.3h-0.4v0.4h0.1v1.9h-6.2v-2.5h0.1v-0.4h-0.4v-0.3h-0.1V101h-0.4v0.4h-0.1v0.3h-0.4v0.4h0.1v2.5h-0.1l-6.1-2.4l-6.1,2.4
	H481v-2.5h0.1v-0.4h-0.4v-0.3h-0.1V101h-0.4v0.4h-0.1v0.3h-0.4v0.4h0.1v2.5h-6.2v-1.9h0.1v-0.4h-0.4V102h-0.1v-0.4h-0.4v0.4h-0.1
	v0.3h-0.1V102h-0.1v-0.4h-0.4v0.4H472v0.3h-0.1V102h-0.1v-0.4h-0.4v0.4h-0.1v0.3h-0.4v0.4h0.1v1.9h-4.8l-1.6,0.5h-2.9v0.8h-0.5v0.1
	l0.1,0.1v0.2h0.4v4h-0.1v7.4h-3v-17.1l0.9-2h0.2v-1.1h0.3v-5.9h-2.9v1.5H457v-1.5h-1.9v1.5h-0.3v-1.5h-1.9v1.5h-0.5v-1.5h-1.9v1.5
	h-0.8v-1.5h-1.9v1.5H447v-1.5h-1.9v1.5h-0.5v-1.5h-1.9v1.5h-0.3v-1.5h-1.9v1.5h-0.1v-1.5h-2.9v5.9h0.3v1.1h0.2l0.9,2V112h-0.4v-0.6
	h-0.9v0.6H437v-0.6h-0.9v0.6h-0.5v-0.6H435v-2.6h0.1v-0.2h0.1l0.1-0.1h0.1v-0.1h-0.3v-2.2c0,0,0,0,0.1,0v-0.1l0,0V106h-0.4v-0.3
	l-0.2-0.7h-0.1v-0.6l-0.5-3l0,0v-0.1l0,0v-0.1c0,0,0,0,0.1,0v-0.1l0,0V101l0,0v-0.1H434v-0.1l0,0v-0.1l-0.3-0.3v-1.7l0,0v-0.8h-0.3
	v-0.3h-0.3v-0.3h-0.5v0.3h-0.3v0.3H432v0.8l0,0v1.7l-0.1,0.3v0.7h-0.1l-0.1-0.1v-0.1l0,0v0.1l-0.1,0.1h-0.1l-0.1-0.1l0,0
	c0.1,0,0.1,0,0.1-0.1s0-0.1-0.1-0.1h-0.1V101c0-0.1,0-0.1-0.1-0.1s-0.1,0-0.1,0.1v0.1H431c-0.1,0-0.1,0-0.1,0.1s0,0.1,0.1,0.1l0,0
	l-0.1,0.1h-0.1l-0.1-0.1v-0.1l0,0v0.1l-0.1,0.1h-0.1l-0.1-0.1l0,0c0.1,0,0.1,0,0.1-0.1s0-0.1-0.1-0.1h-0.1V101c0-0.1,0-0.1-0.1-0.1
	s-0.1,0-0.1,0.1v0.1H430c-0.1,0-0.1,0-0.1,0.1s0,0.1,0.1,0.1l0,0l-0.1,0.1h-0.1l-0.1-0.1v-0.1l0,0v0.1l-0.1,0.1h-0.1
	c0-0.1-0.1-0.1-0.1-0.2V101l0,0l0,0v-0.1l0,0v-0.1l0,0v-0.1c0,0,0,0,0-0.1l-0.1-0.1c0,0,0,0,0-0.1c0,0,0.1,0,0.1-0.1
	s-0.1-0.1-0.1-0.1s0,0,0-0.1V100c0,0,0,0,0,0.1v0.1c0,0-0.1,0-0.1,0.1s0.1,0,0.1,0.1v0.1c0,0-0.1,0-0.1,0.1v0.1c0,0,0,0,0,0.1l0,0
	c0,0,0,0,0,0.1l0,0v0.1l0,0l0,0c0,0,0,0.1,0,0.2c0,0-0.1,0.1-0.1,0.2H429l-0.1-0.1v-0.1l0,0v0.1l-0.1,0.1h-0.1l-0.1-0.1l0,0
	c0.1,0,0.1,0,0.1-0.1s0-0.1-0.1-0.1h-0.1V101c0-0.1,0-0.1-0.1-0.1s-0.1,0-0.1,0.1v0.1h-0.1c-0.1,0-0.1,0-0.1,0.1s0,0.1,0.1,0.1l0,0
	l-0.1,0.1H428l-0.1-0.1v-0.1l0,0v0.1l-0.1,0.1h-0.1l-0.1-0.1l0,0c0.1,0,0.1,0,0.1-0.1s0-0.1-0.1-0.1h-0.1V101c0-0.1,0-0.1-0.1-0.1
	s-0.1,0-0.1,0.1v0.1h-0.1c-0.1,0-0.1,0-0.1,0.1s0,0.1,0.1,0.1l0,0l-0.1,0.1H427l-0.1-0.1v-0.1l0,0v0.1l-0.1,0.1h-0.1l-0.1-0.1l0,0
	c0.1,0,0.1,0,0.1-0.1s0-0.1-0.1-0.1h-0.1V101c0-0.1,0-0.1-0.1-0.1s-0.1,0-0.1,0.1v0.1h-0.1c-0.1,0-0.1,0-0.1,0.1s0,0.1,0.1,0.1l0,0
	l-0.1,0.1H426l-0.1-0.1v-0.1l0,0v0.1l-0.1,0.1h-0.1l-0.1-0.1l0,0c0.1,0,0.1,0,0.1-0.1s0-0.1-0.1-0.1h-0.1V101c0-0.1,0-0.1-0.1-0.1
	s-0.1,0-0.1,0.1v0.1h-0.1c-0.1,0-0.1,0-0.1,0.1s0,0.1,0.1,0.1l0,0l-0.1,0.1H425l-0.1-0.1v-0.1l0,0v0.1l-0.1,0.1h-0.1l-0.1-0.1l0,0
	c0.1,0,0.1,0,0.1-0.1s0-0.1-0.1-0.1h-0.1V101c0-0.1,0-0.1-0.1-0.1s-0.1,0-0.1,0.1v0.1h-0.1c-0.1,0-0.1,0-0.1,0.1s0,0.1,0.1,0.1l0,0
	l-0.1,0.1H424l-0.1-0.1v-0.1l0,0v0.1l-0.1,0.1l0,0c0-0.1-0.1-0.1-0.1-0.2V101l0,0l0,0v-0.1l0,0v-0.1l0,0v-0.1c0,0,0,0,0-0.1
	l-0.1-0.1c0,0,0,0,0-0.1c0,0,0.1,0,0.1-0.1s-0.1-0.1-0.1-0.1s0,0,0-0.1V100c0,0,0,0,0,0.1v0.1c0,0-0.1,0-0.1,0.1s0.1,0,0.1,0.1v0.1
	c0,0-0.1,0-0.1,0.1v0.1c0,0,0,0,0,0.1l0,0c0,0,0,0,0,0.1l0,0v0.1l0,0l0,0c0,0,0,0.1,0,0.2c0,0-0.1,0.1-0.1,0.2h-0.1l-0.1-0.1v-0.1
	l0,0v0.1l-0.1,0.1H423l-0.1-0.1l0,0c0.1,0,0.1,0,0.1-0.1s0-0.1-0.1-0.1h-0.1V101c0-0.1,0-0.1-0.1-0.1s-0.1,0-0.1,0.1v0.1h-0.1
	c-0.1,0-0.1,0-0.1,0.1s0,0.1,0.1,0.1l0,0l-0.1,0.1h-0.1l-0.1-0.1v-0.1l0,0v0.1l-0.1,0.1H422l-0.1-0.1l0,0c0.1,0,0.1,0,0.1-0.1
	s0-0.1-0.1-0.1h-0.1V101c0-0.1,0-0.1-0.1-0.1s-0.1,0-0.1,0.1v0.1h-0.1c-0.1,0-0.1,0-0.1,0.1s0,0.1,0.1,0.1l0,0l-0.1,0.1h-0.1
	l-0.1-0.1v-0.1l0,0v0.1l-0.1,0.1H421l-0.1-0.1l0,0c0.1,0,0.1,0,0.1-0.1s0-0.1-0.1-0.1h-0.1V101c0-0.1,0-0.1-0.1-0.1s-0.1,0-0.1,0.1
	v0.1h-0.1c-0.1,0-0.1,0-0.1,0.1s0,0.1,0.1,0.1l0,0l-0.1,0.1h-0.1l-0.1-0.1v-0.1l0,0v0.1l-0.1,0.1H420l-0.1-0.1l0,0
	c0.1,0,0.1,0,0.1-0.1s0-0.1-0.1-0.1h-0.1V101c0-0.1,0-0.1-0.1-0.1s-0.1,0-0.1,0.1v0.1h-0.1c-0.1,0-0.1,0-0.1,0.1s0,0.1,0.1,0.1l0,0
	l-0.1,0.1h-0.1l-0.1-0.1v-0.1l0,0v0.1l-0.1,0.1H419l-0.1-0.1l0,0c0.1,0,0.1,0,0.1-0.1s0-0.1-0.1-0.1h-0.1V101c0-0.1,0-0.1-0.1-0.1
	s-0.1,0-0.1,0.1v0.1h-0.1c-0.1,0-0.1,0-0.1,0.1s0,0.1,0.1,0.1l0,0l-0.1,0.1h-0.1l-0.1-0.1v-0.1l0,0v0.1l-0.1,0.1H418
	c0-0.1-0.1-0.1-0.1-0.2V101l0,0l0,0v-0.1l0,0v-0.1l0,0v-0.1c0,0,0,0,0-0.1l-0.1-0.1c0,0,0,0,0-0.1c0,0,0.1,0,0.1-0.1
	s-0.1-0.1-0.1-0.1s0,0,0-0.1V100c0,0,0,0,0,0.1v0.1c0,0-0.1,0-0.1,0.1s0.1,0,0.1,0.1v0.1c0,0-0.1,0-0.1,0.1v0.1c0,0,0,0,0,0.1l0,0
	c0,0,0,0,0,0.1l0,0v0.1l0,0l0,0c0,0,0,0.1,0,0.2c0,0-0.1,0.1-0.1,0.2l0,0l-0.1-0.1v-0.1l0,0v0.1l-0.1,0.1h-0.1l-0.1-0.1l0,0
	c0.1,0,0.1,0,0.1-0.1s0-0.1-0.1-0.1h-0.1V101c0-0.1,0-0.1-0.1-0.1s-0.1,0-0.1,0.1v0.1h-0.1c-0.1,0-0.1,0-0.1,0.1s0,0.1,0.1,0.1l0,0
	l-0.1,0.1h-0.1l-0.1-0.1v-0.1l0,0v0.1l-0.1,0.1h-0.1l-0.1-0.1l0,0c0.1,0,0.1,0,0.1-0.1s0-0.1-0.1-0.1h-0.1V101c0-0.1,0-0.1-0.1-0.1
	s-0.1,0-0.1,0.1v0.1h-0.1c-0.1,0-0.1,0-0.1,0.1s0,0.1,0.1,0.1l0,0l-0.1,0.1h-0.1l-0.1-0.1v-0.1l0,0v0.1l-0.1,0.1h-0.1l-0.1-0.1l0,0
	c0.1,0,0.1,0,0.1-0.1s0-0.1-0.1-0.1h-0.1V101c0-0.1,0-0.1-0.1-0.1s-0.1,0-0.1,0.1v0.1h0.1c-0.1,0-0.1,0-0.1,0.1s0,0.1,0.1,0.1l0,0
	l-0.1,0.1h-0.1l-0.1-0.1v-0.1l0,0v0.1l-0.1,0.1h-0.1l-0.1-0.1l0,0c0.1,0,0.1,0,0.1-0.1s0-0.1-0.1-0.1h-0.1V101c0-0.1,0-0.1-0.1-0.1
	s-0.1,0-0.1,0.1v0.1H414c-0.1,0-0.1,0-0.1,0.1s0,0.1,0.1,0.1l0,0l-0.1,0.1h-0.1l-0.1-0.1v-0.1l0,0v0.1l-0.1,0.1h-0.1l-0.1-0.1l0,0
	c0.1,0,0.1,0,0.1-0.1s0-0.1-0.1-0.1h-0.1V101c0-0.1,0-0.1-0.1-0.1s-0.1,0-0.1,0.1v0.1H413c-0.1,0-0.1,0-0.1,0.1s0,0.1,0.1,0.1l0,0
	l-0.1,0.1h-0.1l-0.1-0.1v-0.1l0,0v0.1l-0.1,0.1l0,0c0-0.1-0.1-0.1-0.1-0.2V101l0,0l0,0v-0.1l0,0v-0.1l0,0v-0.1c0,0,0,0,0-0.1
	l-0.1-0.1c0,0,0,0,0-0.1c0,0,0.1,0,0.1-0.1s-0.1-0.1-0.1-0.1s0,0,0-0.1V100c0,0,0,0,0,0.1v0.1c0,0-0.1,0-0.1,0.1s0.1,0,0.1,0.1v0.1
	c0,0-0.1,0-0.1,0.1v0.1c0,0,0,0,0,0.1l0,0c0,0,0,0,0,0.1l0,0v0.1l0,0l0,0c0,0,0,0.1,0,0.2c0,0-0.1,0.1-0.1,0.2l0,0l-0.1-0.1v-0.1
	l0,0v0.1l-0.1,0.1h-0.1l-0.1-0.1l0,0c0.1,0,0.1,0,0.1-0.1s0-0.1-0.1-0.1h-0.1V101c0-0.1,0-0.1-0.1-0.1s-0.1,0-0.1,0.1v0.1h-0.1
	c-0.1,0-0.1,0-0.1,0.1s0,0.1,0.1,0.1l0,0l-0.1,0.1h-0.1l-0.1-0.1v-0.1l0,0v0.1l-0.1,0.1h-0.1l-0.1-0.1l0,0c0.1,0,0.1,0,0.1-0.1
	s0-0.1-0.1-0.1h-0.1V101c0-0.1,0-0.1-0.1-0.1s-0.1,0-0.1,0.1v0.1h-0.1c-0.1,0-0.1,0-0.1,0.1s0,0.1,0.1,0.1l0,0l-0.1,0.1h-0.1
	l-0.1-0.1v-0.1l0,0v0.1l-0.1,0.1h-0.1l-0.1-0.1l0,0c0.1,0,0.1,0,0.1-0.1s0-0.1-0.1-0.1h-0.1V101c0-0.1,0-0.1-0.1-0.1s-0.1,0-0.1,0.1
	v0.1h-0.1c-0.1,0-0.1,0-0.1,0.1s0,0.1,0.1,0.1l0,0l-0.1,0.1h-0.1l-0.1-0.1v-0.1l0,0v0.1l-0.1,0.1h-0.1l-0.1-0.1l0,0
	c0.1,0,0.1,0,0.1-0.1s0-0.1-0.1-0.1h-0.1V101c0-0.1,0-0.1-0.1-0.1s-0.1,0-0.1,0.1v0.1h-0.1c-0.1,0-0.1,0-0.1,0.1s0,0.1,0.1,0.1l0,0
	l-0.1,0.1h-0.1l-0.1-0.1v-0.1l0,0v0.1l-0.1,0.1h-0.1l-0.1-0.1l0,0c0.1,0,0.1,0,0.1-0.1s0-0.1-0.1-0.1h-0.1V101c0-0.1,0-0.1-0.1-0.1
	s-0.1,0-0.1,0.1v0.1h-0.1c-0.1,0-0.1,0-0.1,0.1s0,0.1,0.1,0.1l0,0l-0.1,0.1h-0.1l-0.1-0.1v-0.1l0,0v0.1l-0.1,0.1l0,0
	c0-0.1-0.1-0.1-0.1-0.2V101l0,0l0,0v-0.1l0,0v-0.1l0,0v-0.1c0,0,0,0,0-0.1l-0.1-0.1c0,0,0,0,0-0.1c0,0,0.1,0,0.1-0.1
	s-0.1-0.1-0.1-0.1s0,0,0-0.1V100c0,0,0,0,0,0.1v0.1c0,0-0.1,0-0.1,0.1s0.1,0,0.1,0.1v0.1c0,0-0.1,0-0.1,0.1v0.1c0,0,0,0,0,0.1l0,0
	c0,0,0,0,0,0.1l0,0v0.1l0,0l0,0c0,0,0,0.1,0,0.2c0,0-0.1,0.1-0.1,0.2l0,0l-0.1-0.1v-0.1l0,0v0.1l-0.1,0.1H406l-0.1-0.1l0,0
	c0.1,0,0.1,0,0.1-0.1s0-0.1-0.1-0.1h-0.1V101c0-0.1,0-0.1-0.1-0.1s-0.1,0-0.1,0.1v0.1h-0.1c-0.1,0-0.1,0-0.1,0.1s0,0.1,0.1,0.1l0,0
	l-0.1,0.1h-0.1l-0.1-0.1v-0.1l0,0v0.1l-0.1,0.1H405l-0.1-0.1l0,0c0.1,0,0.1,0,0.1-0.1s0-0.1-0.1-0.1h-0.1V101c0-0.1,0-0.1-0.1-0.1
	s-0.1,0-0.1,0.1v0.1h-0.1c-0.1,0-0.1,0-0.1,0.1s0,0.1,0.1,0.1l0,0l-0.1,0.1h-0.1l-0.1-0.1v-0.1l0,0v0.1l-0.1,0.1H404l-0.1-0.1l0,0
	c0.1,0,0.1,0,0.1-0.1s0-0.1-0.1-0.1h-0.1V101c0-0.1,0-0.1-0.1-0.1s-0.1,0-0.1,0.1v0.1h-0.1h-0.1v-2.2h-0.2v-0.2H403v-0.2l0,0v-1.1
	h0.2v-0.3H403v-0.2h-0.3v0.2h-0.2v0.3h0.2v1.1l0,0v0.2h-0.2v0.2h-0.2v0.6l-1.1,2.9v-0.1l0,0v-0.2c0,0,0.1-0.1,0-0.1
	c0-0.1-0.1-0.1-0.1-0.1l0,0c-0.1,0-0.1,0.1-0.1,0.1v-0.3l0,0c0.1,0,0.1,0,0.1-0.1s0-0.1-0.1-0.1l0,0v-0.4c0,0,0.1,0,0.1-0.1
	c0,0,0-0.1-0.1-0.1l0,0v-0.3c0,0,0.1,0,0.1-0.1c0,0,0-0.1-0.1-0.1l0,0v-0.3l0.1-0.1c0,0,0-0.1-0.1-0.1v-0.1h0.1l-0.1-0.1v-0.1v0.1
	c0,0-0.1,0-0.1,0.1h0.1v0.1l-0.1,0.1c0,0,0,0.1,0.1,0.1v0.3l0,0c0,0-0.1,0-0.1,0.1c0,0,0,0.1,0.1,0.1v0.3l0,0c0,0-0.1,0-0.1,0.1
	c0,0,0,0.1,0.1,0.1v0.4l0,0c-0.1,0-0.1,0-0.1,0.1s0,0.1,0.1,0.1l0,0v0.3c0,0,0-0.1-0.1-0.1l0,0c0,0,0,0-0.1,0.1c0,0.1,0,0.1,0,0.1
	v0.2l0,0l-0.2,1.3h-0.1c0,0,0,0.2,0.1,0.2c0.1,0.1,0.2,0.1,0.2,0.1v1.3h-1v0.1l0.2,0.1v2.4h-0.2v0.1l0.2,0.1v1.8h-0.4v-0.1
	c0,0,0.1,0,0.1-0.1l0.1-0.1h-0.1l-0.1-0.8l0,0v-0.1c0,0,0,0,0-0.1l0,0l0,0h-0.1v-0.2l0,0c0,0,0.1,0,0.1-0.1s0-0.1-0.1-0.1l0,0v-0.3
	c0,0,0.1,0,0.1-0.1c0,0,0-0.1-0.1-0.1l0,0v-0.2l0,0l0,0l0,0v-0.2c0,0,0,0,0-0.1c0,0,0-0.1-0.1-0.1v-0.1l0,0l0,0l0,0l0,0l0,0l0,0v0.1
	c0,0-0.1,0-0.1,0.1v0.1v0.2l0,0l0,0l0,0v0.2l0,0c0,0-0.1,0-0.1,0.1c0,0,0,0.1,0.1,0.1v0.3l0,0c0,0-0.1,0-0.1,0.1s0,0.1,0.1,0.1l0,0
	v0.2c0,0,0,0-0.1,0l0,0l0,0v0.1v0.1l0,0l-0.1,0.8H399c0,0,0,0.1,0.1,0.1l0.1,0.1v0.1h-0.7v-0.3h-0.2h-0.4v-0.1h-0.1l-0.1-1l0,0V108
	c0,0,0.1,0,0-0.1l0,0l0,0c-0.1,0-0.1,0-0.1,0v-0.3l0,0c0,0,0.1,0,0.1-0.1c0,0,0-0.1-0.1-0.1l0,0v-0.3c0,0,0.1,0,0.1-0.1
	c0,0,0-0.1-0.1-0.1l0,0v-0.2c0,0,0.1,0,0.1-0.1c0,0,0-0.1-0.1-0.1l0,0v-0.3c0,0,0,0,0-0.1c0,0,0-0.1-0.1-0.1v-0.1l0,0l0,0l0,0l0,0
	l0,0l0,0v0.1c0,0-0.1,0-0.1,0.1v0.1v0.3l0,0c0,0-0.1,0-0.1,0.1c0,0,0,0.1,0.1,0.1v0.2l0,0c0,0-0.1,0-0.1,0.1c0,0,0,0.1,0.1,0.1v0.3
	l0,0c0,0-0.1,0-0.1,0.1c0,0,0,0.1,0.1,0.1l0,0v0.3c0,0,0,0-0.1,0l0,0l0,0v0.1v0.1l0,0l-0.1,1h-0.1c0,0,0,0.1,0.1,0.2l0.1,0.1v0.2
	H397v-0.2h-0.9v0.2h-0.2v-0.5c0,0,0.1,0,0.2-0.1s0.1-0.2,0.1-0.2h-0.1l-0.2-1.3l0,0v-0.2c0,0,0.1-0.1,0-0.1c0-0.1-0.1-0.1-0.1-0.1
	l0,0c-0.1,0-0.1,0.1-0.1,0.1v-0.3l0,0c0.1,0,0.1,0,0.1-0.1s0-0.1-0.1-0.1l0,0v-0.4c0,0,0.1,0,0.1-0.1c0,0,0-0.1-0.1-0.1l0,0v-0.3
	c0,0,0.1,0,0.1-0.1c0,0,0-0.1-0.1-0.1l0,0v-0.3l0.1-0.1c0,0,0-0.1-0.1-0.1V105h0.1l-0.1-0.1v-0.1v0.1c0,0-0.1,0-0.1,0.1h0.1v0.1
	l-0.1,0.1c0,0,0,0.1,0.1,0.1v0.3l0,0c0,0-0.1,0-0.1,0.1c0,0,0,0.1,0.1,0.1v0.3l0,0c0,0-0.1,0-0.1,0.1c0,0,0,0.1,0.1,0.1v0.4l0,0
	c-0.1,0-0.1,0-0.1,0.1s0,0.1,0.1,0.1l0,0v0.3c0,0,0-0.1-0.1-0.1l0,0c0,0,0,0-0.1,0.1c0,0.1,0,0.1,0,0.1v0.2l0,0l-0.2,1.3h-0.1
	c0,0,0,0.2,0.1,0.2c0.1,0.1,0.2,0.1,0.2,0.1v6.8l-0.3,0.3v0.1l-0.3,0.2v0.1h0.1l0.1,0.1v1.3h-1.6l-1.2,0.8v-4.9h0.1v-1.2h0.1v-0.3
	h0.6v-0.5h0.9v-0.5h0.2v-0.1h0.1v-0.1h0.2v-0.1h-2.1v-0.7h-0.1v-0.1h-0.2v-0.1l-0.2-0.1v-1h0.1l0.1-0.1v0h0.1l0,0h-2.6v-6.7
	c0.2,0,0.6,0.1,0.9,0.3c0.4,0.2,0.8,0.6,0.8,0.6s0.1-0.4,0.1-0.6c0-0.3,0-0.5,0-0.5s-0.5-0.5-0.8-0.6s-0.8-0.1-1-0.2V101
	c0,0,0-0.1-0.1-0.1c0,0-0.1,0-0.1,0.1v8h-4.3L382.6,0l-1.8,109h-3.3v-0.2l0,0v-0.1l0.2-0.1v-0.3h0.1v-0.1l-1.5-0.4v-0.3h-0.2v-0.1
	H376v-1.1h0.1V106h0.1v-0.2h0.1v-0.1H376v-0.2h-0.1v-0.1v-0.1c0,0,0.1-0.2,0.1-0.3c0-0.1,0-0.2,0-0.2s0.1-0.1,0.1-0.2
	s-0.1-0.1-0.1-0.2c0,0-0.1,0-0.1-0.1c0,0,0-0.1-0.1-0.1v0.1v0.1v0.1v0.1c0,0,0,0.1-0.1,0.2l-0.1,0.1v-0.2c0-0.1,0-0.1,0-0.2v-0.2
	c0,0,0,0,0.1-0.1c0-0.1,0.1-0.2,0-0.2c0-0.1-0.1-0.1-0.1-0.2s0-0.1,0-0.1l0,0c0,0,0,0,0-0.1v-0.1l0,0l0.1,0.1c0,0,0.1,0.1,0.2,0.2
	l0.1,0.1v0.1c0,0,0,0.1,0.1,0.1h0.1V104l0,0h0.1v-0.1h-0.1c0,0,0,0-0.1,0c0,0,0-0.1-0.1-0.1c0-0.1-0.1-0.1-0.1-0.1s-0.1,0-0.1-0.1
	c0,0,0-0.1,0-0.2s0-0.1-0.1-0.2c0-0.1-0.1-0.2-0.1-0.2v-0.1l-0.1-0.1c0,0,0,0-0.1,0v0.1l0,0l0,0c0,0,0,0,0-0.1v-0.1
	c0,0,0.1,0,0.1-0.1s0-0.2,0-0.2l-0.1-0.1h-0.1c0,0-0.1,0-0.1,0.1l-0.1,0.1v0.1v0.1c0,0,0.1,0,0.1,0.1v0.1c0,0-0.1,0-0.2,0.1
	c-0.1,0-0.1,0.1-0.1,0.2s0,0.1,0,0.2s0,0.2,0,0.3h0.1c0,0,0,0,0,0.1c0,0,0,0.1,0,0.2l-0.1,0.1v0.2v0.1c0,0,0,0.1,0,0.3
	c0,0.1,0,0.2,0,0.4c0,0.1,0,0.3,0,0.4s0,0.2,0,0.2l0.1,0.1v0.1h-0.1v0.2h-0.3v0.1h0.1v0.2h0.1l0,0h-4.4l-6.8-2V104h0.1v-0.3l0,0
	v-0.1h0.1l0,0h-0.2c0-0.1-0.1-0.2-0.1-0.2s0,0,0-0.1s-0.1,0-0.1,0s-0.1,0-0.2,0c0,0,0,0-0.1,0l0.5-2.5l0,0c0-0.1,0.1-0.1,0.1-0.2
	c0,0,0-0.1,0-0.2v-0.1l0.4-1.9l0,0l0,0l-0.4,1.9h-0.1v0.1c0,0,0,0.1,0,0.2l-0.1,0.2l-0.1,0.1c0,0-0.1,0-0.2,0s-0.2,0-0.2,0
	s0,0-0.1-0.1h-0.1c0,0,0-0.1,0-0.2l0.1-0.1v-0.1c0,0,0-0.1,0-0.2l-0.2-0.2c0,0-0.1,0.1-0.2,0.1c0,0,0,0.1-0.1,0.2c0,0,0,0.1,0,0.2
	s0.1,0.1,0.1,0.2v0.2h-0.1c0,0-0.2,0.1-0.3,0.1c-0.1,0.1-0.1,0.3-0.1,0.3c0,0.1,0,0.2,0,0.2s-0.1,0.1-0.1,0.2c-0.1,0.1,0,0.4,0,0.5
	c-0.1,0.1-0.1,0.2-0.1,0.2h-0.2v0.2l0,0c0,0,0,0.2,0.1,0.5c0,0.1,0.1,0.3,0.2,0.4h-0.1l0,0h0.1v0.1l0,0v0.3h0.1v0.4l-6.8,2H351l0,0
	h0.1v-0.2h0.1V106h-0.3v-0.2h-0.1c0-0.1,0-0.1,0-0.1s0-0.1,0.1-0.1c0,0,0-0.1,0-0.2s0-0.2,0-0.4c0-0.1,0-0.3,0-0.4s0-0.3,0-0.3v-0.1
	c0,0,0-0.1,0-0.2l-0.1-0.1c0,0,0-0.1,0-0.2v-0.1h0.1c0,0,0-0.1,0-0.3c0-0.1,0-0.2,0-0.2c0-0.1-0.1-0.1-0.1-0.2c-0.1,0-0.2,0-0.2-0.1
	v-0.1c0,0,0.1,0,0.1-0.1v-0.1v-0.1c0,0,0-0.1-0.1-0.1l-0.1-0.1h-0.1l-0.1,0.1v0.2c0,0.1,0,0.1,0.1,0.1c0,0,0,0,0,0.1v0.1l0,0l0,0
	c0,0,0,0,0-0.1c0,0,0,0-0.1,0s-0.1,0.1-0.1,0.1v0.1l-0.1,0.2c0,0.1,0,0.1-0.1,0.2c0,0.1,0,0.1,0,0.2s0,0-0.1,0.1l-0.1,0.1
	c0,0.1,0,0.1-0.1,0.1c0,0,0,0-0.1,0h-0.1c0,0-0.1,0,0,0.1h0.1l0,0v0.1h0.1l0.1-0.1v-0.1c0,0,0-0.1,0.1-0.1c0,0,0.1-0.1,0.2-0.2
	l0.1-0.1l0,0c0,0,0,0,0,0.1v0.1l0,0v0.1c0,0.1-0.1,0.1-0.1,0.2s0,0.1,0,0.2s0.1,0.1,0.1,0.1s0,0.1,0,0.2c0,0,0,0.1,0,0.2v0.2
	c0,0-0.1,0-0.1-0.1c0,0-0.1-0.1-0.1-0.2v-0.1v-0.1v-0.1v-0.1c0,0-0.1,0-0.1,0.1c0,0-0.1,0-0.1,0.1c0,0-0.1,0.1-0.1,0.2
	s0,0.2,0.1,0.2c0,0,0,0.1,0,0.2s0.1,0.2,0.1,0.3v0.1v0.1h-0.1v0.2h-0.3v0.1h0.1v0.2h0.1v0.2h0.1v1.1h-0.1v0.1h-0.2v0.3L348,108v0.1
	h0.1v0.3l0.2,0.1v0.1l0,0v0.2h-11.2v-6.6c0.1,0.1,0.4,0.4,0.7,0.5c0.4,0.2,1,0.4,1,0.4s0.1-0.4,0.1-0.6c0-0.3,0-0.7,0-0.7
	s-0.8-0.2-1.1-0.4c-0.2-0.1-0.6-0.3-0.7-0.3V101c0,0,0-0.1-0.1-0.1c0,0-0.1,0-0.1,0.1v8h-2.6v0.1h0.1v0.1l0.1,0.1h0.1v1l-0.2,0.1
	v0.1h-0.2v0.1h-0.1v0.7H332v0.1h0.2v0.1h0.1v0.1h0.2v0.5h0.9v0.5h0.6v0.3h0.1v1.2h0.1v3.8h-0.4v0.1h-0.1v1.5l-2.3-2l-2.4,2V116h0.1
	v-1.4h0.1v-0.1h0.1v-0.2h0.6V114h0.8v-0.2c0,0,0,0,0.1,0s0.1-0.1,0.1-0.1h0.3v-0.2h-2.1v-0.8H329v-1l0.2-0.1v-0.2h-5.8v-0.3h-0.2
	c0-0.1,0.1-0.2,0.1-0.3c0-0.2,0-0.5,0-0.5s0.1-0.2,0-0.5s-0.2-0.5-0.4-0.6c-0.2-0.1-0.4-0.2-0.5-0.2s-0.2,0.1-0.2,0.1s-0.3,0-0.4,0
	s-0.3,0.1-0.3,0.1c0,0.1,0,0.2,0,0.2c0,0.1,0.2,0.1,0.2,0.1s0,0.1-0.1,0.1s-0.2,0-0.2,0s0-0.3,0-0.4s-0.1-0.1-0.1-0.1s0-0.4-0.1-0.6
	s-0.5-0.5-0.5-0.5v-0.3c0,0,0.3-0.1,0.3-0.4s-0.3-0.2-0.3-0.1c-0.1,0-0.2,0-0.2,0V107c0-0.1,0-0.1,0-0.1s0.1,0,0.1-0.2
	c0-0.1-0.1-0.2-0.2-0.2s-0.2,0.1-0.2,0.2s0.1,0.2,0.1,0.2v0.1c0,0.1,0,0.2,0,0.2s-0.1,0-0.2,0c0-0.1-0.3-0.2-0.3,0.1
	s0.3,0.4,0.3,0.4v0.3c0,0-0.4,0.3-0.5,0.5s-0.1,0.6-0.1,0.6s-0.1,0-0.1,0.1s0,0.4,0,0.4s-0.1,0-0.2,0s-0.1-0.1-0.1-0.1l0.2-0.1
	c0-0.1,0-0.2,0-0.2c0-0.1-0.1-0.1-0.3-0.1c-0.1,0-0.4,0-0.4,0s-0.1-0.1-0.2-0.1s-0.3,0.1-0.5,0.2s-0.4,0.4-0.4,0.6
	c-0.1,0.3,0,0.5,0,0.5s0,0.3,0,0.5c0,0.1,0.1,0.2,0.1,0.3h-0.2v0.3h-3.9v-0.3h0.1V111h0.1v-0.1l-0.7-0.1c0,0,0-0.8,0-0.9
	c0-0.2-0.1-0.4-0.2-0.4s-0.2,0.2-0.2,0.4c0,0.2,0,0.9,0,0.9l-0.7,0.1v0.1h0.1v0.1h0.1v0.3h-1.3v0.2h-9.1v-1.2h0.1v-0.5h0.2v-0.3h0.1
	v-0.1h-0.3V109H295v-0.3h-0.2v-0.1c0-0.1,0-0.1,0-0.1s0.1,0,0.1-0.1s0-0.3,0-0.3s0.1-0.1,0-0.2c-0.1,0-0.1,0-0.2,0s-0.1,0.1-0.1,0.1
	s0-0.1,0-0.3c0-0.1,0-0.2,0-0.2s0-0.1,0-0.2s0-0.3,0-0.3s0,0,0.1-0.2c0-0.1,0-0.4,0-0.4h0.1v-0.2c0,0-0.2-0.1-0.2-0.2
	s-0.1-0.1-0.1-0.1v-0.1c0,0,0.1-0.1,0.1-0.2s0-0.3-0.2-0.3s-0.2,0.1-0.2,0.2s0,0.2,0,0.2c0,0.1-0.1,0.1-0.1,0.1
	c-0.1,0.1-0.1,0.1-0.1,0.2s0,0.4,0,0.4s-0.1,0-0.1,0.1s0,0.2,0,0.3c0,0.1,0,0.2,0,0.2v0.1l-0.1,0.1c0,0.1,0,0.2,0,0.3
	c0,0.1,0.1,0.2,0.1,0.2v0.2c0,0-0.3,0.1-0.3,0.2s0.1,0.3,0.2,0.4h-0.3v-2.8h0.1v-0.3h0.1v-0.1h0.1V105l0.1-0.1v-0.1H293v-0.5h-0.3
	V100h0.1l0.1-0.1v-0.2h0.1v-0.5l-0.2-0.1V99h0.2v-0.2h0.3v-0.1l0.1-0.1v-0.1l-1.1-0.3v-1.1l0,0v-0.4h0.1v-0.4H292v-0.7
	c0,0-0.1-0.2-0.3-0.3c-0.1-1.2-0.4-2.7-1.6-3.8c-1.1-1.1-1.9-1.4-1.9-1.4v-0.3l-0.1-0.1v-0.3H288v-0.9h0.1v-0.2c0,0,0.1,0,0.1-0.2
	c0-0.1-0.1-0.1-0.2-0.2c0-0.1,0-0.3,0-0.4c0-0.2-0.2-0.5-0.2-0.5s0.1-0.1,0.2-0.2s0.1-0.1,0.1-0.2s-0.1-0.3-0.1-0.4
	s-0.1-0.2-0.1-0.2s0-0.2,0-0.4s0-0.3,0-0.4c0-0.2,0.1-0.1,0.2-0.2s0.1-0.1,0.1-0.1s0-0.1,0-0.2s-0.2-0.1-0.2-0.1s-0.1-0.1-0.1-0.2
	s-0.1-0.3-0.2-0.4c0-0.1-0.2-0.1-0.2-0.1l0.1-0.2c0-0.1,0.1-0.2,0-0.4c0-0.2-0.1-0.3-0.1-0.3c0-0.1-0.1-0.1-0.2-0.1
	s-0.1,0.1-0.1,0.2s-0.1,0.3-0.1,0.4s0.1,0.4,0.1,0.4s-0.2,0-0.3,0.1c-0.1,0-0.2,0.2-0.2,0.3c0,0.1,0,0.3,0,0.3s-0.1,0-0.2,0
	s-0.2,0-0.2,0.1v0.2c0.1,0,0.2,0,0.2,0v0.2c0,0-0.2,0-0.3,0.1c-0.1,0-0.1,0.1-0.1,0.2s0.1,0.1,0.1,0.1h0.1c0,0,0,0.1,0,0.3
	c0,0.1,0,0.2,0,0.2h-0.1c0,0-0.1,0.1,0,0.2v0.1c0,0,0,0.2,0,0.3c0,0.1-0.1,0.2-0.1,0.3s0,0.4,0,0.5s0.1,0.2,0.2,0.2s0.1,0.1,0.1,0.1
	s0,0.2,0,0.3c-0.2,0.1-0.4,0.1-0.4,0.2c0,0.2,0.1,0.2,0.1,0.2v0.2l0,0v0.9H286v0.3l-0.1,0.1v0.3c0,0-0.7,0.2-1.9,1.4
	c-1.1,1.1-1.4,2.6-1.6,3.8c-0.2,0-0.3,0.3-0.3,0.3v0.7h-0.4v0.4h0.1v0.4l0,0v1.1l-1.1,0.3v0.1l0.1,0.1v0.1h0.3v0.2h0.2V99l-0.2,0.1
	v0.5h0.1v0.2l0.1,0.1h0.1v4.4h-0.3v0.5h-0.4v0.1l0.1,0.1v0.3h0.1v0.1h0.1v0.3h0.1v2.8h-0.4c0,0,0-0.1,0-0.2s0.1-0.2,0.1-0.2
	c0-0.1,0-0.4,0-0.4s0.1-0.1,0.1-0.2s0-0.2,0-0.2s0,0,0.1-0.1c0-0.1,0-0.2,0-0.2s0.1,0,0.2-0.1c0-0.1-0.1-0.5-0.1-0.7
	s-0.2-0.5-0.2-0.6s-0.3-0.1-0.3-0.1v-0.1c0-0.1,0.1-0.2,0.1-0.3c0-0.1-0.1-0.2-0.2-0.2s-0.2,0.1-0.2,0.2s0,0.2,0.1,0.3v0.1
	c0,0-0.1,0-0.2,0.1s-0.1,0.4-0.2,0.5c0,0.1,0,0.3,0,0.4s0.1,0.3,0.1,0.3s-0.1,0.1-0.1,0.2c-0.1,0.1-0.1,0.2-0.1,0.3
	c0,0.2,0.1,0.4,0.1,0.5c0.1,0.1,0.1,0.3,0.1,0.3s0,0.1-0.1,0.2c0,0.1,0,0.2,0,0.2h0v0.3h-6.8v0.5h-0.3v0.1h0.1v0.3h0.2v0.5h0.1v1.2
	H264v-0.2h-1.3v-0.3h0.1v-0.1h0.1v-0.1l-0.7-0.1c0,0,0-0.8,0-0.9c0-0.2-0.1-0.4-0.2-0.4s-0.2,0.2-0.2,0.4c0,0.2,0,0.9,0,0.9
	l-0.7,0.1v0.1h0.1v0.1h0.1v0.3h-3.9v-0.3h-0.2c0-0.1,0.1-0.2,0.1-0.3c0-0.2,0-0.5,0-0.5s0.1-0.2,0-0.5s-0.2-0.5-0.4-0.6
	c-0.2-0.1-0.4-0.2-0.5-0.2s-0.2,0.1-0.2,0.1s-0.3,0-0.4,0c-0.1,0-0.3,0.1-0.3,0.1c0,0.1,0,0.2,0,0.2c0,0.1,0.2,0.1,0.2,0.1
	s0,0.1-0.1,0.1s-0.2,0-0.2,0s0-0.3,0-0.4s-0.1-0.1-0.1-0.1s0-0.4-0.1-0.6s-0.5-0.5-0.5-0.5v-0.3c0,0,0.3-0.1,0.3-0.4
	s-0.3-0.2-0.3-0.1c-0.1,0-0.2,0-0.2,0v-0.2c0-0.1,0-0.1,0-0.1s0.1,0,0.1-0.2c0-0.1-0.1-0.2-0.2-0.2c-0.1,0-0.2,0.1-0.2,0.2
	s0.1,0.2,0.1,0.2v0.1c0,0.1,0,0.2,0,0.2s-0.1,0-0.2,0c0-0.1-0.3-0.2-0.3,0.1s0.3,0.4,0.3,0.4v0.3c0,0-0.4,0.3-0.5,0.5
	s-0.1,0.6-0.1,0.6s-0.1,0-0.1,0.1s0,0.4,0,0.4s-0.1,0-0.2,0c-0.1,0-0.1-0.1-0.1-0.1l0.2-0.1c0-0.1,0-0.2,0-0.2
	c0-0.1-0.1-0.1-0.3-0.1c-0.1,0-0.4,0-0.4,0s-0.1-0.1-0.2-0.1c-0.1,0-0.3,0.1-0.5,0.2s-0.4,0.4-0.4,0.6c-0.1,0.3,0,0.5,0,0.5
	s0,0.3,0,0.5c0,0.1,0.1,0.2,0.1,0.3h-0.2v0.3h-5.8v0.2l0.2,0.1v1h-0.1v0.8h-2.1v0.2h0.3c0,0,0,0.1,0.1,0.1s0.1,0,0.1,0v0.2h0.8v0.3
	h0.6v0.2h0.1v0.1h0.1v1.4h0.1v4.6h-0.1v0.5h0.1v1.5l-1.6-1c0,0-0.1,0-0.2,0.1l0,0l-58.9-37.8c1.8-1.1,2.9-1.7,2.9-1.7l0.8-2.2
	c0,0-9.8,5.8-14.8,10.1c-0.7,0.6-1.4,1.2-2.1,1.8l-45,28.9c-0.1-0.1-0.2-0.1-0.2-0.1l-4.8,2.7v-6.8l0.1-0.1v-0.7l0.1-0.2v-0.1h-0.2
	v-2.5h0.1v-0.4h0.3v-0.2h0.4V112h0.2v-0.2l0.2-0.1v-0.1h-1.3v-0.7h-0.2v-1l0.2-0.1v-0.2h-0.3v-0.2h-0.9l0,0h-0.1c0,0,0-0.1,0-0.2
	s-0.1-0.2-0.1-0.3s0-0.2,0-0.2v-0.1v-0.1c0,0,0-0.1,0-0.2s0-0.1,0-0.1v-0.1l-0.1-0.1c0,0,0-0.1-0.1-0.2c0-0.1-0.1-0.1-0.1-0.2
	c-0.1,0-0.1,0-0.1,0l0,0v-0.1c0,0,0-0.1,0-0.2l-0.1-0.1c-0.1,0-0.1,0.1-0.1,0.2s0,0.1,0,0.2v0.1c0,0-0.2,0.1-0.3,0.1
	c-0.1,0.1-0.1,0.2-0.1,0.2s0,0,0-0.1c0,0-0.1,0-0.2,0.1c0,0,0,0.1,0,0.2c0.1,0,0.1,0,0.1,0s0,0.1,0,0.2s0,0.1,0,0.1h-0.4v0.6
	c0,0-0.2,0.2-0.3,0.3h-1.1v0.2h-8.9v-0.3h0.1v-0.2h0.1V109h-0.4l0,0c0-0.1,0-0.2,0-0.2v-0.1c0-0.1,0-0.2,0-0.2s0-0.1,0-0.2
	s0-0.2,0-0.2s0-0.2,0-0.3s0-0.2,0-0.2s0.1-0.1,0.1-0.2s0-0.1,0-0.2s0-0.2,0-0.3c0-0.1,0-0.1,0-0.1s0-0.1,0-0.2s-0.1-0.1-0.1-0.1
	c-0.1,0-0.2,0-0.2,0v-0.1v-0.1v-0.1v-0.1l-0.1-0.1l-0.1,0.1v0.1v0.1l0.1,0.1v0.1c0,0,0,0-0.1,0c0,0-0.1,0.1-0.2,0.1
	c-0.1,0.1-0.1,0.2-0.1,0.3c0,0.1-0.1,0.2-0.1,0.3c0,0.1,0,0.1,0,0.2h0.1c0,0,0,0.2-0.1,0.2c0,0.1,0,0.2,0,0.3c0,0.1,0,0.2,0,0.4
	c0,0.2,0.1,0.2,0.1,0.2v0.1l0.1,0.1c0,0,0,0.1,0,0.2s0,0.2,0,0.2h0.1h-0.4v-0.5v-0.1v-0.2h0.1v-0.1h-0.5v-0.9h-0.4V107h-0.1v-0.1
	l0,0v-4.2l0.1-0.1v-0.4c0,0,0.2-0.1,0.2-0.2s-0.1-0.2-0.1-0.2v-0.2l-0.1-0.1v-1.3h0.1v-1.1l0.1-0.1v-0.4h0.2v-0.5h-1.2v-0.7h-1.8
	c-1.1-2.2-4.2-3.9-7.8-3.9c-3.6,0-6.7,1.6-7.8,3.9h-1.8v0.7h-1.2v0.5h0.2V99l0.1,0.1v1.1h0.1v1.3c0,0-0.1,0-0.1,0.1v0.2
	c0,0-0.1,0.1-0.1,0.2s0.2,0.2,0.2,0.2v0.4l0.1,0.1v4.2l0,0v0.1h-0.1v0.3h-0.4v0.9H85v0.1h0.1v0.2v0.1v0.5h-0.4h0.1c0,0,0-0.1,0-0.2
	s0-0.2,0-0.2s0.1,0,0.1-0.1v-0.1c0,0,0.1,0,0.1-0.2s0-0.3,0-0.4s0-0.3,0-0.3c0-0.1-0.1-0.2-0.1-0.2H85c0,0,0-0.1,0-0.2
	s-0.1-0.2-0.1-0.3c0-0.1-0.1-0.2-0.1-0.3c-0.1-0.1-0.1-0.1-0.2-0.1h-0.1v-0.1c0,0,0-0.1,0.1-0.1v-0.1c0,0,0,0,0-0.1l-0.1-0.1
	c0,0-0.1,0-0.1,0.1v0.1v0.1v0.1v0.1c0,0-0.1,0-0.2,0s-0.1,0.1-0.1,0.1c0,0.1,0,0.2,0,0.2v0.1c0,0.1,0,0.2,0,0.3c0,0.1,0,0.2,0,0.2
	c0,0.1,0.1,0.2,0.1,0.2s0,0.1,0,0.2s0,0.3,0,0.3s0,0.1,0,0.2s0,0.2,0,0.2v0.2c0,0.1,0,0.1,0,0.1s0,0.1,0,0.2l0,0h-0.4v0.1h0.1v0.2
	H84v0.3h-8.9v-0.2H74c-0.1-0.1-0.3-0.3-0.3-0.3v-0.6H73v-0.1c0-0.1,0-0.2,0-0.2h0.1c0.1,0,0.1-0.1,0-0.2c0,0-0.1-0.1-0.2-0.1v0.1
	c0,0,0-0.1-0.1-0.2s-0.3-0.1-0.3-0.1v-0.1c0,0,0.1-0.1,0-0.2c0-0.1-0.1-0.2-0.1-0.2c-0.1,0-0.1,0.1-0.1,0.1v0.2v0.1l0,0h-0.1
	c-0.1,0-0.1,0.1-0.1,0.2S72,108,72,108s-0.1,0-0.1,0.1v0.1c0,0,0,0,0,0.1s0,0.2,0,0.2v0.1v0.1c0,0,0,0.1,0,0.2s-0.1,0.2-0.1,0.3
	c0,0.1,0,0.2,0,0.2h-0.1l0,0h-0.9v0.2h-0.3v0.2l0.2,0.1v1h-0.2v0.7h-1.3v0.1l0.2,0.1v0.2h0.2v0.2H70v0.2h0.3v0.4h0.1v2.5h-0.2v0.1
	l0.1,0.2v0.7l0.1,0.1v0.2l-1.6-0.8l-1.7,0.8v-2.3H67V107h-0.2v-7.4h-0.2V86.2l0.1-0.1V86h-0.2v-2.9h-0.4v0.5h-0.3v0.5h-0.3v0.5h-0.4
	v-0.5H65v-0.5h-0.3v-0.5h-0.4V86h-0.2v0.1l0.1,0.1v1.1H64v0.5h-0.3v0.5h-0.1l-3.2-26.1V62l0,0v-0.3l0,0v-0.3l0,0v-0.1l0,0v-1.1h0.4
	l0,0h0.3v-0.1h-0.3l0,0h-0.4v-0.4l0,0v-0.3h-0.1v0.3l0,0v0.4H60l0,0h-0.3v0.1H60l0,0h0.4v1.1l0,0v0.1l0,0v0.3l0,0V62l0,0v0.2
	l-3.2,26.1h-0.1v-0.5h-0.3v-0.5h-0.2v-1.1l0.1-0.1V86h-0.2v-2.9h-0.4v0.5h-0.3v0.5h-0.3v0.5h-0.4v-0.5H55v-0.5h-0.3v-0.5h-0.4V86
	h-0.2v0.1l0.1,0.1v13.4H54v6.6H42.4v-3.6H42v0.5h-0.3v0.5h-0.3v0.5H41v-0.5h-0.3v-0.5h-0.3v-0.5H40v3.6l0,0l-4.9-7.1v-0.4H35v-0.3
	h-0.1v-0.2l0,0v-0.5c0.2,0,0.3-0.2,0.3-0.3h0.1v-0.2h-0.1c0-0.2-0.2-0.3-0.3-0.3v-0.1h-0.2v0.1c-0.2,0-0.3,0.2-0.3,0.3h-0.1v0.2h0.1
	c0,0.2,0.2,0.3,0.3,0.3v0.5l0,0v0.2h-0.1v0.3h-0.1v0.4l-4.9,7.1h-0.2v-3.6H29v0.5h-0.3v0.5h-0.3v0.5H28v-0.5h-0.3v-0.5h-0.3v-0.5H27
	v3.6h-3l-0.4-1.8v-0.1l0,0l-0.1-0.1v-0.1l0,0l0,0c0,0,0.1,0,0.1-0.1s-0.1-0.1-0.1-0.1v-0.1c0,0,0,0,0-0.1c0,0,0,0-0.1,0h-0.1v0.1
	v0.1c0,0-0.1,0-0.1,0.1s0.1,0.1,0.1,0.1l0,0l0,0v0.1c0,0-0.1,0-0.1,0.1l0,0v0.1l-0.4,1.8h-2.9l-0.4-1.8v-0.1l0,0l-0.1-0.1v-0.1l0,0
	l0,0c0,0,0.1,0,0.1-0.1s-0.1-0.1-0.1-0.1v-0.1c0,0,0,0,0-0.1c0,0,0,0-0.1,0h-0.1v0.1v0.1c0,0-0.1,0-0.1,0.1s0.1,0.1,0.1,0.1l0,0l0,0
	v0.1c0,0-0.1,0-0.1,0.1l0,0v0.1l-0.4,1.8h-2.9l-0.4-1.8v-0.1l0,0l-0.1-0.1v-0.1l0,0l0,0c0,0,0.1,0,0.1-0.1s-0.1-0.1-0.1-0.1v-0.1
	c0,0,0,0,0-0.1c0,0,0,0-0.1,0h-0.1v0.1v0.1c0,0-0.1,0-0.1,0.1s0.1,0.1,0.1,0.1l0,0l0,0v0.1c0,0-0.1,0-0.1,0.1l0,0v0.1l-0.4,1.8h-0.3
	l-1.5-0.3v-0.4h-0.1V105h0.1v-0.2h-0.1v-0.2h-0.2v0.2h-0.1v0.2h0.1v0.6h-0.2v0.5l-0.4,1.6v-0.6H13v-0.2h0.1v-0.2l-0.2-0.2l-0.5-2
	v-0.1l0,0l-0.1-0.1v-0.1l0,0l0,0c0,0,0.1,0,0.1-0.1s-0.1-0.1-0.1-0.1v-0.1c0,0,0,0,0-0.1c0,0,0,0-0.1,0h-0.1v0.1v0.1
	c0,0-0.1,0-0.1,0.1s0.1,0.1,0.1,0.1l0,0l0,0v0.1c0,0-0.1,0-0.1,0.1l0,0v0.1l-0.5,2l-0.2,0.2v0.2h0.1v0.2h0.1v2.2h-0.1v0.3h0.1v0.8
	l-0.1,0.3v1.3h-0.1v0.3l0.1,0.1v0.8L5,115.7l0,0v-1.3l-0.1-0.1v-2.4H5v-0.2H4.9v-0.8H5v-0.2l0,0v-0.2l-0.3-1h0.1l-0.5-2.6v-0.1l0,0
	l-0.1-0.1v-0.1l0,0l0,0c0,0,0.1,0,0.1-0.1s-0.1-0.1-0.1-0.1v-0.1c0,0,0,0,0-0.1c0,0,0,0-0.1,0H4v0.1v0.1c0,0-0.1,0-0.1,0.1
	s0.1,0.1,0.1,0.1l0,0l0,0v0.1c0,0-0.1,0-0.1,0.1l0,0v0.1l-0.5,2.6h0.1l-0.3,1v0.2h0.1v0.2h0.1v0.8h0v0.2h0.1v2.4l-0.1,0.1v1.3H3.3
	v0.3l0.1,0.1v0.1H2.8l-0.5,1.3h0.1v6l-0.5,1.2l0.1,0.2v3.8H0v11.1h573.4v-11.1L570.9,128.6L570.9,128.6z M563.2,83.8L563.2,83.8V84
	l0,0V83.8z M563.2,84L563.2,84L563.2,84L563.2,84L563.2,84z M562.8,84.1L562.8,84.1v-0.2l0,0V84.1z M562.8,83.9L562.8,83.9
	L562.8,83.9L562.8,83.9L562.8,83.9z M11.4,128.6h-6v-4.8H5.2c0,0,0.4-2.5,2.9-3.8c1.5-0.8,2.7-1,3.3-0.9
	C11.4,119.1,11.4,128.6,11.4,128.6z M34.8,97c0.1,0,0.2,0.1,0.2,0.2h-0.2V97z M34.6,97.6c-0.1,0-0.2-0.1-0.2-0.2h0.2V97.6z
	 M34.6,97.2h-0.2c0-0.1,0.1-0.2,0.2-0.2V97.2z M34.8,97.3H35c0,0.1-0.1,0.2-0.2,0.2V97.3z M75.3,110.9
	C75.3,110.9,75.2,110.9,75.3,110.9L75.3,110.9L75,111v-0.1l0,0h-0.1l0,0v-0.1c0-0.1,0-0.1,0-0.1v-0.4c0,0,0,0,0-0.1v-0.1l0,0l0,0
	h0.2l0,0l0,0c0,0,0,0,0,0.1v0.1v0.4c0,0,0,0,0,0.1C75.3,110.7,75.3,110.8,75.3,110.9L75.3,110.9L75.3,110.9z M75.7,110.9L75.7,110.9
	L75.7,110.9l-0.3,0.1v-0.1l0,0h-0.1l0,0v-0.1c0-0.1,0-0.1,0-0.1v-0.4c0,0,0,0,0-0.1v-0.1l0,0l0,0h0.2l0,0l0,0c0,0,0,0,0,0.1v0.1v0.4
	c0,0,0,0,0,0.1C75.8,110.7,75.8,110.8,75.7,110.9L75.7,110.9C75.8,110.9,75.8,110.9,75.7,110.9z M76.2,110.9L76.2,110.9L76.2,110.9
	L76,111v-0.1l0,0h-0.1l0,0v-0.1c0-0.1,0-0.1,0-0.1v-0.4c0,0,0,0,0-0.1v-0.1l0,0l0,0h0.2l0,0l0,0c0,0,0,0,0,0.1v0.1v0.4
	C76.1,110.7,76.1,110.7,76.2,110.9C76.2,110.7,76.3,110.8,76.2,110.9L76.2,110.9C76.3,110.9,76.2,110.9,76.2,110.9z M76.7,110.9
	L76.7,110.9L76.7,110.9l-0.3,0.1v-0.1l0,0h-0.1l0,0v-0.1c0-0.1,0-0.1,0-0.1v-0.4c0,0,0,0,0-0.1v-0.1l0,0l0,0h0.2l0,0l0,0
	c0,0,0,0,0,0.1v0.1v0.4c0,0,0,0,0,0.1C76.7,110.7,76.8,110.8,76.7,110.9L76.7,110.9C76.8,110.9,76.7,110.9,76.7,110.9z M77.2,110.9
	L77.2,110.9L77.2,110.9L77,111v-0.1l0,0h-0.1l0,0v-0.1c0-0.1,0-0.1,0-0.1v-0.4c0,0,0,0,0-0.1v-0.1l0,0l0,0h0.2l0,0l0,0
	c0,0,0,0,0,0.1v0.1v0.4C77.1,110.7,77.1,110.7,77.2,110.9C77.2,110.7,77.3,110.8,77.2,110.9L77.2,110.9
	C77.3,110.9,77.2,110.9,77.2,110.9z M77.7,110.9L77.7,110.9L77.7,110.9l-0.3,0.1v-0.1l0,0h-0.1l0,0v-0.1c0-0.1,0-0.1,0-0.1v-0.4
	c0,0,0,0,0-0.1v-0.1l0,0l0,0h0.2l0,0l0,0c0,0,0,0,0,0.1v0.1v0.4c0,0,0,0,0,0.1C77.7,110.7,77.7,110.8,77.7,110.9L77.7,110.9
	L77.7,110.9z M78.2,110.9C78.2,110.9,78.1,110.9,78.2,110.9L78.2,110.9l-0.3,0.1v-0.1l0,0h-0.1l0,0v-0.1c0-0.1,0-0.1,0-0.1v-0.4
	c0,0,0,0,0-0.1v-0.1l0,0l0,0H78l0,0l0,0c0,0,0,0,0,0.1v0.1v0.4c0,0,0,0,0,0.1C78.2,110.7,78.2,110.8,78.2,110.9L78.2,110.9
	L78.2,110.9z M78.7,110.9C78.6,110.9,78.6,110.9,78.7,110.9L78.7,110.9l-0.3,0.1v-0.1l0,0h-0.1l0,0v-0.1c0-0.1,0-0.1,0-0.1v-0.4
	c0,0,0,0,0-0.1v-0.1l0,0l0,0h0.2l0,0l0,0c0,0,0,0,0,0.1v0.1v0.4c0,0,0,0,0,0.1C78.7,110.7,78.7,110.8,78.7,110.9L78.7,110.9
	L78.7,110.9z M79.1,110.9L79.1,110.9L79.1,110.9l-0.3,0.1v-0.1l0,0h-0.1l0,0v-0.1c0-0.1,0-0.1,0-0.1v-0.4c0,0,0,0,0-0.1v-0.1l0,0
	l0,0h0.2l0,0l0,0c0,0,0,0,0,0.1v0.1v0.4c0,0,0,0,0,0.1C79.2,110.7,79.2,110.8,79.1,110.9L79.1,110.9
	C79.2,110.9,79.2,110.9,79.1,110.9z M79.6,110.9L79.6,110.9L79.6,110.9l-0.3,0.1v-0.1l0,0h-0.1l0,0v-0.1c0-0.1,0-0.1,0-0.1v-0.4
	c0,0,0,0,0-0.1v-0.1l0,0l0,0h0.2l0,0l0,0c0,0,0,0,0,0.1v0.1v0.4c0,0,0,0,0,0.1C79.6,110.7,79.7,110.8,79.6,110.9L79.6,110.9
	C79.7,110.9,79.6,110.9,79.6,110.9z M80.1,110.9L80.1,110.9L80.1,110.9l-0.3,0.1v-0.1l0,0h-0.1l0,0v-0.1c0-0.1,0-0.1,0-0.1v-0.4
	c0,0,0,0,0-0.1v-0.1l0,0l0,0h0.2l0,0l0,0c0,0,0,0,0,0.1v0.1v0.4c0,0,0,0,0,0.1C80.1,110.7,80.2,110.8,80.1,110.9L80.1,110.9
	C80.2,110.9,80.1,110.9,80.1,110.9z M80.6,110.9L80.6,110.9L80.6,110.9l-0.3,0.1v-0.1l0,0h-0.1l0,0v-0.1c0-0.1,0-0.1,0-0.1v-0.4
	c0,0,0,0,0-0.1v-0.1l0,0l0,0h0.2l0,0l0,0c0,0,0,0,0,0.1v0.1v0.4c0,0,0,0,0,0.1C80.6,110.7,80.7,110.8,80.6,110.9L80.6,110.9
	C80.7,110.9,80.6,110.9,80.6,110.9z M81.1,110.9L81.1,110.9L81.1,110.9l-0.3,0.1v-0.1l0,0h-0.1l0,0v-0.1c0-0.1,0-0.1,0-0.1v-0.4
	c0,0,0,0,0-0.1v-0.1l0,0l0,0h0.2l0,0l0,0c0,0,0,0,0,0.1v0.1v0.4c0,0,0,0,0,0.1C81.1,110.7,81.1,110.8,81.1,110.9L81.1,110.9
	L81.1,110.9z M81.6,110.9C81.6,110.9,81.5,110.9,81.6,110.9L81.6,110.9l-0.3,0.1v-0.1l0,0h-0.1l0,0v-0.1c0-0.1,0-0.1,0-0.1v-0.4
	c0,0,0,0,0-0.1v-0.1l0,0l0,0h0.2l0,0l0,0c0,0,0,0,0,0.1v0.1v0.4c0,0,0,0,0,0.1C81.6,110.7,81.6,110.8,81.6,110.9L81.6,110.9
	L81.6,110.9z M82.1,110.9C82,110.9,82,110.9,82.1,110.9L82.1,110.9l-0.3,0.1v-0.1l0,0h-0.1l0,0v-0.1c0-0.1,0-0.1,0-0.1v-0.4
	c0,0,0,0,0-0.1v-0.1l0,0l0,0H82l0,0l0,0c0,0,0,0,0,0.1v0.1v0.4C82,110.7,82,110.7,82.1,110.9C82.1,110.7,82.1,110.8,82.1,110.9
	L82.1,110.9L82.1,110.9z M82.5,110.9L82.5,110.9L82.5,110.9l-0.3,0.1v-0.1l0,0h-0.1l0,0v-0.1c0-0.1,0-0.1,0-0.1v-0.4c0,0,0,0,0-0.1
	v-0.1l0,0l0,0h0.2l0,0l0,0c0,0,0,0,0,0.1v0.1v0.4c0,0,0,0,0,0.1C82.5,110.7,82.6,110.8,82.5,110.9L82.5,110.9
	C82.6,110.9,82.5,110.9,82.5,110.9z M83,110.9L83,110.9L83,110.9l-0.3,0.1v-0.1l0,0h-0.1l0,0v-0.1c0-0.1,0-0.1,0-0.1v-0.4
	c0,0,0,0,0-0.1v-0.1l0,0l0,0H83l0,0l0,0c0,0,0,0,0,0.1v0.1v0.4C83,110.7,83,110.7,83,110.9C83,110.7,83.1,110.8,83,110.9L83,110.9
	C83.1,110.9,83,110.9,83,110.9z M109.3,110.9L109.3,110.9L109.3,110.9L109,111v-0.1l0,0h-0.1l0,0v-0.1c0-0.1,0-0.1,0-0.1v-0.4
	c0,0,0,0,0-0.1v-0.1l0,0l0,0h0.2l0,0l0,0c0,0,0,0,0,0.1v0.1v0.4c0,0,0,0,0,0.1C109.3,110.7,109.4,110.8,109.3,110.9L109.3,110.9
	C109.4,110.9,109.3,110.9,109.3,110.9z M109.8,110.9L109.8,110.9L109.8,110.9l-0.3,0.1v-0.1l0,0h-0.1l0,0v-0.1c0-0.1,0-0.1,0-0.1
	v-0.4c0,0,0,0,0-0.1v-0.1l0,0l0,0h0.2l0,0l0,0c0,0,0,0,0,0.1v0.1v0.4c0,0,0,0,0,0.1C109.8,110.7,109.9,110.8,109.8,110.9
	L109.8,110.9C109.9,110.9,109.8,110.9,109.8,110.9z M110.3,110.9L110.3,110.9L110.3,110.9L110,111v-0.1l0,0h-0.1l0,0v-0.1
	c0-0.1,0-0.1,0-0.1v-0.4c0,0,0,0,0-0.1v-0.1l0,0l0,0h0.2l0,0l0,0c0,0,0,0,0,0.1v0.1v0.4c0,0,0,0,0,0.1
	C110.3,110.7,110.4,110.8,110.3,110.9L110.3,110.9C110.4,110.9,110.3,110.9,110.3,110.9z M110.8,110.9L110.8,110.9L110.8,110.9
	l-0.3,0.1v-0.1l0,0h-0.1l0,0v-0.1c0-0.1,0-0.1,0-0.1v-0.4c0,0,0,0,0-0.1v-0.1l0,0l0,0h0.2l0,0l0,0c0,0,0,0,0,0.1v0.1v0.4
	c0,0,0,0,0,0.1C110.8,110.7,110.8,110.8,110.8,110.9L110.8,110.9L110.8,110.9z M111.3,110.9C111.3,110.9,111.2,110.9,111.3,110.9
	L111.3,110.9L111,111v-0.1l0,0h-0.1l0,0v-0.1c0-0.1,0-0.1,0-0.1v-0.4c0,0,0,0,0-0.1v-0.1l0,0l0,0h0.2l0,0l0,0c0,0,0,0,0,0.1v0.1v0.4
	c0,0,0,0,0,0.1C111.3,110.7,111.3,110.8,111.3,110.9L111.3,110.9L111.3,110.9z M111.8,110.9C111.7,110.9,111.7,110.9,111.8,110.9
	L111.8,110.9l-0.3,0.1v-0.1l0,0h-0.1l0,0v-0.1c0-0.1,0-0.1,0-0.1v-0.4c0,0,0,0,0-0.1v-0.1l0,0l0,0h0.2l0,0l0,0c0,0,0,0,0,0.1v0.1
	v0.4c0,0,0,0,0,0.1C111.8,110.7,111.8,110.8,111.8,110.9L111.8,110.9L111.8,110.9z M112.2,110.9L112.2,110.9L112.2,110.9L112,111
	v-0.1l0,0h-0.1l0,0v-0.1c0-0.1,0-0.1,0-0.1v-0.4c0,0,0,0,0-0.1v-0.1l0,0l0,0h0.2l0,0l0,0c0,0,0,0,0,0.1v0.1v0.4
	C112.1,110.7,112.1,110.7,112.2,110.9C112.3,110.7,112.3,110.8,112.2,110.9L112.2,110.9C112.3,110.9,112.3,110.9,112.2,110.9z
	 M112.7,110.9L112.7,110.9L112.7,110.9l-0.3,0.1v-0.1l0,0h-0.1l0,0v-0.1c0-0.1,0-0.1,0-0.1v-0.4c0,0,0,0,0-0.1v-0.1l0,0l0,0h0.2l0,0
	l0,0c0,0,0,0,0,0.1v0.1v0.4c0,0,0,0,0,0.1C112.7,110.7,112.8,110.8,112.7,110.9L112.7,110.9C112.8,110.9,112.7,110.9,112.7,110.9z
	 M113.2,110.9L113.2,110.9L113.2,110.9L113,111v-0.1l0,0h-0.1l0,0v-0.1c0-0.1,0-0.1,0-0.1v-0.4c0,0,0,0,0-0.1v-0.1l0,0l0,0h0.2l0,0
	l0,0c0,0,0,0,0,0.1v0.1v0.4C113.1,110.7,113.1,110.7,113.2,110.9C113.2,110.7,113.3,110.8,113.2,110.9L113.2,110.9
	C113.3,110.9,113.2,110.9,113.2,110.9z M113.7,110.9L113.7,110.9L113.7,110.9l-0.3,0.1v-0.1l0,0h-0.1l0,0v-0.1c0-0.1,0-0.1,0-0.1
	v-0.4c0,0,0,0,0-0.1v-0.1l0,0l0,0h0.2l0,0l0,0c0,0,0,0,0,0.1v0.1v0.4c0,0,0,0,0,0.1C113.7,110.7,113.8,110.8,113.7,110.9
	L113.7,110.9C113.8,110.9,113.7,110.9,113.7,110.9z M114.2,110.9L114.2,110.9L114.2,110.9L114,111v-0.1l0,0h-0.1l0,0v-0.1
	c0-0.1,0-0.1,0-0.1v-0.4c0,0,0,0,0-0.1v-0.1l0,0l0,0h0.2l0,0l0,0c0,0,0,0,0,0.1v0.1v0.4C114.1,110.7,114.1,110.7,114.2,110.9
	C114.2,110.7,114.2,110.8,114.2,110.9L114.2,110.9L114.2,110.9z M114.7,110.9C114.7,110.9,114.6,110.9,114.7,110.9L114.7,110.9
	l-0.3,0.1v-0.1l0,0h-0.1l0,0v-0.1c0-0.1,0-0.1,0-0.1v-0.4c0,0,0,0,0-0.1v-0.1l0,0l0,0h0.2l0,0l0,0c0,0,0,0,0,0.1v0.1v0.4
	c0,0,0,0,0,0.1C114.7,110.7,114.7,110.8,114.7,110.9L114.7,110.9L114.7,110.9z M115.2,110.9C115.1,110.9,115.1,110.9,115.2,110.9
	C115.2,110.9,115.2,111,115.2,110.9l-0.3,0.1v-0.1l0,0h-0.1l0,0v-0.1c0-0.1,0-0.1,0-0.1v-0.4c0,0,0,0,0-0.1v-0.1l0,0l0,0h0.2l0,0
	l0,0c0,0,0,0,0,0.1v0.1v0.4c0,0,0,0,0,0.1C115.2,110.7,115.2,110.8,115.2,110.9L115.2,110.9L115.2,110.9z M115.6,110.9L115.6,110.9
	L115.6,110.9l-0.3,0.1v-0.1l0,0h-0.1l0,0v-0.1c0-0.1,0-0.1,0-0.1v-0.4c0,0,0,0,0-0.1v-0.1l0,0l0,0h0.2l0,0l0,0c0,0,0,0,0,0.1v0.1
	v0.4c0,0,0,0,0,0.1C115.6,110.7,115.7,110.8,115.6,110.9L115.6,110.9C115.7,110.9,115.7,110.9,115.6,110.9z M116.1,110.9
	L116.1,110.9L116.1,110.9l-0.3,0.1v-0.1l0,0h-0.1l0,0v-0.1c0-0.1,0-0.1,0-0.1v-0.4c0,0,0,0,0-0.1v-0.1l0,0l0,0h0.2l0,0l0,0
	c0,0,0,0,0,0.1v0.1v0.4c0,0,0,0,0,0.1C116.1,110.7,116.2,110.8,116.1,110.9L116.1,110.9C116.2,110.9,116.1,110.9,116.1,110.9z
	 M116.6,110.9L116.6,110.9L116.6,110.9l-0.3,0.1v-0.1l0,0h-0.1l0,0v-0.1c0-0.1,0-0.1,0-0.1v-0.4c0,0,0,0,0-0.1v-0.1l0,0l0,0h0.2l0,0
	l0,0c0,0,0,0,0,0.1v0.1v0.4c0,0,0,0,0,0.1C116.6,110.7,116.7,110.8,116.6,110.9L116.6,110.9C116.7,110.9,116.6,110.9,116.6,110.9z
	 M117.1,110.9L117.1,110.9L117.1,110.9l-0.3,0.1v-0.1l0,0h-0.1l0,0v-0.1c0-0.1,0-0.1,0-0.1v-0.4c0,0,0,0,0-0.1v-0.1l0,0l0,0h0.2l0,0
	l0,0c0,0,0,0,0,0.1v0.1v0.4c0,0,0,0,0,0.1C117.1,110.7,117.1,110.8,117.1,110.9L117.1,110.9C117.2,110.9,117.1,110.9,117.1,110.9z
	 M184.8,83.9l59,37.9c0,0.1,0,0.2,0,0.2l0.3,0.2l0.2,0.9v0.5c-0.3,0-0.5,0-0.8,0l-3.3-2.1c0,0-0.1,0-0.2,0.1l0,0L183,85
	C183.6,84.6,184.2,84.2,184.8,83.9z M182.9,85.1l57,36.6c0,0.1,0,0.2,0,0.2l0.3,0.2l0.2,0.9v0.5c-0.3,0-0.5,0-0.8,0l-3.3-2.1
	c0,0-0.1,0-0.2,0.1l0,0l-54.9-35.2C181.8,85.8,182.4,85.4,182.9,85.1z M181.1,86.3l54.9,35.3c0,0.1,0,0.2,0,0.2l0.3,0.2l0.2,0.9v0.5
	c-0.3,0-0.5,0-0.8,0l-3.3-2.1c0,0-0.1,0-0.2,0.1l0,0l-52.8-33.9C180,87.1,180.6,86.7,181.1,86.3z M179.3,87.5l52.8,33.9
	c0,0.1,0,0.2,0,0.2l0.3,0.2l0.2,0.9v0.5c-0.2,0-0.5,0-0.8,0l-3.3-2.1c0,0-0.1,0-0.2,0.1l0,0l-50.7-32.6
	C178.2,88.3,178.8,87.9,179.3,87.5z M177.6,88.8l50.7,32.6c0,0.1,0,0.2,0,0.2l0.3,0.2l0.2,0.9v0.5c-0.2,0-0.5,0-0.7,0l-3.3-2.1
	c0,0-0.1,0-0.2,0.1l0,0L176,90C176.5,89.6,177.1,89.2,177.6,88.8z M175.9,90.1l48.6,31.2c0,0.1,0,0.2,0,0.2l0.3,0.2l0.2,0.9v0.5
	c-0.2,0-0.5,0-0.7,0l0,0L221,121c0,0-0.1,0-0.2,0.1l0,0l-46.4-29.8C174.9,90.9,175.4,90.5,175.9,90.1z M174.3,91.4l46.4,29.8
	c0,0.1,0,0.2,0,0.2l0.3,0.2l0.2,0.9v0.5c-0.2,0-0.5,0-0.7,0l-3.3-2.1c0,0-0.1,0-0.2,0.1l0,0l-44.2-28.4
	C173.3,92.3,173.8,91.9,174.3,91.4z M172.7,92.8l44.2,28.4c0,0.1,0,0.2,0,0.2l0.3,0.2l0.2,0.9v0.5c-0.2,0-0.5,0-0.7,0l-3.3-2.1
	c0,0-0.1,0-0.2,0.1l0,0l-41.9-26.9C171.7,93.7,172.2,93.2,172.7,92.8z M213.1,121.1c0,0.1,0,0.2,0,0.2l0.3,0.2l0.2,0.9v0.5
	c-0.2,0-0.5,0-0.7,0l-3.3-2.1c0,0-0.1,0-0.2,0.1l0,0l-39.6-25.4c0.5-0.5,0.9-0.9,1.4-1.4L213.1,121.1z M172.1,121.3l0.2,0.9v0.6
	c-0.2,0-0.4,0-0.5,0l0,0l-3.3-2.1c0,0-0.1,0-0.2,0.1l0,0L156,113c0.3-0.5,0.6-1,1-1.6l14.8,9.5c0,0.1,0,0.2,0,0.2L172.1,121.3z
	 M172,120.6c0,0-0.1,0-0.2,0.1l0,0l-14.8-9.5c0.3-0.5,0.7-1,1-1.6l17.4,11.2c0,0.1,0,0.2,0,0.2l0.3,0.2l0.2,0.9v0.6
	c-0.2,0-0.4,0-0.6,0l0,0L172,120.6z M175.8,120.6c0,0-0.1,0-0.2,0.1l0,0l-17.4-11.2c0.3-0.5,0.7-1,1.1-1.6l20,12.8
	c0,0.1,0,0.2,0,0.2l0.3,0.2l0.2,0.9v0.6c-0.2,0-0.4,0-0.6,0l0,0L175.8,120.6z M179.5,120.6c0,0-0.1,0-0.2,0.1l0,0l-19.9-12.8
	c0.4-0.5,0.7-1,1.1-1.6l22.5,14.4c0,0.1,0,0.2,0,0.2l0.3,0.2l0.2,0.9v0.6c-0.2,0-0.4,0-0.6,0l0,0L179.5,120.6z M183.2,120.6
	c0,0-0.1,0-0.2,0.1l0,0l-22.5-14.4c0.4-0.5,0.8-1,1.2-1.5l25,16c0,0.1,0,0.2,0,0.2l0.3,0.2l0.2,0.9v0.6c-0.2,0-0.4,0-0.6,0l0,0
	L183.2,120.6z M186.9,120.6c0,0-0.1,0-0.2,0.1l0,0l-25-16c0.4-0.5,0.8-1,1.2-1.5l27.5,17.6c0,0.1,0,0.2,0,0.2l0.3,0.2l0.2,0.9v0.5
	c-0.2,0-0.4,0-0.7,0l0,0L186.9,120.6z M190.6,120.6c0,0-0.1,0-0.2,0.1l0,0L163,103.1c0.4-0.5,0.8-1,1.2-1.5l29.9,19.2
	c0,0.1,0,0.2,0,0.2l0.3,0.2l0.2,0.9v0.5c-0.2,0-0.4,0-0.7,0L190.6,120.6z M194.4,120.7c0,0-0.1,0-0.2,0.1l0,0l-29.9-19.2
	c0.4-0.5,0.8-1,1.3-1.5l32.4,20.8c0,0.1,0,0.2,0,0.2l0.3,0.2l0.2,0.9v0.5c-0.2,0-0.5,0-0.7,0l0,0L194.4,120.7z M198.2,120.7
	c0,0-0.1,0-0.2,0.1l0,0L165.6,100c0.4-0.5,0.9-1,1.3-1.5l36,23.1c0,0.1,0,0.2,0,0.2l0.3,0.2l0.1,0.6c-0.6,0-1.2,0-1.9,0L198.2,120.7
	z M203.2,121.5c0,0-0.1,0-0.2,0.1l0,0l-36-23.1c0.4-0.5,0.9-0.9,1.3-1.4l37.2,23.9c0,0.1,0,0.2,0,0.2l0.3,0.2l0.2,0.9v0.5
	c-0.2,0-0.5,0-0.7,0L203.2,121.5z M205.7,120.8c0,0-0.1,0-0.2,0.1l0,0L168.3,97c0.1-0.1,0.3-0.3,0.4-0.4c0.3-0.3,0.6-0.7,1-1
	l39.6,25.4c0,0.1,0,0.2,0,0.2l0.3,0.2l0.2,0.9v0.5c-0.2,0-0.5,0-0.7,0l0,0L205.7,120.8z M127,121.3c0,0,0-0.2-0.1-0.4l43.6-28
	c-0.6,0.6-1.2,1.1-1.9,1.7l-37.9,26.1c-0.1-0.1-0.2-0.2-0.2-0.2l-5.1,2.9c-0.2-0.2-0.4-0.5-0.4-0.7C125.1,122.3,127,121.3,127,121.3
	z M141.1,128.6h-19v-1.1H122v-0.2v-0.2V127v-0.2h-0.1v-0.2h-0.1v-1.8c3.8-0.1,10.7-0.3,19.3-0.4V128.6z M142.4,120.8
	c-3.4,1.3-9,1.7-9,1.7l-0.9,0.8c-1.1,0-2.1,0-3.1,0.1c-0.2-0.2-0.3-0.4-0.3-0.6c0-0.4,1.8-1.5,1.8-1.5s0-0.2,0-0.3l36.5-25.2
	c-2.7,2.7-5.4,5.5-7.7,8.4c-4.1,5-6.2,8.5-8.2,10.8C149.5,117.2,145.8,119.6,142.4,120.8z M164.8,121.3l0.2,0.9v0.6
	c-0.2,0-0.4,0-0.6,0l-3.3-2.1c0,0-0.1,0-0.2,0.1l0,0l-6.9-4.4c0.3-0.6,0.6-1.1,0.9-1.7l9.5,6.1c0,0.1,0,0.2,0,0.2L164.8,121.3z
	 M157.5,121.4l0.2,0.9v0.6c-0.2,0-0.4,0-0.6,0l-3.3-2.1c0,0-0.1,0-0.2,0.1l0,0l-1.4-0.9c0.2-0.5,0.5-1.1,0.9-1.7l4.2,2.7
	c0,0.1,0,0.2,0,0.2L157.5,121.4z M151.8,121.2c0.1-0.2,0.2-0.5,0.4-1l1.4,0.9c0,0.1,0,0.2,0,0.2l0.3,0.2l0.2,0.9v0.3
	c-0.6-0.1-1.2-0.2-1.4-0.2C152,122.2,151.5,122,151.8,121.2z M160.3,128.6h-7.6v-4.4c2.5,0,5-0.1,7.6-0.1V128.6z M161.3,122.8
	c-0.2,0-0.4,0-0.6,0l-3.3-2.1c0,0-0.1,0-0.2,0.1l0,0l-4.2-2.7c0.3-0.5,0.6-1.1,0.9-1.7l6.9,4.4c0,0.1,0,0.2,0,0.2l0.3,0.2l0.2,0.9
	L161.3,122.8L161.3,122.8z M166.4,128.6h-4.2v-4.5c1.4,0,2.8,0,4.2,0V128.6z M164.8,120.7c0,0-0.1,0-0.2,0.1l0,0l-9.5-6.1
	c0.2-0.4,0.4-0.8,0.7-1.1c0.1-0.2,0.2-0.3,0.3-0.5l12.2,7.8c0,0.1,0,0.2,0,0.2l0.3,0.2l0.2,0.9v0.6c-0.2,0-0.4,0-0.6,0L164.8,120.7z
	 M245.6,128h-0.1v0.6h-77.1V124c5.6-0.1,11.1-0.1,16.3-0.1c22.1,0,49.7,0.6,60.9,0.9V128z M362.2,101.7c0-0.1,0-0.2,0-0.2
	S362.3,101.6,362.2,101.7v0.2h-0.1C362.2,101.9,362.2,101.8,362.2,101.7z M362.3,103.1L362.3,103.1c0,0-0.1-0.2-0.2-0.4
	c-0.1-0.2-0.1-0.4-0.1-0.4s0.1,0.2,0.2,0.4C362.1,102.9,362.3,103,362.3,103.1L362.3,103.1z M363.2,102.8c0-0.1,0-0.2,0-0.3
	c0-0.1,0-0.2,0-0.2l0.1-0.2c0-0.1,0-0.1,0-0.2v-0.2c0-0.1,0-0.2,0-0.2s0,0,0.1,0c0,0,0.1,0,0-0.1c0,0,0-0.1,0-0.2s0-0.2,0-0.2h0.1
	c0,0,0-0.1,0.1-0.1L363.2,102.8L363.2,102.8z M403.6,101.4L403.6,101.4L403.6,101.4C403.6,101.3,403.6,101.3,403.6,101.4
	L403.6,101.4L403.6,101.4z M403.8,101.3L403.8,101.3l-0.1,0.1L403.8,101.3L403.8,101.3C403.8,101.2,403.8,101.2,403.8,101.3h-0.1
	c0,0-0.1,0-0.1-0.1s0-0.1,0.1-0.1l0,0l0,0l0,0c0,0,0-0.1,0.1-0.1c0,0,0.1,0,0.1,0.1l0,0l0,0l0,0c0,0,0.1,0,0.1,0.1
	S403.9,101.2,403.8,101.3L403.8,101.3C403.8,101.2,403.8,101.2,403.8,101.3L403.8,101.3z M404.2,101.4L404.2,101.4h0.2H404.2z
	 M404.8,101.3L404.8,101.3l-0.1,0.1L404.8,101.3L404.8,101.3C404.7,101.2,404.7,101.2,404.8,101.3h-0.1c0,0-0.1,0-0.1-0.1
	s0-0.1,0.1-0.1l0,0l0,0l0,0c0,0,0-0.1,0.1-0.1c0,0,0.1,0,0.1,0.1l0,0l0,0l0,0c0,0,0.1,0,0.1,0.1S404.9,101.2,404.8,101.3
	L404.8,101.3C404.8,101.2,404.8,101.2,404.8,101.3L404.8,101.3z M405.2,101.4L405.2,101.4h0.2H405.2z M405.8,101.3L405.8,101.3
	l-0.1,0.1L405.8,101.3C405.7,101.3,405.7,101.3,405.8,101.3C405.7,101.2,405.7,101.2,405.8,101.3h-0.1c0,0-0.1,0-0.1-0.1
	s0-0.1,0.1-0.1l0,0l0,0l0,0c0,0,0-0.1,0.1-0.1c0,0,0.1,0,0.1,0.1l0,0l0,0l0,0c0,0,0.1,0,0.1,0.1S405.9,101.2,405.8,101.3
	L405.8,101.3C405.8,101.2,405.8,101.2,405.8,101.3L405.8,101.3z M406.2,101.4L406.2,101.4h0.2H406.2z M406.9,101.4L406.9,101.4h0.2
	H406.9z M407.5,101.3L407.5,101.3l-0.1,0.1L407.5,101.3L407.5,101.3C407.5,101.2,407.5,101.2,407.5,101.3h-0.1c0,0-0.1,0-0.1-0.1
	s0-0.1,0.1-0.1l0,0l0,0l0,0c0,0,0-0.1,0.1-0.1c0,0,0.1,0,0.1,0.1l0,0l0,0l0,0c0,0,0.1,0,0.1,0.1S407.7,101.2,407.5,101.3
	L407.5,101.3C407.5,101.2,407.5,101.2,407.5,101.3L407.5,101.3z M407.9,101.4L407.9,101.4h0.2H407.9z M408.5,101.3L408.5,101.3
	l-0.1,0.1L408.5,101.3L408.5,101.3C408.5,101.2,408.4,101.2,408.5,101.3h-0.1c0,0-0.1,0-0.1-0.1s0-0.1,0.1-0.1l0,0l0,0l0,0
	c0,0,0-0.1,0.1-0.1c0,0,0.1,0,0.1,0.1l0,0l0,0l0,0c0,0,0.1,0,0.1,0.1S408.6,101.2,408.5,101.3L408.5,101.3
	C408.5,101.2,408.5,101.2,408.5,101.3L408.5,101.3z M408.9,101.4L408.9,101.4h0.2H408.9z M409.5,101.3L409.5,101.3l-0.1,0.1
	L409.5,101.3C409.4,101.3,409.4,101.3,409.5,101.3C409.4,101.2,409.4,101.2,409.5,101.3h-0.1c0,0-0.1,0-0.1-0.1s0-0.1,0.1-0.1l0,0
	l0,0l0,0c0,0,0-0.1,0.1-0.1c0,0,0.1,0,0.1,0.1l0,0l0,0l0,0c0,0,0.1,0,0.1,0.1S409.6,101.2,409.5,101.3L409.5,101.3
	C409.5,101.2,409.5,101.2,409.5,101.3L409.5,101.3z M409.9,101.4L409.9,101.4h0.2H409.9z M410.5,101.3L410.5,101.3l-0.1,0.1
	L410.5,101.3C410.4,101.3,410.4,101.3,410.5,101.3C410.4,101.2,410.4,101.2,410.5,101.3h-0.1c0,0-0.1,0-0.1-0.1s0-0.1,0.1-0.1l0,0
	l0,0l0,0c0,0,0-0.1,0.1-0.1c0,0,0.1,0,0.1,0.1l0,0l0,0l0,0c0,0,0.1,0,0.1,0.1S410.6,101.2,410.5,101.3L410.5,101.3
	C410.5,101.2,410.5,101.2,410.5,101.3L410.5,101.3z M410.8,101.4L410.8,101.4h0.2H410.8z M411.4,101.3L411.4,101.3l-0.1,0.1
	L411.4,101.3L411.4,101.3C411.4,101.2,411.4,101.2,411.4,101.3h-0.1c0,0-0.1,0-0.1-0.1s0-0.1,0.1-0.1l0,0l0,0l0,0c0,0,0-0.1,0.1-0.1
	s0.1,0,0.1,0.1l0,0l0,0l0,0c0,0,0.1,0,0.1,0.1S411.6,101.2,411.4,101.3L411.4,101.3C411.4,101.2,411.4,101.2,411.4,101.3
	L411.4,101.3z M411.8,101.4L411.8,101.4h0.2H411.8z M412.6,101.4L412.6,101.4h0.2H412.6z M413.2,101.3L413.2,101.3l-0.1,0.1
	L413.2,101.3L413.2,101.3C413.1,101.2,413.1,101.2,413.2,101.3h-0.1c0,0-0.1,0-0.1-0.1s0-0.1,0.1-0.1l0,0l0,0l0,0c0,0,0-0.1,0.1-0.1
	c0,0,0.1,0,0.1,0.1l0,0l0,0l0,0c0,0,0.1,0,0.1,0.1S413.3,101.2,413.2,101.3L413.2,101.3C413.2,101.2,413.2,101.2,413.2,101.3
	L413.2,101.3z M413.6,101.4L413.6,101.4h0.2H413.6z M414.2,101.3L414.2,101.3l-0.1,0.1L414.2,101.3
	C414.1,101.3,414.1,101.3,414.2,101.3C414.1,101.2,414.1,101.2,414.2,101.3h-0.1c0,0-0.1,0-0.1-0.1s0-0.1,0.1-0.1l0,0l0,0l0,0
	c0,0,0-0.1,0.1-0.1c0,0,0.1,0,0.1,0.1l0,0l0,0l0,0c0,0,0.1,0,0.1,0.1S414.3,101.2,414.2,101.3L414.2,101.3
	C414.2,101.2,414.2,101.2,414.2,101.3L414.2,101.3z M414.6,101.4L414.6,101.4h0.2H414.6z M415.2,101.3L415.2,101.3l-0.1,0.1
	L415.2,101.3C415.1,101.3,415.1,101.3,415.2,101.3C415.1,101.2,415.1,101.2,415.2,101.3h-0.1c0,0-0.1,0-0.1-0.1s0-0.1,0.1-0.1l0,0
	l0,0l0,0c0,0,0-0.1,0.1-0.1c0,0,0.1,0,0.1,0.1l0,0l0,0l0,0c0,0,0.1,0,0.1,0.1S415.3,101.2,415.2,101.3L415.2,101.3
	C415.2,101.2,415.2,101.2,415.2,101.3C415.1,101.3,415.1,101.3,415.2,101.3z M415.5,101.4L415.5,101.4h0.2H415.5z M416.1,101.3
	L416.1,101.3l-0.1,0.1L416.1,101.3L416.1,101.3C416.1,101.2,416.1,101.2,416.1,101.3H416c0,0-0.1,0-0.1-0.1s0-0.1,0.1-0.1l0,0l0,0
	l0,0c0,0,0-0.1,0.1-0.1c0,0,0.1,0,0.1,0.1l0,0l0,0l0,0c0,0,0.1,0,0.1,0.1S416.3,101.2,416.1,101.3L416.1,101.3
	C416.1,101.2,416.1,101.2,416.1,101.3L416.1,101.3z M416.5,101.4L416.5,101.4h0.2H416.5z M417.1,101.3L417.1,101.3l-0.1,0.1
	L417.1,101.3L417.1,101.3C417.1,101.2,417.1,101.2,417.1,101.3H417c0,0-0.1,0-0.1-0.1s0-0.1,0.1-0.1l0,0l0,0l0,0c0,0,0-0.1,0.1-0.1
	c0,0,0.1,0,0.1,0.1l0,0l0,0l0,0c0,0,0.1,0,0.1,0.1S417.2,101.2,417.1,101.3L417.1,101.3C417.1,101.2,417.1,101.2,417.1,101.3
	L417.1,101.3z M417.5,101.4L417.5,101.4h0.2H417.5z M418.3,101.4L418.3,101.4h0.2H418.3z M418.9,101.3L418.9,101.3l-0.1,0.1
	L418.9,101.3C418.8,101.3,418.8,101.3,418.9,101.3C418.8,101.2,418.8,101.2,418.9,101.3h-0.1c0,0-0.1,0-0.1-0.1s0-0.1,0.1-0.1l0,0
	l0,0l0,0c0,0,0-0.1,0.1-0.1s0.1,0,0.1,0.1l0,0l0,0l0,0c0,0,0.1,0,0.1,0.1S419,101.2,418.9,101.3L418.9,101.3
	C418.9,101.2,418.9,101.2,418.9,101.3L418.9,101.3z M419.2,101.4L419.2,101.4h0.2H419.2z M419.8,101.3L419.8,101.3l-0.1,0.1
	L419.8,101.3L419.8,101.3C419.8,101.2,419.8,101.2,419.8,101.3h-0.1c0,0-0.1,0-0.1-0.1s0-0.1,0.1-0.1l0,0l0,0l0,0c0,0,0-0.1,0.1-0.1
	c0,0,0.1,0,0.1,0.1l0,0l0,0l0,0c0,0,0.1,0,0.1,0.1S420,101.2,419.8,101.3L419.8,101.3C419.9,101.2,419.8,101.2,419.8,101.3
	L419.8,101.3z M420.2,101.4L420.2,101.4h0.2H420.2z M420.8,101.3L420.8,101.3l-0.1,0.1L420.8,101.3L420.8,101.3
	C420.8,101.2,420.8,101.2,420.8,101.3h-0.1c0,0-0.1,0-0.1-0.1s0-0.1,0.1-0.1l0,0l0,0l0,0c0,0,0-0.1,0.1-0.1c0,0,0.1,0,0.1,0.1l0,0
	l0,0l0,0c0,0,0.1,0,0.1,0.1S420.9,101.2,420.8,101.3L420.8,101.3C420.8,101.2,420.8,101.2,420.8,101.3L420.8,101.3z M421.2,101.4
	L421.2,101.4h0.2H421.2z M421.8,101.3L421.8,101.3l-0.1,0.1L421.8,101.3L421.8,101.3C421.7,101.2,421.7,101.2,421.8,101.3h-0.1
	c0,0-0.1,0-0.1-0.1s0-0.1,0.1-0.1l0,0l0,0l0,0c0,0,0-0.1,0.1-0.1s0.1,0,0.1,0.1l0,0l0,0l0,0c0,0,0.1,0,0.1,0.1
	S421.9,101.2,421.8,101.3L421.8,101.3C421.8,101.2,421.8,101.2,421.8,101.3L421.8,101.3z M422.2,101.4L422.2,101.4h0.2H422.2z
	 M422.8,101.3L422.8,101.3l-0.1,0.1L422.8,101.3C422.7,101.3,422.7,101.3,422.8,101.3C422.7,101.2,422.7,101.2,422.8,101.3h-0.1
	c0,0-0.1,0-0.1-0.1s0-0.1,0.1-0.1l0,0l0,0l0,0c0,0,0-0.1,0.1-0.1c0,0,0.1,0,0.1,0.1l0,0l0,0l0,0c0,0,0.1,0,0.1,0.1
	S422.9,101.2,422.8,101.3L422.8,101.3C422.8,101.2,422.8,101.2,422.8,101.3L422.8,101.3z M423.2,101.4L423.2,101.4h0.2H423.2z
	 M423.9,101.4L423.9,101.4h0.2H423.9z M424.5,101.3L424.5,101.3l-0.1,0.1L424.5,101.3L424.5,101.3
	C424.5,101.2,424.5,101.2,424.5,101.3h-0.1c0,0-0.1,0-0.1-0.1s0-0.1,0.1-0.1l0,0l0,0l0,0c0,0,0-0.1,0.1-0.1c0,0,0.1,0,0.1,0.1l0,0
	l0,0l0,0c0,0,0.1,0,0.1,0.1S424.7,101.2,424.5,101.3L424.5,101.3C424.5,101.2,424.5,101.2,424.5,101.3L424.5,101.3z M424.9,101.4
	L424.9,101.4h0.2H424.9z M425.5,101.3L425.5,101.3l-0.1,0.1L425.5,101.3L425.5,101.3C425.5,101.2,425.5,101.2,425.5,101.3h-0.1
	c0,0-0.1,0-0.1-0.1s0-0.1,0.1-0.1l0,0l0,0l0,0c0,0,0-0.1,0.1-0.1c0,0,0.1,0,0.1,0.1l0,0l0,0l0,0c0,0,0.1,0,0.1,0.1
	S425.6,101.2,425.5,101.3L425.5,101.3C425.5,101.2,425.5,101.2,425.5,101.3L425.5,101.3z M425.9,101.4L425.9,101.4h0.2H425.9z
	 M426.5,101.3L426.5,101.3l-0.1,0.1L426.5,101.3C426.4,101.3,426.4,101.3,426.5,101.3C426.4,101.2,426.4,101.2,426.5,101.3h-0.1
	c0,0-0.1,0-0.1-0.1s0-0.1,0.1-0.1l0,0l0,0l0,0c0,0,0-0.1,0.1-0.1c0,0,0.1,0,0.1,0.1l0,0l0,0l0,0c0,0,0.1,0,0.1,0.1
	S426.6,101.2,426.5,101.3L426.5,101.3C426.5,101.2,426.5,101.2,426.5,101.3L426.5,101.3z M426.9,101.4L426.9,101.4h0.2H426.9z
	 M427.5,101.3L427.5,101.3l-0.1,0.1L427.5,101.3C427.4,101.3,427.4,101.3,427.5,101.3C427.4,101.2,427.4,101.2,427.5,101.3h-0.1
	c0,0-0.1,0-0.1-0.1s0-0.1,0.1-0.1l0,0l0,0l0,0c0,0,0-0.1,0.1-0.1c0,0,0.1,0,0.1,0.1l0,0l0,0l0,0c0,0,0.1,0,0.1,0.1
	S427.6,101.2,427.5,101.3L427.5,101.3C427.5,101.2,427.5,101.2,427.5,101.3L427.5,101.3z M427.9,101.4L427.9,101.4h0.2H427.9z
	 M428.4,101.3L428.4,101.3l-0.1,0.1L428.4,101.3L428.4,101.3C428.4,101.2,428.4,101.2,428.4,101.3h-0.1c0,0-0.1,0-0.1-0.1
	s0-0.1,0.1-0.1l0,0l0,0l0,0c0,0,0-0.1,0.1-0.1c0,0,0.1,0,0.1,0.1l0,0l0,0l0,0c0,0,0.1,0,0.1,0.1S428.6,101.2,428.4,101.3
	L428.4,101.3C428.5,101.2,428.4,101.2,428.4,101.3L428.4,101.3z M428.8,101.4L428.8,101.4h0.2H428.8z M429.6,101.4L429.6,101.4h0.2
	H429.6z M430.2,101.3L430.2,101.3l-0.1,0.1L430.2,101.3L430.2,101.3C430.2,101.2,430.1,101.2,430.2,101.3h-0.1c0,0-0.1,0-0.1-0.1
	s0-0.1,0.1-0.1l0,0l0,0l0,0c0,0,0-0.1,0.1-0.1c0,0,0.1,0,0.1,0.1l0,0l0,0l0,0c0,0,0.1,0,0.1,0.1S430.3,101.2,430.2,101.3
	L430.2,101.3C430.2,101.2,430.2,101.2,430.2,101.3L430.2,101.3z M430.6,101.4L430.6,101.4h0.2H430.6z M431.2,101.3L431.2,101.3
	l-0.1,0.1L431.2,101.3C431.1,101.3,431.1,101.3,431.2,101.3C431.1,101.2,431.1,101.2,431.2,101.3h-0.1c0,0-0.1,0-0.1-0.1
	s0-0.1,0.1-0.1l0,0l0,0l0,0c0,0,0-0.1,0.1-0.1c0,0,0.1,0,0.1,0.1l0,0l0,0l0,0c0,0,0.1,0,0.1,0.1S431.3,101.2,431.2,101.3
	L431.2,101.3C431.2,101.2,431.2,101.2,431.2,101.3L431.2,101.3z M431.6,101.4L431.6,101.4h0.2H431.6z M433.3,100.3h-0.7v-0.9h0.3
	l0,0c0,0-0.1,0-0.1,0.1s0,0.2,0,0.2s0,0.1-0.1,0.1c0,0.1-0.1,0.1-0.1,0.1s0,0,0.1,0.1c0.1,0,0.1,0,0.1,0s0,0,0.1,0s0.1,0,0.1,0
	s0,0,0.1,0s0.1-0.1,0.1-0.1s0-0.1-0.1-0.1c0-0.1-0.1-0.1-0.1-0.1s0-0.1,0-0.2s-0.1-0.1-0.1-0.1l0,0h0.3v0.9H433.3z M433.3,99.3h-0.7
	v-0.8c0,0,0.1-0.1,0.2-0.2s0.2-0.1,0.2-0.1s0.1,0,0.2,0.1s0.2,0.2,0.2,0.2v0.8H433.3z M558.5,107.3
	C558.5,107.3,558.5,107.2,558.5,107.3c-0.2,0-0.2,0-0.2,0l0,0v-0.1v-0.1l0,0h0.1l0,0h0.1L558.5,107.3L558.5,107.3z M563.9,89.2
	C563.9,89.1,564,89.1,563.9,89.2l0.3-0.1l0.1,0.1c0.1,0.2,0.1,0.4,0.1,0.4h-0.1v0.1h0.1V91h-0.6v-1.3h0.1v-0.1h-0.1
	C563.9,89.6,563.8,89.4,563.9,89.2z M562.7,89.2c0.1-0.2,0.2-0.2,0.2-0.2l0,0h0.2l0,0c0,0,0.1,0,0.2,0.2c0.1,0.2,0.1,0.4,0.1,0.4
	h-0.1v0.1h0.1V91h-0.9v-1.3h0.1v-0.1h-0.1C562.5,89.6,562.5,89.4,562.7,89.2z M561.7,89.2C561.7,89.1,561.8,89.1,561.7,89.2l0.3-0.1
	l0.1,0.1c0.1,0.2,0.1,0.4,0.1,0.4h-0.1v0.1h0.1V91h-0.6v-1.3h0.1v-0.1h-0.1C561.6,89.6,561.6,89.4,561.7,89.2z M565.7,120.7v6.7
	l-0.2,0.2v1h-5.1v-1l-0.2-0.2v-6.7h0.1v-0.8h-0.1c0-1.5,1.3-2.7,2.8-2.7s2.8,1.2,2.8,2.7h-0.1V120.7L565.7,120.7z M567.7,107.2
	C567.7,107.2,567.7,107.3,567.7,107.2L567.7,107.2c-0.1,0.1-0.1,0.1-0.2,0.1h-0.1V107h0.1l0,0c0,0,0.1,0.1,0.1,0
	C567.7,107.1,567.8,107.1,567.7,107.2C567.8,107.1,567.8,107.1,567.7,107.2z"/>
</svg>
