<?xml version="1.0" encoding="utf-8"?>
<!-- Generator: Adobe Illustrator 22.1.0, SVG Export Plug-In . SVG Version: 6.00 Build 0)  -->
<svg version="1.1" id="ib-world-school-colour" xmlns="http://www.w3.org/2000/svg" xmlns:xlink="http://www.w3.org/1999/xlink"
	 x="0px" y="0px" viewBox="0 0 98.3 98.2" style="enable-background:new 0 0 98.3 98.2;" xml:space="preserve">
<style type="text/css">
	.st0{fill:#004B8D;}
	.st1{fill:#FFFFFF;}
	.st2{fill:url(#SVGID_1_);}
	.st3{fill:#607CB1;}
</style>
<title>ib-world-school-logo-1-colour</title>
<g id="text">
	<path class="st0" d="M87.9,73.5l-0.3-1.3l0.3-0.5l0.4,1.1L87.9,73.5z M84.5,71.6l1-1.7L83.9,69l-1.1,1.9l-0.5-0.3l1.5-2.5l4.3,2.6
		l-1.4,2.4l-0.5-0.3l1.1-1.8L86,70.2l-1,1.7L84.5,71.6z"/>
	<path class="st0" d="M79.3,74.9c0.1-0.4,0.3-0.9,0.6-1.2c0.8-1.1,2.2-1.3,3.3-0.6c0.1,0.1,0.2,0.1,0.3,0.2c1.1,0.8,1.4,2.4,0.6,3.5
		C84.1,77,84,77,84,77.1c-0.2,0.3-0.6,0.6-0.9,0.8l-0.3-0.5c0.3-0.2,0.6-0.4,0.8-0.7c0.7-0.8,0.6-2-0.2-2.7
		c-0.1-0.1-0.2-0.1-0.2-0.2c-0.7-0.7-1.9-0.7-2.6,0c-0.1,0.1-0.1,0.2-0.2,0.3c-0.2,0.3-0.4,0.6-0.5,1L79.3,74.9z"/>
	<path class="st0" d="M76.6,77.4c0.9-0.9,2.4-0.8,3.3,0.1c0.1,0.1,0.1,0.1,0.1,0.2c1,0.9,1.1,2.4,0.3,3.4c0,0.1-0.1,0.1-0.2,0.2
		c-0.9,0.9-2.4,0.9-3.3-0.1c-0.1-0.1-0.1-0.1-0.2-0.2c-1-0.8-1.2-2.3-0.4-3.4C76.4,77.5,76.5,77.4,76.6,77.4L76.6,77.4z M76.9,77.8
		c-0.8,0.7-0.5,1.8,0.3,2.7c0.6,0.8,1.7,1,2.5,0.4c0,0,0,0,0.1,0c0.8-0.8,0.5-1.9-0.3-2.7C78.9,77.3,77.8,77.2,76.9,77.8
		C76.9,77.8,76.9,77.8,76.9,77.8L76.9,77.8z"/>
	<path class="st0" d="M76.5,84.3L76,84.7L73.3,81l-1.8,1.3l-0.3-0.4l2.3-1.7L76.5,84.3z"/>
	<path class="st0" d="M68.7,86.1l1.7-1l-0.9-1.6l-1.9,1.1l-0.3-0.5l2.5-1.4l2.5,4.4l-2.4,1.4l-0.3-0.4l1.8-1l-0.8-1.4l-1.7,1
		L68.7,86.1z"/>
	<path class="st0" d="M65,90.7c-0.4,0.2-0.9,0.4-1.3,0.5c-0.7,0.3-1.5,0.3-2.2,0c-0.6-0.3-1.1-0.8-1.3-1.5c-0.3-0.7-0.2-1.4,0.1-2.1
		c0.4-0.7,1.1-1.2,1.9-1.4c0.4-0.1,0.8-0.2,1.2-0.3L65,90.7z M63,86.6c-0.2,0-0.4,0.1-0.6,0.2c-1.1,0.3-1.7,1.3-1.5,2.4
		c0,0.1,0.1,0.2,0.1,0.3c0.2,1,1.2,1.6,2.2,1.4c0.1,0,0.3-0.1,0.4-0.1c0.2-0.1,0.5-0.2,0.7-0.3L63,86.6z"/>
	<path class="st0" d="M57.9,92.8l-0.5-3c-0.2-1.1-0.8-1.5-1.4-1.4s-1.1,0.7-1,1.8l0.5,3l-0.7,0.1l-0.5-2.9c-0.3-1.5,0.4-2.3,1.5-2.5
		s1.9,0.3,2.2,1.8l0.5,3L57.9,92.8z"/>
	<path class="st0" d="M44.9,90.6c0,0.7,0,1.6,0,2.2l0,0c0.2-0.6,0.5-1.2,0.8-1.9l1-2.4h0.5l0.7,2.5c0.2,0.7,0.3,1.4,0.5,2l0,0
		c0-0.6,0.1-1.5,0.2-2.2l0.3-2.2h0.6l-0.7,5.1h-0.8l-0.7-2.5c-0.2-0.6-0.3-1.2-0.4-1.7l0,0c-0.2,0.5-0.4,1-0.7,1.7l-1,2.4h-0.8v-5.1
		H45L44.9,90.6z"/>
	<path class="st0" d="M40.4,87.5c1.2,0.3,2,1.5,1.7,2.8c0,0.1,0,0.1-0.1,0.2c-0.1,1.3-1.3,2.3-2.6,2.2c-0.1,0-0.2,0-0.3,0
		c-1.2-0.3-2-1.5-1.7-2.8c0-0.1,0-0.2,0.1-0.2c0.1-1.3,1.3-2.3,2.6-2.1C40.2,87.5,40.3,87.5,40.4,87.5L40.4,87.5z M40.3,88
		c-1-0.2-1.8,0.6-2,1.7c-0.4,0.9,0.1,2,1,2.4c0,0,0,0,0.1,0c1.1,0.2,1.8-0.6,2.1-1.7C41.8,89.4,41.3,88.4,40.3,88
		C40.3,88,40.3,88,40.3,88L40.3,88z"/>
	<path class="st0" d="M36.4,86.5l-1.9,4.7L33.8,91l-0.6-3c-0.1-0.6-0.2-1.2-0.2-1.9l0,0c-0.2,0.7-0.4,1.2-0.7,2l-0.8,2L31,89.9
		l1.8-4.8l0.6,0.2l0.6,3c0.1,0.6,0.2,1.3,0.2,1.9l0,0c0.2-0.6,0.4-1.2,0.7-2l0.8-2L36.4,86.5z"/>
	<path class="st0" d="M28.4,88.5c-0.4-0.2-0.9-0.4-1.3-0.6c-0.7-0.3-1.2-0.9-1.5-1.6c-0.2-0.7-0.1-1.4,0.3-1.9
		c0.3-0.6,0.9-1.1,1.6-1.3c0.8-0.1,1.6,0,2.3,0.5c0.3,0.2,0.7,0.4,1,0.7L28.4,88.5z M30.1,84.3c-0.2-0.1-0.4-0.3-0.6-0.4
		c-0.9-0.7-2.1-0.5-2.8,0.4c-0.1,0.1-0.1,0.2-0.2,0.3c-0.6,0.8-0.4,1.9,0.4,2.5c0.1,0.1,0.2,0.2,0.4,0.2c0.2,0.1,0.5,0.2,0.7,0.3
		L30.1,84.3z"/>
	<path class="st0" d="M22.3,81.3l1.5,1.2l1.1-1.4l-1.7-1.3l0.3-0.4l2.3,1.8l-3.1,4l-2.2-1.7l0.3-0.4l1.6,1.3l1-1.3L22,81.8
		L22.3,81.3z"/>
	<path class="st0" d="M18.8,77.1c0.3,0.3,0.3,0.8,0,1.1c-0.3,0.3-0.8,0.3-1.1,0c-0.3-0.3-0.3-0.8,0-1.1C18,76.8,18.5,76.8,18.8,77.1
		C18.8,77.1,18.8,77.1,18.8,77.1z"/>
	<path class="st0" d="M14.8,69.1c0.4,0.3,0.7,0.6,0.9,1c0.8,1.1,0.6,2.5-0.5,3.3c-0.1,0.1-0.2,0.1-0.3,0.2c-1.1,0.8-2.7,0.6-3.5-0.5
		c-0.1-0.1-0.1-0.2-0.2-0.2c-0.2-0.3-0.4-0.7-0.5-1.1l0.5-0.2c0,0.4,0.2,0.7,0.4,1c0.5,0.9,1.7,1.2,2.6,0.7c0.1-0.1,0.2-0.1,0.3-0.2
		c0.9-0.5,1.3-1.6,0.8-2.5c-0.1-0.1-0.1-0.2-0.2-0.4c-0.2-0.3-0.5-0.6-0.8-0.8L14.8,69.1z"/>
	<path class="st0" d="M13.4,65.7c0.5,1.2,0,2.5-1.1,3.1c-0.1,0-0.1,0.1-0.2,0.1c-1.1,0.7-2.6,0.3-3.3-0.8c0-0.1-0.1-0.1-0.1-0.2
		c-0.5-1.2,0-2.5,1.1-3.1c0.1,0,0.1-0.1,0.2-0.1c1.1-0.7,2.6-0.4,3.3,0.8C13.3,65.6,13.3,65.7,13.4,65.7z M12.9,65.9
		c-0.4-0.9-1.6-1.1-2.6-0.6c-1,0.3-1.5,1.3-1.2,2.3c0,0,0,0,0,0c0.5,1,1.6,1,2.6,0.6C12.7,68,13.2,67,12.9,65.9
		C12.9,66,12.9,66,12.9,65.9L12.9,65.9z"/>
	<path class="st0" d="M6.9,63.5l-0.2-0.6l4.3-1.4l-0.6-2.1l0.5-0.2l0.9,2.7L6.9,63.5z"/>
	<path class="st0" d="M7.6,55.5L8,57.4l1.8-0.3l-0.4-2.2l0.6-0.1l0.5,2.8l-5,1L5,55.9l0.5-0.1l0.4,2l1.6-0.3l-0.3-1.9L7.6,55.5z"/>
	<path class="st0" d="M9.3,49.1c0.2,0.5,0.3,1,0.4,1.5c0.1,0.7-0.1,1.4-0.6,1.9c-0.5,0.5-1.2,0.8-1.9,0.8c-1.4,0.1-2.6-0.9-2.8-2.3
		c0-0.1,0-0.2,0-0.3c0-0.4,0-0.9,0.2-1.3l0.5,0.1C5,50,5,50.4,5,50.8c0,1.1,0.8,1.9,1.9,2c0.1,0,0.2,0,0.3,0c1,0.1,1.9-0.7,2-1.7
		c0-0.1,0-0.2,0-0.3c0-0.3-0.1-0.6-0.2-0.9l-1.5,0.1l0.1,1H6.9l-0.1-1.7L9.3,49.1z"/>
	<path class="st0" d="M4.5,46.3l5.1,0.3v0.7l-5.1-0.3L4.5,46.3z"/>
	<path class="st0" d="M10.1,42.5c-0.2,1.3-1.4,2.1-2.7,1.9c-0.1,0-0.2,0-0.2-0.1c-1.3-0.1-2.3-1.2-2.3-2.5c0-0.1,0-0.2,0-0.2
		c0.2-1.3,1.4-2.1,2.6-1.9c0.1,0,0.2,0,0.3,0.1c1.3,0,2.3,1.1,2.3,2.5C10.2,42.3,10.2,42.4,10.1,42.5z M9.6,42.4
		c0.2-1-0.7-1.8-1.8-2c-1-0.3-2,0.3-2.3,1.2c0,0,0,0,0,0.1c-0.2,1.1,0.8,1.8,1.8,2C8.3,44,9.3,43.4,9.6,42.4
		C9.6,42.4,9.6,42.4,9.6,42.4L9.6,42.4z"/>
	<path class="st0" d="M7,34.1c0.1-0.5,0.3-0.9,0.4-1.3c0.2-0.7,0.7-1.3,1.3-1.7c0.6-0.3,1.4-0.3,2,0c0.7,0.2,1.3,0.8,1.6,1.4
		c0.2,0.8,0.2,1.7-0.2,2.4c-0.1,0.4-0.3,0.7-0.5,1.1L7,34.1z M11.5,35.2c0.1-0.2,0.2-0.4,0.3-0.6c0.5-1,0.1-2.2-0.9-2.7
		c-0.1-0.1-0.2-0.1-0.3-0.1c-0.9-0.5-2-0.1-2.4,0.8C8,32.7,8,32.8,8,33c-0.1,0.2-0.2,0.5-0.2,0.7L11.5,35.2z"/>
	<path class="st0" d="M13.3,27.1l-1,1.7l1.6,0.9l1.1-1.9l0.5,0.3L14,30.6L9.6,28l1.4-2.4l0.5,0.3l-1,1.8l1.4,0.8l1-1.7L13.3,27.1z"
		/>
	<path class="st0" d="M12.4,23.5l0.4-0.5l3.7,2.7l1.3-1.8l0.4,0.3l-1.7,2.3L12.4,23.5z"/>
	<path class="st0" d="M22.7,16.5c-0.5-0.5-1.1-1.1-1.5-1.6l0,0c0.2,0.6,0.5,1.2,0.8,1.9l1,2.4l-0.4,0.3l-2.2-1.3
		c-0.7-0.4-1.2-0.7-1.8-1.1l0,0c0.4,0.5,0.9,1.1,1.4,1.8l1.4,1.7l-0.5,0.4l-3.1-4l0.6-0.6l2.3,1.3c0.6,0.3,1.1,0.6,1.5,0.9l0,0
		c-0.2-0.5-0.5-1-0.7-1.6l-1-2.4l0.7-0.6l3.6,3.6l-0.5,0.4L22.7,16.5z"/>
	<path class="st0" d="M24.1,11.9l1.6,2.6c0.6,1,1.3,1.1,1.9,0.7s0.8-1.1,0.2-2l-1.6-2.6l0.6-0.4l1.6,2.5c0.8,1.3,0.5,2.3-0.5,2.9
		s-1.9,0.5-2.7-0.9l-1.6-2.5L24.1,11.9z"/>
	<path class="st0" d="M31.4,13.6l-2.1-4.6l0.7-0.3l2.5,1.7c0.5,0.3,1,0.7,1.5,1.1l0,0c-0.3-0.6-0.6-1.1-0.9-1.9l-0.9-2l0.6-0.3
		l2.1,4.7l-0.6,0.3l-2.5-1.7c-0.5-0.3-1.1-0.7-1.5-1.1l0,0c0.3,0.6,0.5,1.1,0.9,1.9l0.9,2L31.4,13.6z"/>
	<path class="st0" d="M35.5,6.5c0.4-0.2,0.9-0.3,1.3-0.5c0.7-0.2,1.5-0.2,2.1,0.1c0.6,0.3,1,0.9,1.2,1.5c0.2,0.7,0.1,1.5-0.2,2.1
		c-0.5,0.7-1.2,1.1-2,1.3c-0.4,0.1-0.8,0.2-1.2,0.3L35.5,6.5z M37.3,10.6c0.2,0,0.4-0.1,0.7-0.1c1.1-0.2,1.8-1.2,1.6-2.3
		c0-0.1-0.1-0.2-0.1-0.3c-0.2-1-1.1-1.6-2.1-1.5c-0.1,0-0.3,0.1-0.4,0.1c-0.2,0.1-0.5,0.2-0.7,0.3L37.3,10.6z"/>
	<path class="st0" d="M44.6,9.7c-1.3,0.1-2.4-0.8-2.5-2c0-0.1,0-0.2,0-0.3c-0.3-1.3,0.5-2.6,1.8-2.9c0.1,0,0.1,0,0.2,0
		c1.3-0.1,2.4,0.8,2.6,2.1c0,0.1,0,0.2,0,0.2c0.3,1.3-0.5,2.6-1.8,2.9C44.8,9.7,44.7,9.7,44.6,9.7L44.6,9.7z M44.6,9.2
		c1-0.1,1.5-1.1,1.4-2.3c-0.1-1-0.8-2-1.8-1.9s-1.5,1.2-1.4,2.3S43.6,9.3,44.6,9.2z"/>
	<path class="st0" d="M51.9,7.7c-0.4,0-0.8-0.4-0.7-0.8c0-0.4,0.4-0.8,0.8-0.7c0.4,0,0.8,0.4,0.7,0.8C52.7,7.4,52.3,7.7,51.9,7.7z"
		/>
	<path class="st0" d="M57.7,10.3l0.1-5.2l0.7,0.2l-0.1,2.6c0,0.7,0,1.3-0.1,1.8l0,0c0.2-0.5,0.5-1,0.9-1.6l1.3-2.3L61.1,6l0,2.6
		c0,0.6,0,1.2-0.1,1.8l0,0c0.2-0.5,0.5-1,0.8-1.6l1.3-2.3l0.7,0.2L61,11.2L60.4,11l0.1-2.7c0-0.7,0-1.2,0.1-1.7l0,0
		c-0.2,0.5-0.5,1-0.8,1.5l-1.4,2.4L57.7,10.3z"/>
	<path class="st0" d="M65.7,13.1c-1.2-0.6-1.7-1.9-1.1-3.1c0-0.1,0.1-0.1,0.1-0.2c0.4-1.3,1.8-1.9,3-1.5c0.1,0,0.1,0.1,0.2,0.1
		c1.2,0.5,1.7,1.9,1.1,3.1c0,0.1-0.1,0.1-0.1,0.2c-0.4,1.3-1.8,1.9-3,1.5C65.8,13.2,65.7,13.1,65.7,13.1z M65.9,12.6
		c0.9,0.4,1.9-0.2,2.4-1.2c0.5-0.9,0.3-2-0.5-2.5c0,0,0,0-0.1,0c-1-0.5-1.9,0.2-2.4,1.2C64.7,10.9,65,12,65.9,12.6
		C65.9,12.6,65.9,12.6,65.9,12.6L65.9,12.6z"/>
	<path class="st0" d="M72.2,10.7c0.4,0.2,0.8,0.4,1.1,0.6c0.5,0.2,0.8,0.7,1,1.2c0.1,0.3,0,0.7-0.2,1c-0.3,0.5-0.9,0.7-1.5,0.6l0,0
		c0.2,0.4,0.3,0.9,0.1,1.3c-0.2,0.5-0.4,0.9-0.5,1.4l-0.6-0.4c0.1-0.4,0.2-0.8,0.4-1.2c0.2-0.7,0.2-1.1-0.3-1.4l-0.5-0.3L70,15.3
		l-0.6-0.4L72.2,10.7z M71.5,13l0.6,0.4c0.4,0.4,1,0.3,1.4-0.1c0,0,0-0.1,0.1-0.1c0.4-0.6,0.1-1-0.5-1.4c-0.2-0.1-0.4-0.2-0.6-0.3
		L71.5,13z"/>
	<path class="st0" d="M76.8,13.9l0.5,0.4l-2.9,3.5l1.7,1.4l-0.3,0.4l-2.2-1.8L76.8,13.9z"/>
	<path class="st0" d="M80.6,17.3c0.4,0.3,0.7,0.6,1,1c0.5,0.5,0.9,1.2,0.9,2c0,0.7-0.3,1.3-0.9,1.8c-0.5,0.5-1.3,0.8-2,0.8
		c-0.8-0.1-1.6-0.5-2.1-1.2c-0.3-0.3-0.5-0.6-0.8-0.9L80.6,17.3z M77.7,20.8c0.1,0.2,0.3,0.3,0.4,0.5c0.7,0.9,1.9,1,2.8,0.4
		c0.1-0.1,0.2-0.1,0.3-0.2c0.8-0.6,0.9-1.8,0.3-2.5c-0.1-0.1-0.2-0.2-0.3-0.3c-0.2-0.2-0.4-0.4-0.6-0.5L77.7,20.8z"/>
	<path class="st0" d="M82.9,26.8c0,0.4,0.1,0.8,0.3,1.2c0.3,0.6,0.8,0.7,1.3,0.5s0.5-0.6,0.4-1.3s-0.1-1.5,0.5-1.9
		c0.7-0.4,1.6-0.1,2,0.6c0,0,0,0,0,0c0.2,0.3,0.3,0.7,0.4,1.1l-0.6,0.1c0-0.3-0.1-0.7-0.3-1c-0.4-0.6-0.8-0.6-1.2-0.4
		s-0.4,0.6-0.3,1.4c0.2,0.9,0,1.5-0.6,1.9c-0.7,0.4-1.7,0.2-2.1-0.6c0-0.1-0.1-0.1-0.1-0.2c-0.2-0.4-0.4-0.8-0.4-1.3L82.9,26.8z"/>
	<path class="st0" d="M86.2,34.5c-0.3-0.3-0.6-0.7-0.8-1.1c-0.6-1.2-0.1-2.6,1.1-3.2c0.1,0,0.2-0.1,0.3-0.1c1.2-0.6,2.8-0.2,3.4,1.1
		c0,0.1,0.1,0.2,0.1,0.2c0.2,0.4,0.3,0.8,0.3,1.2L90,32.7c0-0.3-0.1-0.7-0.2-1c-0.4-1-1.5-1.5-2.4-1.1c-0.1,0-0.2,0.1-0.3,0.1
		c-1,0.3-1.5,1.3-1.2,2.3c0,0.1,0.1,0.2,0.1,0.3c0.1,0.3,0.4,0.7,0.6,0.9L86.2,34.5z"/>
	<path class="st0" d="M91.7,35.5l-2,0.6l0.7,2.4l2-0.6l0.2,0.6l-4.9,1.4l-0.2-0.6l2.3-0.7l-0.7-2.4l-2.3,0.7l-0.2-0.6l4.9-1.4
		L91.7,35.5z"/>
	<path class="st0" d="M88.3,43.9c-0.1-1.3,0.8-2.4,2-2.6c0.1,0,0.2,0,0.2,0c1.3-0.3,2.6,0.5,2.9,1.8c0,0.1,0,0.1,0,0.2
		c0.2,1.3-0.7,2.4-2,2.6c-0.1,0-0.2,0-0.3,0c-1.3,0.3-2.6-0.4-2.9-1.7C88.3,44.2,88.3,44,88.3,43.9L88.3,43.9z M88.9,43.9
		c0.1,1,1.2,1.5,2.3,1.3c1-0.1,2-0.8,1.8-1.9s-1.2-1.5-2.3-1.3S88.7,42.9,88.9,43.9L88.9,43.9z"/>
	<path class="st0" d="M88.6,50.1c0.1-1.3,1.1-2.3,2.4-2.2c0.1,0,0.1,0,0.2,0c1.3-0.1,2.5,0.9,2.6,2.2c0,0.1,0,0.2,0,0.2
		c0,1.3-1.1,2.3-2.4,2.2c-0.1,0-0.2,0-0.3,0c-1.3,0.1-2.5-0.8-2.6-2.1C88.6,50.3,88.6,50.2,88.6,50.1z M89.2,50.1
		c0,1,0.9,1.7,2.1,1.7s2.1-0.5,2.1-1.6s-1-1.7-2.1-1.7S89.2,49.1,89.2,50.1z"/>
	<path class="st0" d="M93.4,55l-0.1,0.7L88.8,55l-0.3,2.1L87.9,57l0.4-2.8L93.4,55z"/>
	<path id="dot" class="st0" d="M88.4,62.1c0.1-0.4,0.6-0.6,1-0.5c0,0,0,0,0,0c0.4,0.1,0.6,0.6,0.5,1c0,0,0,0,0,0
		c-0.1,0.4-0.6,0.6-1,0.5c0,0,0,0,0,0C88.5,63,88.2,62.5,88.4,62.1L88.4,62.1z"/>
</g>
<g id="logo">
	<path class="st1" d="M86.2,49.1c0,20.4-16.6,37-37,37s-37-16.6-37-37s16.6-37,37-37S86.2,28.7,86.2,49.1z"/>
	
		<linearGradient id="SVGID_1_" gradientUnits="userSpaceOnUse" x1="29.7687" y1="78.8663" x2="70.3033" y2="20.9855" gradientTransform="matrix(1 0 0 -1 -0.85 99.09)">
		<stop  offset="0.22" style="stop-color:#B2BDDA"/>
		<stop  offset="0.34" style="stop-color:#99ADCF"/>
		<stop  offset="0.58" style="stop-color:#5A85B4"/>
		<stop  offset="0.9" style="stop-color:#004B8D"/>
	</linearGradient>
	<path class="st2" d="M84.5,49.1c0,19.5-15.8,35.4-35.4,35.4c-16.3,0-30.5-11.1-34.4-26.9c6.7-0.1,13.3-1.5,19.4-4.3V39.5
		c0.1-0.9-0.4-1.8-1.1-2.4c-1.2-0.6-2.6-0.9-4-0.8v-1.2c2.6-0.1,4.9-0.2,7.1-0.5c1.9-0.2,3.7-0.5,5.5-1v20v3.7c0,1.3,0,2.6-0.1,3.8
		s-0.1,2.4-0.2,3.5c-0.1,1.1-0.2,2-0.3,2.8c2.2,1.3,4.6,2.3,7,3c2.3,0.8,4.7,1.2,7.2,1.2c1.9,0,3.7-0.3,5.5-0.8
		c1.7-0.5,3.3-1.4,4.7-2.5c1.4-1.1,2.5-2.4,3.3-4c0.9-1.7,1.3-3.5,1.3-5.4c0-1.8-0.3-3.5-0.9-5.1c-0.6-1.5-1.5-2.9-2.7-4
		c-1.1-1.1-2.5-2.1-4-2.7c-1.6-0.7-3.4-1-5.1-1c-1.5,0-2.9,0.3-4.3,0.7c-1.4,0.5-2.7,1.1-3.9,1.8v-6c6.5-6.8,10.8-15.3,12.5-24.6
		C44.2,10.6,24,18.8,16.5,36.3c-0.2,0.4-0.4,0.9-0.5,1.4c6.2-18.4,26.1-28.2,44.5-22c0.5,0.2,1,0.3,1.5,0.5l0,0
		C75.6,21.4,84.5,34.5,84.5,49.1z M50.2,67.2c1,1.7,2.9,2.7,4.9,2.5c2,0.2,3.9-0.8,4.9-2.5c1-1.7,1.5-4.3,1.5-7.8
		c0-3.6-0.5-6.2-1.5-7.8c-1-1.7-2.9-2.7-4.9-2.5c-2-0.2-3.9,0.8-4.9,2.5c-1,1.7-1.5,4.3-1.5,7.8S49.2,65.5,50.2,67.2z M40.9,29.6
		c2-2,2-5.2,0-7.2c-2-1.9-5.1-1.9-7.1,0c-1,0.9-1.5,2.3-1.5,3.6c0,1.4,0.5,2.7,1.5,3.6C35.8,31.6,38.9,31.6,40.9,29.6L40.9,29.6z"/>
</g>
<g id="outline">
	<path class="st0" d="M85.2,17c17.7,19.9,16,50.5-4,68.2c-11.2,9.9-26.3,14.2-41,11.4c3.9,1,8,1.6,12,1.6h0.2
		c27.1-1.8,47.6-25.3,45.7-52.4c-0.5-6.6-2.2-13.1-5.3-19C90.8,23.2,88.2,19.9,85.2,17z"/>
	<path class="st0" d="M0.8,49.2c0-23.6,17-43.7,40.2-47.6c3.7-0.8,7.4-1.2,11.2-1.2c0.9,0,1.8,0,2.7,0.1C53,0.1,51.1,0,49.2,0
		C22,0,0,22,0,49.2c0,10.9,3.6,21.4,10.3,30c-2.5-3.8-4.6-7.9-6-12.3C2,61.3,0.8,55.2,0.8,49.2z"/>
</g>
<path class="st3" d="M52.1,49.1c0,1.6-1.3,2.9-2.9,2.9s-2.9-1.3-2.9-2.9c0-1.6,1.3-2.9,2.9-2.9C50.7,46.2,52,47.4,52.1,49.1
	C52.1,49,52.1,49.1,52.1,49.1z M46.7,49.1c0,1.4,1.1,2.4,2.5,2.4c1.4,0,2.4-1.1,2.4-2.5c0-1.3-1.1-2.4-2.4-2.4
	C47.8,46.6,46.7,47.7,46.7,49.1C46.7,49,46.7,49.1,46.7,49.1z M48.5,50.8h-0.4v-3.4h1.3c0.8,0,1.1,0.3,1.1,0.9
	c0,0.5-0.4,0.9-0.8,0.9l1,1.5h-0.5l-0.9-1.5h-0.7L48.5,50.8z M49.1,48.9c0.5,0,1,0,1-0.6s-0.4-0.6-0.8-0.6h-0.8v1.2L49.1,48.9z"/>
</svg>
