<?xml version="1.0" encoding="utf-8"?>
<!-- Generator: Adobe Illustrator 22.1.0, SVG Export Plug-In . SVG Version: 6.00 Build 0)  -->
<svg version="1.1" id="Layer_1" xmlns="http://www.w3.org/2000/svg" xmlns:xlink="http://www.w3.org/1999/xlink" x="0px" y="0px"
	 viewBox="0 0 283.5 283.5" style="enable-background:new 0 0 283.5 283.5;" xml:space="preserve">
<style type="text/css">
	.st0{fill:#FFFFFF;}
	.st1{fill:url(#SVGID_1_);}
</style>
<title>ib-world-school-logo-2-colour-rev</title>
<path class="st0" d="M247.4,210.3l-0.7-3.6l0.8-1.3l1.1,3L247.4,210.3z M238,205.1l2.8-4.7l-4.4-2.6l-3.1,5.3l-1.3-0.8l4.1-6.9
	l12.1,7.2l-3.9,6.6l-1.3-0.8l3-5l-3.8-2.3l-2.8,4.7L238,205.1z"/>
<path class="st0" d="M223.4,214.5c0.3-1.2,0.9-2.4,1.8-3.4c2.4-3.1,6.3-3.9,9.9-1.1c3.2,2.2,4,6.5,1.8,9.7c-0.2,0.2-0.3,0.4-0.5,0.7
	c-0.7,0.9-1.6,1.7-2.6,2.2l-0.9-1.3c0.9-0.4,1.6-1.1,2.2-1.9c2-2.6,1.7-5.6-1.2-7.9c-2.7-2.1-5.7-1.9-7.8,0.8
	c-0.6,0.8-1.1,1.7-1.4,2.7L223.4,214.5z"/>
<path class="st0" d="M215.9,221.2c2.7-2.6,6.6-2.3,9.6,0.8c3.1,3.2,3.1,7.3,0.4,9.9s-6.6,2.3-9.6-0.7
	C213,227.6,213.3,223.7,215.9,221.2L215.9,221.2z M216.9,222.3c-2.1,2-1.4,5.1,0.8,7.4c2,2,5,3.1,7.2,1s1.3-5.2-0.8-7.4
	S219,220.3,216.9,222.3L216.9,222.3z"/>
<path class="st0" d="M215.8,240.4l-1.5,1.1l-7.4-10.2l-4.9,3.6l-0.9-1.2l6.4-4.7L215.8,240.4z"/>
<path class="st0" d="M194.1,245.5l4.8-2.7l-2.5-4.4l-5.3,3l-0.8-1.3l6.9-3.9l7,12.3l-6.7,3.8l-0.8-1.3l5.1-2.9l-2.2-3.9l-4.8,2.7
	L194.1,245.5z"/>
<path class="st0" d="M183.6,258.3c-1.2,0.6-2.4,1.1-3.6,1.5c-2.5,0.8-4.4,0.8-6,0.1c-1.7-0.8-3-2.4-3.5-4.2c-0.7-1.9-0.7-4,0.2-5.9
	c0.9-1.7,2.7-3,5.3-3.9c1.1-0.4,2.1-0.7,3.2-0.9L183.6,258.3z M177.9,246.9c-0.6,0.1-1.2,0.3-1.8,0.5c-3.7,1.2-5,4-3.8,7.6
	c1,3.2,3.5,4.6,7.1,3.4c0.7-0.2,1.4-0.5,2-0.9L177.9,246.9z"/>
<path class="st0" d="M163.9,264l-1.4-8.3c-0.5-3.1-2.1-4.2-4-3.9c-2,0.4-3.1,1.9-2.6,5l1.4,8.3l-1.8,0.3l-1.4-8.1
	c-0.7-4.3,1.2-6.4,4.2-6.9c2.9-0.5,5.3,0.8,6,5.1l1.4,8.2L163.9,264z"/>
<path class="st0" d="M128,258c0,2,0,4.4-0.1,6.1l0,0c0.6-1.6,1.3-3.4,2.1-5.2l2.9-6.7l1.4,0.1l1.9,6.9c0.6,2,1,3.9,1.3,5.6h0.1
	c0.1-1.8,0.4-4.1,0.6-6.2l0.7-6l1.7,0.1l-1.8,14.1l-2.3-0.1l-2-7c-0.5-1.8-0.9-3.4-1.1-4.8l0,0c-0.5,1.4-1.1,2.9-1.8,4.7l-2.9,6.7
	l-2.3-0.1l-0.1-14.2l1.8,0.1L128,258z"/>
<path class="st0" d="M115.5,249.3c3.7,0.8,5.6,4.2,4.6,8.4c-1,4.4-4.3,6.6-8,5.8s-5.6-4.3-4.6-8.4
	C108.5,250.4,112,248.5,115.5,249.3L115.5,249.3z M115,250.7c-2.8-0.6-5,1.6-5.7,4.7c-0.6,2.7,0.2,5.9,3.1,6.6s5.1-1.8,5.7-4.7
	S117.9,251.3,115,250.7L115,250.7z"/>
<path class="st0" d="M104.3,246.5l-5.2,13.2l-1.9-0.7l-1.6-8.3c-0.3-1.7-0.6-3.4-0.7-5.2h-0.1c-0.5,1.8-1.1,3.4-1.9,5.5l-2.2,5.5
	l-1.6-0.6l5.2-13.1l1.7,0.7l1.6,8.3c0.4,1.8,0.6,3.6,0.7,5.4h0.1c0.6-1.7,1.2-3.3,2-5.5l2.2-5.6L104.3,246.5z"/>
<path class="st0" d="M82.1,252.1c-1.2-0.5-2.4-1.1-3.5-1.7c-2.3-1.3-3.6-2.8-4.1-4.4c-0.5-1.8-0.2-3.8,0.8-5.4
	c0.9-1.8,2.6-3.1,4.5-3.7c1.8-0.5,4.1,0,6.4,1.4c1,0.5,1.9,1.2,2.8,1.8L82.1,252.1z M86.8,240.4c-0.5-0.4-1-0.7-1.6-1
	c-3.4-2-6.3-1.1-8.2,2.2c-1.7,2.9-1.1,5.7,2.2,7.6c0.6,0.4,1.3,0.7,1.9,0.9L86.8,240.4z"/>
<path class="st0" d="M65.2,232.1l4.3,3.4l3.1-4l-4.8-3.8l0.9-1.2l6.3,4.9l-8.7,11.2l-6-4.7l0.9-1.2l4.6,3.6l2.7-3.5l-4.3-3.4
	L65.2,232.1z"/>
<path class="st0" d="M55.5,220.5c0.8,0.9,0.7,2.3-0.2,3.1c-0.9,0.8-2.3,0.7-3.1-0.2c-0.8-0.9-0.7-2.3,0.1-3.1
	C53.2,219.6,54.6,219.6,55.5,220.5L55.5,220.5z"/>
<path class="st0" d="M44.3,198.1c1.1,0.7,1.9,1.7,2.6,2.8c2.2,3.3,1.7,7.2-2.2,9.8c-3.1,2.3-7.5,1.7-9.8-1.4
	c-0.2-0.2-0.3-0.5-0.5-0.7c-0.7-0.9-1.1-2-1.3-3.1l1.5-0.4c0.1,1,0.5,1.9,1.1,2.7c1.8,2.8,4.8,3.5,7.9,1.4c2.9-1.9,3.7-4.8,1.8-7.6
	c-0.5-0.9-1.3-1.6-2.1-2.2L44.3,198.1z"/>
<path class="st0" d="M40.3,188.9c1.6,3.4,0.1,7-3.8,8.8c-4.1,1.9-7.9,0.6-9.5-2.8s0-7,3.8-8.8C35.2,184,38.8,185.6,40.3,188.9
	L40.3,188.9z M39,189.4c-1.2-2.6-4.3-3-7.2-1.6c-2.5,1.2-4.6,3.8-3.3,6.5s4.5,2.9,7.3,1.6S40.2,192,39,189.4L39,189.4z"/>
<path class="st0" d="M22.3,182.6l-0.5-1.8l12-3.8l-1.8-5.8l1.5-0.5l2.4,7.5L22.3,182.6z"/>
<path class="st0" d="M24.4,160.3l1,5.4l5-0.9l-1.1-6l1.5-0.3l1.5,7.8L18.4,169l-1.4-7.6l1.5-0.3l1.1,5.7L24,166l-1-5.4L24.4,160.3z"
	/>
<path class="st0" d="M29,142.7c0.6,1.4,0.9,2.8,1,4.3c0.2,1.9-0.4,3.9-1.6,5.4c-1.3,1.4-3.2,2.2-5.1,2.3c-4.2,0.2-7.5-2.5-7.7-7.2
	c-0.1-1.2,0.1-2.4,0.5-3.6l1.5,0.4c-0.4,1-0.5,2.1-0.4,3.2c-0.1,2.9,2.2,5.3,5.2,5.4c0.3,0,0.6,0,0.8,0c3.6-0.2,5.6-2.4,5.4-5.8
	c0-0.8-0.2-1.6-0.5-2.4l-4.2,0.2l0.1,2.9l-1.5,0.1l-0.2-4.6L29,142.7z"/>
<path class="st0" d="M15.8,134.8l14.1,0.8l-0.1,1.9l-14.1-0.8L15.8,134.8z"/>
<path class="st0" d="M31.5,124.3c-0.6,3.7-3.9,5.8-8.1,5.1c-4.4-0.7-6.9-3.9-6.3-7.6s3.9-5.8,8.1-5.2
	C29.9,117.4,32,120.8,31.5,124.3L31.5,124.3z M30,124c0.5-2.9-1.9-4.9-5.1-5.4c-2.8-0.4-5.9,0.6-6.4,3.6s2.1,4.9,5.1,5.4
	C26.7,128.1,29.6,126.9,30,124L30,124z"/>
<path class="st0" d="M22.7,101c0.3-1.3,0.7-2.5,1.2-3.7c1-2.4,2.2-3.9,3.8-4.7c1.7-0.8,3.7-0.8,5.5,0c1.9,0.7,3.5,2.1,4.3,3.9
	c0.7,1.7,0.6,4-0.5,6.6c-0.4,1-0.9,2-1.4,3L22.7,101z M35,104c0.3-0.5,0.6-1.1,0.8-1.7c1.5-3.6,0.2-6.4-3.3-7.8
	c-3.1-1.3-5.8-0.3-7.2,3.3c-0.3,0.6-0.5,1.3-0.6,2L35,104z"/>
<path class="st0" d="M40.2,81.4l-2.7,4.8l4.4,2.5l3-5.3l1.3,0.8l-3.9,6.9l-12.3-7l3.8-6.7l1.3,0.8l-2.9,5l3.9,2.2l2.7-4.8L40.2,81.4
	z"/>
<path class="st0" d="M37.6,71.6l1.1-1.5l10.2,7.5l3.6-4.9l1.2,0.9L49,80L37.6,71.6z"/>
<path class="st0" d="M66.2,52.2c-1.4-1.4-3.1-3.1-4.2-4.4l0,0c0.7,1.6,1.5,3.3,2.2,5.2l2.7,6.8l-1,0.9l-6.2-3.5
	c-1.8-1.1-3.5-2-4.9-3l0,0c1.1,1.3,2.6,3.2,4,4.8l3.8,4.8L61.1,65l-8.7-11.2l1.7-1.5l6.3,3.5c1.6,0.9,3,1.8,4.2,2.6l0,0
	c-0.7-1.3-1.3-2.8-2-4.6L60.1,47l1.8-1.5l10,10l-1.3,1.2L66.2,52.2z"/>
<path class="st0" d="M70.3,39.4l4.5,7.1c1.7,2.7,3.6,3,5.2,2c1.8-1.1,2.2-3,0.5-5.6L76,35.8l1.6-1l4.4,7c2.3,3.7,1.3,6.4-1.2,8
	s-5.2,1.3-7.5-2.4l-4.5-7L70.3,39.4z"/>
<path class="st0" d="M90.3,43.9L84.5,31l1.8-0.8l7,4.7c1.5,1,2.9,2,4.2,3.2l0,0c-0.9-1.7-1.7-3.2-2.6-5.2l-2.3-5.5l1.6-0.7l5.8,12.9
	l-1.7,0.8l-7-4.7c-1.5-1-2.9-2.1-4.3-3.2l0,0c0.8,1.6,1.5,3.1,2.5,5.3l2.4,5.5L90.3,43.9z"/>
<path class="st0" d="M101.8,24.2c1.2-0.5,2.4-1,3.7-1.3c2.5-0.7,4.5-0.6,6,0.2c1.7,0.9,2.9,2.5,3.3,4.4c0.6,1.9,0.4,4-0.5,5.8
	c-0.9,1.6-2.9,2.9-5.5,3.6c-1.1,0.3-2.2,0.6-3.3,0.7L101.8,24.2z M106.9,35.8c0.6-0.1,1.2-0.2,1.8-0.4c3.8-1,5.2-3.7,4.2-7.4
	c-0.9-3.3-3.2-4.8-7-3.7c-0.7,0.2-1.4,0.4-2,0.7L106.9,35.8z"/>
<path class="st0" d="M127,33.3c-3.7,0.4-6.6-2.2-7.1-6.4c-0.5-4.5,1.9-7.7,5.7-8.1c3.8-0.4,6.7,2.2,7.1,6.4
	C133.2,30,130.6,32.9,127,33.3L127,33.3z M127,31.8c2.9-0.3,4.2-3.2,3.8-6.4c-0.3-2.8-2.1-5.5-5.1-5.2c-3,0.3-4.2,3.3-3.8,6.4
	S124.1,32.1,127,31.8L127,31.8z"/>
<path class="st0" d="M147.3,27.6c-1.2-0.1-2.1-1.2-2-2.4c0.1-1.2,1.2-2.1,2.4-2c1.2,0.1,2.1,1.2,2,2.4c0,0,0,0,0,0
	C149.6,26.8,148.5,27.7,147.3,27.6C147.3,27.6,147.3,27.6,147.3,27.6z"/>
<path class="st0" d="M163.4,34.8l0.2-14.6l1.9,0.5l-0.2,7.4c-0.1,1.8-0.1,3.6-0.2,5l0,0c0.6-1.3,1.4-2.8,2.4-4.4l3.7-6.4l1.9,0.5
	l-0.2,7.4c-0.1,1.7-0.1,3.4-0.3,4.9l0,0c0.7-1.4,1.5-2.8,2.4-4.4l3.6-6.4l1.8,0.5l-7.5,12.6l-1.8-0.5l0.2-7.5c0-1.6,0.1-3.2,0.3-4.7
	l0,0c-0.7,1.4-1.4,2.8-2.2,4.2l-3.8,6.6L163.4,34.8z"/>
<path class="st0" d="M185.6,42.6c-3.4-1.6-4.6-5.3-2.8-9.2c1.9-4.1,5.6-5.6,9.1-4s4.6,5.4,2.8,9.2C192.6,43,188.8,44.1,185.6,42.6
	L185.6,42.6z M186.3,41.3c2.6,1.2,5.2-0.5,6.6-3.4c1.2-2.5,1.1-5.8-1.7-7.1s-5.3,0.7-6.6,3.5S183.6,40.1,186.3,41.3L186.3,41.3z"/>
<path class="st0" d="M203.5,36c1.1,0.4,2.1,1,3.1,1.6c1.3,0.7,2.3,1.8,2.8,3.2c0.2,1,0.1,2-0.5,2.9c-0.9,1.4-2.6,2-4.2,1.6v0
	c0.7,1.1,0.7,2.4,0.2,3.5c-0.5,1.2-0.9,2.5-1.2,3.8l-1.6-1c0.2-1.1,0.6-2.3,1.1-3.3c0.7-1.9,0.4-2.9-0.9-3.9l-1.4-0.9l-3.3,5.2
	l-1.5-1L203.5,36z M201.5,42.4l1.6,1c1.6,1.1,3.3,0.8,4.1-0.5c1-1.5,0.3-2.9-1.3-4c-0.5-0.3-1-0.6-1.6-0.8L201.5,42.4z"/>
<path class="st0" d="M216.4,44.7l1.4,1.2l-8.1,9.7l4.6,3.9l-1,1.2l-6.1-5L216.4,44.7z"/>
<path class="st0" d="M227.1,54.3c1,0.8,2,1.7,2.9,2.7c1.8,1.9,2.6,3.7,2.6,5.4c0,1.9-0.9,3.7-2.4,4.9c-1.4,1.4-3.4,2.2-5.4,2.2
	c-1.9-0.1-3.9-1.2-5.7-3.2c-0.8-0.8-1.5-1.7-2.1-2.6L227.1,54.3z M219.1,64.2c0.4,0.5,0.8,1,1.2,1.4c2.6,2.9,5.7,3,8.5,0.4
	c2.5-2.3,2.7-5.1,0.1-7.9c-0.5-0.5-1-1-1.6-1.4L219.1,64.2z"/>
<path class="st0" d="M233.5,80.8c0,1.1,0.3,2.3,0.9,3.3c1,1.6,2.4,2,3.6,1.3s1.4-1.7,1-3.7c-0.5-2.4-0.2-4.3,1.5-5.3
	c1.9-1.1,4.2-0.4,5.7,1.9c0.6,0.9,0.9,1.9,1,3l-1.5,0.3c0-0.9-0.3-1.8-0.8-2.6c-1-1.7-2.4-1.7-3.2-1.2c-1.1,0.7-1.2,1.8-0.9,3.8
	c0.4,2.5,0.1,4.2-1.7,5.2s-4.3,0.8-6.1-2.1c-0.6-1.1-1-2.3-1-3.5L233.5,80.8z"/>
<path class="st0" d="M242.7,102.2c-0.9-0.9-1.7-2-2.1-3.2c-1.6-3.6-0.6-7.4,3.7-9.3c3.4-1.8,7.7-0.5,9.4,3c0.1,0.2,0.2,0.5,0.3,0.8
	c0.5,1,0.8,2.2,0.8,3.3l-1.5,0.2c0-1-0.2-1.9-0.6-2.8c-1.4-3-4.2-4.2-7.6-2.7c-3.2,1.4-4.4,4.1-3,7.3c0.4,0.9,1,1.8,1.8,2.5
	L242.7,102.2z"/>
<path class="st0" d="M258.1,104.9l-5.7,1.6l1.9,6.6l5.7-1.6l0.5,1.8l-13.6,3.9l-0.5-1.8l6.4-1.8l-1.9-6.5l-6.4,1.8L244,107l13.6-3.9
	L258.1,104.9z"/>
<path class="st0" d="M248.5,128.3c-0.5-3.7,2.1-6.7,6.3-7.2c4.5-0.6,7.7,1.8,8.2,5.6c0.5,3.7-2.1,6.7-6.3,7.2
	C251.9,134.5,249,131.9,248.5,128.3L248.5,128.3z M250,128.2c0.4,2.9,3.2,4.1,6.4,3.8c2.8-0.4,5.5-2.2,5.1-5.2s-3.4-4.2-6.4-3.8
	C252.1,123.4,249.6,125.3,250,128.2L250,128.2z"/>
<path class="st0" d="M249.4,145.3c0.1-3.8,3.1-6.3,7.4-6.1c4.5,0.1,7.3,3,7.2,6.8s-3.1,6.3-7.3,6.2
	C251.8,151.9,249.2,148.9,249.4,145.3L249.4,145.3z M250.8,145.4c-0.1,2.9,2.5,4.6,5.7,4.7c2.8,0.1,5.8-1.3,5.9-4.3
	s-2.7-4.6-5.8-4.7C253.6,141,250.9,142.5,250.8,145.4L250.8,145.4z"/>
<path class="st0" d="M262.6,159l-0.3,1.8l-12.4-2l-1,6l-1.5-0.2l1.2-7.8L262.6,159z"/>
<path class="st0" d="M248.1,180.7c0.4-1.1,1.7-1.8,2.8-1.4s1.8,1.7,1.4,2.8c-0.4,1.1-1.6,1.7-2.8,1.4
	C248.4,183.2,247.8,181.9,248.1,180.7C248.1,180.8,248.1,180.7,248.1,180.7z"/>
<path class="st0" d="M242,141.9c0,56.7-46,102.7-102.7,102.7s-102.7-46-102.7-102.7c0-56.7,46-102.7,102.7-102.7c0,0,0,0,0,0
	C196.1,39.3,242,85.2,242,141.9z"/>
<linearGradient id="SVGID_1_" gradientUnits="userSpaceOnUse" x1="86.0404" y1="204.9324" x2="198.5762" y2="44.2227" gradientTransform="matrix(1 0 0 -1 -2.83 266.63)">
	<stop  offset="0.31" style="stop-color:#13B5EA"/>
	<stop  offset="0.71" style="stop-color:#0569A8"/>
	<stop  offset="0.9" style="stop-color:#004B8D"/>
</linearGradient>
<path class="st1" d="M237.7,141.8c0,54.3-44,98.3-98.3,98.3c-45.2,0-84.6-30.8-95.4-74.7c18.6-0.2,37-4.3,54-12v-38.3
	c0-3-1.1-5.3-3.2-6.7c-2.1-1.4-5.8-2.1-11.2-2.1v-3.5c7.1-0.2,13.7-0.7,19.6-1.3c5.2-0.5,10.3-1.4,15.4-2.7l0.1,55.6v10.3
	c0,3.6-0.1,7.2-0.2,10.7s-0.3,6.8-0.5,9.8s-0.5,5.6-0.9,7.7c6.2,3.5,12.7,6.3,19.5,8.4c6.5,2.1,13.2,3.2,20,3.3
	c5.2,0,10.3-0.8,15.2-2.4c4.7-1.5,9.1-3.8,13-6.9c3.8-3.1,7-6.9,9.2-11.2c2.4-4.7,3.6-9.8,3.5-15.1c0-4.8-0.9-9.6-2.7-14.1
	c-1.7-4.2-4.2-8-7.4-11.2c-3.2-3.2-7-5.7-11.2-7.4c-4.5-1.9-9.3-2.8-14.2-2.8c-4,0-8,0.7-11.8,2c-3.8,1.3-7.5,2.9-11,5v-16.5
	c18.1-18.9,30.3-42.6,35-68.3c-48.6-20.7-104.7,2-125.4,50.5c-0.5,1.2-1,2.5-1.5,3.7C64.5,59,119.9,31.6,170.9,48.8
	c1.4,0.5,2.7,1,4.1,1.5c0,0,0,0,0-0.1C212.8,64.9,237.7,101.3,237.7,141.8z M142.1,192.2c2.7,4.6,7.2,6.9,13.7,6.9
	c6.4,0,11-2.3,13.7-6.9c2.7-4.6,4-11.9,4-21.8s-1.3-17.2-4-21.8c-2.7-4.6-7.2-6.9-13.7-6.9s-11,2.3-13.7,6.9c-2.7,4.6-4,11.9-4,21.8
	C138.1,180.3,139.5,187.6,142.1,192.2z M116.5,87.9c5.5-5.5,5.5-14.5,0-20c-5.5-5.3-14.3-5.3-19.8,0c-5.5,5.5-5.5,14.5,0,20
	C102.3,93.2,111,93.2,116.5,87.9z"/>
<path class="st0" d="M239.6,52.6c49.3,55.4,44.3,140.2-11.1,189.5c-31.1,27.6-73.2,39.3-114.1,31.6c11,2.9,22.2,4.3,33.6,4.3h0.6
	c75.2-5.1,132.1-70.2,127-145.5c-1.3-18.4-6.2-36.4-14.6-52.9C255.1,69.8,247.9,60.7,239.6,52.6z"/>
<path class="st0" d="M5.2,141.9C5.2,76.4,52.4,20.5,117,9.6c10.2-2.3,20.6-3.4,31-3.4c2.5,0,5,0.1,7.4,0.2
	C80.6-2.6,12.7,50.9,3.8,125.8c-4.2,35.5,5.7,71.3,27.6,99.6c-7.1-10.6-12.8-22.1-16.8-34.2C8.3,175.5,5.1,158.8,5.2,141.9z"/>
<path class="st0" d="M280.6,47.8c0,4.5-3.6,8.1-8.1,8.1c-4.5,0-8.1-3.6-8.1-8.1s3.6-8.1,8.1-8.1l0,0c4.4-0.1,8,3.4,8.1,7.8
	C280.6,47.6,280.6,47.7,280.6,47.8z M265.8,47.8c0.1,3.8,3.1,6.8,6.9,6.7s6.8-3.1,6.7-6.9c-0.1-3.7-3.1-6.7-6.8-6.7
	c-3.7,0-6.8,3-6.8,6.7C265.8,47.6,265.8,47.7,265.8,47.8z M270.8,52.4h-1.1v-9.3h3.6c2.1,0,3,0.9,3,2.6c0.1,1.4-1,2.5-2.3,2.6
	l2.8,4.1h-1.3l-2.6-4.1h-1.9L270.8,52.4z M272.3,47.3c1.4,0,2.8,0,2.8-1.6c0-1.3-1.1-1.6-2.2-1.6h-2.1v3.2H272.3z"/>
</svg>
