<svg  class="isd-children-playing isd-children-playing--wide--grad" xmlns="http://www.w3.org/2000/svg" xmlns:xlink="http://www.w3.org/1999/xlink" viewBox="0 0 1770.58 255.03">
	<defs>
		<linearGradient id="isd-children-playing__gradient" class="isd-children-playing__gradient" x1="-147.66" y1="127.52" x2="1622.92" y2="127.52" gradientUnits="userSpaceOnUse">
			<stop offset="0" class="isd-children-playing__stop#1" stop-color="#90278e"/><stop offset="0.24" stop-color="#00adee"/>
			<stop offset="0.49" class="isd-children-playing__stop#2" stop-color="#f9ec31"/>
			<stop offset="0.73" class="isd-children-playing__stop#3" stop-color="#ee4036"/>
			<stop offset="1" class="isd-children-playing__stop#3" stop-color="#ec1c24"/>
		</linearGradient>
	</defs>
	<title>Full colour silhouette image of children playing</title>
	<g id="isd-children-playing__kids" class="isd-children-playing__kids" >
		<path d="M733.28,232c-.57.17-.58.38-.25.61,1.57-.76,3.06-1.42,3.06-1.42ZM477,233c.65-.19,1.27-.36,1.81-.5C480.39,232.1,478.45,232.43,477,233Zm594.92-1c-.4-.1-.3-.07,0,.15C1072,232.09,1072,232,1071.9,232ZM1305,233.5c-.23.07-.31.17-.27.29C1305.35,233.48,1305.64,233.3,1305,233.5Zm-658.74-.43a.5.5,0,0,0-.13,0C646.57,233,646.69,233,646.27,233.07Zm-135.5,0a.61.61,0,0,0-.13,0C510.17,233,510.3,233,510.77,233.1ZM489.92,232c-.09,0-.08.08,0,.15C490.28,231.94,490.4,231.91,489.92,232ZM216.74,233.5c-.73-.2-.39,0,.33.29C217.11,233.67,217,233.57,216.74,233.5ZM1135.42,232c-.53.17-.55.38-.23.61,1.46-.76,2.85-1.42,2.85-1.42ZM656.82,50.49h0S656.77,50.53,656.82,50.49ZM690.3,67.57a.52.52,0,0,0,.11.15S690.39,67.68,690.3,67.57Zm94.66,0c-.1.11-.15.18-.11.15Zm835.88-34.15c-1.4,1.36-2.59,2.21-3.32,2.17s-.76-.94,0-1.74,4.25-6,4.33-6.71.09-1.57-.76-1.4l-.85.17s.68-1.53.34-1.95-1.4-.39-2.34.51l-.93.89s.13-1.49-.42-1.62-3.53,1.87-4.72,3.32-2.67,3.77-2.93,3.82-3.44.38-4,1.91-1.83,4.67-2,5.39a9.91,9.91,0,0,0-.38,1.23,37.65,37.65,0,0,0-3.31,4.12,35.24,35.24,0,0,0-2.85,5.22,81.64,81.64,0,0,1-5.56,7.81c-1.23,1.58-.8,1.62-2.67,3.23s-2.08.55-2.89,1.87-1.61,1.87-2.55,1.61-1.4-.89-3.1,0-7.77.68-8.61,1-3.91-.47-3.91-.47l1-2.33a11.79,11.79,0,0,0,2-3.36c.3-1.31.89-2.88.77-3.52s1.65-6.54,1.65-6.54,6.43,2.19,7.24,2,.47-2.93-.13-3.9-5.92-3.43-5.92-3.43-1.1-8-2.21-10-5.09-6.58-8.83-7.55-11.7-.95-14,.76c-3.09,2.24-4.21,3.23-5.4,5a22,22,0,0,0-2.5,6.49c-.08.94-.2,3.61-.2,3.8,0,1.92.71,2.28.79,4.06s-.59.93-1,2.59-.93,5,0,7,1.53,2.38,1.78,2.38.47.3.47.3a28.93,28.93,0,0,0,1.1,4.42c.64,1.61,1.19,3.26,1.19,3.26s-.46,3-1.31,3.44-5-.17-6.5,0-4.54,1.19-5.94.68-.64-1.66-2.76-.68-4.08,2.63-6.58,3.4-3.27-.26-7.18.76c-3.36.88-6.34,1.38-7.62,1.15a10.32,10.32,0,0,1-1-1.58c-.06-.14-.1-.27-.15-.4s-.07-.32-.11-.49c-.38-2.32,2.14-4.06,3.77-9.87,1.85-6.53-4.45-9.2-6.68-10.76s-5.75-.84-5.75-.84l5-2.29-5.9,2.46,1.45-3.13s-2.13,3.13-2.29,3.18-.62-1-.89-1.62a4.17,4.17,0,0,1,.22.68,4.88,4.88,0,0,1-.11,1.5s-.28-.72-.73-.78-.83.56-.83.56l-1-.89s-3-1.4-6-2.63a15.1,15.1,0,0,0-5.21-.79c-2.16-1.85-4.88-4.15-5.78-4.45-1.53-.51-2.77-1.11-3-.85a2,2,0,0,1-.42.38,4.27,4.27,0,0,0-1.7-.55c-.51.08-1.36.51-1,1.19l.34.68a1,1,0,0,0-.38,1.87c1.23,1.31,1.4,1.48,1.61,1.52s.77,1.15.77,1.15-.6.81-.85.89a.82.82,0,0,0-.38.27c-4.19,2.33-7.7,7.86-9.2,10.91-1.67,3.4.28,9.59.62,10.92a25.45,25.45,0,0,0,2.28,4.46s-.13,1.23-.13,2.64a5.8,5.8,0,0,0,1.41,3.72c.9,1.11,3.94,4.68,3.94,4.68s-1.11,1-4.68,2.09-6.39,1.26-9.07,3.19c-1.25.9-2.32,1.44-3.29,2.08,0,.75-.09,1.55-.15,2.36a3,3,0,0,1,.73.55l.49.5a13.29,13.29,0,0,1,1.92-2.74c2.24-2.53.6,8.85-.29,10.63a39.2,39.2,0,0,0-1.73,6.21,33.23,33.23,0,0,1-1.22-6.67c-.32-3.12-4-8.08-4.32-8.68a20.77,20.77,0,0,0-3.16-3.22c-1.7-1.51-8.59-4.36-8.59-4.36l1.15-2.34.64.41-.32-.73.23-1.84.6.23-.33-1.84,1.43-.87c1.19-.73,1.88-5.6,1.88-5.6a2.08,2.08,0,0,0,1.19-.37c.42-.36.32-4.4.74-5.74a8.09,8.09,0,0,0-.28-3.62l.1-2.12V61.44l.87-.6a6.06,6.06,0,0,1-.83-.82,14.53,14.53,0,0,1-.78-2.85l1.06,1.93-.23-1.33a18.39,18.39,0,0,0-1.7-4s1.83.78,1.7.55-2.25-3-2.25-3,.87.42.69.28a6.61,6.61,0,0,1-1.47-2.11c-.6-1.24-5.38-5.24-4.5-5a9.74,9.74,0,0,0,2.38,0L1433,42.75s-1.93-1.47-1.8-1.56,3-.37,3-.37a21.26,21.26,0,0,0-3.12-.46l-4.36,0s.22-1,.59-1.15,3.86-1.19,3.4-1.24-3.67.46-5,1.79-.09-.23-.41-.78a11,11,0,0,1-.64-2.2s-.69,2.94-1,2.25a14.69,14.69,0,0,1-.5-2.25s-.33.92-.42,1.19-.41,1.47-.5,1.29a21.1,21.1,0,0,1,0-2.39,6.47,6.47,0,0,0-.42,1.24,6.45,6.45,0,0,1-1.6,2.34c-.09-.14-.51-1.7-.51-1.7l-.64,2.16a6,6,0,0,0-.74-.74,7.21,7.21,0,0,0,.94-1.72c1-2.54,3.8-9.95,3.8-9.95a1.13,1.13,0,0,1-.17-.84c.13-.4,3.4-6.85,3.8-7.46s2.37-2.57,3-3.51,0-1.35,0-1.35l1.36-2s4.44-5,5.85-6.7-1.49-1.31-2.58-.52a35.64,35.64,0,0,0-3.35,3.22,2.71,2.71,0,0,0,.32-1.43c0-.89,1.92-4.84,2-6s-2-.27-2.36.67a48,48,0,0,1-4.86,7.49c-1.25,1.26-.88,0-.88,0A34.29,34.29,0,0,0,1423.76,6c-.59-1.17-1-3.17-1.5-4.38s-2.17-.32-2,.87,2.31,9.2,2.31,9.2.17.32-.73.43-2.4-3.06-3.4-4.87-1.81-2.44-2.81-2,0,2.74,1.56,5.24,1,4,1,4l-.64,1.37a14.1,14.1,0,0,0-1,5.94c.22,1.43-1.39,2.61-1.39,2.61s-3.29.26-3.74.32-3,3-4.11,5.9-3.39,6.65-4.79,9.45-6.79,18.46-6.79,18.46-2.39-8.33-3.55-10-3.52-7.75-7.12-10.49a9.46,9.46,0,0,0-8-1.38,11.53,11.53,0,0,0-7.48,1.74c-3.43,2.36-5.6,12-5.54,12.45s-.76,9.88-.76,9.88-2.93-3.2-3.29-3.57a15.43,15.43,0,0,1-1.5-5.9c0-2.22-5-15.62-6.21-18.07a64.31,64.31,0,0,1-3.52-8.88c-.17-1.09-.87-1.76-2.78-1.53s-2.09,0-2.09,0a12.31,12.31,0,0,1,0-3.39,6.28,6.28,0,0,0,.15-3.24c-.24-.62.29-1.1.83-2.07s-.68-1.44-1.08-1.32-1.95.38-1.95.38l-.65-.27c-.65-.27-2.3-2.62-2.3-2.62a12.42,12.42,0,0,1,.11-2.75A1.6,1.6,0,0,0,1338,5.74a28.92,28.92,0,0,0-.22-3.4c-.2-1.36-1.21-1.44-1.68-1.31s-.15,1.71-.09,2.91a2.17,2.17,0,0,1-.71,1.82l-.27-.28s-1.49-2.79-2.6-4.42S1330.14,0,1330.25.7a29.78,29.78,0,0,0,1.89,3.92s-.14-.22-.85-.38-.73.23-.38.77a31.22,31.22,0,0,1,3,4.3c.78,1.67,1.28,5.7,1.56,7s2.11,7.62,2.11,7.62-.45,0-.8.72,2.69,9.43,2.69,9.43a32.3,32.3,0,0,1,.88,4.66c.24,2.36,3.31,7.49,3.15,10.21s2.37,8.12,3.42,9.7.68,7.08,1,8.75,1.94,3.45,1.35,4.4,1,5.85,1,5.85,1.34,2,1.11,2.77-.87,1-1.19,2.64a2.63,2.63,0,0,0,1.18,2.56,4.38,4.38,0,0,1-.38-1c-.06-.41,1.48-2.25,1.15-1.49s.27,1.84.4,2.65a2.7,2.7,0,0,1-.76,1.76l.64-.29a5.08,5.08,0,0,0,.76-1.75c0-.63,0-3.74.55-1.63s.27,15.59.53,16.91.54,7.31-1,10.67a6,6,0,0,0-.61,2.77c-1-2.75-4.9-14.19-4.9-14.19s.11-.58.69-3.07-2.16-7.69-2.56-7.94-9.58-5.39-9.91-5.65-1.28-1.39-2.28-2.27-5.45-1.81-5.45-1.81l.17-.85s-.11.53.33.06,1.88-2.72,1.88-2.72l0,.78.22-1.37s.15.58.27.38a7.59,7.59,0,0,0,0-1.76l.23,1-.27-2.79.27.64.27-2.16.54.64-.45-2.26.41.83-.24-1.55.59.24s-.48-.83-.67-.83.46-2.29.46-2.29l.57-2.75c.58-2.75-5.35-12.48-8.47-14.54s-8.71-1.91-8.71-1.91-5.25-1.74-9-1.64-4.84,1.31-7.87,4.91-.92,9.07-.26,9.51a22.33,22.33,0,0,1,2.48,2.6,9.61,9.61,0,0,1,.1,1.1,10.26,10.26,0,0,0,.87,3.16c.63,1.55.67,5.32.71,7s4.19,8.15,4.19,8.15a4.47,4.47,0,0,1-2.63,1.11c-1.5,0-.84.28-2.84.86s-2,1.35-2.23,2a52.82,52.82,0,0,1-3.71,4.46c-.26.27-.19.46-3.41-.69s-6-2.56-7.2-4.16-2.91-3.82-3.34-5.37.27-2-.18-4-1.22-6.67-1.24-7.38a26,26,0,0,1,.31-2.81l.13-.2a32.28,32.28,0,0,0,.88-5.62c0-1.3.8-4.06,1.38-9.08s-.19-4.55-1-4.27-1.94,7.47-1.94,7.47l-.21-.25a3.83,3.83,0,0,0-2.24-1c-.71.08-1,2.89-1,2.89a7.1,7.1,0,0,0-2.42-.33c-1.17.1-.68,1.26-1,1s-.33-.19-1.3.1-1.92,1.09-2,1.94.26,5.7.26,5.7l-1.56,1.35c-1.57,1.36.43,10.62.75,11.35s.4,4.06.64,7.41,2.9,10.12,6.15,11.92,13.16,12.31,13.16,12.31l-.7,1c-.7,1,.6,5.82.6,5.82l-1.56,1.64c-1.56,1.65-.88,15.76-1.31,15.77s-1.87,6.17-2.19,10.55,5.54,5.53,5.54,5.53a82.19,82.19,0,0,1-1.9,10.64c-1.25,4.52-3.18,9.84-3.51,14.67s.35,19.51-1.43,25.88-1.29,12.2-1.13,15.71.17,3.7.26,6.89.77,4.4,1.78,5.61,1.06,3,.4,5.26c0,.12,0,.22-.08.33l-1.42.29a2.53,2.53,0,0,0-.23-1,2.13,2.13,0,0,0-.67-.44s-.9-4.16-1.41-9.07-.52-13.74-3.72-18.42-4.23-6.53-4.23-6.53l-.15-13.67a14.34,14.34,0,0,1,1.12-1c.66-.52,2.3-5.87,1.63-8.47s-1.27-2.9,0-5.8,1.63-11.8.29-15.44a27,27,0,0,0-1.7-4.16s2.6-7.21,3.34-8.62,2.37-12.25.89-15.52a15.82,15.82,0,0,1-1.63-5.8c-.3-1.78-1-9.35-1.56-11.14s-3-8.39-5.28-9.95-1.56-1.19-1.56-1.19,1.41.52,2.08.67-.37-.3-.89-1-1.71-1-1.85-1.93,1.33,1.19,1.33,1.19a18.49,18.49,0,0,0-1.11-3.72,6.27,6.27,0,0,1-.38-5,30.74,30.74,0,0,0,.6-12.63c-.89-6-4.9-17.75-9.43-19.83s-15.45-2.08-19.31-.07-8.62,6.23-9.51,10.77-1.11,9.13-.37,10.69l.74,1.56s-.89-3.94-.67-5.35.52-3,.52-3,.67,6.61.74,7.5a9.49,9.49,0,0,1-.59,2.75,8.29,8.29,0,0,0,1.19-3.71c.08-2-.15-5-.15-5s.82,6.09.44,7.61a6.9,6.9,0,0,0,.86,4.57c.67,1.22,2,3.53,2.49,4.42s1.85,4.49,2.75,5a7.73,7.73,0,0,0,3.3,1.16c1.34.07-3.9,2.07-5.35,2.07s-4.94,1.9-5.79,3.42-2.26,6.65-3,8.88-3,9.32-3.56,11,.3,1.93-.74,2.68-2.35-.12-1.68,1.56.93,1.78-.33,2.23a8.36,8.36,0,0,0-2.7,2.37c-.27-3.78-.59-9-.59-9a8.54,8.54,0,0,1,1.93.89c.57.44,1.08.1,3-.85s3.37-10.78,3.57-12.62-2.58-6.77-2.54-7a8.63,8.63,0,0,0-.81-4.26c-.9-1.34-3.86-2.59-6-5s-6.33-8.73-7.26-8.81a31.49,31.49,0,0,1-4.32-1.36l.62.18.16-.41.51-.17.52-1.17.17.53.4-1.19s.08.68.12.52a8.87,8.87,0,0,1,.46-1s.5.27.35-.93a1.55,1.55,0,0,1,.55-1.6l.72,0c.72,0,2.75-4.37,2.86-4.9A19.76,19.76,0,0,1,1213.2,67l.57-.94.42-.19c.43-.19,1.39-1.11,1.26-3.51s-4.88-11.1-7.54-14.12-11.16-3.66-16.35-3.48-13.55,8-13.55,8-1.57.31-3.66.52c.8-1.47,1.59-3.06,2-4.09a49.62,49.62,0,0,0,1.94-6.43c.14-.71-.06-1-.77-1.14s-1.4,1.54-1.67,2.43a8.76,8.76,0,0,1-1.18,2s.34-1.75.59-2.48,1-3.39,1.48-5.17-1.23-1.44-1.69-.91a56.87,56.87,0,0,0-2.54,5.49s0-.51.15-1,.37-1.91,1-4.23-.67-2.42-1.25-2.12-1.67,2.95-2.07,5a5.55,5.55,0,0,1-1,2.71l-.22-.46c-.22-.46.5-4.17.61-5.76s-.23-2-1-2.13-1.75,5-2,6.9a19.73,19.73,0,0,1-1.94,5.13l-.4-.34a8.29,8.29,0,0,1-1.22-3.88c-.1-1.58-1.13-1.37-1.57-1s-.3,1.5-.67,2.88.21,2.33.65,3.82a47.58,47.58,0,0,0,2.07,4.57,2.3,2.3,0,0,1,.17.85l-1.57.21a8.37,8.37,0,0,0,.76,2.42l-.08.17c-.72,1.58-3.34,5.12-3.67,4.64s-1.17,1.23-1.77,1.11-1,3.13-1.74,3-.79,1.92-1.57,2.19-1,1.56-1.61,3.43-5.69,8.06-7,9.2-2,1.05-3.23,2.33-3.5,3.13-4.53,4.38-7.21,4.55-7.21,4.55a3.68,3.68,0,0,1,1.08-1.54c1-1,1.32-3.53,1.82-6.08s1.19-10.42,1.16-10.89a21.38,21.38,0,0,1,.68-2.84,8.49,8.49,0,0,0,0,1.44,6.19,6.19,0,0,0,.74,1.59c.28.56-.33,1.3,0,2s0,2.26-.63,3.59a4.35,4.35,0,0,0,.29,3.29c.19.43-.67,2-.67,2s.44-.62,1-1.4.23-1-.28-2.16.34-2.12.84-2.92-.62-3.17-.1-3.84-.28-1.54-.73-2.06.18-1.29.59-2.38-1.41-2.74-1.29-3.57-3.92-7.83-5.85-9.93-7.64-2-7.64-2a15,15,0,0,0-6.58-.67,12.69,12.69,0,0,0-8.39,5c-2.11,2.78-4.69,13.2-4.69,13.2a23,23,0,0,1-1.48,1.94c-1.1,1.35-1,3.87-1,3.87l.12-.6a36.1,36.1,0,0,1,2.58-4.12s-.33.61-2,4.6-.86,6.23-.91,7.57a5.62,5.62,0,0,0,.59,2.56l-2.54-1.9s-2.74-.59-3-1.57-3-2.52-3.07-3.16-2.11-2-2.28-2.16-4.38-8.71-4.38-8.71a3,3,0,0,1,1.31-1.62c1-.53-1.93-1-1.29-1.66s-.2-1.91.2-2.61c.23-.4-.53-.67-1.23-.83a52.4,52.4,0,0,0,4.31-6.7c0-.2-1.26-2.09-1.26-2.09s5.76-7.41,7.23-8.13,4-2.48,5.69-3.5a9.22,9.22,0,0,0,3.28-4.06c.2-.79-1-1.39-1.34-.87a28.24,28.24,0,0,1-3.11,2.61s-.24,0-.07-.49,3.38-4.1,4-5-.3-1.85-.82-1.92-4.38,4.1-4.8,4.6-.4-.25-.4-.25.37-.57,1-1.52a39.27,39.27,0,0,0,3-4.47c.47-1.07-1.17-1.42-1.61-1.05s-4.78,5.35-4.88,5.35a.83.83,0,0,1-.47-.12c-.17-.13-.2-.78.08-1.5s1.89-3,2.28-4.05-.29-1.37-1.29-1.14-3.43,4.62-4.2,5.82-2.24,1.56-2.31,1.36a25.84,25.84,0,0,1-.13-2.9c0-1.65-1-2.19-1.69-1.94s-1.26,4.64-1.39,6.11.18,5.72,0,6.42a25.15,25.15,0,0,1-3,3.89,29.24,29.24,0,0,0,.41-3.69c0-1.3-.77-3.53-1-5.56s-1.79-.46-1.87.26-.42,3.71-.42,3.71a19.08,19.08,0,0,1-1.56-5.3c-.65-3.61-1.56-4.26-2.12-4.06s-.74,1.11-.72,1.84.66,6.16.47,6.07a43.68,43.68,0,0,1-1.77-6.64c-.55-2.76-2-1.7-2.29-1s.52,5.56.52,5.56L1071,38s-.35-1.42-.79-2.65-1.43-1.42-1.94-.43,1,6.64,1.19,7.72-.09,1.24-.74-1-1.55-3-2.4-2.09,1.07,5.94,1.54,7,1.3,2.65,2,3.94,2.82,2.32,3.39,3.37a4,4,0,0,1,.25,1.24,1.5,1.5,0,0,1-.61.16c-.89,0-.44,1.44-1.39,1.34S1070.77,59,1070,59s-.45,1.54-1.49,1.44,0,1.74-.35,2.19-2.49,3.63-3.73,4.42a8.15,8.15,0,0,1-2.39,1.15c-1.89.79-1.59,2.23-1.54,3.77s-4.62,3.73-4.62,3.73-.85-.25-.9-.79.1-3.53.1-3.53l1.45-3s.19.95.34.6.85-3.18.85-3.18-.15,1.94,0,1.54l.94-2.54v2.34a9.5,9.5,0,0,0,.65-1.44c.3-.85-.6-4.33-.35-3.58s1.49,1.09,1.49,1.09a3.74,3.74,0,0,1-.64-1c0-.3-.7-2.88-.7-2.88l1.24,1.29a14,14,0,0,1-1.24-3.18c-.1-1-3.18-2.24-2.29-2.29a16.41,16.41,0,0,0,1.74-.2,3.34,3.34,0,0,1-2.13-.75c-.7-.74-2.84-2.23-1.6-1.79a28.18,28.18,0,0,0,2.79.8s-2.29-.89-2.49-1.94-3-2.38-2.68-2.43,1.59-.55,1.59-.55-2.19-.35-2.74-.55a12.28,12.28,0,0,1-2.08-1.79l1.24.15,1.59.89s-1.59-.89-1.84-1.73-2.58-.25-2-.45,1.34-1.34,1.34-1.34-.24.39-1.93.69a65.7,65.7,0,0,1-6.77.3s2.89-1,4-1.39,1.34.1,1.19-.25-4.17-.25-5.86.1a31.8,31.8,0,0,0-4.33,1.44l2-2a13.58,13.58,0,0,0-1.29.7,50.54,50.54,0,0,1-5.27,1.69l2.33-1.39s-2.18.74-3.92,1.54-1.89,1.44-1.89,1.44l.25-1.09s-1,1.74-1,1.24,1.3-2.78.9-2.69a18.19,18.19,0,0,0-4.28,3.29c-.7,1-.89,3-1.79,3.38s-2,1-2,1l2.29.1s-1.19.7-1.49.89a11.4,11.4,0,0,0-1.2,1.4l.21-.6h-.8s.93-6.15,1-7.61-2.46-.89-2.46-.89a18.76,18.76,0,0,1,.26-2.28c.26-1.71,1.71-9.13,2.42-10.1a32.08,32.08,0,0,0,2.87-5.11c.3-1-.67-3.06-1-3.58s-.11-1.16-.74-.82a2.06,2.06,0,0,0-.82,2.24,3.46,3.46,0,0,1-.56,2.12l-.64-.15a1.88,1.88,0,0,1-.56-1.3c0-.86-.22-2.16-.26-3.39s-1-2.43-1.9-1.68-.89,4.43-.89,4.43a2.31,2.31,0,0,1-.86-.11c-.45-.15-.75-1.38-1-2.79s-1.12-1.91-2-1.31-.41,2,.18,4.06-.85,1.54-.85,1.54a6.77,6.77,0,0,1-1-2c-.75-1.86-1.72-2.54-2.16-2.39s-.6,1.35-.41,2,1.45,3.61,1.45,3.61h-.86a2.29,2.29,0,0,1-1.38-.93,4,4,0,0,0-2-1.79c-1-.22-.86,1.5-.6,2.24s4.07,4.44,5.56,6.23,1.49,2.38,1.57,3.5-1.12,6.86-1.5,6.72a7.69,7.69,0,0,0-1.41-.16c-.45-.07-.52.23-.15,1.2s-1.57,14.39-2.31,19.09,2.9,14.32,3.8,17.08,2.76,6.49,3.65,9.32,1.72,3.43,1.79,5.89,5.23,12.31,6.19,16.34a24.74,24.74,0,0,1,1.05,7.9c0,2.72,1,9.75.87,15.18l0-.1c-1-6.86-6.69-12.81-8.39-14.17s-6.23-4.71-8.9-5.62-5.27-5-5.61-6,.29-3.74,2.67-5.38,2.24-5.91,2.92-10-2.7-10.36-3.43-11.15-7.54-4.65-6.24-5-.85-.57-.11-.85-.4-.4.68-1,.17-1,.85-1.64,2.41-1.32,2.64-1.72a10.18,10.18,0,0,0,.64-5.1c-.33-3.14-6.26-3.07-8.58-2.74a13.64,13.64,0,0,0,3.1-4.16c.61-1.53,1.57-4.13,3.35-5.3s2.69-2.7,2-3.35-1.87-.26-2.57.26-1.86,1.22-1.86,1.22.43-1.35.78-1.57,2.13-.73,2.26-1.21a3,3,0,0,0,.13-.65s.91-2.22-.57-2a6.61,6.61,0,0,0-4.38,2.39c-.92,1.34-1,2.17-1.83,2.82a22.93,22.93,0,0,0-3.3,4.91l-.65,1.3-3.43,1.35s-.78,0-.91-.22-.39-.7-.74-.22-.74.09-1.48.31A15.79,15.79,0,0,0,979.89,62a37.13,37.13,0,0,1-5.35,3.08c-2.86,1.26-1.43.4-3.95,1.31s-3.78,1.65-4.34,2.25-1.83.74-2.13,1.44S962.51,71.52,961,72s-1.65,1.17-3.51,1.52-6.26,1.13-6.26,1.13,5.13-10.43,6.38-12,2.74-3,3.48-5.25,4-14.51,4.82-16.25a14.5,14.5,0,0,0,1.48-3.77,3,3,0,0,0-.65-1.92l.56-2.91a9.06,9.06,0,0,0,3.17-3.12,21.44,21.44,0,0,0,2.3-5.87,4.28,4.28,0,0,1,2-2.95c1.35-.95,3-2.17,1.52-2.69s-2.3.69-3.47,1.47A17.18,17.18,0,0,1,971,20.53s.09-3.12.78-3.77a2.14,2.14,0,0,0,.52-2.44,1.33,1.33,0,0,0-1.82-.08c-.17.34-.52.95-.52.95s-.43-.47-1.3.09a5.79,5.79,0,0,0-2.09,2.52c-.3.87-.39,1.26-.39,1.26s-.56-.26-1.43.91a10.88,10.88,0,0,0-1.44,4.39,33.86,33.86,0,0,1-1.51,4.51L959,33.61l-1.39,0s-.39,1.26-.56,1.69a6.5,6.5,0,0,0-.61,1.66c-.09.64-2.91,3.08-2.56,3.51s-1.18.74-1.13,1.22-.61,1.3-.61,1.69-1.39,1.26-1.3,1.83-1.39,1.91-1.39,2-1,3.39-1.18,3.82S947,53.28,947,53.5a12.62,12.62,0,0,1-.74,1.65s-1-2.87-1.57-4.21a15.18,15.18,0,0,0-2.47-3.22l1.82.74s-.61-1-1-1.17l-.44-.18s1.39-.56,1.7,0a2.51,2.51,0,0,0,.69.78,1.54,1.54,0,0,0-.87-2c-1.43-.52,2.05-.22,2.05-.22s-.4-1.17-1.26-1.43.73-1.26.73-1.26-1.08-.09-1.6-.09.78-2.25.78-2.25A4.54,4.54,0,0,1,943,41c-.87,0-2.17-1.21-2.17-1.21a20.54,20.54,0,0,1,2.26,0,2.36,2.36,0,0,0-2.13-1.3,40,40,0,0,0-4.21,0c-.35.13,2.43-1.47,2.43-1.47a28.77,28.77,0,0,0-3,1,15.78,15.78,0,0,1-5.87.22c-1.52-.35-12.33,0-13.33.87a14,14,0,0,1-3.3,2c.46-3.66,1.2-7.59,1.2-7.59L913.74,33l.57-1.41c.36-.88.43-4.65.28-9.22a40.86,40.86,0,0,1,.29-6.87,43.19,43.19,0,0,1,2.65-7c1-2,3-3.69,3.36-4.87s-1.51-1-2.58.22-4.65,5.61-5.58,7.68S910.66,13,910.66,13a3.22,3.22,0,0,1-.86-1.11c-.35-.74-4.43-4.21-6-6.13s-3.15-1.77-3.37-1,2.29,4.06,3.72,5.46a34.46,34.46,0,0,1,3.36,4.36,27.79,27.79,0,0,0-3.28-.52c-1.29-.07-2.22.15-2.72,1.7-.36,1.12.06,1.31.32,1.34a5.77,5.77,0,0,0-1.4.21c-.71.22-.78.44-1.21,1.48s1.43,1,2.57.59,2.51,1.25,2.51,2.58a19.5,19.5,0,0,0,1.5,6.79c1.14,2.81-.65,3.62-.65,3.62a16.15,16.15,0,0,0-2.64.52c-.79.29-1.07,6.94-1.07,6.94a12.64,12.64,0,0,1-2.51,1.63c-1.28.59-.64.73-1,3.39s-.35,1.48-1.36,3.55a74.18,74.18,0,0,0-3.43,8c-.86,2.58-1.5,2.36-2.14,3.32a2.39,2.39,0,0,1-1.65,1,16.65,16.65,0,0,0-2.22-1.33c-.85-.37-.07-1-1.35-2.81S884.1,52.9,884,49.68s-1.5-3.65-1.5-5.2-2.9-5.32-4.08-8S869,31.74,869,31.74c-4.11-.4-6.22.81-8.9,2.18s-5.58,5.91-6.12,6.94-1.21,3.84-2,4.32a11.48,11.48,0,0,0-2.75,4,49.38,49.38,0,0,0-1.86,8.64c0,1.66-.43,1-2.43,2.58S842.33,64,841,65.71a7.14,7.14,0,0,1-3.32,2.21l-2.79-.77a22.38,22.38,0,0,1-2.83-1.74c-.47-.45-4.42-2.06-5.86-2.76a6.19,6.19,0,0,0-1.12-1.74c-1-1.2.77-1.72.77-1.72l-2.59-1a3.59,3.59,0,0,0,1.85-.52,1.53,1.53,0,0,0,.56-1.23,2.67,2.67,0,0,1-2.25,1,6.83,6.83,0,0,1-2.59-1.52s.85-.23,1.1.15a2.22,2.22,0,0,0,.81.66s.3-.08-1.08-1.5a4.17,4.17,0,0,0-2.94-1.52,2.75,2.75,0,0,1-1.18-.49,9.43,9.43,0,0,0,3.11.27,6.06,6.06,0,0,0,2.38-.87s-4.16.76-4.44.38a5.71,5.71,0,0,0-1.16-1.45,15.41,15.41,0,0,0-2.54-1.46,16.67,16.67,0,0,1,3.54.43A7.33,7.33,0,0,0,816,49c-1.23-.33-3.81-.9-3.81-.9l3.32-.45a12.19,12.19,0,0,0-2.76-.51c-1,0-4.07.52-4.07.52s1.22-.75,1.71-1c.26-.13-.66-.1-1.85.16l0-.47a5.67,5.67,0,0,1,2-2.36c1.64-1.22,3.61-4.06,3.68-4.8s-.39-.88-1-1-2.46,2-3.21,2.92a6.06,6.06,0,0,1-3.36,1.62c-.29-.11,0-1.4.07-2s1.61-2.73,2.89-4.21,3.11-3.84,3.11-4.8-.93-1-1.46-.74-5.54,6.17-5.69,6.42a22.81,22.81,0,0,1-1.86,1.74l.07-.26c.08-.26.18-3.21.22-3.4a35.76,35.76,0,0,1,1.29-3.5c.53-1.18,1.75-3.88,1.75-4.8a.94.94,0,0,0-1.4-.89c-.6.26-2.5,3.81-2.78,4.43S801,34.51,801,34.51s-.21-2.69-.21-3.69a30.16,30.16,0,0,0-.47-4.32c-.28-1.77-1.25-.44-1.68,1.37s-.36,10.19-.25,11.88c.08,1.27,1.18,5,1.91,7.94a4.09,4.09,0,0,0-2.44,1.5c-1.65,1.84-2.61-.16-2.61-.16a5.93,5.93,0,0,1-.85,1.84c-.45.46-.3.33-1.52-.6S792.2,52,792.2,52a9.51,9.51,0,0,0-3.1.43,14.57,14.57,0,0,0-2.62,1l1.33,0s-.5,1.86-1.19,2.24-2,1.31-2,1.31l1.93-.2A8.49,8.49,0,0,0,785,60a6.19,6.19,0,0,1-.68,2.22L786,60.88a18.28,18.28,0,0,0-.28,3.9,4.65,4.65,0,0,1-.75,2.79l.78-.9a19,19,0,0,0-.25,2.8c.09.62-1.09,2.11-1.09,2.11a7.86,7.86,0,0,0,1.72-1.2,6.86,6.86,0,0,0-.08,4c.7,1.74,1,2.39,1,2.39L786.63,74a20,20,0,0,0,2,4.09c.89,1,1.11,1.35.89,1s-1.75-3.16-1.45-3a13.18,13.18,0,0,1,1.94,4,8.89,8.89,0,0,1,0,1.84l.36-1.55a32,32,0,0,1,.95,3.15c.1.68.15-1,.15-1a10.44,10.44,0,0,0,.92,2.93c.47.51.26-.67.26-.67s1.45,1.36,1.24,2a6.39,6.39,0,0,1-1,1.52l1.63-1.14-1.26,2.18,1.37-.53,1.13-.16-.5,2.2s-4.46.67-4.45,2a32.47,32.47,0,0,1-.21,6c-.36,2,.49,7.36-.2,11.6s1.28,12.26,1.89,16.78.76,6.4-.14,8.6-1.7,7.83-2.24,10.61a37.86,37.86,0,0,1-2.52,6.79c-.21.6-.3,3.27.07,3.44a5.67,5.67,0,0,0,1.25.29,94.39,94.39,0,0,0,3,15.65c2.26,7.7,7.7,15.07,8.07,17.78s.51,3.73-.81,5.41-3.28,12.71-3.58,15.57-.61,3.88-.84,6.85-.18,3.36-.89,4.9-1.6,5.51-2,6-1.27,1.21-.64,2-2.26.72-.81,2.53a2.15,2.15,0,0,1,.24,2.24c-1.58-.23-8.72-1.36-5-2.3l4.21-1a53.91,53.91,0,0,0-7.13,1.46,11.58,11.58,0,0,0,.47-1.22s-6,.81-6,1.62-4.21-1.21-6.31-1.58,3.5,1.5.7,2.11-6-1.46-8.42-1.86l-2.46-.41s3.51,1.21,2.46,1.9-4.92-.73-4.57-1.17-2.45.69-2.1,1.41-8.77-.08-5.26-1.81l3.5-1.74s-6.66,1.21-7,2.66-1.76-.8-7-1.29-.35,1,0,1.54-6.33-.75-7.62-1.66c-1.75.85-3.61,1.82-3.61,2.14,0,.61-6.31-2-9.47-2.54s2.46,1.17,1.75,2.06-10.53-1-10.17-1.46-1.76,1.17.35,1.94-8.07-1.25-12.28-1.78,5.26,1.66,4.56,2.27-20-1.22-17.55-2.63l2.46-1.42a14.36,14.36,0,0,0-3.73,1.44c-.26-.69-1.63-.8-1.17-1.4.63-.83-.25-1.58-.64-2s-1.3-4.44-2-6-.66-1.93-.88-4.9-.55-4-.85-6.85-2.25-13.89-3.57-15.57-1.19-2.7-.81-5.41,5.81-10.08,8.07-17.78a94.39,94.39,0,0,0,3-15.65,5.67,5.67,0,0,0,1.25-.29c.37-.17.27-2.84.07-3.44a36.89,36.89,0,0,1-2.53-6.79c-.54-2.78-1.32-8.41-2.23-10.61s-.77-4.08-.15-8.6,2.58-12.54,1.89-16.78.17-9.65-.2-11.6a33.36,33.36,0,0,1-.21-6c0-1.38-4.44-2-4.44-2l-.51-2.2,1.13.16,1.37.53-1.25-2.18,1.62,1.14a6.72,6.72,0,0,1-1-1.52c-.2-.6,1.25-2,1.25-2s-.22,1.18.25.67a10.12,10.12,0,0,0,.92-2.93s.06,1.68.15,1,.95-3.15.95-3.15l.37,1.55a8.15,8.15,0,0,1,0-1.84,13.42,13.42,0,0,1,1.93-4c.31-.14-1.23,2.71-1.45,3s0,0,.89-1A20.17,20.17,0,0,0,688.63,74l-.44,2.76s.32-.65,1-2.39a6.86,6.86,0,0,0-.08-4,8.13,8.13,0,0,0,1.73,1.2s-1.18-1.49-1.1-2.11a17.74,17.74,0,0,0-.25-2.8l.79.9a4.65,4.65,0,0,1-.76-2.79,17.82,17.82,0,0,0-.27-3.9l1.65,1.38a6.31,6.31,0,0,1-.67-2.22,8.49,8.49,0,0,0-1.53-3.14l1.93.2s-1.32-.93-2-1.31-1.19-2.24-1.19-2.24l1.33,0a14.57,14.57,0,0,0-2.62-1,9.58,9.58,0,0,0-3.11-.43s.54-2.69-.68-1.76-1.06,1.06-1.52.6A6.08,6.08,0,0,1,680,49s-1,2-2.61.16a4.13,4.13,0,0,0-2.45-1.5c.73-2.89,1.83-6.67,1.91-7.94.11-1.69.18-10.07-.25-11.88s-1.39-3.14-1.68-1.37a31.39,31.39,0,0,0-.46,4.32c0,1-.22,3.69-.22,3.69s-1.53-3.1-1.82-3.73-2.18-4.17-2.79-4.43a.93.93,0,0,0-1.39.89c0,.92,1.21,3.62,1.75,4.8s1.25,3.32,1.29,3.5.14,3.14.21,3.4l.07.26a24.58,24.58,0,0,1-1.86-1.74c-.14-.25-5.15-6.12-5.68-6.42s-1.47-.22-1.47.74,1.83,3.32,3.11,4.8,2.83,3.62,2.9,4.21.36,1.88.07,2a6,6,0,0,1-3.36-1.62c-.75-1-2.58-3-3.22-2.92s-1.11.22-1,1,2,3.58,3.69,4.8a5.77,5.77,0,0,1,2,2.36s0,.18-.06.47c-1.18-.26-2.1-.29-1.84-.16.48.23,1.71,1,1.71,1s-3.08-.5-4.08-.52a12.19,12.19,0,0,0-2.75.51l3.31.45s-2.57.57-3.81.9a7.37,7.37,0,0,0-2.41,1.5,16.58,16.58,0,0,1,3.53-.43,15.84,15.84,0,0,0-2.54,1.46A5.85,5.85,0,0,0,656.66,53c-.29.38-4.44-.38-4.44-.38a6,6,0,0,0,2.37.87,9.39,9.39,0,0,0,3.11-.27,2.68,2.68,0,0,1-1.18.49,4.14,4.14,0,0,0-2.93,1.52c-1.39,1.42-1.09,1.5-1.09,1.5a2.3,2.3,0,0,0,.82-.66c.24-.38,1.1-.15,1.1-.15a6.92,6.92,0,0,1-2.59,1.52,2.65,2.65,0,0,1-2.25-1,1.53,1.53,0,0,0,.56,1.23,3.57,3.57,0,0,0,1.85.52l-2.59,1s1.81.52.76,1.72A6.44,6.44,0,0,0,649,62.65c-1.44.7-5.38,2.31-5.86,2.76a21.72,21.72,0,0,1-2.82,1.74l-2.79.77a7.19,7.19,0,0,1-3.33-2.21c-1.32-1.67-1.89-3.77-3.89-5.36s-2.43-.92-2.43-2.58a49.38,49.38,0,0,0-1.86-8.64,11.5,11.5,0,0,0-2.76-4c-.78-.48-1.46-3.29-2-4.32s-3.43-5.57-6.11-6.94-4.79-2.58-8.91-2.18c0,0-8.26,2.11-9.44,4.77s-4.07,6.42-4.07,8-1.4,2-1.5,5.2-.5,5.1-1.79,6.87-.5,2.44-1.36,2.81a16.65,16.65,0,0,0-2.22,1.33,2.36,2.36,0,0,1-1.64-1c-.64-1-1.29-.74-2.15-3.32a74.18,74.18,0,0,0-3.43-8c-1-2.07-1-.89-1.36-3.55s.29-2.8-1-3.39a12.41,12.41,0,0,1-2.5-1.63s-.29-6.65-1.07-6.94a16.2,16.2,0,0,0-2.65-.52s-1.79-.81-.64-3.62a19.74,19.74,0,0,0,1.5-6.79c0-1.33,1.36-3,2.5-2.58s3,.44,2.58-.59-.5-1.26-1.22-1.48a5.77,5.77,0,0,0-1.39-.21c.26,0,.68-.22.32-1.34-.5-1.55-1.43-1.77-2.72-1.7a27.71,27.71,0,0,0-3.29.52,34.46,34.46,0,0,1,3.36-4.36c1.43-1.4,3.93-4.72,3.72-5.46s-1.79-.89-3.36,1-5.65,5.39-6,6.13a3.09,3.09,0,0,1-.86,1.11s-1.14.59-2.07-1.48S558,5,556.94,3.83s-2.93-1.4-2.57-.22,2.36,2.88,3.36,4.87a44.17,44.17,0,0,1,2.65,7,41.63,41.63,0,0,1,.28,6.87c-.14,4.57-.07,8.34.29,9.22l.57,1.41-1.07.44s.73,3.93,1.19,7.59a14.39,14.39,0,0,1-3.3-2c-1-.91-11.81-1.22-13.33-.87a15.72,15.72,0,0,1-5.86-.22,28.77,28.77,0,0,0-3-1s2.78,1.6,2.43,1.47a40.09,40.09,0,0,0-4.21,0,2.36,2.36,0,0,0-2.13,1.3,20.54,20.54,0,0,1,2.26,0S533.16,41,532.29,41a4.54,4.54,0,0,1-1.78-.47s1.3,2.25.78,2.25-1.61.09-1.61.09,1.61,1,.74,1.26-1.26,1.43-1.26,1.43,3.47-.3,2,.22a1.55,1.55,0,0,0-.87,2,2.6,2.6,0,0,0,.7-.78c.3-.52,1.69,0,1.69,0l-.43.18c-.44.17-1,1.17-1,1.17l1.83-.74a15.1,15.1,0,0,0-2.48,3.22C530,52.28,529,55.15,529,55.15a12.62,12.62,0,0,1-.74-1.65c0-.22-1.13-2-1.26-2.39s-1.17-3.69-1.17-3.82-1.48-1.48-1.39-2-1.3-1.44-1.3-1.83-.66-1.21-.61-1.69-1.48-.78-1.13-1.22S519,37.64,518.87,37a6.89,6.89,0,0,0-.61-1.66c-.18-.43-.57-1.69-.57-1.69l-1.39,0-2.82-4.74A35,35,0,0,1,512,24.36,11,11,0,0,0,510.53,20c-.87-1.17-1.44-.91-1.44-.91a10.82,10.82,0,0,0-.39-1.26,5.7,5.7,0,0,0-2.08-2.52c-.87-.56-1.3-.09-1.3-.09s-.35-.61-.53-.95a1.33,1.33,0,0,0-1.82.08,2.17,2.17,0,0,0,.52,2.44c.7.65.78,3.77.78,3.77a17.84,17.84,0,0,1-1.86-1.13c-1.18-.78-2-2-3.48-1.47s.17,1.74,1.52,2.69a4.25,4.25,0,0,1,2,2.95,22.12,22.12,0,0,0,2.3,5.87A9,9,0,0,0,508,32.56l.56,2.91a3,3,0,0,0-.65,1.92,14.76,14.76,0,0,0,1.47,3.77c.83,1.74,4.09,14,4.82,16.25s2.22,3.69,3.48,5.25,6.38,12,6.38,12-4.38-.78-6.25-1.13-2-1-3.52-1.52-2.82-1.22-3.12-1.91-1.57-.83-2.13-1.44-1.83-1.34-4.35-2.25-1.08-.05-4-1.31A36.79,36.79,0,0,1,495.37,62,16.4,16.4,0,0,0,493,60.93c-.73-.22-1.13.17-1.47-.31s-.61,0-.74.22-.91.22-.91.22l-3.43-1.35-.66-1.3a22.57,22.57,0,0,0-3.3-4.91c-.82-.65-.91-1.48-1.82-2.82a6.61,6.61,0,0,0-4.39-2.39c-1.47-.18-.56,2-.56,2a3,3,0,0,0,.13.65c.13.48,1.91,1,2.26,1.21s.78,1.57.78,1.57-1.17-.7-1.87-1.22-1.87-.91-2.56-.26.22,2.17,2,3.35,2.73,3.77,3.34,5.3a13.67,13.67,0,0,0,3.11,4.16c-2.33-.33-8.26-.4-8.58,2.74a10.35,10.35,0,0,0,.63,5.1c.23.4,2,1.09,2.65,1.72s-.23,1,.85,1.64-.06.74.68,1-1.42.45-.12.85-5.49,4.25-6.23,5-4.12,7.06-3.44,11.15.55,8.34,2.93,10,3,4.48,2.66,5.38-2.94,5-5.61,6-7.2,4.25-8.9,5.62-7.42,7.31-8.39,14.17v.1c-.15-5.43.87-12.46.87-15.18a24.7,24.7,0,0,1,1-7.9c1-4,6.12-13.88,6.19-16.34s.9-3.06,1.79-5.89,2.76-6.56,3.66-9.32,4.54-12.38,3.8-17.08-2.69-18.12-2.31-19.09.3-1.27-.15-1.2a7.7,7.7,0,0,0-1.42.16c-.37.14-1.57-5.6-1.49-6.72s.07-1.71,1.57-3.5,5.29-5.48,5.55-6.23.41-2.46-.6-2.24a4,4,0,0,0-2.05,1.79,2.26,2.26,0,0,1-1.38.93h-.85s1.26-2.94,1.45-3.61,0-1.87-.41-2-1.42.53-2.16,2.39a7.21,7.21,0,0,1-1,2s-1.46.52-.86-1.54,1.12-3.46.19-4.06-1.83-.11-2.05,1.31-.53,2.64-1,2.79a2.31,2.31,0,0,1-.86.11s0-3.69-.9-4.43-1.86.44-1.9,1.68-.22,2.53-.26,3.39a1.88,1.88,0,0,1-.56,1.3l-.63.15a3.39,3.39,0,0,1-.56-2.12,2.09,2.09,0,0,0-.82-2.24c-.64-.34-.45.3-.75.82s-1.27,2.61-1,3.58a32.87,32.87,0,0,0,2.87,5.11c.71,1,2.17,8.39,2.43,10.1a18.76,18.76,0,0,1,.26,2.28s-2.5-.56-2.46.89,1,7.61,1,7.61h-.8l.2.6a12.09,12.09,0,0,0-1.19-1.4c-.3-.19-1.49-.89-1.49-.89l2.28-.1s-1.09-.59-2-1-1.09-2.39-1.79-3.38a18,18,0,0,0-4.27-3.29c-.4-.09.89,2.19.89,2.69s-1-1.24-1-1.24l.25,1.09s-.15-.65-1.89-1.44-3.93-1.54-3.93-1.54L444,44.77a49.79,49.79,0,0,1-5.27-1.69,14.37,14.37,0,0,0-1.3-.7l2,2A31.48,31.48,0,0,0,435.07,43c-1.69-.35-5.72-.45-5.87-.1s.1-.1,1.19.25,4,1.39,4,1.39a65.53,65.53,0,0,1-6.76-.3c-1.69-.3-1.94-.69-1.94-.69s.75,1.14,1.34,1.34-1.74-.4-2,.45-1.83,1.73-1.83,1.73l1.58-.89L426,46a12,12,0,0,1-2.09,1.79c-.55.2-2.73.55-2.73.55s1.29.5,1.59.55-2.49,1.39-2.69,2.43-2.48,1.94-2.48,1.94a27.55,27.55,0,0,0,2.78-.8c1.24-.44-.89,1.05-1.59,1.79a3.38,3.38,0,0,1-2.14.75,16.84,16.84,0,0,0,1.74.2c.9,0-2.19,1.29-2.29,2.29a13.52,13.52,0,0,1-1.24,3.18l1.24-1.29s-.64,2.58-.69,2.88a3.71,3.71,0,0,1-.65,1s1.25-.34,1.49-1.09-.64,2.73-.34,3.58a9,9,0,0,0,.64,1.44V64.85l.95,2.54c.14.4,0-1.54,0-1.54s.69,2.83.84,3.18.35-.6.35-.6l1.44,3s.15,3,.1,3.53-.9.79-.9.79-4.67-2.18-4.62-3.73.35-3-1.54-3.77a8.28,8.28,0,0,1-2.39-1.15c-1.24-.79-3.38-4-3.72-4.42s.69-2.29-.35-2.19S406,59,405.24,59s-.6-2.59-1.55-2.49-.49-1.34-1.39-1.34a1.41,1.41,0,0,1-.6-.16,3.83,3.83,0,0,1,.24-1.24c.58-1.05,2.66-2.08,3.4-3.37s1.56-2.91,2-3.94,2.41-6,1.55-7-1.74-.12-2.4,2.09-.95,2-.75,1,1.7-6.73,1.19-7.72-1.51-.8-1.94.43-.78,2.65-.78,2.65l-.27.73s.75-4.88.52-5.56-1.75-1.74-2.3,1a42.89,42.89,0,0,1-1.76,6.64c-.2.09.46-5.34.47-6.07s-.17-1.63-.73-1.84-1.47.45-2.11,4.06a19.53,19.53,0,0,1-1.56,5.3s-.33-3-.42-3.71-1.59-2.29-1.87-.26-1,4.26-1,5.56a29,29,0,0,0,.4,3.69,25.81,25.81,0,0,1-3.05-3.89c-.15-.7.15-5,0-6.42s-.72-5.87-1.39-6.11-1.64.29-1.69,1.94,0,2.7-.12,2.9-1.54-.17-2.31-1.36-3.21-5.6-4.21-5.82-1.69,0-1.29,1.14,2,3.33,2.29,4.05.25,1.37.07,1.5a.79.79,0,0,1-.47.12c-.1,0-4.43-5-4.87-5.35s-2.09,0-1.62,1.05a42.09,42.09,0,0,0,3,4.47c.67.95,1.05,1.52,1.05,1.52s0,.75-.4.25-4.28-4.67-4.8-4.6S372.32,34,373,34.83s3.85,4.52,4,5-.07.49-.07.49a29.2,29.2,0,0,1-3.11-2.61c-.32-.52-1.54.08-1.34.87a9.22,9.22,0,0,0,3.28,4.06c1.64,1,4.23,2.78,5.7,3.5s7.23,8.13,7.23,8.13-1.22,1.89-1.27,2.09a54,54,0,0,0,4.32,6.7c-.7.16-1.46.43-1.24.83.4.7-.43,2,.21,2.61s-2.28,1.13-1.29,1.66a2.92,2.92,0,0,1,1.3,1.62s-4.2,8.52-4.37,8.71-2.2,1.52-2.28,2.16-2.85,2.17-3.08,3.16-3,1.57-3,1.57l-2.53,1.9a5.77,5.77,0,0,0,.59-2.56c-.06-1.34.75-3.58-.92-7.57s-2-4.6-2-4.6a34.83,34.83,0,0,1,2.57,4.12l.12.6s.13-2.52-1-3.87a23.82,23.82,0,0,1-1.47-1.94s-2.59-10.42-4.7-13.2a12.64,12.64,0,0,0-8.39-5,15,15,0,0,0-6.58.67s-5.7,0-7.63,2-6,9.1-5.85,9.93-1.7,2.48-1.29,3.57,1,1.86.58,2.38-1.25,1.38-.73,2.06-.61,3-.1,3.84,1.35,1.72.84,2.92-.86,1.37-.27,2.16,1,1.4,1,1.4-.86-1.59-.67-2a4.35,4.35,0,0,0,.3-3.29c-.58-1.33-1-2.89-.63-3.59s-.25-1.43,0-2a6.54,6.54,0,0,0,.74-1.59,8.49,8.49,0,0,0-.05-1.44,20.1,20.1,0,0,1,.67,2.84c0,.47.66,8.33,1.16,10.89s.85,5.1,1.82,6.08a3.68,3.68,0,0,1,1.08,1.54s-6.18-3.31-7.21-4.55S334.29,84,333,82.71s-1.88-1.2-3.23-2.33-6.47-7.34-7.05-9.2-.83-3.17-1.61-3.43-.87-2.33-1.57-2.19-1.13-3.11-1.73-3-1.46-1.59-1.78-1.11-2.94-3.06-3.67-4.64a1.3,1.3,0,0,0-.08-.17,8.68,8.68,0,0,0,.77-2.42L311.51,54a2.29,2.29,0,0,1,.16-.85,43.12,43.12,0,0,0,2.07-4.57c.44-1.49,1-2.44.66-3.82s-.23-2.5-.67-2.88-1.47-.6-1.58,1a8.19,8.19,0,0,1-1.21,3.88l-.4.34a20,20,0,0,1-2-5.13c-.22-1.94-1.16-7-2-6.9s-1.14.54-1,2.13.83,5.3.61,5.76l-.22.46a5.61,5.61,0,0,1-1.06-2.71c-.4-2.05-1.49-4.7-2.07-5s-1.86-.21-1.25,2.12.89,3.72,1,4.23.14,1,.14,1a59,59,0,0,0-2.53-5.49c-.47-.53-2.15-.88-1.69.91s1.23,4.44,1.48,5.17.59,2.48.59,2.48a8.41,8.41,0,0,1-1.18-2c-.28-.89-1-2.52-1.68-2.43s-.9.43-.76,1.14a48,48,0,0,0,1.94,6.43c.42,1,1.22,2.62,2,4.09-2.08-.21-3.66-.52-3.66-.52s-8.37-7.85-13.55-8-13.68.46-16.35,3.48-7.4,11.71-7.53,14.12.83,3.32,1.25,3.51l.43.19.57.94a20.9,20.9,0,0,1,1.44,2.76c.1.53,2.13,4.88,2.86,4.9l.72,0a1.55,1.55,0,0,1,.54,1.6c-.15,1.2.35.93.35.93a8.67,8.67,0,0,1,.47,1c0,.16.12-.52.12-.52l.4,1.19.17-.53.51,1.17.51.17.16.41.63-.18a32,32,0,0,1-4.32,1.36c-.93.08-5.14,6.45-7.27,8.81s-5.09,3.61-6,5a8.4,8.4,0,0,0-.81,4.26c0,.21-2.74,5.14-2.54,7s1.66,11.68,3.57,12.62,2.41,1.29,3,.85a8.34,8.34,0,0,1,1.92-.89s-.31,5.21-.59,9a8.24,8.24,0,0,0-2.69-2.37c-1.27-.45-1-.56-.34-2.23s-.63-.82-1.67-1.56-.22-1-.74-2.68-2.83-8.72-3.57-11-2.15-7.36-3-8.88-4.34-3.42-5.79-3.42-6.68-2-5.35-2.07a7.73,7.73,0,0,0,3.31-1.16c.89-.48,2.26-4.08,2.75-5s1.82-3.2,2.49-4.42a7,7,0,0,0,.85-4.57c-.37-1.52.44-7.61.44-7.61s-.22,3-.14,5a8.15,8.15,0,0,0,1.19,3.71,9.75,9.75,0,0,1-.6-2.75c.08-.89.74-7.5.74-7.5s.3,1.63.52,3-.66,5.35-.66,5.35l.74-1.56c.74-1.56.52-6.16-.37-10.69s-5.65-8.77-9.51-10.77-14.78-2-19.31.07-8.54,13.82-9.44,19.83a30.74,30.74,0,0,0,.6,12.63,6.27,6.27,0,0,1-.37,5A18.12,18.12,0,0,0,206.86,96s1.49-2.08,1.34-1.19-1.34,1.19-1.86,1.93-1.56,1.19-.89,1,2.08-.67,2.08-.67.67-.37-1.56,1.19-4.75,8.17-5.27,9.95-1.26,9.36-1.56,11.14a15.82,15.82,0,0,1-1.63,5.8c-1.49,3.27.14,14.11.89,15.52s3.34,8.62,3.34,8.62a27.23,27.23,0,0,0-1.71,4.16c-1.34,3.64-1,12.55.3,15.44s.66,3.2,0,5.8,1,7.95,1.63,8.47a14.34,14.34,0,0,1,1.12,1l-.15,13.67s-1,1.86-4.24,6.53-3.19,13.52-3.71,18.42-1.41,9.07-1.41,9.07a2.13,2.13,0,0,0-.67.44,1.78,1.78,0,0,0-.2.7l-1.37.33c-.05-.22-.1-.45-.17-.68-.65-2.29-.6-4,.41-5.26s1.69-2.42,1.78-5.61.09-3.38.25-6.89.65-9.35-1.12-15.71-1.12-21.06-1.44-25.88-2.26-10.15-3.5-14.67a83.05,83.05,0,0,1-1.91-10.64s5.86-1.15,5.54-5.53-1.75-10.54-2.18-10.55.24-14.12-1.32-15.77l-1.55-1.64s1.29-4.78.59-5.82l-.7-1s9.91-10.5,13.16-12.31,5.92-8.58,6.16-11.92.33-6.69.64-7.41,2.31-10,.75-11.35l-1.57-1.35s.31-4.85.27-5.7-1-1.66-2-1.94-1-.36-1.3-.1.22-.91-.94-1a7.1,7.1,0,0,0-2.42.33s-.31-2.81-1-2.89a3.86,3.86,0,0,0-2.24,1l-.2.25s-1.17-7.19-1.94-7.47-1.54-.76-1,4.27,1.42,7.78,1.38,9.08a32.12,32.12,0,0,0,.89,5.62l.12.2a25.39,25.39,0,0,1,.32,2.81c0,.71-.8,5.44-1.25,7.38s.26,2.42-.17,4-2.19,3.78-3.34,5.37-4,3-7.21,4.16-3.15,1-3.4.69A54.84,54.84,0,0,1,176,84.79c-.24-.6-.22-1.37-2.22-2S172.46,82,171,82a4.48,4.48,0,0,1-2.64-1.11s4.15-6.53,4.2-8.15.08-5.4.71-7a10.58,10.58,0,0,0,.87-3.16,11,11,0,0,1,.09-1.1,23.23,23.23,0,0,1,2.48-2.6c.66-.44,2.77-5.92-.26-9.51s-4.16-4.8-7.87-4.91-9,1.64-9,1.64S154,46,150.88,48s-9,11.79-8.47,14.54l.58,2.75s.65,2.3.46,2.29-.68.83-.68.83l.6-.24-.24,1.55.41-.83-.45,2.26.54-.64.26,2.16.28-.64-.27,2.79.22-1a8.19,8.19,0,0,0-.05,1.76c.13.2.27-.38.27-.38l.23,1.37,0-.78S146,78,146.47,78.51s.32-.06.32-.06l.17.85s-4.45.92-5.45,1.81-1.94,2-2.27,2.27-9.52,5.4-9.92,5.65-3.14,5.45-2.56,7.94.7,3.07.7,3.07-3.85,11.44-4.9,14.19a6.23,6.23,0,0,0-.61-2.77c-1.59-3.36-1.31-9.35-1-10.67s0-14.79.53-16.91.53,1,.55,1.63a4.93,4.93,0,0,0,.75,1.75l.64.29s-.88-.94-.75-1.76.74-1.88.4-2.65,1.2,1.08,1.14,1.49a3.94,3.94,0,0,1-.38,1A2.64,2.64,0,0,0,125,83.07c-.33-1.6-1-1.88-1.19-2.64s1.1-2.77,1.1-2.77,1.6-4.89,1-5.85,1-2.73,1.35-4.4,0-7.16,1-8.75,3.57-7,3.42-9.7,2.9-7.85,3.14-10.21a34,34,0,0,1,.88-4.66s3.05-8.77,2.7-9.43-.81-.72-.81-.72,1.84-6.3,2.12-7.62.77-5.34,1.56-7a31.34,31.34,0,0,1,3-4.3c.35-.54.34-.92-.37-.77s-.86.38-.86.38A29.78,29.78,0,0,0,145,.7c.11-.71-1-1.27-2.14.36s-2.61,4.42-2.61,4.42l-.27.28a2.2,2.2,0,0,1-.71-1.82c.07-1.2.39-2.79-.09-2.91S137.71,1,137.5,2.34a28,28,0,0,0-.21,3.4,1.61,1.61,0,0,0-1.12,1.84,11.74,11.74,0,0,1,.11,2.75S134.63,12.68,134,13l-.65.27s-1.56-.26-2-.38-1.61.36-1.07,1.32,1.07,1.45.82,2.07a6.39,6.39,0,0,0,.15,3.24,11.92,11.92,0,0,1,0,3.39s-.19.23-2.09,0-2.61.44-2.77,1.53a64.31,64.31,0,0,1-3.52,8.88c-1.21,2.45-6.18,15.85-6.21,18.07a15.39,15.39,0,0,1-1.51,5.9c-.36.37-3.29,3.57-3.29,3.57s-.82-9.47-.76-9.88-2.1-10.09-5.54-12.45a11.53,11.53,0,0,0-7.48-1.74,9.43,9.43,0,0,0-7.95,1.38c-3.61,2.74-6,8.83-7.12,10.49s-3.56,10-3.56,10-5.39-15.66-6.79-18.46-3.7-6.55-4.78-9.45-3.66-5.85-4.11-5.9-3.75-.32-3.75-.32-1.6-1.18-1.38-2.61a14.42,14.42,0,0,0-1-5.94l-.64-1.37s-.57-1.52,1-4,2.55-4.81,1.56-5.24-1.82.19-2.82,2-2.51,5-3.4,4.87-.73-.43-.73-.43,2.17-8,2.31-9.2-1.5-2.09-2-.87-.9,3.21-1.5,4.38A35.67,35.67,0,0,0,50.06,10s.37,1.3-.88,0a48,48,0,0,1-4.86-7.49C43.93,1.57,41.83.65,42,1.84S44,7,44,7.87a2.66,2.66,0,0,0,.31,1.43A36.47,36.47,0,0,0,41,6.08c-1.1-.79-4-1.15-2.59.52s5.85,6.7,5.85,6.7l1.37,2s-.67.4-.06,1.35,2.6,2.91,3,3.51,3.67,7.06,3.8,7.46a1.18,1.18,0,0,1-.17.84S55,35.87,56,38.41a6.57,6.57,0,0,0,.94,1.72,6,6,0,0,0-.74.74l-.65-2.16s-.41,1.56-.5,1.7a6.45,6.45,0,0,1-1.61-2.34A6.86,6.86,0,0,0,53,36.83a21.1,21.1,0,0,1,0,2.39c-.09.18-.41-1-.51-1.29l-.41-1.19A13.9,13.9,0,0,1,51.57,39c-.27.69-1-2.25-1-2.25a11,11,0,0,1-.64,2.2c-.32.55.87,2.11-.42.78s-4.5-1.84-5-1.79,3,1.06,3.4,1.24.6,1.15.6,1.15l-4.36,0a21.47,21.47,0,0,0-3.13.46s2.85.28,3,.37-1.79,1.56-1.79,1.56L37.43,44.5a9.83,9.83,0,0,0,2.39,0c.87-.19-3.9,3.81-4.5,5a7,7,0,0,1-1.47,2.11c-.18.14.69-.28.69-.28s-2.11,2.76-2.25,3,1.7-.55,1.7-.55a18.39,18.39,0,0,0-1.7,4l-.23,1.33,1.06-1.93A14.53,14.53,0,0,1,32.34,60a6.75,6.75,0,0,1-.83.82l.87.6v1.74l.09,2.12a8,8,0,0,0-.27,3.62c.41,1.34.32,5.38.73,5.74a2.11,2.11,0,0,0,1.2.37s.68,4.87,1.88,5.6,1.42.87,1.42.87l-.32,1.84.6-.23L37.94,85l-.32.73.64-.41,1.15,2.34S32.52,90.46,30.82,92a21,21,0,0,0-3.17,3.22c-.37.6-4,5.56-4.32,8.68a33.21,33.21,0,0,1-1.21,6.67,39.2,39.2,0,0,0-1.73-6.21c-.89-1.78-2.53-13.16-.3-10.63A13.78,13.78,0,0,1,22,96.44c.16-.17.32-.34.49-.5a3.13,3.13,0,0,1,.72-.55c-.05-.81-.12-1.61-.15-2.36-1-.64-2-1.18-3.29-2.08-2.67-1.93-5.5-2.08-9.06-3.19S6,85.67,6,85.67,9.09,82.1,10,81a5.8,5.8,0,0,0,1.41-3.72c0-1.41-.13-2.64-.13-2.64a26,26,0,0,0,2.29-4.46c.33-1.33,2.29-7.52.61-10.92-1.5-3-5-8.58-9.2-10.91a.85.85,0,0,0-.37-.27c-.26-.08-.85-.89-.85-.89s.55-1.1.76-1.15.39-.21,1.62-1.52a1,1,0,0,0-.38-1.87L6.08,42c.34-.68-.51-1.11-1-1.19a4.27,4.27,0,0,0-1.7.55,2.16,2.16,0,0,1-.43-.38c-.21-.26-1.44.34-3,.85-.91.3-3.63,2.6-5.79,4.45A15.18,15.18,0,0,0-11,47c-3,1.23-6,2.63-6,2.63l-.94.89s-.39-.62-.84-.56-.72.78-.72.78a4.57,4.57,0,0,1-.11-1.5,4.18,4.18,0,0,1,.21-.68c-.26.6-.76,1.66-.88,1.62S-22.58,47-22.58,47l1.45,3.13L-27,47.7l5,2.29s-3.51-.72-5.74.84-8.53,4.23-6.69,10.76c1.64,5.81,4.15,7.55,3.78,9.87l-.12.49a4,4,0,0,1-.15.4,9.56,9.56,0,0,1-.94,1.58c-1.28.23-4.26-.27-7.63-1.15-3.9-1-4.67,0-7.17-.76s-4.46-2.42-6.58-3.4-1.36.17-2.76.68-4.42-.55-6-.68-5.64.51-6.49,0-1.32-3.44-1.32-3.44.56-1.65,1.19-3.26a27.71,27.71,0,0,0,1.1-4.42s.22-.3.47-.3.81-.38,1.78-2.38.43-5.35,0-7-1.06-.81-1-2.59.82-2.14.8-4.06c0-.19-.12-2.86-.2-3.8a22.53,22.53,0,0,0-2.5-6.49c-1.19-1.78-2.31-2.77-5.4-5-2.35-1.71-10.32-1.74-14.06-.76s-7.72,5.56-8.83,7.55-2.2,10-2.2,10-5.34,2.45-5.93,3.43-.93,3.73-.13,3.9,7.24-2,7.24-2,1.79,5.9,1.66,6.54.47,2.21.77,3.52a11.55,11.55,0,0,0,2,3.36l1,2.33s-3.06.81-3.91.47-6.92-.17-8.62-1-2.17-.21-3.1,0-1.74-.29-2.55-1.61-1-.26-2.88-1.87-1.45-1.65-2.68-3.23a81.64,81.64,0,0,1-5.56-7.81,34.31,34.31,0,0,0-2.85-5.22,36.25,36.25,0,0,0-3.31-4.12,8.32,8.32,0,0,0-.38-1.23c-.21-.72-1.44-3.86-2-5.39s-3.78-1.87-4-1.91-1.74-2.38-2.93-3.82-4.16-3.44-4.71-3.32-.42,1.62-.42,1.62l-.94-.89c-.93-.9-2-.94-2.34-.51s.35,1.95.35,1.95l-.85-.17c-.85-.17-.85.72-.77,1.4s3.61,5.9,4.33,6.71.68,1.7,0,1.74-1.91-.81-3.31-2.17-2-1.06-2.08-.25,4.54,4.71,4.5,5,0,0,.68.68,4.54,4.58,4.54,4.58l1.7,2.38-.34,1c-.34,1,1.7,8.06,2.55,8.58s4.58,6.11,9.34,12.82,16.55,18.25,16.55,18.25.68.94,2.21,7.48a51,51,0,0,1,.6,19.19c-.94,5.52-2.55,21.74-3.31,25s-1.19,6.36-.09,7.72,5.09.17,5.09.17a63,63,0,0,0-1.44,12.49c-.12,7.13-.76,24.45-1,28.53s-.25,15.92-.13,19.61-1.14,5.35-1.78,8.53,3.57,7.9.9,10.45-.9,2.17.37,3.82,2.3,3.31,1.54,5.73,1.14,2.93,1.14,2.93.51-1.15-.51,2.42.26,9.17,1.53,10.7,11.34,2.93,13.5,2.29,1.4-5.09,1.28-5.47-2.43-8.92-2.43-8.92l.51-.13a8.88,8.88,0,0,0-.12-2.42A7.35,7.35,0,0,1-90,232.8c.38-.76.77-8.27.13-10.7s1-4.2,1.91-5.6,4.59-8.66,5.09-10.57,1.53-7.9,3.19-12,3.44-13.24,3.44-13.24,2.67,7,3.06,9.93.38,6.12,1.52,10.57,3.82,11.34,5.35,16.31,0,3.06,0,7a22.69,22.69,0,0,0,.38,5.73c.39,2.54,2.81,7.26,2.81,7.26s.25.76-1.15,2.67-.64,4.59,0,6.5,5.35,2.42,5.86,3.31,2.67,2.54,7.13,2.29,10.32-1.53,11-3.31-4.72-4.59-5.86-5.6-2.68-6-2.68-6,.26-.89-.51-3.44-1-1.66-.38-2.55.77-2.8-.89-5.6,3.18-10.06,4.2-13.63-2.16-5.35-2.16-9.3-1.66-13.76-1.66-19.49-.51-15.54-1.27-22.16A152.19,152.19,0,0,0-55,144.53l5.48-.12c5.47-.13,13.24,2,18.72.89s-2-7.13-4.46-11.59c-1.53-2.82-3.1-10.33-4.19-16.36a15.63,15.63,0,0,1,1.56,3.89c.22,1.68-.06,3.07,1.5,4.13s1,1.73,2.79,3.57a12,12,0,0,0,6.08,3.29c1.73.28,3.17.22,3.9-.5s.39.16,1.78-1.23a9.2,9.2,0,0,0,2.12-2.62c.28-.61,1.51-2.62,1.51-2.62l-2.71,17.88-3.57,3.71a1.74,1.74,0,0,0,1,1.79l1.19.45s.45,7.28.3,8.62-1.94,4.76-.15,6.69a7.82,7.82,0,0,0,4.6,2.38,4.57,4.57,0,0,0,1.49,0s-2.23,8.92-1.93,12,.29,3.57.74,4.91.75,10.25.45,11-2.08,6.69-2.08,8.47-1,1.49,0,1.79l1,.3-3.42,2.22s-.45,1.19,1.34.75a3,3,0,0,0,2.08-2.38s.59,14.42,1.64,18.88a22.39,22.39,0,0,1,.46,9.57l-1,.42c-1.87.78-3.15,1.32-2.48.54,1.15-1.34-3.45-4-3.45-4l1.15,2.19c.82,1.56-4.86,2.82-8.15,3.4.09-1.09.09-2,.09-2l-.5.25a21.19,21.19,0,0,0,.5-4.58s-3.46,1.57-4.61,3.76a48.92,48.92,0,0,0-2.14,5.7l.12,3.45a7,7,0,0,0-2.39,2.22,39.33,39.33,0,0,0-1.84,4.61l-1.11,4,194.08,0,.21.1c2.42.93,7.7.81,10.06-.1h101.4a27.18,27.18,0,0,0,9.52,0h67.73a7.67,7.67,0,0,0,5.67,0H408.3a5.31,5.31,0,0,0,3.2.72c3.46-.19,5.48-.13,6.8-.72l638.48-.08c1.31.68,3.36.6,7,.8a5.12,5.12,0,0,0,3.33-.81h60.85l.06,0c1.5.87,3.92.75,6.06,0h67a26.21,26.21,0,0,0,10.55,0l100.5,0c2.15,1.05,7.87,1.23,10.41.25a4.3,4.3,0,0,0,.53-.25l193.66,0,.17-3.82a1.8,1.8,0,0,1-.08-.21c2,1.19,6.34,2,9.8,2.2,4.46.25,6.63-1.4,7.13-2.29s5.23-1.4,5.87-3.31,1.39-4.59,0-6.5-1.15-2.67-1.15-2.67,2.42-4.72,2.8-7.26a22.69,22.69,0,0,0,.38-5.73c0-3.95-1.53-2,0-7s4.21-11.85,5.35-16.31,1.15-7.64,1.53-10.57,3.06-9.93,3.06-9.93,1.78,9.17,3.44,13.24,2.67,10.07,3.18,12a80.22,80.22,0,0,0,5.1,10.57c.89,1.4,2.54,3.18,1.91,5.6s-.26,9.94.12,10.7a7.34,7.34,0,0,1,.26,3.82,8.66,8.66,0,0,0-.13,2.42l.51.13s-2.29,8.54-2.42,8.92-.89,4.84,1.28,5.47,12.22-.76,13.5-2.29,2.54-7.13,1.52-10.7-.51-2.42-.51-2.42,1.92-.51,1.15-2.93.25-4.07,1.53-5.73,3.06-1.27.38-3.82,1.53-7.26.89-10.45-1.91-4.83-1.78-8.53.13-15.54-.13-19.61-.89-21.4-1-28.53a63,63,0,0,0-1.44-12.49s4,1.19,5.09-.17.68-4.41-.08-7.72-2.38-19.53-3.31-25a50.77,50.77,0,0,1,.59-19.19c1.53-6.54,2.21-7.48,2.21-7.48S1595.19,74.9,1600,68.2s8.49-12.32,9.34-12.82,2.89-7.56,2.54-8.58l-.33-1,1.69-2.38s3.87-3.91,4.55-4.58.72-.43.68-.68,4.54-4.16,4.5-5S1622.24,32.07,1620.84,33.42ZM-36.63,248l.42-.29V248ZM-28.1,61c.39-1.73.68,0,.79.8a8.62,8.62,0,0,1,.72-3.42c1-2.62,2.45-4.63,3.62-4.8l1.62-.22s-.39,1.17.33,1.62a1.28,1.28,0,0,0,1.17.22,33.6,33.6,0,0,0-.64,4.37c-1.58,1.8-2.16,4.48-2.69,6.05s-1.21,1.08-3.36,1.76c0-.09-.07-.17-.11-.25C-28.27,63.87-28.6,63.26-28.1,61Zm14.61,22.25c-.62,2.89-3.29,6.8-5.41,7.8s-9,3.68-9.31,8a57.82,57.82,0,0,0-.11,10.71c.39,3.23.39,3.57.39,3.57s-2.12-2-2.23-2.62a4.53,4.53,0,0,0-.56-2c-.45-.56-.56-.06-.61-.78s-.39-1.84,0-2.45,1.45-2,1.17-3-1.62-1.39-2.12-.56-3.46,4.46-3.46,4.46a16.34,16.34,0,0,1-3.62.73c-.56-.08-1.27.53-1.63,1.19-.94-4.38-3.84-13.85-3.84-13.85a48.1,48.1,0,0,1,10.49-4.33c5.22-1.32,11.16-6.88,14.69-11,1.36-1.62,2.69-3,3.88-4.29.18.34.35.64.49.87C-14.33,77.26-12.88,80.38-13.49,83.28Zm9.77,154.24L-4,237l-.06-.15c2.69-.6,5.37-1.14,6.8-1.42A59,59,0,0,1-3.72,237.52Zm7.53.13.7-.61.15.38Zm4.83-3.15a4.84,4.84,0,0,1-.18,1.77c-1,.33-2,.64-2.89.89-.31-.14-.6-.25-.82-.33.5-.43,1.15-1,1.93-1.72,1.73-1.58-2.3-2.73-2.3-2.73L5,233.83c.17.43-.65,1-1.89,1.5-1.36.14-4.38.45-7.45.83a7.85,7.85,0,0,1-.79-2.77c0-.14,0-.34,0-.58,4.31-1,9-1.89,9-1.89s-4.67.45-9.11,1c-.11-1.19-.26-2.91-.26-4.95,0-3.19,1.71-12.71,1.64-15.53a67.75,67.75,0,0,1,.43-7.35c0,.17.17.47.76.88,1,.67,2.6,2.23,2.3.89s-2.3-2.83-2.3-2.83.52.38,1.19-.52.52-1.26.59-2.37a20.87,20.87,0,0,0,0-2.24c0-1,.08-.51.3-1.85s.89-.82,1-1.86a22.77,22.77,0,0,0,.22-2.38c0-1.19.07-1.41.07-2.31s.23-3,.23-3,.74,5.57.74,6.24.37,2.68.52,3.79-.67,3.8-.67,4.39a1.92,1.92,0,0,0,.6,1.41c.29.22-.6-.07.29.22a2.31,2.31,0,0,0,1.34.15l.37-.07s-2.37,1.93-1.71,2.6,1.86-1.93,1.86-1.93,1.49,7.88,2.53,11.15c.86,2.69,2.21,8.74,2.92,11.76a2.61,2.61,0,0,0-.16,2.34C10.48,231.38,8.46,232.85,8.64,234.5ZM63,48.41c.16.31.3.61.43.89l-.87,0A5.23,5.23,0,0,0,63,48.41Zm-1.07-2c-.66.49-1.31-.29-1.67-2q-.11-.5-.21-1A31.87,31.87,0,0,1,61.92,46.42Zm-3-4.18a2.35,2.35,0,0,1-.59.74c-.34.19-.93-1.55-1.13-2.43C57.78,41.16,58.36,41.65,59,42.24Zm-33.79,90.6c.32-.66,1.43-2.3,2.13-3.39a4.74,4.74,0,0,0,3.42-.51l2.38-1.7a11.65,11.65,0,0,1-.21,3.53c-.83,3.17-.69,3-.09,5.24s3.3,8.17,2.24,10.51-1.79,2.44-.36,3.68,1.19,1.88.46,3.35a3.87,3.87,0,0,1-2.21,1.88l1.1.37s-1.33,3.26-3.76,7.81c-1.07,2-1.72,3.29-2.21,4.38L27,163.36s1.79.37,2.31-2.23-.52-4.61-2-9.15-2.45-5.57-2.45-5.57l2.75-.74a40.73,40.73,0,0,1-3.27-4.39,53.57,53.57,0,0,1-2.21-6.19C23.14,134.2,24.84,133.53,25.17,132.84Zm1.29,39.44c-1.1,3.22-2.85,14.37-3.31,20.16s0,5.88-2,8.27a13.57,13.57,0,0,0-2.05,4.54,16.62,16.62,0,0,0-.33-2.27,18.9,18.9,0,0,1-.66-3.34s1,2,1.63,2,.82-1.33-.08-1.93-1.55-1-1.55-1,.51,0,.36-.59.23-.3.08-1.49a27.91,27.91,0,0,1-.37-3.2c-.07-1.56.74-5.27.67-7.58s.29-4.61.29-6.24-.67-8-.67-8l5.21-.67a30.55,30.55,0,0,0,3.5-.69Zm41.85,46.88c-.61,1-1.26,1.35-1.12,2-.11.87-.23,3.32-.31,5.38a6.9,6.9,0,0,1-.93.1c-1,0-8.45,1.84-4.69,6a14.68,14.68,0,0,0,2,1.8c-1.85.72-6.12,2.44-7.31,2.92a7.8,7.8,0,0,0,2.56-1.76c1.15-1.27-9.78-2.06-9.78-2.06s5.75.85,6.32,2.3-17.84,1.64-10.93-.06-9.21-3.09-5.18-2.42,4,1.45-1.73,2.24c-1.94.27-4.8.58-7.56.82a6.44,6.44,0,0,0-.5-.65l-.26-.33c5.7-.56,12.35-.87,12.35-.87s-6.79.2-12.6.51c-.86-1.37,1.3-.35-.41-2.62-1.93-2.57,1.75-1.1,1.75-2.85s2.48-3.95,3.67-5.6S47.76,205,47.76,205l10.38-14.78s2.11,14.41,4.68,16.62,3.77,1,4,3.67-.82,3.31.19,4.68c.58.79,1.33.89,1.72,1.26A18.2,18.2,0,0,1,68.31,219.16Zm3.23-77.69a14.53,14.53,0,0,0-.82-2.66,59.56,59.56,0,0,1-3.21-13.22,6.81,6.81,0,0,1,.69-1.84s4.4-3.63,3.49-10.88-1-8.45-1.11-8.68S70.08,93.4,66,90.46s-5.24-3.4-6.07-4.41a7.58,7.58,0,0,1-1.1-1.7L58,83.2l.78.23A7,7,0,0,0,58.18,82c-.27-.41.74.56.74.56s-.18-1.24-.23-1.79.64,1,.64,1a5.53,5.53,0,0,0-.13-1.79c-.23-.74,1,.27,1.79-.92s2.8-3.77,3-5.14l.18-1.38.69,1.24a4.89,4.89,0,0,0-.13-2.07,10,10,0,0,1-.56-1.28L66.82,72a5,5,0,0,1-1.52-1.6c-.32-.78.23-.41.23-.41V67.32c0-.55.51,1,.51,1.1a27.34,27.34,0,0,0,0-3.77c-.13-1.42.69-.41.69-.41l-.55-2.16S67.6,64,67.28,63.14a17.86,17.86,0,0,1-.51-3.08l-.32-1.15a1.27,1.27,0,0,1,.6.79l.09.5a5.7,5.7,0,0,0-.1-1.89c3.21,5,5.73,10.54,6.4,14.63a92.4,92.4,0,0,0,2.14,10.65s3.32,8.09,2.34,14-1.4,19.14-1.47,23.14-.32,6,.68,7l1,1S72.42,136.18,71.54,141.47Zm9.39,95.58s-.88-1.11-1.49-2a10.57,10.57,0,0,1,2.85.24,12.2,12.2,0,0,0,5.14-.3A60.6,60.6,0,0,1,80.93,237.05Zm20.71-2.67a46.51,46.51,0,0,0-6.9,2s-2.88-.18-2.31-1.21c.24-.44-.65-.82-1.76-1.12a5.51,5.51,0,0,0,2.18-1.29c1.11-1.47.83-6.52-2.11-8.27,0,0,1.75-2.66.64-3.58s-1.83,0-2-2.57,2.12-1.75-.73-3.13-2.57-1.74-3.4-4.68-.55-3.67-1.65-5.14a2.11,2.11,0,0,1-.18-.27c.36-1,.65-1.76.81-2.32.81-2.87,3-11.31,3.41-12.78s4.15-15.21,4.54-17.79,5.87-2.34,5.69-.63A84.18,84.18,0,0,0,99,185.81c.73,3.2.55,14.49,1.41,18.82a77.22,77.22,0,0,1,.89,12c0,.2-2.31,4.54-2.68,6.43s-2.18,4.37-.3,6.47c1.19,1.33,3.13,2.95,4.64,4.62C102.48,234.21,102,234.29,101.64,234.38Zm2.31,1h0a1.43,1.43,0,0,0,.14.2C104,235.54,103.9,235.47,104,235.41Zm12.77,1c-.71-1.22-1.41-2.31-2-3.3a8.41,8.41,0,0,1,1.93.72C117,234.17,116.85,235.58,116.72,236.41Zm30.47-1.22a4.41,4.41,0,0,0-1.23-.63c-1.73-.61-8.64-1.27-7.49-.91.92.29,2.21,2.2,3.56,3-.76-.19-1.8-.46-2.84-.75l1-.36-1.46.23c-2.05-.6-4-1.29-3.72-1.84.58-1.21,5.18-2.73,5.18-2.73l-4.6.73c-4.61.73-4.61,4.49-5.18,3.4s-4-3.58-5.18-2.73c-.9.66.3,3.13.87,4.18H126l-1.37-2c-.82-1.17-5.9-2.08-10.6-2.67a16.28,16.28,0,0,1-2-4.38c-.81-3.15-1.42-8.62-1-10.52s3.12-15.53,3.16-19.26.78-9.95.92-12.49c.55-9.68,1.3-14.54,3.48-16.36,2-1.63,5.35-.5,5.77-3.33.22-1.5.65-12.75-.22-18a21.57,21.57,0,0,0-.56-2.33c1-1.83,2-3.55,2.1-3.9.28-.77,4-8.68,4-8.68a19.12,19.12,0,0,0,.61,6.33,31.26,31.26,0,0,0,2.58,5.54s-1.69,6.92-.41,10.2,2.67,4.63,4.34,5.27a42.24,42.24,0,0,1,4,1.86,37.76,37.76,0,0,0,.19,9.51c.78,4.9,2.19,17.37,2.66,21.68s3.11,17,2.89,20.12-2.6,6.89-.25,9.23,2.64,8,2.49,8.92c-.12.75,0,1,.66,1.71C147.42,234,147.09,234.7,147.19,235.19Zm17.17-.28.06-.18c.92-2.51,2.76-3.18,1.25-5.17s-2.85-5.16-2.32-7.81,1.5-2.56.52-4.87,3.51-6.73,2.39-10.93-1.27-10.7-.83-12.58-.29-6.13-.32-7.17.14-5.27.14-5.27l4.34,15c2.14,7.41,4.3,13.91,3.77,16.83s.84,7,2.06,7.67a2.88,2.88,0,0,1,1.53,3.62,8.33,8.33,0,0,0-.78,4.66,28.35,28.35,0,0,0,.74,2.93,25.41,25.41,0,0,0-5.63,1.31c-2,.93-5.35,2.22-7.23,2.94.07-.27.15-.53.24-.8l1.81-.47Zm9.8,1.35s-5.76-1-2.3-2.18c1.29-.43,3.3-1,5.32-1.52.28.89.59,1.79.89,2.57C176.32,235.72,174.16,236.26,174.16,236.26Zm63-3.94a15.19,15.19,0,0,1,2,.47l-.17.76c-1.3,0-2.62.12-3.82.22-4.89.43-6.62,2.37-6.33,1.76s-5.75-2.33-5.17-2-2.89,1.73-2.89,1.73-2.44-.93-3.7-1.47c-.24.71-5.8,2-5.8,2s-1.72-1.09-1.72-2,9.21-1.91,9.21-1.91-8.92.46-11.22.94a5.11,5.11,0,0,0-2,1c-.24-.77-.45-1.51-.56-2,2.12-.31,3.72-.52,3.72-.52s-1.6.07-3.78.21a27.46,27.46,0,0,1,.84-7.55c.59-1.56,4.31-11.66,5.65-15.16a45.58,45.58,0,0,1,5.19-9.06,13.44,13.44,0,0,0,2.16-6.61c.07-1.33-.3-7.57-.3-7.57l10-.3a94,94,0,0,0,2.9,10.18c1.26,3,2.08,4.16,2.15,6.31a66.67,66.67,0,0,0,1.19,8.84c.6,3,3.34,11.58,3.72,15.3.33,3.31.71,6.08.8,6.65C237.38,232.32,236.38,232.19,237.17,232.32Zm21.58,2.15c-.18-.21.11-.45.57-.68,0,.35,0,.68,0,1A1.77,1.77,0,0,1,258.75,234.47Zm9.2-45.75c-1.34,4.13-3.83,6.35-4.34,7.39s-1.54,10.6-2,13.5a56.85,56.85,0,0,1-2.07,9.6c-.89,2.45-2.09,3.13-.92,5.11s.2,5.71.5,7.48c.07.46.11.91.14,1.33l-1.41.13c-3.15.28-3.85,1.73-5.22,2l-.28-.41c-2.15-3.27-4.9-5.72-4.9-6.31s.3-10,.3-15.82-.6-11.59-1.12-13.22a19.79,19.79,0,0,1-1.19-5.43c0-1.7-1.25-10.62-1.25-10.62s.29-.07.51-1-.74-7.06-.59-7.73a85.14,85.14,0,0,0,2.45-11.14c1.41-8.17-3-21.39-3.34-23.1s-.59-8.32-.59-8.32c.07-1,.74-.59,1.33-.33s1,1.78,1.52,2.45,3.61,4.75,4,5.53.37.93,1.12,2.23,1.45.48,2.41,1.71,1.45,2.64,2.82,3.57c1,.65,2.16,1.32,2.78,1.66-.39,3.79-.89,5.76-1,6.78s-2.55,5.82-.91,7.1,4.94.95,5.57,1,3.2,5.78,3.4,7.62S269.28,184.58,268,188.72Zm27.8-102a6.86,6.86,0,0,1,.39-1.35c.13-.19,1.51-.8,1.35-1.6s-.23-1.12-.23-1.12a1.16,1.16,0,0,1,1-1.08c1-.14,1.34-.49,1.24-1.24s-.18-1.74-.18-1.74a4.06,4.06,0,0,1,1.05-1.15c.54-.33,1.76-1.4.59-2.27a3.47,3.47,0,0,1-1.52-2.36c-.13-.69,1-4.28,1.71-5.87a8.09,8.09,0,0,0,.46-3.8v-.28s1.87-.65,4-1.56c.84,1.63,1.6,3.17,1.77,3.57a10.64,10.64,0,0,1,.61,3.1,4.28,4.28,0,0,0,.63,1.9c.24.17,2.58,4.39,2.55,5.28a1.44,1.44,0,0,0,.87,1.28s4.7,9.33,7.95,11.6a7.65,7.65,0,0,1,1,.84,3.65,3.65,0,0,0-1.54,1.42c-1,1.63-.37,2.29-1.81,3.13a104.88,104.88,0,0,1-11,4.4c-1.12.22-1.84-.86-3.06-.61s-4.14-2.72-5-3.66-3.16-4.74-3.51-5.11S295.46,87.73,295.75,86.68Zm16.53,148.64c.86-.46-1.15-1.37-1.15-1.37s-4.32,1.7-4.61,1,8.92-3.13,5.47-2.8-14.38,3.43-14.1,3.68-2.3-.79-4.31-1.13-6.34-.69-4.61-.27-9.5,1.43-9.5,1.43,2.3-1,4-1.58S295,233.07,295,233.07s-3.75-.06-8.93.13-6.62,1.54-8.34.85a14.64,14.64,0,0,0-4-.53c0-.05,0-.11.05-.16.67-1.9.23-3,1.4-5.75s11.57-18.3,11.63-19.92-.56-11.17.52-14.6a69.05,69.05,0,0,1,2.88-7.21s1.43.76,2.21,1.11a2.89,2.89,0,0,1,1.63,1.5,10.4,10.4,0,0,1,.8,4.54c-.13,2.69,0,4.64-2.11,6.95s-2.38,2.19-2.07,4,.15,7.17-.66,8.93-2.95,5.46-2.41,6l.54.5s-3.4,5.66-.69,7.33a12.05,12.05,0,0,0,9.26,1.75c3.15-.85,11.39-1.38,14.51-1.56s8-1.38,7.06-4.29-2.51-2.87-5.28-2.6-3.38-.32-5.29-.72a6.57,6.57,0,0,1-2.83-1.2,32.52,32.52,0,0,1-.25-4.82c.19-1,5.05-3,6-4.89s5.54-14.66,5.11-19.06-.95-10.59-4.13-16.55-5.14-10-6.32-12.29-4.61-11.07-6.45-11.44l6.62-5.13s-3.29-6.48-3.51-9.26.88-18.93.94-20.28,16-7.84,19.07-10.1,5.15-2.26,6.9-4a8,8,0,0,0,.91-1.13c1.37,1.32,2.7,2.7,3.6,3.75,2.16,2.55,3.09,3.82,3.09,3.82s1.28,25.34.73,28.36-1.08,5.1-.53,7.38-.9,11.83-1.33,13.89a3.43,3.43,0,0,0,2.21,3.83c1.14.51,3.28,1.34,3.28,1.34s-.57,19.35.11,23.38,3.75,15.91,3.89,16.61-1.2,1.82-.86,2.77-2.4,1.72-.93,2.44.41,2.89.65,3.31,1.42.89,1.42.89,1.27,12,1.66,15.59c.23,2.08.7,4.76,1,6.83-1.59,0-5.27,0-12.43.14C324.94,233.63,311.41,235.77,312.28,235.32Zm11.13-.07c.68-.64,19.73-1.66,24.32-1.89.07.45.12.87.16,1.25C343.44,235.15,322.71,235.9,323.41,235.25Zm34.15-.1c0-.34,0-.92,0-1.65l.75.17C360.47,234.16,359.36,234.71,357.56,235.15Zm16.11-.14c-3.07-.61,3.06-2.47.76-2.11s-6.9,2.39-6.9,1.58-6.53-1.62-6.53-1.62.22.61.51,1.22a33.39,33.39,0,0,0-3.93-.87c0-2.78.06-7.31.09-9.05,0-2.58,1.33-9.55,1-11.13s1.2-1.4,1-2.3.33-1.08.12-2.13,1.11-2.72,1.11-2.72l-.37-10.22,1.59-11.79s5.12,11,5.55,13.19,1.1,8,1.8,9.17.11,2.16,1.25,3.19-.8,1.87-.17,1.9a1,1,0,0,1,.85.38s2.84,12.47,3.19,14.28a53.15,53.15,0,0,1,1.15,9.07A6.84,6.84,0,0,1,373.67,235Zm18.14-50.38c-1.29,4.67-2.48,5.07-2.18,8s-1.89,5-1.3,6.67-1.89,8.55-1.19,10.93-2.29,2.59-1.59,4.87-1,5.37-1,5.87a1.23,1.23,0,0,1-.25.55c-.07-3.52-.08-6.59,0-7.29.12-1.74,1.93-4.44.9-5.72s1.87-1.23.49-2.67a7.19,7.19,0,0,1-1.59-4.14c-.16-.82-1.2-12.09-1.49-14.37s.19-16.5-1.49-21.87,0-3.27.67-2.55,2.26,1.59,2.51,2.87.79,2.42,1.78,2.69a10.11,10.11,0,0,0,2.82.07l-.07-1.16s-1.65.72-2,.16a40,40,0,0,0-2.37-3.28,12.28,12.28,0,0,0-3.18-3.12c-.95-.44,2.59.12,3.1,1.11a17.56,17.56,0,0,1,.95,2.46l.85-1.25a5,5,0,0,0-1.48-2.37c-1-.66-2.34-1.57-3.31-1.38s-1.74.27-1.74.27l.18-1.05s2.67-2.71,1.09-5.6-2.43-10.37-2.34-13.11-.41-4.84-.19-7.3-.67-14.54-.4-18,.48-8.28,3.93-12.55,12.6-12.14,14.38-16.16,4-10.45,4.64-11.37a1.86,1.86,0,0,1,.27-.29c.43.89.82,1.79,1.16,2.34.75,1.19,1.29,1.14,1.34,2.43s2.44,1.69,3.24,3.73a12,12,0,0,0,3.58,4.63,11.75,11.75,0,0,1,3.13,7.55c0,3.14-.35,16.36-1.54,20.88s-3.48,13.68-4.63,17.41-2.18,5.86-2.48,6-.15,1.64.49,1.89.8,1.84.8,1.84-1.89,4-2.69,5.87-4.37,8.95-5.41,11.33-7.26,11.69-6,16.16S393.11,180,391.81,184.63Zm4.46,49.74a9.12,9.12,0,0,1,.22-1C397,233.77,396.83,234.1,396.27,234.37Zm17.42-20.76c-1.05,2.89-3.68,9.45-3.68,10.94s-1.09,1.54-.5,3.68c.34,1.2-.65,2.92-1.47,4.42l-.61,0c-5.75.49-7.29,2.75-7.67,1.29-.13-.47-1-.91-2.08-1.3.9-.4,2-1,1.79-1.72-.35-1.15.94-.6.35-2.24s.59-2.19-.1-3.43,1-1.69.34-2.89,1.55-.29,1.1-2.68-.8-2.24.55-5.72,11.73-20.88,11.73-20.88-.8,6.66-.8,8.25S414.73,210.73,413.69,213.61ZM483.69,74c.4-.63,2-3.46,1.76-4.93a8.89,8.89,0,0,0-.95-3,11.76,11.76,0,0,0,1.75.51,15.65,15.65,0,0,1,.26,2.34c0,1,1.43.13,1.43,1.37s1.11.2,1.11,1.24,8.79,5.08,12.83,7.29,3.13,1.63,7.63,4.17,8,4.63,8,4.63-.13,1.24-.72,5.21.46,12.9,2.22,19.15,9.44,22.15,10.62,24.5,2,5,2.86,5.73,4-1.37,4-1.37,1.69,1.5,3.12,2.8A12.52,12.52,0,0,1,542,146.9v.26s-2.73,5.28-4.56,9.83-4.82,21.76-5.6,25.09,1.7,15.3,1.11,17.65c-.51,2.05,2.56,2.51,2.47,4.73-3.94-4.82-10.88-12.5-11.16-13s1.08-1.31,1.59-3.07,1.36-4.42-.11-6.68-3.74-5.9-3.74-6.47a.58.58,0,0,0,.79-.62,3.69,3.69,0,0,0-.62-2.32c-.63-1.13-1.14-3.06-1.7-4.42s-.12-1.93-.23-3.63a70.14,70.14,0,0,0-2.61-13.38c-1.5-4.36-2.66-5.89-2.66-6.74s-4.7-14.17-6.41-17.57-5.95-7-7.42-7.65-2.21-1-2.21-1l.11-.85a10.62,10.62,0,0,0,1.14.11c.39,0,1.36-.17,1.07-1.47a3.64,3.64,0,0,1,.06-2.77c.45-1.31.74-2,1.59-2.22s4.87-2.66,6.23-5.61,1.51-3.19,1-7.47a27.76,27.76,0,0,0-1.66-7.4c-.73-2.38-5.64-8-8.41-9.31s-6-4.06-9.57-3.95-5.26.47-5.66.75-.34-.11-1-.45-1-.11-1-.11.63-.57.46-.8-1-.28-1-.28.56-.45.56-.68-.57-.4-.82-.36A4.29,4.29,0,0,0,483.69,74ZM449,83.24l.71-1.95.18,1.15,1.15-2.3.08,1.06.62-3.36s0,1.68.27,1.24,1.15-2.92,1.15-2.92l.09,1,.62-2.13.26.71.53-2a28.71,28.71,0,0,1-1.41,7,26.38,26.38,0,0,1-2.48,4.16,3.88,3.88,0,0,1-2,1.23l-.27-1.94.71,1.33Zm-4.52,66.91.45-2.31s2.8-.35,5.13-.86a65.61,65.61,0,0,1-2.26,8.72c-1.41,3.68-1.47,4.25-2.32,6.52s-2.11,7.36-2.91,9.09c.24-3.55.3-6.89-.1-8.51C441.58,159.22,444.49,150.15,444.49,150.15ZM442.27,175l.5.5-.64.87C442.18,175.9,442.23,175.44,442.27,175Zm-8.91,50.61a1.41,1.41,0,0,1-.68,1.36,7.48,7.48,0,0,1-1.31,3.29c-.81.86-1.29,1.58-1.63,2-.85.15-1.87.41-2.93.7a6.72,6.72,0,0,0-.49-1.91c-1.05-2.54.74-.85-.85-3.63s2.93-9.4,4.58-12.19,5.86-8.95,7.15-14.07c.61-2.4,1.41-5.7,2.15-9a.7.7,0,0,0,.64-.25,4.47,4.47,0,0,0,.4-.79s.85.11,1-.18a1.89,1.89,0,0,0,.17-.79,1.79,1.79,0,0,0-.23-1.3,11.17,11.17,0,0,1-.87-1.82l.18-.88a5.77,5.77,0,0,1,1.43-2.06,17.09,17.09,0,0,1,2.72-1.59,22.72,22.72,0,0,1-.34,3.8c-.28.79.4,3,1.08,2.78s1.3-1.88,1.3-2.61a17.8,17.8,0,0,1,1-4.08,13.75,13.75,0,0,0,.91-3.86c-.06-.68,1.19-.39,2.21-1.19s2.44-.62,2-1.7.29-1.24,0-2.61,2.44-2.55,2.49-3.91,4.26-8,4.31-10.37.06-1.64.91-4.36,3.46-11.68,3.46-11.68,4,13.21,4,14.68,1.93,7,1.19,9.75-1.7,2.49-1,3.34,1.13,1,.34,1.59-1.3.51-1.3,1.19.17,1.76.17,2-6,6.52-8.5,9.75-9.3,14.23-11.23,16.15a22.57,22.57,0,0,0-3.57,5l-9.07,15.08S433.19,224.74,433.36,225.59ZM539,233.19c4.61,1.57-6.52,1.9-6.14,1.29s-6.14-2.51-4.22-1.86-6.9,2.51-8,2,5-2.55.38-1.94c-3.69.49-4.18,1.89-4.23,2.11a.22.22,0,0,0,0-.09c0-.45-4.58-1.35-6-1.62,1.56.38-2.07,2-2.82,2.11s-5-1-4.22-1.82,5.37-1.9,5.37-1.9l-4.6.28a24.15,24.15,0,0,0-9.22,2.76c-.36-.23-4.69-1.85-5.34-2.37a5.93,5.93,0,0,0-.79.66c-.77.81-6.52,3-11.89,1.9-2.57-.5-1.62-1.21-.28-1.72-2.94.84-6.52,1.88-7.78.55-1.53-1.62-5.37-2.39-5.37-2.39l2.69,1.42c2.68,1.41-18.42,3.24-19.19,2.63s9.6-2.79,5-2.27c-3,.34-8.65,1.3-11.69,1.74,1.81-2.7,4.81-6.54,5.53-7.56,1.08-1.53,1.7-2,3.46-4.31A177.83,177.83,0,0,1,463,208.87c2.38-1.93,10.14-9.52,13.66-10.66s11.16-2.44,14.79-1.64,7.77,2.32,13.77,5.84,19.79,12.3,22.62,14.68a36.61,36.61,0,0,1,5,5.74,7,7,0,0,0-.64,2.76c-.26,2.81,4.33,4.78,9.63,6.62.37.4.7.76,1,1.09-2.63-1.58-14.82-2-14.82-2A47.84,47.84,0,0,1,539,233.19Zm29.25-172,.15.29-.31,0S568.06,61.47,568.28,61.22ZM557.62,234.35a10.25,10.25,0,0,0,4.11-1.67l3,.71C567,233.92,561,234.48,557.62,234.35Zm11-1c-2.69-.43-6.33-.62-6.86-.65a3.76,3.76,0,0,0,.86-.88c1.89-2.86-1.76-8.34-1.76-8.34l-1-5.66s9.58,11.72,8.4,12.83S569.17,231.77,568.6,233.31Zm17.95-95.39c.93,2.88-.43,14.1-.72,16.39s-.78,15.13-.21,19.12,2.14,13.81,1.93,16.83S586,206.36,586,209.39c0,1.88-.09,5.4.07,8.21l-.19,0c-2.09-.06-4.43-4.75-6.13-8.73s-6.19-19.41-7.23-20.85,0-2.21.65-5.66,2.54-14.27,2.41-15.44-.84-3.2.07-5.08.2-3.13-.2-6.78S573,141,573,141s-1.36-.2-1.43-.91-1.43-3-2.54-4.82-3.58-5.8-3.58-5.8.26-.39.71-1-2.15-5.34-3.64-8-4-8.08-3.76-10.2-2.87-6.48-4.56-7.6-.26-1.87.22-5.13-2.92-6.47-2.92-6.47a19.53,19.53,0,0,0,3.57-5.43c1.21-3-2.3-4.91-2.3-4.91l.21-.26s1.26-1.82.87-1.13.31,1.74.31,1.74a7.09,7.09,0,0,1,0-1.17c0-.74,1.08-.74,1.08-.74l-.17,1.52.56-1a9.28,9.28,0,0,1,1.83-2L556.91,80s1.22-2.26,1.22-1.65a4.64,4.64,0,0,0,.39,1.47l-.09-.52a8.84,8.84,0,0,1,.91-2.34,6.44,6.44,0,0,0-.47,2.34.75.75,0,0,0,.21-.52c0-.39,1.83-2,1.83-2l-1.44,2.3a5.05,5.05,0,0,0,2.31-2.17,6.36,6.36,0,0,0,.91-3.22l.13,1.78s.17-.65.69-2.34a8.16,8.16,0,0,1,1.74-2.95v1.17a14.26,14.26,0,0,0,1.17-4.6,11.15,11.15,0,0,1,1.48-4.65l.68-.28c2,3.94,4.69,9.29,4.74,9.87.07.81-2.29.74-.93,3.61S576.82,80,575,82.17s-4.07,3.32-4.79,1.7A7,7,0,0,1,569.6,81a2.73,2.73,0,0,0-.5,3.54,4.76,4.76,0,0,0,3.43,2.29c.29,0-2.43,1.77-1.86,3l.54,1.11a1.3,1.3,0,0,1,.18-1.48c.64-.67,3.72-1.18,4.14-2.37s1,4.44-1.21,5.1-3.58,1.18-3.58,1.18a3.4,3.4,0,0,0,3.72,1,6.07,6.07,0,0,0,3.43-3A32.7,32.7,0,0,0,579.68,87a15.1,15.1,0,0,0,.86,4.06c.79,2.22.93,3.32.07,4.06s1.93-.44,1.93-2.36.36-.52,1.36.81a7.14,7.14,0,0,0,3.08,2A5,5,0,0,1,585.19,93c-.29-1.47,1.57,1,1.79,1.11s-.36-2.07-.36-2.51,1.14,2.14,1.43,3.84,2.93,6.72,2.93,11.37c0,4.92-2.71,12.78-3.65,16.54C586.52,126.56,585.62,135,586.55,137.92Zm11.74,96.22c0-.1.05-.22.06-.31,0-.29,0-.58.08-.87l1.17-.3-1.15.07c.07-.68.15-1.34.21-2,.85.29,6.55,2.26,6.55,3.15C605.21,234.52,600.9,234.45,598.29,234.14Zm10.28-10.21c.43,1-.64.89-.07,2.44a5.79,5.79,0,0,1,.22,3.4,17.68,17.68,0,0,0,.3,3,11.57,11.57,0,0,0-2.76-1c-2.56-.52-6.87-.9-7.6-1a17,17,0,0,0,.12-1.78c0-1.32-.58.74,0-2.21s-1.29-2.88.5-3.54.93-2.81.78-3.62a46.9,46.9,0,0,1,1.22-8.12c.21,0,.07-1.78.43-4s1.57-9.38,1.86-10.64,1.86-10.48,1.86-12,2.07-11.15,2.07-11.15,1.36,9.82,1.36,11.07.93,16.83,1.07,22.08-2.72,11.88-.5,14.62S608.14,223,608.57,223.93Zm56.07,8.57c-1.26.68-4.06,1.84-4.33,2a20.8,20.8,0,0,0-8.43-2.76l-4.21-.28s4.21,1,4.91,1.9-3.15,1.94-3.86,1.82-4-1.72-2.58-2.11c-1.3.27-5.49,1.17-5.49,1.62v.08c0-.22-.49-1.61-3.86-2.1-4.21-.61,1.41,1.46.35,1.94s-9.12-1.37-7.37-2-4.21,1.25-3.86,1.86c.2.34-2.82.39-4.85.1-.1-.48-.19-1-.26-1.57a41.89,41.89,0,0,1,9.68-1.68,90.72,90.72,0,0,0-9.76.88,5.23,5.23,0,0,1,0-1.63c.21-.67.57.29,1.07-1.48a5.64,5.64,0,0,0,.14-3.1c-.07-.44,2-14.18,2.65-17.13s.43-11.74.43-13.66,1.64-9.74,1.64-12,.58-3.55.79-5.47,2-18.9,2-21.56,2.72-17.27,2.72-17.27a6.57,6.57,0,0,0,1.14-2.44,6.84,6.84,0,0,0,.22-3.91c-.22-.74,1.82-3.54,1.25-6.12a10.77,10.77,0,0,1-.18-1.16c3.15,0,6.72.19,7.27.19a12.76,12.76,0,0,0,4.91-1.75c2.12-1.21,9-4.65,9-4.65l0,.93s-.09,4.08-.39,6.22-1.19,12.5-1.81,14.49-2.06,5.42-2.94,8.46a7.41,7.41,0,0,0,.17,5.09,30.46,30.46,0,0,0-3,4.08c-1.83,2.86-5.89,6.51-9.14,13.43s-5.44,22.51-5.44,24.64,4.92,12.82,4.76,14,1.85,2,.93,4.1,2,4.24,1,5.6-.69,1.69-1.45,2.62-3.45.45-6.48,1.53-2.35,2.9-.18,4.24,6.52.77,8.05.92,9.67-2.07,11.12-2.16,8.25-.6,9.62-1.33,3-1.95,2.94-1.73a24.34,24.34,0,0,1,.1,4.33c-.25,1.41,1.2,1.32,1.06,2.79A11,11,0,0,0,664.64,232.5ZM662.8,95.31A25.75,25.75,0,0,0,659,97.56c-.88.52-8.11,6.66-8.62,7.06a17.71,17.71,0,0,0-2.91,2.36,5.78,5.78,0,0,1-2,1.8c-1.13.71-8.24,2.62-10.59,3-1,.14-1.36.24-1.63.27-.27-4.43-.42-9.06-.42-10.3,0-2.36,1-2.73.78-1.11l-.21,1.63a14.08,14.08,0,0,0,1.28-5c-.07-2-.07-3.25-.07-3.25s1.5,4.06,2.79,4.87,4.65.89,4.79-.66a3.24,3.24,0,0,0-.57-2.37s.43,1.19,0,1.56-.71,1.32-1.43.14a22.12,22.12,0,0,1-1.5-2.51c0-.22,1.43.59,1.5.81s.29.45.29-.88-.5-.52-.79-2.22,1.93,1.7,3.08,2.51A7.81,7.81,0,0,0,645,96.42s-1.07-.37-2.07-2.51a6.26,6.26,0,0,1-.58-3.84l.08-.81s2.57,2.14,2.07,3.1-.07,1-.07,1,1.79-.59,1.07-3.32a13.29,13.29,0,0,0-3.22-5.17s4.51-3,6.22-3.84,3.15.89,5-2.14c.23-.37.44-.75.65-1.13-.13.37-.28.83-.43,1.4-.46,1.63.55,4.2.55,4.2l.31.28a38,38,0,0,1,1.92,3.65,5.48,5.48,0,0,0,.09,1.4,7.85,7.85,0,0,0,2.65,3.41c1,.71,5.67-.26,5.67-.26l.65,2A14.85,14.85,0,0,1,662.8,95.31Zm12-47.07c.65.52,1.4,1.12.5.61l-.56-.34Zm125.13.61c-.89.51-.14-.09.5-.61a2.68,2.68,0,0,0,.07.27ZM810.36,91.8s4.68,1,5.68.26a7.9,7.9,0,0,0,2.64-3.41,5.3,5.3,0,0,0,.1-1.4,38,38,0,0,1,1.92-3.65l.3-.28s1-2.57.56-4.2c-.16-.57-.31-1-.43-1.4.2.38.42.76.64,1.13,1.86,3,3.29,1.25,5,2.14S833,84.83,833,84.83A13.41,13.41,0,0,0,829.78,90c-.71,2.73,1.08,3.32,1.08,3.32s.43,0-.07-1,2.07-3.1,2.07-3.1l.07.81a6.2,6.2,0,0,1-.57,3.84c-1,2.14-2.08,2.51-2.08,2.51a7.79,7.79,0,0,0,2.15-1.11c1.14-.81,3.36-4.21,3.08-2.51s-.79.89-.79,2.22.21,1.11.28.88,1.51-1,1.51-.81A21.27,21.27,0,0,1,835,97.6c-.71,1.18-1,.23-1.43-.14s0-1.56,0-1.56a3.3,3.3,0,0,0-.57,2.37c.14,1.55,3.51,1.47,4.79.66s2.79-4.87,2.79-4.87,0,1.25-.07,3.25a14.24,14.24,0,0,0,1.29,5l-.22-1.63c-.21-1.62.79-1.25.79,1.11,0,1.24-.16,5.87-.42,10.3-.27,0-.69-.13-1.63-.27-2.35-.37-9.46-2.28-10.6-3a5.83,5.83,0,0,1-2-1.8,17.71,17.71,0,0,0-2.91-2.36c-.52-.4-7.75-6.54-8.63-7.06a25.22,25.22,0,0,0-3.76-2.25,14.61,14.61,0,0,1-2.73-1.47Zm.35,143.66a.27.27,0,0,0,0-.09c0-.38-.06-.7-.08-1,3.69.3,6.62.61,6.86.87S814.69,235.55,810.71,235.46Zm43.68-2a21.27,21.27,0,0,0-2.78-.27c-4.73-.19-8.16-.13-8.16-.13s8.95.61,10.53,1.22l.25.1c-.06.34-.13.66-.2.91a.84.84,0,0,0,0,.17c-2.77-.33-5.93-.78-5-1,1.58-.42-2.37-.06-4.21.27s-4.21,1.37-3.95,1.13-9.73-3.34-12.89-3.68,5.27,2.1,5,2.8-4.21-1-4.21-1-1.84.91-1.05,1.37-8.46-1.15-17.07-1.71a22.86,22.86,0,0,0,0-2.31c-.15-1.47,1.31-1.38,1.05-2.79a25.36,25.36,0,0,1,.1-4.33c0-.22,1.58,1,2.94,1.73s8.18,1.24,9.63,1.33,9.58,2.32,11.11,2.16,5.87.41,8.05-.92,2.85-3.16-.17-4.24-5.73-.6-6.49-1.53-.46-1.26-1.45-2.62,1.88-3.54,1-5.6,1.1-2.92.94-4.1,4.76-11.88,4.76-14-2.19-17.71-5.44-24.64-7.32-10.57-9.15-13.43a31.17,31.17,0,0,0-3-4.08,7.38,7.38,0,0,0,.16-5.09c-.87-3-2.32-6.47-2.94-8.46s-1.51-12.34-1.81-14.49-.39-6.22-.39-6.22l0-.93s6.86,3.44,9,4.65a12.73,12.73,0,0,0,4.9,1.75c.56,0,4.12-.19,7.27-.19a8.74,8.74,0,0,1-.18,1.16c-.57,2.58,1.47,5.38,1.26,6.12a6.82,6.82,0,0,0,.21,3.91,6.57,6.57,0,0,0,1.14,2.44s2.72,14.61,2.72,17.27,1.79,19.64,2,21.56.79,3.18.79,5.47,1.65,10.11,1.65,12-.22,10.71.42,13.66,2.72,16.69,2.65,17.13a5.74,5.74,0,0,0,.14,3.1c.5,1.77.86.81,1.08,1.48A9.88,9.88,0,0,1,854.39,233.47Zm22.22,1c-.53.67-5.53,1.37-5.53,1.37s-2.87-.51-5.19-1a34,34,0,0,0,.65-5,5.77,5.77,0,0,1,.21-3.4c.58-1.55-.5-1.48-.07-2.44s-3.07.3-.86-2.43-.64-9.38-.5-14.62,1.08-20.82,1.08-22.08,1.36-11.07,1.36-11.07,2.07,9.67,2.07,11.15,1.57,10.7,1.86,12,1.5,8.42,1.86,10.64.21,4,.43,4a47,47,0,0,1,1.21,8.12c-.14.81-1,2.95.79,3.62s-.07.59.5,3.54,0,.89,0,2.21.22,2.69.37,4.25l-3.4-.34S877.14,233.8,876.61,234.47ZM907,61.22c.22.25.17.27.17.27l-.31,0Zm11.58,174.17c-1.52-.44-3.67-1.14-3.81-1.6-1.15.54-3.39,1.47-3.39,1.47s-3.16-1.4-2.63-1.73c.23-.15-.69.1-1.79.48a1.13,1.13,0,0,0-.14-.4c-1-1.83,1.44-1.89.26-3s8.41-12.83,8.41-12.83l-1.05,5.66s-3.64,5.48-1.76,8.34a5.33,5.33,0,0,0,2.33,1.74c-.21.07-.27.17-.24.27l.39-.19a16,16,0,0,0,4.3,1.05A9.78,9.78,0,0,1,918.55,235.39Zm2.27-137.81c.48,3.26,1.91,4,.22,5.13s-4.78,5.47-4.56,7.6-2.26,7.6-3.76,10.2-4.11,7.36-3.65,8,.72,1,.72,1-2.48,4-3.59,5.8-2.47,4.1-2.54,4.82-1.43.91-1.43.91-2,10.42-2.41,14.07-1.11,4.89-.19,6.78.19,3.9.06,5.08,1.76,12,2.41,15.44,1.69,4.23.65,5.66-5.54,16.88-7.23,20.85-4,8.67-6.12,8.73l-.2,0c.16-2.81.08-6.33.08-8.21,0-3-1.36-16.1-1.57-19.13s1.36-12.84,1.93-16.83.07-16.83-.22-19.12-1.64-13.51-.71-16.39,0-11.36-.79-14.62c-.93-3.76-3.65-11.62-3.65-16.54,0-4.65,2.65-9.67,2.94-11.37s1.43-4.29,1.43-3.84-.58,2.66-.36,2.51,2.07-2.58,1.79-1.11a5,5,0,0,1-1.79,2.58,7.13,7.13,0,0,0,3.07-2c1-1.33,1.36-2.73,1.36-.81s2.79,3.1,1.93,2.36-.71-1.84.07-4.06a15.1,15.1,0,0,0,.86-4.06,34.22,34.22,0,0,0,1.79,4.28,6.1,6.1,0,0,0,3.43,3,3.39,3.39,0,0,0,3.72-1s-1.36-.52-3.57-1.18-1.65-6.28-1.22-5.1,3.5,1.7,4.15,2.37a1.31,1.31,0,0,1,.17,1.48c.05-.1.19-.38.54-1.11.57-1.19-2.14-3-1.86-3a4.75,4.75,0,0,0,3.44-2.29,2.74,2.74,0,0,0-.51-3.54,6.77,6.77,0,0,1-.64,2.88c-.71,1.62-3,.52-4.79-1.7s1.29-4,2.65-6.87-1-2.8-.93-3.61c0-.58,2.75-5.93,4.73-9.87l.69.28a11.23,11.23,0,0,1,1.47,4.65,14.1,14.1,0,0,0,1.18,4.6V70.18a8.22,8.22,0,0,1,1.73,2.95c.52,1.69.7,2.34.7,2.34l.13-1.78a6.23,6.23,0,0,0,.91,3.22,5.06,5.06,0,0,0,2.3,2.17l-1.43-2.3s1.78,1.56,1.82,2a.78.78,0,0,0,.22.52,6.32,6.32,0,0,0-.48-2.34,8.84,8.84,0,0,1,.91,2.34l-.08.52a4.64,4.64,0,0,0,.39-1.47c0-.61,1.21,1.65,1.21,1.65l-.56-2.13a9.07,9.07,0,0,1,1.82,2l.57,1L920,79.21s1,0,1.09.74a8.85,8.85,0,0,1,0,1.17s.69-1,.3-1.74.87,1.13.87,1.13l.22.26s-3.52,1.91-2.3,4.91a19.38,19.38,0,0,0,3.56,5.43S920.34,94.32,920.82,97.58Zm112.3,78.77-.63-.87.49-.5C1033,175.44,1033.07,175.9,1033.12,176.35Zm-2.8-28.51.45,2.31s2.9,9.07,2,12.65c-.4,1.62-.35,5-.1,8.51-.8-1.73-2.08-6.86-2.91-9.09s-.91-2.84-2.33-6.52a65.88,65.88,0,0,1-2.25-8.72C1027.52,147.49,1030.32,147.84,1030.32,147.84ZM1022,80.76a28.68,28.68,0,0,1-1.42-7l.53,2,.27-.71.62,2.13.09-1s.88,2.48,1.15,2.92.26-1.24.26-1.24l.62,3.36.09-1.06,1.15,2.3.18-1.15.7,1.95-.17,2.3.7-1.33-.26,1.94a3.92,3.92,0,0,1-2-1.23A25.47,25.47,0,0,1,1022,80.76ZM933.24,146.9a12.79,12.79,0,0,1,2.41-3.33c1.44-1.3,3.13-2.8,3.13-2.8s3.13,2.09,4,1.37,1.7-3.39,2.87-5.73,8.86-18.24,10.62-24.5,2.8-15.18,2.21-19.15-.72-5.21-.72-5.21,3.52-2.09,8-4.63,3.58-2,7.62-4.17,12.84-6.25,12.84-7.29,1.1,0,1.1-1.24,1.44-.39,1.44-1.37a16.25,16.25,0,0,1,.25-2.34,12.07,12.07,0,0,0,1.76-.51,8.68,8.68,0,0,0-1,3c-.23,1.47,1.36,4.3,1.75,4.93a4.31,4.31,0,0,0,1.51,1.11c-.25,0-.83.16-.83.36s.57.68.57.68-.79.06-1,.28.45.8.45.8-.34-.23-1,.11-.57.74-1,.45-2.09-.63-5.66-.75-6.78,2.6-9.56,3.95-7.68,6.93-8.42,9.31a28.16,28.16,0,0,0-1.66,7.4c-.47,4.28-.32,4.52,1,7.47s5.39,5.39,6.24,5.61,1.13.91,1.59,2.22a3.6,3.6,0,0,1,0,2.77c-.28,1.3.68,1.47,1.08,1.47a10.33,10.33,0,0,0,1.13-.11l.12.85s-.74.34-2.21,1-5.73,4.25-7.43,7.65-6.4,16.72-6.4,17.57-1.17,2.38-2.67,6.74A71.77,71.77,0,0,0,955,164.26c-.11,1.7.34,2.27-.22,3.63s-1.08,3.29-1.7,4.42a3.64,3.64,0,0,0-.63,2.32.59.59,0,0,0,.8.62c0,.57-2.27,4.2-3.74,6.47s-.63,4.93-.12,6.68,1.87,2.55,1.59,3.07-7.21,8.17-11.15,13c-.1-2.22,3-2.68,2.47-4.73-.59-2.35,1.89-14.33,1.1-17.65s-3.77-20.53-5.6-25.09-4.56-9.83-4.56-9.83ZM935.82,236s-2.61-.66-4.21-1.26c0-.06,0-.11,0-.19a5.81,5.81,0,0,1,1-1.38c.59.13,1.13.27,1.58.4C937.66,234.56,935.82,236,935.82,236Zm88.94-.94c-2.29-.08-5.24-2.79-7.86-3.36-.38-.08-.8-.16-1.24-.23l.43-.05c.87-.09.46-.08-.67,0-2.57-.42-5.72-.7-5.72-.7s1.22.43,2.57,1c-4.45.49-11,1.43-12.69,2.75h-.73c.21-.79.26-1.52-.14-1.84-.73-.6-2.51.45-3.68,1.51a14.44,14.44,0,0,1-2.62-.55,5.49,5.49,0,0,0-3.16-1.63l-4.22-.73s4.22,1.52,4.74,2.73c.24.55-1.52,1.24-3.4,1.84l-1.34-.23.93.36c-1,.29-1.9.56-2.6.75,1.24-.82,2.41-2.73,3.25-3,1.06-.36-5.26.3-6.84.91a3.85,3.85,0,0,0-1.13.63c.16-.81-.73-2.16-7.3-3.24l-10-1.64s9.47,2.61,10.52,3.58c.84.77-1,1.8-1.74,2.2l-1.2-.2c-1.19-.56-3-1.61-.74-1.87l3.15-.37s-6.83.12-6.83,1.46v.06l-3.16-.52s1.39.38,3.16.91v.88s-5.26-2.12-7.9-3.46S945,230.86,945,230.86s7.9,2.06,11.06,3.22-2.11,2.18-2.11,2.18-6.05-1.64-5.53-2.34a3,3,0,0,1,.79-.82s-6.58,1.07-5.26,1.83-5-1.76-9.21-2.46c-.4-.07-.85-.13-1.31-.19l.06-.07c5.3-1.84,9.88-3.81,9.62-6.62a7,7,0,0,0-.64-2.76,37.18,37.18,0,0,1,5-5.74c2.83-2.38,16.6-11.17,22.61-14.68s10.15-5,13.77-5.84,11.28.51,14.8,1.64,11.28,8.73,13.66,10.66a179.69,179.69,0,0,1,13.32,13.94c1.76,2.27,2.38,2.78,3.46,4.31.49.69,2,2.69,3.55,4.75-2.57.32-5.07.8-5.91,1.52C1024.76,235.05,1027.06,235.13,1024.76,235.05Zm8-.29c-.41-.25-.6-.47-.38-.62l1-.73a21.7,21.7,0,0,0-3.89.9c-.7-.26-.8-.63.44-1.12a21.24,21.24,0,0,1,2.93-.91c.62.84,1.21,1.68,1.71,2.43A14.78,14.78,0,0,1,1032.78,234.76Zm17-7.37c-1.59,2.78.2,1.09-.84,3.63a6.37,6.37,0,0,0-.5,2.11l-.25,0,.24.13q0,.38,0,.69a4.9,4.9,0,0,0-2.3-1.07c-.19-.16-.34-.31-.44-.4-.34-.34-.85-1.2-1.81-2.21a7.55,7.55,0,0,1-1.3-3.29,1.41,1.41,0,0,1-.68-1.36c.17-.85-1.82-4.31-1.82-4.31L1031,206.2a22.23,22.23,0,0,0-3.57-5c-1.92-1.92-8.67-12.92-11.22-16.15s-8.5-9.46-8.5-9.75.17-1.36.17-2-.51-.56-1.31-1.19-.34-.74.34-1.59-.28-.62-1-3.34,1.19-8.28,1.19-9.75,4-14.68,4-14.68,2.6,9,3.45,11.68.86,2,.91,4.36,4.25,9,4.31,10.37,2.78,2.55,2.49,3.91.4,1.54,0,2.61,1,.91,2,1.7,2.27.51,2.22,1.19a13.7,13.7,0,0,0,.9,3.86,17.34,17.34,0,0,1,1,4.08c0,.73.62,2.38,1.3,2.61s1.36-2,1.08-2.78a21.69,21.69,0,0,1-.34-3.8,17.09,17.09,0,0,1,2.72,1.59,5.9,5.9,0,0,1,1.43,2.06l.18.88a11.24,11.24,0,0,1-.88,1.82,1.82,1.82,0,0,0-.22,1.3,1.89,1.89,0,0,0,.17.79c.17.29,1,.18,1,.18a4.9,4.9,0,0,0,.39.79.71.71,0,0,0,.65.25c.74,3.26,1.53,6.56,2.14,9,1.29,5.12,5.52,11.29,7.16,14.07S1051.38,224.6,1049.78,227.39Zm26.61,7.14c-.45-.12-.88-.25-1.27-.38.17-.3,1.05-.59,2.54-.86,1.94-.35-1.2-.14-3.71.4a4.42,4.42,0,0,1-1.39-.87,4.48,4.48,0,0,0-.67-.66,33.72,33.72,0,0,1-3.92,2c-.07-.18-.14-.36-.23-.54.58-.13,1-.19,1-.19l-1,.09c-.83-1.67-2.35-3.88-2-5.33.6-2.14-.49-2.19-.49-3.68s-2.64-8.05-3.68-10.94,1-10.64,1-12.23-.79-8.25-.79-8.25,10.39,17.4,11.73,20.88,1,3.33.55,5.72,1.79,1.49,1.09,2.68,1,1.64.35,2.89.49,1.79-.1,3.43.69,1.09.35,2.24,2.88,2.13,2.88,2.13a5.58,5.58,0,0,1,.36,1.53Zm20.49-101.66c.22,2.46-.27,4.55-.18,7.3s-.76,10.22-2.34,13.11,1.09,5.6,1.09,5.6l.18,1.05a17.4,17.4,0,0,1-1.74-.27c-1-.19-2.33.72-3.32,1.38a5,5,0,0,0-1.47,2.37l.84,1.25a19.06,19.06,0,0,1,1-2.46c.51-1,4-1.55,3.11-1.11a12.15,12.15,0,0,0-3.19,3.12,39.33,39.33,0,0,0-2.36,3.28c-.34.56-2-.16-2-.16l-.07,1.16a10.11,10.11,0,0,0,2.82-.07c1-.27,1.53-1.42,1.78-2.69s1.82-2.14,2.51-2.87,2.35-2.81.67,2.55-1.19,19.59-1.48,21.87-1.33,13.55-1.5,14.37a7.12,7.12,0,0,1-1.59,4.14c-1.37,1.44,1.52,1.39.49,2.67s.78,4,.91,5.72c0,.7,0,3.77,0,7.29a1.16,1.16,0,0,1-.26-.55c0-.5-1.69-3.58-1-5.87s-2.29-2.48-1.59-4.87-1.79-9.24-1.2-10.93-1.59-3.78-1.29-6.67-.9-3.28-2.19-8-1.69-3.58-.4-8.06-4.92-13.77-6-16.16-4.63-9.49-5.42-11.33-2.68-5.87-2.68-5.87.15-1.59.79-1.84.8-1.79.5-1.89-1.35-2.24-2.49-6-3.43-12.88-4.62-17.41-1.54-17.74-1.54-20.88a11.75,11.75,0,0,1,3.13-7.55,12.2,12.2,0,0,0,3.58-4.63c.79-2,3.18-2.44,3.23-3.73s.6-1.24,1.34-2.43c.34-.55.73-1.45,1.16-2.34a2.57,2.57,0,0,1,.28.29c.67.92,2.84,7.35,4.63,11.37s10.93,11.9,14.38,16.16,3.67,9.15,3.94,12.55S1096.67,130.41,1096.88,132.87Zm18.57,101.85c1.35.53-2.74-.26-6.7-1l.49-1.36a6.46,6.46,0,0,0-2,1.08c-1.21-.21-2.34-.4-3.21-.52-2.7-.36.62.56,2.76,1.36a1.12,1.12,0,0,0,.39.81l.22.22c-1,0-2.66-.08-4.58-.26a1.31,1.31,0,0,1-.38-.33c-.53-.91.53-2.3.53-2.3s-2.67,1.17-2.48,2.39l-1-.11a56.53,56.53,0,0,1,1.15-8.74c.35-1.81,3.19-14.28,3.19-14.28a1.08,1.08,0,0,1,.86-.38c.63,0-1.31-.88-.18-1.9s.55-2,1.25-3.19,1.38-7,1.8-9.17,5.56-13.19,5.56-13.19l1.58,11.79-.36,10.22s1.31,1.66,1.1,2.72.31,1.23.13,2.13,1.34.73,1,2.3,1,8.55,1,11.13c0,1.48.06,5,.09,7.72-3.93-.54-7.9-1-7.9-1s4.07.85,7.91,1.81v.91c-1.53-.34-2.68-.7-2.56-.86C1115.45,232.34,1113.49,234,1115.45,234.72ZM1155.24,88c3.25-2.27,7.94-11.6,7.94-11.6a1.46,1.46,0,0,0,.88-1.28c0-.89,2.3-5.11,2.54-5.28a4.29,4.29,0,0,0,.64-1.9,10.56,10.56,0,0,1,.6-3.1c.18-.4.93-1.94,1.78-3.57,2.15.91,4,1.56,4,1.56v.28a8.09,8.09,0,0,0,.46,3.8c.74,1.59,1.85,5.18,1.71,5.87a3.47,3.47,0,0,1-1.52,2.36c-1.17.87.06,1.94.6,2.27a4.13,4.13,0,0,1,1,1.15s-.08,1-.18,1.74.28,1.1,1.25,1.24a1.15,1.15,0,0,1,1,1.08s-.06.32-.22,1.12,1.21,1.41,1.34,1.6.11.3.39,1.35,1,1.35.6,1.72-2.66,4.18-3.51,5.11-3.76,3.9-5,3.66-1.93.83-3,.61a103.16,103.16,0,0,1-11-4.4c-1.44-.84-.87-1.5-1.81-3.13a3.76,3.76,0,0,0-1.54-1.42A7,7,0,0,1,1155.24,88Zm37.15,146.45c-.33-.53-3.28,1.58-3.28,1.58s-8.84-1.3-4.9-2.35l3.92-1a47,47,0,0,0-6.65,1.46c.25-.61.43-1.22.43-1.22s-5.56.81-5.56,1.62-3.93-1.21-5.9-1.58,3.28,1.5.65,2.11-5.56-1.46-7.85-1.86l-2.29-.41s3.27,1.21,2.29,1.9-4.59-.73-4.26-1.17-2.29.69-2,1.41-8.19-.08-4.91-1.81l3.27-1.74s-6.22,1.21-6.55,2.66-1.42-.45-5.39-1.13a12.93,12.93,0,0,0-3.16-2.3s0,.94.1,2.07c-.53.06-.37.27,0,.52,0,.33.08.67.13,1-1.85-.32-4.6-1-5.36-1.57-.84.43-1.69.9-2.33,1.29a.64.64,0,0,1,.07-.4l1-2.19s-3,1.92-3.3,3.32c-.81-.24-2-.65-3.18-1.08.29-2.1.79-4.9,1-7.06.39-3.59,1.66-15.59,1.66-15.59s1.18-.47,1.42-.89-.82-2.58.65-3.31-1.27-1.49-.92-2.44-1-2.07-.86-2.77,3.19-12.58,3.88-16.61.12-23.38.12-23.38,2.14-.83,3.28-1.34a3.42,3.42,0,0,0,2.2-3.83c-.42-2.06-1.88-11.6-1.33-13.89s0-4.36-.52-7.38.73-28.36.73-28.36.92-1.27,3.09-3.82c.89-1,2.22-2.43,3.59-3.75a8.18,8.18,0,0,0,.92,1.13c1.75,1.78,3.86,1.78,6.9,4s19,8.77,19.06,10.1,1.16,17.5.94,20.28-3.5,9.26-3.5,9.26l6.61,5.13c-1.83.37-5.26,9.13-6.44,11.44s-3.14,6.34-6.32,12.29-3.7,12.16-4.13,16.55,4.21,17.17,5.11,19.06,5.76,3.86,5.94,4.89a32.81,32.81,0,0,1-.24,4.82,6.66,6.66,0,0,1-2.84,1.2c-1.91.4-2.52,1-5.29.72s-4.31-.3-5.28,2.6,3.94,4.11,7.06,4.29,11.37.71,14.52,1.56a12.06,12.06,0,0,0,9.26-1.75c2.71-1.67-.7-7.33-.7-7.33l.54-.5c.55-.5-1.6-4.19-2.41-6s-1-7.11-.65-8.93.06-1.7-2.08-4-2-4.26-2.1-6.95a10.63,10.63,0,0,1,.79-4.54,2.92,2.92,0,0,1,1.63-1.5c.79-.35,2.21-1.11,2.21-1.11a69.05,69.05,0,0,1,2.88,7.21c1.09,3.43.46,13,.52,14.6s10.47,17.19,11.64,19.92.72,3.85,1.4,5.75v0c-6.92-.14-9.07-.07-9.07-.07s4.39.25,9.22.6a11.78,11.78,0,0,1,.25,1.33C1197,235,1192.53,234.68,1192.39,234.44ZM1232,140.52c-.37,1.71-4.76,14.93-3.35,23.1a89.68,89.68,0,0,0,2.45,11.14c.16.67-.81,6.84-.59,7.73s.52,1,.52,1-1.26,8.92-1.26,10.62a19.79,19.79,0,0,1-1.19,5.43c-.52,1.63-1.11,7.42-1.11,13.22s.29,15.23.29,15.82c0,.43-1.43,1.82-3,3.79l-1-.17c-1.23-.13-.58.2.57.7-.49.62-1,1.28-1.45,2l-.31.46c-1.28-.14-3.71-.5-6.64-.86a18.73,18.73,0,0,1,.19-2.65c.29-1.77-.68-5.5.49-7.48s0-2.66-.92-5.11a57.84,57.84,0,0,1-2.07-9.6c-.42-2.9-1.44-12.46-1.95-13.5s-3-3.26-4.34-7.39,2-15.31,2.26-17.15,2.77-7.53,3.39-7.62,3.94.23,5.58-1-.75-6-.91-7.1-.64-3-1-6.78c.61-.34,1.8-1,2.77-1.66,1.37-.93,1.86-2.34,2.82-3.57s1.68-.41,2.42-1.71.7-1.45,1.11-2.23,3.46-4.86,4-5.53.93-2.19,1.53-2.45,1.26-.63,1.33.33C1232.59,132.2,1232.37,138.82,1232,140.52Zm38.32,91.21c-.07.33-.23.9-.42,1.53h0l-3.69-.4s3.44.94,3,1.61-5.16,1.37-5.16,1.37-9.57-1.79-7.12-2.07l2.46-.27s-4.91-.15-6.38.55-2.7-.67-7.13-.85-7.61-.13-7.61-.13,8.35.61,9.82,1.22,3.44,1.58,3.44,1.58-9.57-1-8.1-1.43-2.21-.06-3.93.27a21.78,21.78,0,0,0-2.81.86c-.23-1.51-.56-2.87-.56-2.87s.45-3,.82-6.76,3.12-12.33,3.71-15.3a63.5,63.5,0,0,0,1.19-8.84c.07-2.15.89-3.27,2.16-6.31a93.22,93.22,0,0,0,2.89-10.18l10,.3s-.38,6.24-.3,7.57a13.41,13.41,0,0,0,2.15,6.61,45.1,45.1,0,0,1,5.2,9.06c1.34,3.5,5.05,13.6,5.65,15.16A26.7,26.7,0,0,1,1270.32,231.73Zm39.25.68c-2.85-.28-6.28-.49-6.28-.49a54.54,54.54,0,0,1,6.79,1.3,7.53,7.53,0,0,1,.73,1.45,6.25,6.25,0,0,1-1.13,1.13s-4.74-1.3-4.94-2c-1.08.54-3.17,1.47-3.17,1.47s-3-1.4-2.45-1.73c.2-.14-.56.08-1.5.42a39.17,39.17,0,0,0,1.46-5.21,8.32,8.32,0,0,0-.77-4.66,2.87,2.87,0,0,1,1.52-3.62c1.22-.69,2.6-4.76,2.07-7.67s1.63-9.42,3.77-16.83,4.33-15,4.33-15,.19,4.23.15,5.27-.77,5.29-.33,7.17.3,8.39-.82,12.58,3.36,8.63,2.38,10.93,0,2.22.53,4.87-.82,5.81-2.33,7.81A2.09,2.09,0,0,0,1309.57,232.41Zm14.84,3.58-.51-.14a4.58,4.58,0,0,1,.76-1.32C1325.25,235.29,1324.41,236,1324.41,236Zm38.78-8.24a17.82,17.82,0,0,1-2.35,4.94,31.52,31.52,0,0,0-3.28-.74l-9.33-1.64s8.84,2.61,9.82,3.58c.77.77-.89,1.8-1.63,2.2l-1.11-.2c-1.12-.56-2.82-1.61-.7-1.87l3-.37s-6.39.12-6.39,1.46v.06l-2.94-.52s1.29.38,2.94.91v.88s-4.9-2.12-7.36-3.46-10.8-2.12-10.8-2.12,7.36,2.06,10.31,3.22-2,2.18-2,2.18-5.64-1.64-5.15-2.34a2.93,2.93,0,0,1,.73-.82s-6.13,1.07-4.91,1.83c1,.6-2.52-.85-6-1.83a1.5,1.5,0,0,0,.5-1.54c-.16-1,.14-6.57,2.49-8.92s0-6.11-.26-9.23,2.43-15.82,2.9-20.12,1.88-16.78,2.66-21.68a38.31,38.31,0,0,0,.19-9.51,42.87,42.87,0,0,1,4-1.86c1.68-.64,3.07-2,4.35-5.27s-.41-10.2-.41-10.2a31.26,31.26,0,0,0,2.58-5.54,19,19,0,0,0,.6-6.33s3.67,7.91,3.95,8.68c.13.35,1.09,2.07,2.11,3.9a17.69,17.69,0,0,0-.56,2.33c-.88,5.23-.45,16.48-.23,18,.42,2.83,3.82,1.7,5.78,3.33,2.17,1.82,2.93,6.68,3.47,16.36.15,2.54.88,8.75.92,12.49s2.8,17.37,3.16,19.26S1364,224.6,1363.19,227.75Zm77-81.23c-1-2.34,1.65-8.26,2.25-10.51s.74-2.07-.09-5.24a11.34,11.34,0,0,1-.21-3.53c.63.45,1.41,1,2.37,1.7a4.75,4.75,0,0,0,3.42.51c.7,1.09,1.82,2.73,2.13,3.39s2,1.36,3.05,2.25a53.52,53.52,0,0,1-2.2,6.19,40.73,40.73,0,0,1-3.27,4.39l2.75.74s-1,1-2.46,5.57-2.52,6.55-2,9.15,2.3,2.23,2.3,2.23l-1,4.63c-.49-1.09-1.15-2.39-2.21-4.38-2.44-4.55-3.77-7.81-3.77-7.81l1.1-.37a3.84,3.84,0,0,1-2.2-1.88c-.74-1.47-1-2.12.46-3.35S1441.27,148.87,1440.21,146.52Zm-22.2-106c-.2.88-.78,2.62-1.12,2.43a2.22,2.22,0,0,1-.59-.74C1416.89,41.65,1417.48,41.16,1418,40.55Zm-2.8,2.94q-.11.46-.21,1c-.35,1.68-1,2.46-1.67,2A34.15,34.15,0,0,1,1415.21,43.49Zm-3,4.92a4.72,4.72,0,0,0,.45.86l-.87,0C1412,49,1412.11,48.72,1412.26,48.41ZM1370.89,236a1.74,1.74,0,0,1,.11-.18l.19.08Zm.69-.23-.49-.09a19.61,19.61,0,0,1,2.5-2.86,3.1,3.1,0,0,1,1.16,1.11C1375,234.5,1373.33,235.19,1371.58,235.79Zm12-1c-.63,1-1,1.65-1.18,2h-.06a10.09,10.09,0,0,0,1-3.31,11.58,11.58,0,0,0,1.21.56A2.33,2.33,0,0,0,1383.59,234.8Zm3-19.59c-2.85,1.38-.55.56-.74,3.13s-.92,1.65-2,2.57.64,3.58.64,3.58c-2.78,1.65-3.17,6.27-2.27,8a7.06,7.06,0,0,0-3.56,2.86c-.49,1.07-.5-2.53-4.23-3.35.94-.89,1.85-1.73,2.52-2.48,1.89-2.1.07-4.58-.3-6.47s-2.64-6.23-2.67-6.43a75.93,75.93,0,0,1,.89-12c.86-4.33.68-15.62,1.41-18.82a85.24,85.24,0,0,0,1.11-14.21c-.19-1.71,5.29-1.95,5.69.63s4.09,16.32,4.54,17.79,2.59,9.91,3.41,12.78c.16.56.45,1.37.8,2.32,0,.09-.11.18-.17.27-1.11,1.47-.83,2.2-1.66,5.14S1389.47,213.84,1386.63,215.21Zm3.63,20.22a7.93,7.93,0,0,0,2.7-.1,14.92,14.92,0,0,1,4.71-.13l0,.64c-1.83.19-4.64.52-7.28,1C1390.38,236.52,1390.3,236,1390.26,235.43Zm4.45,1.22c1-.26,2-.49,3-.67,0,.1,0,.21,0,.31C1396.76,236.42,1395.71,236.54,1394.71,236.65Zm9-95.18c-.87-5.29-6.57-12.78-6.57-12.78l1-1c1-1,.76-3,.68-7s-.5-17.24-1.48-23.14,2.35-14,2.35-14a95.55,95.55,0,0,0,2.14-10.65c.66-4.09,3.19-9.64,6.4-14.63a5.39,5.39,0,0,0-.1,1.89l.09-.5a1.27,1.27,0,0,1,.59-.79l-.32,1.15a17.55,17.55,0,0,1-.5,3.08c-.32.87,1-1.06,1-1.06l-.55,2.16s.83-1,.69.41a26.64,26.64,0,0,0,0,3.77c0-.14.5-1.65.5-1.1v2.62s.55-.37.23.41a5,5,0,0,1-1.51,1.6l2.66-1.6a9.23,9.23,0,0,1-.55,1.28,5,5,0,0,0-.14,2.07l.69-1.24.18,1.38c.19,1.37,2.21,4,3,5.14s2,.18,1.79.92a5.67,5.67,0,0,0-.14,1.79s.69-1.52.64-1-.23,1.79-.23,1.79,1-1,.74-.56a6.77,6.77,0,0,0-.55,1.47l.78-.23-.83,1.15a7.13,7.13,0,0,1-1.1,1.7c-.83,1-1.93,1.47-6.06,4.41s-4.55,13.5-4.64,13.73-.18,1.42-1.1,8.68,3.49,10.88,3.49,10.88a6.81,6.81,0,0,1,.69,1.84,59.16,59.16,0,0,1-3.22,13.22A15.35,15.35,0,0,0,1403.71,141.47Zm5.56,94.9c0-.14,0-.28,0-.42a11.28,11.28,0,0,0,1.84-.92.36.36,0,0,0,0,.14C1411.51,236.05,1409.79,236.31,1409.27,236.37Zm36.86-.67a3.88,3.88,0,0,0-.67,1c-1.51-.2-2.59-.5-2.45-.9.28-.83,2-1.46,3.43-1.85C1446.67,234.29,1447.41,234.18,1446.13,235.7Zm.92-3.31a2.74,2.74,0,0,0-.67,1.29c-2.68.31-7,1-6.32,1.85a6.74,6.74,0,0,0,2.18,1.76c-1.1-.53-5.32-2.51-6.6-3.09-1.47-.67-6.38-1.1-6.38-1.1l3.93,2.25c1.47.85-4.43,2.06-4.43,2.06s-3.43-2.36-2.45-3.15l1-.79s-4.42.42-4.91,1.27-1.47,2.31-1.47,2.31-7.37-2.19-6.39-2.91l1-.73a22.29,22.29,0,0,0-3.19.73,14.2,14.2,0,0,0,1.67-1.57c3.77-4.13-3.67-6-4.68-6a6.74,6.74,0,0,1-.93-.1c-.09-2.06-.2-4.51-.31-5.38.14-.61-.52-1-1.12-2a18.2,18.2,0,0,1-.46-2.69c.38-.37,1.14-.47,1.72-1.26,1-1.37-.09-2,.18-4.68s1.47-1.47,4-3.67,4.69-16.62,4.69-16.62L1427.49,205s13,17.27,14.15,18.92,3.67,3.86,3.67,5.6S1449,229.82,1447.05,232.39Zm8.49-30.75c.59,0,1.63-2,1.63-2a18.65,18.65,0,0,1-.67,3.34,16.85,16.85,0,0,0-.32,2.27,13.58,13.58,0,0,0-2.06-4.54c-2-2.39-1.56-2.48-2-8.27s-2.2-16.94-3.3-20.16c-.27-.78-.49-1.43-.71-2a31.2,31.2,0,0,0,3.51.69l5.2.67s-.67,6.39-.67,8,.37,3.94.3,6.24.74,6,.67,7.58-.23,2-.37,3.2.22.89.07,1.49.37.59.37.59-.67.37-1.56,1S1454.94,201.64,1455.54,201.64Zm11.34,34.93a6.85,6.85,0,0,1-.23-1,31.38,31.38,0,0,1,4.35.79C1473.18,237,1470.52,236.89,1466.88,236.57Zm13.56-3.18a5.7,5.7,0,0,1-.34,1.62.91.91,0,0,1-.26-.27c-.49-.91.49-2.3.49-2.3s-4.72,2.22-.69,3.74c-.1.22-.19.44-.31.67-2.12-.22-5.71-.83-7.35-1.2a48.4,48.4,0,0,0-5.38-.57,3.75,3.75,0,0,1,0-.58c.19-1.65-1.83-3.12-.82-6a2.68,2.68,0,0,0-.16-2.34c.7-3,2.06-9.07,2.91-11.76,1-3.27,2.53-11.15,2.53-11.15s1.19,2.6,1.86,1.93-1.71-2.6-1.71-2.6l.37.07a2.31,2.31,0,0,0,1.34-.15c.89-.29,0,0,.3-.22a2,2,0,0,0,.59-1.41c0-.59-.82-3.27-.66-4.39s.51-3.12.51-3.79.75-6.24.75-6.24.22,2.15.22,3,.08,1.12.08,2.31a22.77,22.77,0,0,0,.22,2.38c.07,1,.74.52,1,1.86s.3.89.3,1.85-.07,1.12,0,2.24-.07,1.48.6,2.37,1.19.52,1.19.52-2,1.49-2.31,2.83,1.34-.22,2.31-.89c.59-.41.73-.71.76-.88a70.46,70.46,0,0,1,.43,7.35c-.08,2.82,1.63,12.34,1.63,15.53S1480.44,232.64,1480.44,233.39ZM1496.27,55c.73-.45.34-1.62.34-1.62l1.61.22c1.18.17,2.63,2.18,3.63,4.8a8.82,8.82,0,0,1,.72,3.42c.11-.84.39-2.53.78-.8.51,2.23.17,2.84-1.45,6.13a1.86,1.86,0,0,0-.1.25c-2.16-.68-2.87-.27-3.37-1.76s-1.11-4.25-2.68-6.05a34.59,34.59,0,0,0-.65-4.37A1.28,1.28,0,0,0,1496.27,55Zm-5.74,20.68c.14-.23.31-.53.5-.87,1.18,1.24,2.51,2.67,3.88,4.29,3.52,4.16,9.47,9.72,14.69,11a48.36,48.36,0,0,1,10.49,4.33s-2.91,9.47-3.85,13.85c-.36-.66-1.06-1.27-1.62-1.19a16.33,16.33,0,0,1-3.63-.73s-3-3.62-3.45-4.46-1.84-.39-2.12.56.78,2.34,1.17,3,.05,1.72,0,2.45-.17.22-.62.78a4.39,4.39,0,0,0-.55,2c-.11.61-2.23,2.62-2.23,2.62s0-.34.39-3.57a58.71,58.71,0,0,0-.11-10.71c-.28-4.29-7.2-7-9.32-8s-4.79-4.91-5.4-7.8S1489.58,77.26,1490.53,75.69Zm4,162.27s-1.48-.43-3.23-1l-.06-.59c1.45.36,3,.77,4.48,1.18Zm3.13-1.16c-2-.36-4.39-.71-6.47-1a11.79,11.79,0,0,0-.23-1.38,11.71,11.71,0,0,1-.33-2.58,67,67,0,0,1,8.81,2.59C1502.37,235.75,1500.54,235.78,1497.7,236.8Zm29.14-75.58c-.77,6.62-1.28,16.43-1.28,22.16s-1.65,15.54-1.65,19.49-3.19,5.73-2.17,9.3S1527.6,223,1526,225.8s-1.53,4.71-.9,5.6.39,0-.38,2.55-.51,3.44-.51,3.44-1.37,4.46-2.49,5.79L1521,240a54.39,54.39,0,0,0-1.83-5.7c-1-2.19-3.93-3.76-3.93-3.76a25.1,25.1,0,0,0,.42,4.58l-.42-.25s0,.89.07,2c-2.8-.58-7.65-1.83-7-3.4l1-2.19s-3.94,2.67-3,4c.57.78-.53.24-2.12-.54a34.14,34.14,0,0,0-3.77-1.65,78.93,78.93,0,0,0-9.81-1.69,28.43,28.43,0,0,1,.78-6.65c1-4.46,1.64-18.88,1.64-18.88a3,3,0,0,0,2.08,2.38c1.78.44,1.34-.75,1.34-.75l-3.42-2.22,1-.3c1-.3,0,0,0-1.79s-1.79-7.73-2.08-8.47,0-9.66.44-11,.45-1.79.75-4.91-1.94-12-1.94-12a4.59,4.59,0,0,0,1.49,0,7.82,7.82,0,0,0,4.61-2.38c1.78-1.93,0-5.35-.15-6.69s.3-8.62.3-8.62l1.19-.45a1.74,1.74,0,0,0,1-1.79l-3.57-3.71-2.71-17.88s1.22,2,1.5,2.62a9.2,9.2,0,0,0,2.12,2.62c1.39,1.39,1.06.5,1.78,1.23s2.18.78,3.91.5a12,12,0,0,0,6.07-3.29c1.79-1.84,1.23-2.51,2.79-3.57s1.28-2.45,1.51-4.13a15.57,15.57,0,0,1,1.55-3.89c-1.08,6-2.66,13.54-4.19,16.36-2.42,4.46-9.93,10.44-4.45,11.59s13.24-1,18.72-.89l5.48.12A149.68,149.68,0,0,0,1526.84,161.22ZM571.21,90.89l0,.07Zm332.83,0,0,.07ZM818.45,50.5h0Z" transform="translate(147.66 0)" style="fill:url(#isd-children-playing__gradient)"/>
	</g>
</svg>