<svg class="isd-children-playing isd-children-playing--wide" id="isd-children-playing--wide" xmlns="http://www.w3.org/2000/svg" viewBox="0 0 1595.26 212.5">
	<title>Full colour silhouette image of children playing</title>
	<g id="isd-children-playing__kids-left" class="isd-children-playing__kids-left">
		<path d="M558,154.7a.49.49,0,0,0,.66-.52,3.06,3.06,0,0,0-.52-1.93c-.52-.94-.94-2.55-1.41-3.68s-.1-1.61-.19-3a59.57,59.57,0,0,0-2.17-11.14c-1.26-3.64-2.22-4.91-2.22-5.62a131.46,131.46,0,0,0-5.34-14.64,17.69,17.69,0,0,0-6.19-6.38c-1.22-.52-1.84-.8-1.84-.8l.1-.71a8.81,8.81,0,0,0,.94.09c.33,0,1.13-.14.9-1.22a3,3,0,0,1,0-2.32c.37-1.08.61-1.65,1.32-1.84a11.43,11.43,0,0,0,5.19-4.68c1.14-2.45,1.26-2.65.87-6.22a23.59,23.59,0,0,0-1.38-6.16c-.62-2-4.7-6.63-7-7.76s-5-3.39-8-3.29-4.39.39-4.72.62-.28-.09-.8-.37-.81-.1-.81-.1.52-.47.38-.66-.8-.23-.8-.23.47-.38.47-.57-.61-.38-.75-.28a3.67,3.67,0,0,0,1.32-1c.33-.52,1.65-2.88,1.46-4.11s-.63-2.8-1.39-3.13-7.54-1-7.86,2.13a8.56,8.56,0,0,0,.53,4.25c.19.33,1.64.91,2.2,1.43s-.18.85.71,1.37,0,.61.57.85-1.18.37-.09.71-4.59,3.54-5.2,4.2-3.43,5.89-2.86,9.29.45,7,2.44,8.32,2.5,3.74,2.22,4.49-2.46,4.2-4.68,5-6,3.54-7.41,4.68-6.19,6.09-7,11.8-2.37,13.79-3.55,16.86-1.22,3.54-1.93,5.43-1.8,6.28-2.46,7.65-2,1.09-1.13,2,1.32,1.37,1.32,1.37-1.79,2.46-2.69,3.73-3.17,4.25-2.93,5.86a9.46,9.46,0,0,0,2.17,4.06.78.78,0,0,0,1.14.05,4.51,4.51,0,0,0,.33-.66s.71.09.85-.14a1.65,1.65,0,0,0,.14-.67,1.5,1.5,0,0,0-.19-1.08,11.36,11.36,0,0,1-.8-1.7,5.94,5.94,0,0,1,1.41-2.27,14.59,14.59,0,0,1,2.27-1.32,19.16,19.16,0,0,1-.28,3.16c-.24.66.33,2.51.89,2.32s1.09-1.56,1.09-2.18a14.58,14.58,0,0,1,.8-3.39,11.59,11.59,0,0,0,.76-3.22c-.05-.56,1-.33,1.84-1s2-.52,1.7-1.41.24-1,0-2.18,2-2.12,2.08-3.26,3.54-6.65,3.59-8.64.05-1.37.75-3.64,2.88-9.72,2.88-9.72,3.36,11,3.36,12.23,1.6,5.85,1,8.12-1.42,2.08-.85,2.79.94.8.28,1.32-1.08.42-1.08,1,.14,1.47.14,1.7-5,5.43-7.09,8.12-7.74,11.86-9.35,13.46a18.6,18.6,0,0,0-3,4.16l-7.56,12.56s-1.65,2.88-1.51,3.59a1.19,1.19,0,0,1-.57,1.14,6.25,6.25,0,0,1-1.08,2.73c-.81.85-1.23,1.56-1.51,1.85a5.27,5.27,0,0,1-1.8,1.22c-.61.15-3.12,2.74-4,3.31s-4.77,3.54-5.81,3.92a3.47,3.47,0,0,0-1.94,3.87c.52,1.75,3.45,2.46,6.19,2.18s5.81-1.09,6.66-1.71-.43-.75,2.12-1,6.1-.24,6.8-3.36.19-3.59-.14-4.3,4.87-7.27,5.76-8.54,1.42-1.7,2.88-3.59a151.35,151.35,0,0,1,11.1-11.62c2-1.61,8.46-7.93,11.38-8.88s9.31-2,12.33-1.37A38.7,38.7,0,0,1,544,177.33c5,2.92,16.48,10.24,18.84,12.23s5.05,6.28,6.14,7.27,6.7,6.23,7,7.27-.34.71.42,1.42a8.23,8.23,0,0,1,1.13,1.37,4.21,4.21,0,0,1,.57.94s-.61,2.88,0,4.25,2.17,1.51,3.59,2,2.08.7,2.08.7a23.71,23.71,0,0,0,4.77,2.93,10,10,0,0,0,6-.71c1.09-.61,2.69-4.15.47-5.62s-3.87-1.79-4.3-2.31a31.29,31.29,0,0,1-1.93-2.55c-.71-1.09-2.74-2-3.17-3a23,23,0,0,0-1.55-2.69s-5.95-8.22-7.09-11-4.34-6.51-7.55-10.48-9.4-10.81-9.64-11.24.9-1.09,1.32-2.55,1.14-3.68-.09-5.57S558,155.18,558,154.7Z" transform="translate(0 -8.68)" style="fill:#bed63a"/><path d="M325.22,118.83s.19,5.51.5,6.94,4,12.43,2.78,19.24a73.14,73.14,0,0,1-2,9.28c-.12.56.68,5.7.5,6.44s-.44.8-.44.8,1.05,7.43,1.05,8.85a16.49,16.49,0,0,0,1,4.52,53,53,0,0,1,.93,11c0,4.83-.24,12.69-.24,13.18s2.28,2.54,4.08,5.26a33.85,33.85,0,0,0,3.22,4c.49.75,1.73,3.59-.25,5.08s-5.38,2.22-7.05,1.67-3.28-1.73-3.41-2.66a6.19,6.19,0,0,0-.43-1.61s-2.42-.62-2.91-1.36a6.53,6.53,0,0,1-.74-3.9c.18-1.49.55-3,.55-3s-.37-2.53-.68-5.63-2.6-10.27-3.09-12.74a53.12,53.12,0,0,1-1-7.37c-.06-1.79-.74-2.72-1.8-5.26a77.71,77.71,0,0,1-2.41-8.48l-8.29.25s.31,5.2.24,6.31a11.14,11.14,0,0,1-1.79,5.51,37.62,37.62,0,0,0-4.33,7.55c-1.12,2.91-4.21,11.32-4.71,12.62a22.39,22.39,0,0,0-.67,6.44,24.32,24.32,0,0,0,1.23,3.78c.31.49,6.25,7.05,6.25,7.85s.62,3.35-2.66,4.15a17.85,17.85,0,0,1-9.59-.49c-1.92-.87-2.66-2.85-3.22-3.28s-3.59-1.61-3.65-2.48-.31-3.53.56-5.2.8-3.65,1.05-3.9a2.07,2.07,0,0,1,.56-.37s.74-3.46,1.17-7.55.43-11.45,3.09-15.35,3.53-5.44,3.53-5.44l.13-11.39a10.43,10.43,0,0,0-.93-.8c-.56-.44-1.92-4.89-1.36-7.06s1.05-2.41,0-4.83-1.37-9.83-.25-12.87a22,22,0,0,1,1.42-3.46s-2.16-6-2.78-7.18-2-10.21-.74-12.94a13.25,13.25,0,0,0,1.36-4.82c.24-1.49.86-7.8,1.3-9.29s2.53-7,4.39-8.29,1.3-1,1.3-1-1.18.43-1.73.56.31-.25.74-.87,1.42-.86,1.55-1.61-1.12,1-1.12,1a15.21,15.21,0,0,1,.93-3.09,5.19,5.19,0,0,0,.31-4.15,25.6,25.6,0,0,1-.5-10.52c.75-5,4.09-14.79,7.86-16.52s12.88-1.74,16.09-.06,7.18,5.2,7.93,9,.92,7.61.31,8.91l-.62,1.3a19.52,19.52,0,0,0,.55-4.45c-.18-1.18-.43-2.54-.43-2.54s-.56,5.51-.62,6.25a8.07,8.07,0,0,0,.5,2.29,6.85,6.85,0,0,1-1-3.09c-.07-1.68.12-4.15.12-4.15s-.68,5.07-.37,6.34a5.72,5.72,0,0,1-.71,3.81c-.56,1-1.67,2.94-2.08,3.68s-1.54,3.74-2.29,4.15a6.44,6.44,0,0,1-2.75.95c-1.11.07,3.25,1.74,4.46,1.74a8.06,8.06,0,0,1,4.82,2.84,73.94,73.94,0,0,1,2.51,7.4c.62,1.86,2.54,7.77,3,9.13s-.25,1.61.62,2.23,1.95-.1,1.39,1.3-.77,1.48.28,1.85a7.37,7.37,0,0,1,3,3.25,2,2,0,0,0,.59,1.67,2,2,0,0,1,.46,2.11c-.3.49-.09.77.34,1.45s1.64,2.54,1.74,2.72,1,.28,1.67.5,2.54.68,2.72,1.3a5.39,5.39,0,0,1,.22,1.14,1.31,1.31,0,0,1,.77,1.09,2.67,2.67,0,0,1-.31,1.26s.37.81,0,1.21a23.41,23.41,0,0,1-1.48,2.48A7,7,0,0,1,342,135c-1.08,0-1.33-.44-1.39-.72s-.25-.62-.18-.8l.06-.19-1.43-1-.18.75s-1.52-.81-2.66-1.58-1.55-2-2.35-3-1.4-.34-2-1.43-.58-1.2-.92-1.85-2.88-4.06-3.35-4.61-.77-1.83-1.26-2S325.29,118,325.22,118.83Z" transform="translate(0 -8.68)" style="fill:#ec297b"/><path d="M88.66,102.18a1.75,1.75,0,0,1,.19-1.77l-.15-.7c-.13-.69.84-1.85,1.54-1.76a13.87,13.87,0,0,0,3-.6s2.46-3,2.88-3.72,1.53-.33,1.76.46-.65,2-1,2.47-.05,1.44,0,2,.13.18.51.65a3.58,3.58,0,0,1,.46,1.67c.09.51,1.86,2.19,1.86,2.19s0-.28-.32-3a48,48,0,0,1,.09-8.92c.23-3.57,6-5.8,7.76-6.64s4-4.09,4.5-6.5-.7-5-1.48-6.32a70.41,70.41,0,0,1-3.86-8c-1.3-3.2,0-9,0-9a1.08,1.08,0,0,1-1-.19c-.6-.37-.28-1.34-.28-1.34l-1.34.18c-1,.14-2.19,1.81-3,4a7.25,7.25,0,0,0-.6,2.85c-.1-.7-.33-2.11-.66-.67-.42,1.86-.14,2.37,1.21,5.11s.7,5.11.7,4-2.14-3.16-1.26-1.44.56,3,1.35,5.53S100.13,77,100.13,77a12.43,12.43,0,0,1,.75-2.5c.74-2.14-1.86-3.72-1.86-3.72s-.33,2.83.28,4a4.06,4.06,0,0,1-.19,2.93l-.18-1.11c-.19-1.12-2.28-3.21-2.28-2.61a34.86,34.86,0,0,0,2.4,4.9c-.4-.62-1.12-1.68-2.4-3.36-2.79-3.67-.51-4.23.56-6.6s-1.4-3.53-2.93-9,3.71-7.67,5.57-9,4.79-.7,4.79-.7l-4.13-1.9,4.92,2-1.21-2.6s1.77,2.6,1.91,2.65a5.22,5.22,0,0,0,.73-1.35c-.06.16-.13.37-.18.56a4.12,4.12,0,0,0,.09,1.25s.24-.6.61-.65.7.47.7.47l.79-.75s2.5-1.16,5-2.18,8-.88,12.07.51,7.53,6.83,8.92,9.67-.23,8-.51,9.1a21.9,21.9,0,0,1-1.9,3.72s.11,1,.11,2.19a4.84,4.84,0,0,1-1.18,3.1c-.74.93-3.28,3.9-3.28,3.9A12,12,0,0,0,132,81.8c3,.93,5.33,1,7.56,2.66,1,.75,1.93,1.2,2.73,1.74,0,.62.09,1.28.13,2a2.4,2.4,0,0,0-.6.46c-.14.13-.28.28-.41.42a10.88,10.88,0,0,0-1.61-2.29c-1.85-2.1-.49,7.37.25,8.86s1.86,7.25,2.17,8.36.56,1.36,2.23,1.3.56.5,1.86.68,2-.24,3.71-1,2.3-.55,2.3-.55.49-1.24.68-1.86a1,1,0,0,1,1.42-.56c.56.25.87,1.92.87,1.92l1.36,1c1.36,1,.75,4,.25,5.58s-4.58,2.78-4.65,3a30.9,30.9,0,0,1-3.59,2.66c-2.41,1.74-8.24-1.55-8.24-1.55s.81,6,.93,6.26a57.87,57.87,0,0,0,2,5.57,33.9,33.9,0,0,0,2.72,3.66l-2.29.62s.8.87,2,4.64,2.11,5.46,1.67,7.62-1.92,1.86-1.92,1.86l1.24,5.45a30.58,30.58,0,0,1-4,.87l-4.34.56s.56,5.32.56,6.69-.31,3.28-.25,5.2-.62,5-.56,6.32.19,1.67.31,2.66-.18.74-.06,1.24-.31.49-.31.49.56.31,1.3.81.56,1.61.06,1.61S138.1,175,138.1,175a15.42,15.42,0,0,0,.56,2.78c.56,2.23.49,9,.49,13.57s-.06,7.68-.06,7.68a1.39,1.39,0,0,0,1.18-.25c.68-.43.43,1.8,2.23,3.59s4.09,2.48,6.26,5,1.48,3.41-2.36,5.51-9.17-1.36-10.22-1.92-2.72-.12-4.83-.93-1.24-4.09-.56-5.63a11.94,11.94,0,0,0,.56-6c-.37-1.43-1.86-8.3-2.72-11s-2.11-9.29-2.11-9.29-1,2.17-1.55,1.61,1.42-2.17,1.42-2.17l-.3.07a2,2,0,0,1-1.12-.13c-.74-.24,0,0-.25-.18a1.66,1.66,0,0,1-.49-1.18c0-.49.68-2.72.55-3.65s-.43-2.6-.43-3.16-.62-5.21-.62-5.21-.18,1.8-.18,2.54-.07.93-.07,1.92a18.84,18.84,0,0,1-.18,2c-.06.86-.62.43-.81,1.54s-.25.75-.25,1.55a16.45,16.45,0,0,1,0,1.86c-.06.93.07,1.24-.49,2s-1,.44-1,.44,1.67,1.24,1.92,2.35-1.12-.19-1.92-.74c-.5-.34-.62-.59-.64-.73a57.49,57.49,0,0,0-.35,6.12c.06,2.35-1.37,10.28-1.37,12.94s.32,4.71.32,5.33a7.84,7.84,0,0,0,1,3,22.17,22.17,0,0,0,4,5.08c1.61,1.55,3.71,3.66,3.71,4.9s-4.14,3.46-7.74,3.9-7.24-3.16-7.86-3.53a13.89,13.89,0,0,0-1.49-.87,3.74,3.74,0,0,1-1.36-4c.49-1.17.62-6.25,1-7.61a18.46,18.46,0,0,0-.37-8.06c-.87-3.71-1.37-15.73-1.37-15.73a2.49,2.49,0,0,1-1.73,2c-1.48.37-1.11-.62-1.11-.62l2.84-1.85-.86-.25c-.87-.25,0,0,0-1.49a39,39,0,0,1,1.73-7.06,46.87,46.87,0,0,0-.37-9.17,15.51,15.51,0,0,1-.62-4.09c-.25-2.6,1.61-10,1.61-10a3.7,3.7,0,0,1-1.24,0,6.49,6.49,0,0,1-3.84-2c-1.48-1.61,0-4.46.13-5.58s-.25-7.18-.25-7.18l-1-.37a1.45,1.45,0,0,1-.87-1.49l3-3.1,2.26-14.89s-1,1.67-1.25,2.18a7.58,7.58,0,0,1-1.77,2.18c-1.16,1.16-.88.42-1.48,1s-1.81.65-3.25.41A10,10,0,0,1,95,116.11c-1.48-1.53-1-2.09-2.32-3s-1.07-2-1.26-3.44a18.66,18.66,0,0,0-1.9-4.37l-.32-.6c-.19-.32.14-1.67.14-1.67S89.17,103,88.66,102.18Z" transform="translate(0 -8.68)" style="fill:#ec1c24"/><path d="M628.19,35.13s-6.88,1.75-7.86,4-3.4,5.35-3.4,6.64-1.16,1.66-1.25,4.34-.42,4.24-1.49,5.72-.42,2-1.13,2.34a14.12,14.12,0,0,0-1.85,1.1,2,2,0,0,1-1.37-.86c-.54-.8-1.07-.61-1.79-2.76A59.54,59.54,0,0,0,605.19,49c-.83-1.72-.83-.74-1.13-2.95s.24-2.34-.83-2.83a10.4,10.4,0,0,1-2.09-1.35s-.24-5.54-.89-5.79a13.42,13.42,0,0,0-2.21-.43s-1.49-.67-.53-3A16.53,16.53,0,0,0,598.76,27c0-1.11,1.13-2.53,2.08-2.16s2.51.37,2.15-.49-.42-1-1-1.23a5.37,5.37,0,0,0-1.32-.18s.84.18.42-1.11a1.87,1.87,0,0,0-2.26-1.42,23.43,23.43,0,0,0-2.74.44,27.85,27.85,0,0,1,2.8-3.63c1.19-1.17,3.27-3.94,3.1-4.56s-1.49-.73-2.8.86-4.71,4.5-5,5.11a2.62,2.62,0,0,1-.71.92s-1,.5-1.73-1.23a39.7,39.7,0,0,0-4.65-6.39c-.89-1-2.44-1.18-2.14-.19s2,2.4,2.8,4.06a36.77,36.77,0,0,1,2.2,5.84,33.87,33.87,0,0,1,.24,5.73c-.12,3.81-.06,7,.24,7.69s.47,1.17.47,1.17l-.89.36s1,5.42,1.25,8.8-.12,4.25,1.25,6.21a31.66,31.66,0,0,1,2.74,5.54c1,2,5.43,10.64,5.48,11.32s-1.9.62-.77,3,3.69,3.87,2.2,5.72-3.39,2.76-4,1.41a5.77,5.77,0,0,1-.53-2.4,2.28,2.28,0,0,0-.42,3A3.94,3.94,0,0,0,600.07,81c.24,0-2,1.48-1.55,2.46l.48,1a1.13,1.13,0,0,1,.12-1.29c.53-.56,3.09-1,3.45-2s.84,3.69-1,4.24-3,1-3,1a2.85,2.85,0,0,0,3.1.8,5.07,5.07,0,0,0,2.86-2.53A28.46,28.46,0,0,0,606,81.14a12.87,12.87,0,0,0,.71,3.39c.66,1.84.78,2.77.06,3.38s1.61-.37,1.61-2,.3-.44,1.13.67a6,6,0,0,0,2.56,1.66,4.11,4.11,0,0,1-1.48-2.15c-.24-1.23,1.31.8,1.48.92s-.29-1.72-.29-2.09,1,1.78,1.19,3.2,2.44,5.6,2.44,9.47c0,4.1-2.26,10.65-3,13.78-.67,2.73-1.43,9.78-.65,12.18s-.36,11.75-.6,13.66-.65,12.61-.18,15.93,1.79,11.51,1.61,14-1.31,13.41-1.31,15.93-.18,8.62.6,10-2.09.43-.54,1.85.48.8.42,2.15-1,1.66-.18,2.83-3.22,12.06-3.58,12.8-1,4.67,2.68,5.23,6.44-.5,7.81-5.23,3-7.82,3.1-9.29.36-3,.36-4.06-.48.61,0-1.85-1.08-2.4.41-2.95.78-2.34.66-3a39.25,39.25,0,0,1,1-6.76c.18,0,.06-1.48.36-3.33s1.31-7.81,1.55-8.86,1.55-8.73,1.55-10,1.72-9.29,1.72-9.29,1.14,8.18,1.14,9.23.77,14,.89,18.39-2.26,9.91-.42,12.18-1.07,1.23-.71,2-.54.74-.06,2a4.74,4.74,0,0,1,.18,2.83,60.4,60.4,0,0,0,1.61,9.35c.53,1.73,4.46,8.49,5.6,9.35s9.05,2.34,10.07,0,.47-3.87-.9-5.1a21.28,21.28,0,0,1-4.05-4.37,25.68,25.68,0,0,1-1.91-4.61,12.53,12.53,0,0,1-.41-3.94c.18-.55.47.25.89-1.23a4.77,4.77,0,0,0,.12-2.59c-.06-.36,1.67-11.81,2.2-14.27s.36-9.78.36-11.38,1.37-8.12,1.37-10a31.83,31.83,0,0,1,.66-4.55c.18-1.6,1.67-15.75,1.67-18s2.26-14.4,2.26-14.4a5.35,5.35,0,0,0,1-2,5.69,5.69,0,0,0,.18-3.26c-.18-.61,1.52-2.94,1.05-5.1s.2-2.65-.45-4.56-1.13-14-1.13-16,.83-2.28.65-.92l-.18,1.35a12,12,0,0,0,1.08-4.12c-.06-1.66-.06-2.71-.06-2.71s1.25,3.39,2.32,4.06,3.87.74,4-.55a2.7,2.7,0,0,0-.48-2s.36,1,0,1.29-.59,1.11-1.19.12a17.84,17.84,0,0,1-1.25-2.09c0-.18,1.19.49,1.25.68s.24.37.24-.74-.42-.43-.65-1.85,1.6,1.42,2.56,2.1a6.86,6.86,0,0,0,1.79.92s-.9-.31-1.73-2.09a5.14,5.14,0,0,1-.48-3.2l.06-.68s2.14,1.79,1.73,2.59-.06.8-.06.8,1.49-.49.89-2.77a11,11,0,0,0-2.68-4.31s3.76-2.46,5.18-3.2,2.63.74,4.18-1.78,2.32-5.23,3.33-6,6.5-5.84,8.46-7.44,5.28-8.37,5.63-10.49,2-7.26,2.06-8.68.15-8.39-.21-9.9-1.16-2.61-1.4-1.14a25.45,25.45,0,0,0-.39,3.6c0,.83-.18,3.08-.18,3.08s-1.28-2.59-1.52-3.11-1.81-3.48-2.32-3.69a.78.78,0,0,0-1.16.74,17.17,17.17,0,0,0,1.46,4,28.1,28.1,0,0,1,1.07,2.93c0,.15.12,2.61.18,2.83l.06.21A20.55,20.55,0,0,1,681,39.9c-.12-.22-4.29-5.11-4.74-5.35s-1.22-.19-1.22.61,1.52,2.77,2.59,4a13.72,13.72,0,0,1,2.42,3.51c.06.49.3,1.57.06,1.66a5.06,5.06,0,0,1-2.8-1.36c-.63-.8-2.15-2.49-2.68-2.43s-.93.19-.87.8a10.44,10.44,0,0,0,3.07,4,4.79,4.79,0,0,1,1.7,2,13.66,13.66,0,0,1-.6,3.08c-.36.61-4,1.35-4.2,2.15s-.39,1.44-1.93,1.84-4.92,2.74-5.4,3.88a6,6,0,0,1-2.26,2.43c-.63.4-4.8,2.06-5.24,2.49a19,19,0,0,1-2.36,1.45l-2.32.64a6,6,0,0,1-2.77-1.84c-1.1-1.39-1.58-3.14-3.25-4.46s-2-.77-2-2.16a41.7,41.7,0,0,0-1.55-7.19,9.56,9.56,0,0,0-2.3-3.29c-.65-.4-1.22-2.74-1.67-3.6s-2.86-4.65-5.09-5.79S631.62,34.79,628.19,35.13Z" transform="translate(0 -8.68)" style="fill:#eb008b"/><path d="M221.73,114.43s3.38-1,3.36-3.05-.57-2.79-.69-3.85,1.57-3.18.24-6-1.09-7.79-.87-8.89,0-12.33.44-14.09.44.83.45,1.36a4.26,4.26,0,0,0,.64,1.46l.53.24a2.27,2.27,0,0,1-.63-1.47c.1-.68.62-1.56.33-2.2s1,.9,1,1.24a3.67,3.67,0,0,1-.32.83,2.2,2.2,0,0,0,1-2.13c-.27-1.34-.81-1.57-1-2.2s.93-2.31.93-2.31,1.33-4.08.83-4.87.82-2.28,1.13-3.67,0-6,.87-7.29,3-5.82,2.85-8.09,2.42-6.53,2.62-8.5a28.18,28.18,0,0,1,.74-3.89s2.54-7.3,2.24-7.85-.67-.61-.67-.61,1.53-5.24,1.76-6.34.65-4.45,1.3-5.84a25.82,25.82,0,0,1,2.54-3.58c.29-.45.28-.77-.31-.65s-.71.32-.71.32a24.24,24.24,0,0,0,1.57-3.27c.09-.59-.85-1-1.78.3s-2.18,3.69-2.18,3.69l-.22.23a1.83,1.83,0,0,1-.59-1.51c0-1,.32-2.33-.08-2.43s-1.23,0-1.4,1.09a25,25,0,0,0-.18,2.84,1.34,1.34,0,0,0-.93,1.53,10.06,10.06,0,0,1,.1,2.29,10.68,10.68,0,0,1-1.92,2.18l-.54.22s-1.29-.21-1.63-.31-1.34.3-.89,1.1.89,1.2.68,1.73a5.41,5.41,0,0,0,.13,2.7,10.1,10.1,0,0,1,0,2.82s-.15.19-1.73,0-2.18.37-2.32,1.28a52.88,52.88,0,0,1-2.93,7.39c-1,2-5.15,13.21-5.17,15.06A13,13,0,0,1,219,56.37c-.3.31-2.74,3-2.74,3s-.68-7.89-.63-8.23S213.89,42.7,211,40.74a9.56,9.56,0,0,0-6.23-1.46,7.92,7.92,0,0,0-6.63,1.15c-3,2.29-5,7.36-5.93,8.74s-3,8.32-3,8.32-4.5-13.05-5.66-15.38-3.09-5.46-4-7.87-3-4.88-3.42-4.92-3.12-.27-3.12-.27-1.34-1-1.16-2.17a12,12,0,0,0-.81-4.95l-.54-1.14s-.47-1.27.86-3.36,2.13-4,1.3-4.37-1.51.16-2.34,1.68-2.09,4.15-2.84,4.06-.61-.36-.61-.36,1.81-6.67,1.93-7.67-1.25-1.74-1.69-.72-.76,2.67-1.25,3.65a29,29,0,0,0-1.2,3.28s.31,1.08-.73,0a39.83,39.83,0,0,1-4-6.24c-.32-.78-2.07-1.55-2-.55s1.72,4.27,1.7,5a2.25,2.25,0,0,0,.26,1.19,30.32,30.32,0,0,0-2.78-2.68c-.91-.66-3.34-1-2.15.43s4.87,5.58,4.87,5.58L161,21.43s-.56.34-.05,1.12,2.16,2.43,2.5,2.93,3.05,5.88,3.16,6.21a1,1,0,0,1-.14.71s2.35,6.17,3.17,8.29,2.08,2.5,3.3,4.09,3.65,5.87,3.35,6.64,1,3.45,1.71,4.54c3.08,4.46,5.58,9.73,6.19,13.49A76.68,76.68,0,0,0,186,78.33s2.76,6.74,2,11.66-1.17,16-1.23,19.28-.27,5,.57,5.84l.82.8s-4.83,6.33-5.5,10.75S181.55,139,181,144.6c-.41,3.76,1.09,5.3,2.16,6.7a4,4,0,0,1,1,2.17c.17,2.62-1,14.94-1.83,16.91s-1.75,14.81-1.87,17.68-.92,5.18-1.32,4.59c-.16-.23-.41,6.82-.42,7.33s-.85,7.63-1.13,9-3.65,6.53.5,8,7.65,1.28,8.88-.18,1.16-5.11.79-6.83.1-7.31.22-8.1,1.7-3.66,1.35-6.76,0-3.39-.18-5.2,3.42-9.86,4.11-12.25,2.46-9.43,2.84-10.65,3.45-12.68,3.78-14.83,4.89-2,4.74-.52a69.85,69.85,0,0,0,.93,11.84c.6,2.67.46,12.08,1.17,15.68a63.23,63.23,0,0,1,.74,10,39.71,39.71,0,0,0-2.23,5.36c-.3,1.57-1.82,3.63-.25,5.38s4.69,4.1,5.5,6.28,4.1,5.46,6.75,5.49,5.32-2.11,3.48-5.4-3.57-5.22-4.25-7.84-1.18-7.18-.87-8.76,2.6-12.94,2.63-16.05.65-8.29.77-10.41c.45-8.06,1.08-12.11,2.9-13.63,1.62-1.36,4.46-.41,4.81-2.77.18-1.25.54-10.62-.19-15s-4.82-12.06-4.79-13.09S221.73,114.43,221.73,114.43Z" transform="translate(0 -8.68)" style="fill:#37b34a"/><path d="M439.49,141.06s2.23-2.26.91-4.66-2-8.64-1.95-10.93-.34-4-.16-6.08-.55-12.11-.33-15,.4-6.91,3.28-10.46,10.49-10.12,12-13.47,3.3-8.71,3.86-9.47,1.79-.81,1.23-1.35.13-1.32-.24-1.57,1.24-.64.68-1.5,1.45-2.56.58-3-.35-1.81-.85-1.72-.79-1-.79-1-.24-6.52.24-7.39,2.22-1.74,2.83-2.81,1.3-2.42,1.7-3.28,2-5,1.29-5.8-1.46-.11-2,1.73-.79,1.72-.62.82,1.41-5.61,1-6.44-1.26-.66-1.62.36-.65,2.21-.65,2.21l-.23.61a28.55,28.55,0,0,0,.43-4.63c-.19-.57-1.45-1.45-1.91.85a35.33,35.33,0,0,1-1.47,5.53c-.16.07.38-4.45.39-5.06s-.13-1.36-.6-1.53-1.23.37-1.76,3.38a16.23,16.23,0,0,1-1.3,4.42s-.28-2.51-.35-3.1-1.33-1.91-1.56-.21-.86,3.55-.87,4.63a35.36,35.36,0,0,0,.6,4.61,4.36,4.36,0,0,1,.24,2.51c-.3,1.14-1.19,8.73-1.19,8.73s-2.21.25-1.87.84-.37,1.67.16,2.18-1.89.93-1.07,1.38a2.48,2.48,0,0,1,1.09,1.34s-3.51,7.11-3.65,7.26-1.83,1.27-1.9,1.81-2.37,1.81-2.56,2.62S438,79.79,438,79.79l-2.12,1.59a4.72,4.72,0,0,0,.49-2.14c0-1.11.63-3-.76-6.3S434,69.1,434,69.1a30.24,30.24,0,0,1,2.15,3.44l.1.5a5.64,5.64,0,0,0-.81-3.22c-.91-1.13-1.23-1.63-1.23-1.63s-2.16-8.67-3.91-11a10.61,10.61,0,0,0-7-4.16,12.56,12.56,0,0,0-5.49.56s-4.75,0-6.36,1.7-5,7.58-4.87,8.27-1.42,2.07-1.08,3,.86,1.55.49,2-1,1.15-.61,1.71-.51,2.54-.08,3.21,1.12,1.43.7,2.42-.72,1.15-.23,1.8l.85,1.17s-.72-1.32-.56-1.68a3.59,3.59,0,0,0,.24-2.74c-.48-1.11-.83-2.41-.52-3s-.2-1.19,0-1.66a5.21,5.21,0,0,0,.62-1.33,7,7,0,0,0,0-1.19,17.69,17.69,0,0,1,.56,2.36c0,.39.55,7,1,9.07s.7,4.25,1.51,5.07a3.07,3.07,0,0,1,.9,1.28s-5.15-2.75-6-3.79-2.71-2.59-3.77-3.65-1.56-1-2.69-1.94S392.43,69.54,392,68s-.69-2.63-1.34-2.85-.73-1.94-1.31-1.83-.94-2.58-1.44-2.49-1.21-1.32-1.48-.92-2.45-2.55-3.06-3.86-.95-2.2-.6-3.05a38,38,0,0,0,1.73-3.8c.36-1.25.85-2,.54-3.19s-.19-2.08-.56-2.4-1.22-.5-1.31.82a6.89,6.89,0,0,1-1,3.23l-.33.28a16.2,16.2,0,0,1-1.62-4.27c-.19-1.61-1-5.83-1.65-5.75s-1,.45-.87,1.78.7,4.41.51,4.79l-.18.39a4.74,4.74,0,0,1-.88-2.26c-.34-1.71-1.25-3.91-1.73-4.16s-1.55-.18-1,1.76.74,3.1.82,3.52.12.84.12.84A46.91,46.91,0,0,0,373.15,40c-.39-.45-1.79-.74-1.41.75s1,3.7,1.24,4.31.49,2.07.49,2.07a7.14,7.14,0,0,1-1-1.72c-.23-.73-.8-2.09-1.39-2s-.75.36-.64,1a40.93,40.93,0,0,0,1.62,5.36,36.17,36.17,0,0,0,3.5,6.33,60.88,60.88,0,0,1,3.6,6.66,9.27,9.27,0,0,1,.51,2.59,3.42,3.42,0,0,0,.53,1.59c.19.13,2.14,3.65,2.11,4.39a1.24,1.24,0,0,0,.73,1.07S387,80.1,389.67,82s2.6,5,4,5.8,5.3,4.46,7.1,6.58,2.58,3.18,2.58,3.18,1.07,21.11.61,23.63-.9,4.25-.44,6.15-.76,9.85-1.11,11.57a2.86,2.86,0,0,0,1.84,3.2c.95.41,2.73,1.11,2.73,1.11s-.48,16.12.1,19.48,3.12,13.25,3.23,13.84-1,1.52-.71,2.31-2,1.43-.77,2,.34,2.41.54,2.76,1.18.74,1.18.74,1.06,10,1.38,13,1.28,7.48,1,8.26a63.77,63.77,0,0,1-4.91,6.75c-1.37,1.63-5,5-3,6.71s5.56,2.48,7.42,1.4,2.69-2.87,3.93-3.5,5.43-3.8,5.76-4.77.81-4.84,0-6-1.1-1.29-1.1-1.29.06-7.29.1-9.44,1.1-7.95.84-9.27,1-1.17.86-1.92.28-.9.11-1.78.92-2.26.92-2.26l-.31-8.52,1.32-9.81s4.27,9.17,4.63,11,.92,6.65,1.5,7.64.09,1.8,1,2.66-.67,1.56-.14,1.58a.9.9,0,0,1,.71.32s2.36,10.39,2.66,11.89,1.49,7.58.69,9.49-1,5,.27,6.32,4.42,1,6,1.62,8.5,5.55,11.8,3.14,3.78-5.22,1-6.76l-7-3.89s-3.74-2.13-4.17-3.34-.66-14.95-.55-16.41,1.61-3.69.75-4.76,1.56-1,.41-2.22A6,6,0,0,1,443,176.7c-.13-.69-1-10.07-1.24-12S442,151,440.56,146.5s0-2.72.56-2.12,1.88,1.32,2.09,2.38.66,2,1.48,2.25a8.24,8.24,0,0,0,2.35.06l-.05-1s-1.38.6-1.67.14a30.43,30.43,0,0,0-2-2.74,10.17,10.17,0,0,0-2.65-2.6c-.79-.36,2.16.1,2.59.92a15.42,15.42,0,0,1,.79,2.06l.7-1a4.12,4.12,0,0,0-1.23-2c-.82-.55-1.95-1.31-2.76-1.15s-1.45.22-1.45.22Z" transform="translate(0 -8.68)" style="fill:#f6921e"/><path d="M277.7,132s4.88-1,4.62-4.61-1.46-8.78-1.82-8.79.2-11.77-1.1-13.14L278.11,104s1.08-4,.49-4.85l-.58-.86s8.25-8.76,11-10.26,4.93-7.15,5.12-9.93a47.74,47.74,0,0,1,.54-6.18c.26-.6,1.93-8.32.62-9.45L294,61.38s.25-4,.22-4.75-.83-1.38-1.64-1.62-.86-.29-1.08-.08.18-.76-.79-.84a5.9,5.9,0,0,0-2,.27S288.4,52,287.81,52a3.29,3.29,0,0,0-1.87.82l-.16.21s-1-6-1.62-6.22-1.29-.63-.81,3.55,1.18,6.49,1.15,7.57a27.16,27.16,0,0,0,.74,4.69l.11.16a23.39,23.39,0,0,1,.26,2.34c0,.6-.67,4.54-1,6.15s.21,2-.15,3.31-1.82,3.15-2.78,4.47-3.32,2.51-6,3.47-2.63.8-2.84.57a43,43,0,0,1-3.09-3.71c-.21-.5-.19-1.15-1.86-1.63s-1.12-.68-2.36-.71a3.77,3.77,0,0,1-2.2-.93s3.46-5.44,3.49-6.79.07-4.5.6-5.79a8.69,8.69,0,0,0,.72-2.63,8.82,8.82,0,0,1,.08-.92,20.19,20.19,0,0,1,2.06-2.17c.56-.36,2.31-4.92-.21-7.92s-3.47-4-6.56-4.09A27.56,27.56,0,0,0,256,47.12s-4.66-.13-7.26,1.59-7.54,9.82-7.06,12.11l.48,2.3h0s.55,1.91.38,1.9-.56.69-.56.69l.5-.2-.2,1.3.34-.7L242.26,68l.44-.53.23,1.79.23-.53-.23,2.32.19-.86a6.2,6.2,0,0,0,0,1.46c.1.17.22-.32.22-.32l.19,1.15,0-.65s1.19,1.87,1.56,2.26.27,0,.27,0l.14.71s-3.7.76-4.54,1.5-1.61,1.69-1.89,1.9-7.93,4.5-8.26,4.7-2.62,4.54-2.14,6.61.58,2.57.58,2.57-3.31,9.83-4.12,11.92-1.82,7.11-3.84,11.34-3.05,10.49-5,14.77-2.42,5-2.12,6.07a12.82,12.82,0,0,1,.39,1.75s-1.43,6.52-.9,6.91a3.51,3.51,0,0,0,1.51.48s.89,2.84,2.5,3.75,2.63.84,2.86.35l.23-.48s1.25-.29,1.28-1.16.13-2.7.13-2.7,1,.46,1.06-1.11a21.37,21.37,0,0,1,1.16-4.85c.18-.48.87-2.09.13-2.65s-.75-2.19-.75-2.47,3.71-6.67,4-7.31,3.29-7.23,3.29-7.23a15.79,15.79,0,0,0,.5,5.27,25.87,25.87,0,0,0,2.15,4.61s-1.4,5.77-.34,8.51,2.22,3.85,3.62,4.38a35.18,35.18,0,0,1,3.32,1.56,31.46,31.46,0,0,0,.16,7.92c.65,4.08,1.83,14.47,2.21,18.06s2.6,14.17,2.42,16.77-2.17,5.74-.22,7.69,2.21,6.62,2.08,7.43.08,1,1.19,2,1.45,2.43,1,3.17a6.49,6.49,0,0,0-.09,3.26c.16,0,.42.6.42.6s-2,5.26-2.06,5.64.45,3.37,2.87,4.31,8.28.61,9.23-.62.72-4.26.22-5.9a32.19,32.19,0,0,1-.82-3.82,7,7,0,0,1,.21-1.78,16.88,16.88,0,0,1,.88-4.26c.76-2.1,2.3-2.65,1-4.31s-2.37-4.29-1.93-6.51,1.25-2.13.43-4.05,2.92-5.61,2-9.11a30.75,30.75,0,0,1-.69-10.48c.37-1.57-.24-5.11-.27-6s.12-4.38.12-4.38,1.83,6.34,3.62,12.51,3.58,11.6,3.14,14,.7,5.83,1.72,6.4a2.4,2.4,0,0,1,1.27,3,6.94,6.94,0,0,0-.65,3.89,32.9,32.9,0,0,0,2.15,6.62c.77,1.49.59,4.14.95,5a12.32,12.32,0,0,0,1.3,2c.1.16.8,4.19,2.52,4.89s8.29.39,9.39-.5,2.26-3.24.07-6.23-2.66-4-3.24-4.48-.1-2.12-.65-4-.5-3.38.34-4.39,1.41-2,1.48-4.67.08-2.82.22-5.74.54-7.8-.94-13.1-.93-17.54-1.2-21.56-1.88-8.45-2.92-12.22A69.55,69.55,0,0,1,277.7,132Z" transform="translate(0 -8.68)" style="fill:#90278e"/><path d="M372,132.86l5.51-4.27s-2.74-5.41-2.92-7.72.73-15.77.78-16.89,13.36-6.54,15.89-8.42,4.29-1.88,5.74-3.37,1.26-2.51,2.39-3.29a6.25,6.25,0,0,0,1.89-3c0-.13,2.44-1.64,2.54-2.07s-.06-1-.49-1.06-.23-1.15-.72-1.33a3.16,3.16,0,0,0-1-.18s-.15-1.68-.92-1.61l-.77.06s-1.1-1.35-1.68-1.23a9.79,9.79,0,0,0-2.28.82c-.45.27-1,.61-1.15.69s-2.88,1-3.23,1.84-1.61.69-2.41,2-.3,1.9-1.5,2.6a86.74,86.74,0,0,1-9.14,3.67c-.93.18-1.52-.71-2.54-.51s-3.45-2.26-4.16-3-2.63-3.94-2.92-4.25.25-.56.5-1.44a4.87,4.87,0,0,1,.32-1.12c.11-.16,1.25-.67,1.12-1.33l-.18-.93a1,1,0,0,1,.83-.91c.81-.11,1.12-.4,1-1s-.15-1.45-.15-1.45a3.55,3.55,0,0,1,.87-1c.45-.27,1.47-1.17.5-1.89a2.85,2.85,0,0,1-1.27-2A17.34,17.34,0,0,1,374,64.42a6.73,6.73,0,0,0,.39-3.16V61s7.67-2.69,8.56-4.43a8.25,8.25,0,0,0,1-2.73,57,57,0,0,0-7.27-.63,31.76,31.76,0,0,1-5.92-.57s-7-6.54-11.29-6.69-11.41.38-13.62,2.9-6.18,9.75-6.28,11.76.69,2.76,1,2.92l.36.17.47.77a17.87,17.87,0,0,1,1.2,2.3c.09.45,1.78,4.07,2.38,4.09l.6,0a1.32,1.32,0,0,1,.46,1.34c-.13,1,.29.77.29.77a8.7,8.7,0,0,1,.39.8c0,.13.1-.43.1-.43l.33,1,.14-.44.43,1,.59.2-.32-.44.29.73.52-.15a26.8,26.8,0,0,1-3.6,1.13c-.77.06-4.28,5.37-6.05,7.34s-4.24,3-5,4.13a7.07,7.07,0,0,0-.67,3.54c0,.18-2.29,4.28-2.12,5.82s1.39,9.73,3,10.52,2,1.07,2.49.7a7.26,7.26,0,0,1,1.61-.74s-.38,6.21-.62,9.16,1.18,11,.85,14.91a63.91,63.91,0,0,1-1,6.74c-.14.95-2.12,4.85-.76,5.91s4.12.79,4.65.87,2.66,4.82,2.83,6.35,3,10.84,1.88,14.29-3.19,5.29-3.62,6.16-1.28,8.83-1.63,11.25a47.45,47.45,0,0,1-1.72,8c-.75,2-1.74,2.6-.77,4.25s.17,4.76.41,6.24,0,2.71.35,3.57a8.86,8.86,0,0,1,.34,1s-2,2.75-1.37,4.65,1.44,7.5,3,8.8,10.44,1.51,11.93-.3.57-3.34-.47-5.35-1.55-2.23-1.95-3.76a19.24,19.24,0,0,1,.33-7.35c.57-1.59.19-2.53,1.17-4.8S362,183.08,362,181.73s-.47-9.31.44-12.16a54.69,54.69,0,0,1,2.4-6s1.18.63,1.84.92a2.45,2.45,0,0,1,1.36,1.25,8.92,8.92,0,0,1,.66,3.79c-.11,2.23,0,3.86-1.75,5.79s-2,1.82-1.73,3.34.13,6-.55,7.44-2.46,4.54-2,5l.45.42s-2.84,4.71-.58,6.11a10.09,10.09,0,0,0,7.72,1.46c2.62-.71,9.49-1.16,12.09-1.31s6.69-1.14,5.88-3.57-2.09-2.39-4.39-2.16-2.82-.27-4.41-.6a5.6,5.6,0,0,1-2.37-1,27.38,27.38,0,0,1-.2-4c.15-.86,4.21-2.5,4.95-4.08s4.62-12.21,4.26-15.87-.79-8.83-3.44-13.79-4.28-8.32-5.27-10.25S373.53,133.17,372,132.86Z" transform="translate(0 -8.68)" style="fill:#2e3191"/><path d="M720.39,146.88s-8.79-7.84-10-12-1.7-5.36-1.7-5.36a56.86,56.86,0,0,1,5.49-2.43c.91-.16,1.11-.4,1.11-.4a38.66,38.66,0,0,1-4.79-2.26c-1.37-.91-3-1.26-3.75-2.21s-1.94-2-2.24-2.51-3-1.39-3.18-2l-.2-.58s-3.33-2.15-3.32-3.35.62-1.2,1-1.14.35-1.46.87-1.62,1-.37,1-.37.32-1.52.77-1.79a1.19,1.19,0,0,1,.94-.11,2.5,2.5,0,0,1,1.74-.25,7.66,7.66,0,0,0,1.54.22s.32-.93.86-1a1.91,1.91,0,0,1,1.56,1.1c.09.46.12.7.12.7a8.53,8.53,0,0,1,1.52.08c.46.11.88.55,1.13,1.52a3.67,3.67,0,0,0,1.32,2.29c.71.46.78.58,1.79,1.16a4.83,4.83,0,0,0,1.95.9c1.14.27,1.25.59,1.84.34s3.35-1.11,3.32-3.19a21.53,21.53,0,0,0-.45-4.72,33.19,33.19,0,0,1-.91-5.8,18,18,0,0,1,.86-3.59,4.49,4.49,0,0,1-1.26-.16c-.25-.16-.33-.85-.24-1.41a1.25,1.25,0,0,0-.17-.9s-1.63.81-2,.66-.62-.82-.67-1.22a3,3,0,0,0-.48-1s-1.16.4-1.62.14-.94-.32-.71-1.28.56-2.51-.28-3.43a28.71,28.71,0,0,0-2.73-2.24c-.47-.45-2.59-3.42-2.59-3.42s-3.82,1.68-6.94.83a10.85,10.85,0,0,1-4.62-2.36s-.44-.59.53-1.41,8.57-5.44,9-5.67l.77-.39s.85-2.54,1.32-3.49,1.12-4.05,2.92-5.93,8.32-5.4,9.16-5.49a6.33,6.33,0,0,1,1.58,0s-.31-.31,0-.53a3,3,0,0,1,1.77-.15.62.62,0,0,1,0,.34s.3-.22,3.74.85,9.42,4.82,10.39,6,1,3.8,1.26,6.36,1.1,4.4.12,4.89a7.82,7.82,0,0,0-1.16.63s.15,3.55.42,3.81-.55-.47-.55-.47l.1,1.37-.35-.56-.25,1.67-.12-.71-.23,1.15.14,1-.51-.66.31,2.1a28.6,28.6,0,0,0,5,.53c1.94-.06,6.59,4.19,9,5.6s1.19,2.25,3.84,2.22,4.77,5,5.48,6.61,2.46,4.58,1.57,6.68-1.82,6.34-2.64,6.77-.87.22-.87.22-.94,3.91.4,5.15,7.39,7.84,11.38,10,7,6.29,10.23,6.06l3.27-.22s-6.32,7.67-12,10.48-14.66,4.35-15.67,4.54a1.62,1.62,0,0,0-1.21,1.25s-3.56,7.18-7.74,11.17-8.94,5.36-10.87,6.77L734,172.8s1,2.21,0,3.36-2.17.82-.94,1.89,3,0,3.14,2.34-1.42,4.9,0,5.39,1.71.31,1.82,2.26.07,1.7.24,3.57a46,46,0,0,0,2,6.87c.24.78,2.67,3.48.58,5.38s-3.47,2-4.76,1.79a32.78,32.78,0,0,1-5.5-2.14c-1-.48-6-2-7.16-2.4s-3.62-1.35-3.67-3.34a3.15,3.15,0,0,1,2.93-3.38c1.43.06,3.44.49,3.68.5s-.44-.78-.54-1.18-1-.93-.89-1.47.67.79-.54-1.19a27.59,27.59,0,0,1-2.14-4.89l-.67-6.8s-1.92,2.57-3.66,3-2.4.77-2.54,1a16.42,16.42,0,0,0-.72,2.57c-.3,1.28-1.33,3.14-1.45,3.64s.67,3.2-.21,4.09a8.93,8.93,0,0,1-1.89,1.42s0,1.77-.08,2.53.08,1.7.08,2.47a14.13,14.13,0,0,1-.75,3.72c-.34.83-1.35,2.22-1.85,3.3a4.64,4.64,0,0,0-.37,3.14,1.45,1.45,0,0,1,.22.87,21.64,21.64,0,0,0-.2,3.65c.15.76.2,6-4.3,5.27s-8.25-3.09-10.34-4-9.87-2.57-10.28-5.07,1.84-6.63,3.77-6.69,3.45,1.07,4.89,1.08a8.71,8.71,0,0,0,3.81-1.06c.89-.46,1-.72,1-1.06s-1.21-3.18-1.29-3.82a35.23,35.23,0,0,1,1.17-4.87c.14-.59-1.7-7.33-1.32-9.5s.45-9.27,2.82-12.93,5.49-9,8.11-11.52,8.87-8.45,10.14-9.73S720.39,146.88,720.39,146.88Z" transform="translate(0 -8.68)" style="fill:#29b473"/><path d="M36.69,130.38s-3.33,1-4.25-.14-.57-3.68.07-6.44,2-16.27,2.76-20.87a42.28,42.28,0,0,0-.5-16c-1.27-5.45-1.83-6.23-1.83-6.23S23.1,71.09,19.14,65.5s-7.07-10.26-7.78-10.68S9,48.52,9.24,47.67l.28-.85-1.42-2L4.32,41c-.57-.56-.6-.35-.57-.56S0,37,0,36.32s.57-.92,1.73.21,2.16,1.84,2.76,1.8.64-.78,0-1.45A37.76,37.76,0,0,1,.92,31.29c-.07-.56-.07-1.3.64-1.16l.71.14S1.7,29,2,28.64s1.17-.32,2,.43l.78.74s-.11-1.24.35-1.35S8,30,9,31.22s2.23,3.15,2.44,3.19,2.86.32,3.36,1.59,1.52,3.89,1.7,4.49a8.33,8.33,0,0,1,.31,1A31,31,0,0,1,19.56,45a28.31,28.31,0,0,1,2.37,4.35,68.94,68.94,0,0,0,4.64,6.51c1,1.31.67,1.34,2.23,2.69s1.73.46,2.4,1.56,1.35,1.55,2.13,1.34,1.16-.74,2.58,0,6.47.57,7.18.85,3.25-.39,3.25-.39l-.85-1.94a9.61,9.61,0,0,1-1.62-2.8,12.64,12.64,0,0,1-.64-2.93,44.36,44.36,0,0,0-1.38-5.45s-5.36,1.83-6,1.69-.39-2.45.1-3.26,4.94-2.85,4.94-2.85.92-6.69,1.84-8.35,4.25-5.48,7.36-6.3,9.75-.78,11.71.64c2.57,1.87,3.5,2.69,4.49,4.18a18.38,18.38,0,0,1,2.09,5.4c.07.78.17,3,.17,3.17,0,1.59-.6,1.89-.67,3.38s.5.78.81,2.16.78,4.17,0,5.83-1.27,2-1.49,2a.6.6,0,0,0-.39.24,22.9,22.9,0,0,1-.91,3.68c-.53,1.35-1,2.72-1,2.72s.39,2.48,1.1,2.87,4.14-.14,5.41,0,3.79,1,5,.56.53-1.38,2.3-.56,3.39,2.19,5.48,2.83,2.72-.22,6,.63,6.08,1.28,6.75.82.15-3.65,2.91-4.85,3.5-.42,4-1.91,1.06-4.17,2.83-5.62a7.75,7.75,0,0,0,2.55-3.22c.42-.89,2.44-1.24,2.44-1.38A39.13,39.13,0,0,1,115,49.3a3.48,3.48,0,0,0,.78-.11c.35-.1,5.94-5.27,7.21-5.69s2.3-.92,2.48-.71a1.54,1.54,0,0,0,.35.32,3.63,3.63,0,0,1,1.42-.46c.42.07,1.13.42.85,1l-.29.57a.86.86,0,0,1,.32,1.55c-1,1.1-1.17,1.24-1.34,1.28s-.64,1-.64,1,.5.67.71.74.74.36.1,1.32-1.91,1.41-2.3,1.94-1.52,1.52-1.76,1.8-1,1.21-1,1.21l.42.28s-1.66,3.22-2.33,4.46-1.42,2-2.06,3.11-3.57,3.4-4.59,4.6-3.76,3.68-6.69,7.14-7.89,8.1-12.24,9.2a40.7,40.7,0,0,0-8.74,3.61s3,9.69,3.4,12.56,2.54,16.41,4.56,20.13,8.28,8.7,3.71,9.65-11-.84-15.6-.74l-4.56.11A125.57,125.57,0,0,1,80.06,143c.63,5.52,1.06,13.69,1.06,18.47s1.38,12.94,1.38,16.23,2.65,4.78,1.8,7.75-4.88,9-3.5,11.36,1.27,3.92.74,4.67-.32,0,.32,2.12a5.92,5.92,0,0,1,.42,2.86s1.28,4.14,2.23,5,5.42,3.19,4.88,4.67-5.41,2.55-9.12,2.76-5.52-1.17-5.94-1.91-4.36-1.17-4.89-2.76-1.16-3.82,0-5.41,1-2.23,1-2.23a28.42,28.42,0,0,1-2.34-6.05,19.21,19.21,0,0,1-.31-4.77c0-3.3,1.27-1.7,0-5.84s-3.51-9.87-4.46-13.59a57.84,57.84,0,0,1-1.28-8.8c-.31-2.44-2.54-8.28-2.54-8.28s-1.49,7.64-2.87,11-2.23,8.39-2.65,10a67.82,67.82,0,0,1-4.25,8.81c-.74,1.17-2.12,2.65-1.59,4.67a30.68,30.68,0,0,1-.1,8.91,6.16,6.16,0,0,0-.22,3.19,7.06,7.06,0,0,1,.11,2l-.42.11s1.91,7.11,2,7.43.74,4-1.06,4.56-10.19-.64-11.25-1.91-2.12-5.94-1.27-8.91.42-2,.42-2-1.59-.42-.95-2.44-.21-3.4-1.28-4.78-2.54-1.06-.31-3.18-1.28-6.05-.75-8.7,1.59-4,1.49-7.11-.11-13,.1-16.35.75-17.83.85-23.77A52.11,52.11,0,0,1,36.69,130.38Z" transform="translate(0 -8.68)" style="fill:#57b6dd"/><path d="M574.64,131.08a10.28,10.28,0,0,0-2-2.77c-1.19-1.09-2.6-2.34-2.6-2.34s-2.61,1.74-3.31,1.14-1.41-2.82-2.39-4.77-7.38-15.2-8.85-20.41-2.33-12.65-1.84-16,.59-4.34.59-4.34-2.93-1.74-6.67-3.86-3-1.63-6.35-3.47-10.7-5.21-10.7-6.08-.92,0-.92-1-1.19-.33-1.19-1.14a12.84,12.84,0,0,0-.22-2,7.34,7.34,0,0,1-2.61-1,11.35,11.35,0,0,1-2.75-3.62c-.5-1.26-1.3-3.43-2.78-4.41s-2.25-2.25-1.67-2.79,1.56-.21,2.14.22,1.55,1,1.55,1-.36-1.12-.65-1.3-1.77-.62-1.88-1a2.48,2.48,0,0,1-.11-.55s-.76-1.84.47-1.7a5.57,5.57,0,0,1,3.66,2c.76,1.13.83,1.81,1.52,2.36a19.71,19.71,0,0,1,2.75,4.08l.54,1.09,2.86,1.12s.65,0,.76-.18.32-.58.61-.18.62.07,1.23.25a13.11,13.11,0,0,1,2,.91,31.84,31.84,0,0,0,4.45,2.57c2.39,1,1.19.32,3.29,1.08a9.89,9.89,0,0,1,3.62,1.88c.47.51,1.52.62,1.77,1.2a4.56,4.56,0,0,0,2.61,1.59c1.27.4,1.37,1,2.93,1.27l5.21.94s-4.27-8.69-5.32-10a13.48,13.48,0,0,1-2.89-4.38c-.62-1.88-3.33-12.08-4-13.53a12.19,12.19,0,0,1-1.23-3.15,2.41,2.41,0,0,1,.54-1.59l-.47-2.43a7.42,7.42,0,0,1-2.64-2.6,18.3,18.3,0,0,1-1.92-4.89,3.56,3.56,0,0,0-1.7-2.46c-1.12-.79-2.5-1.81-1.26-2.24s1.91.58,2.89,1.23a16.64,16.64,0,0,0,1.56.94s-.08-2.61-.66-3.15a1.77,1.77,0,0,1-.43-2,1.12,1.12,0,0,1,1.52-.08c.14.29.43.8.43.8s.37-.4,1.09.07a4.92,4.92,0,0,1,1.74,2.1,10,10,0,0,1,.32,1s.47-.22,1.2.76A9.12,9.12,0,0,1,549.6,29a28.77,28.77,0,0,0,1.27,3.76l2.35,3.94,1.16,0s.32,1.05.47,1.41a5.49,5.49,0,0,1,.5,1.38c.08.54,2.43,2.56,2.14,2.93s1,.61.94,1,.51,1.08.51,1.41,1.16,1,1.08,1.52,1.16,1.59,1.16,1.7.87,2.82,1,3.19,1.05,1.8,1.05,2a10.18,10.18,0,0,0,.61,1.37s.8-2.39,1.31-3.51a12.44,12.44,0,0,1,2.06-2.68l-1.52.62s.5-.83.87-1l.36-.14s-1.16-.47-1.41,0a2.27,2.27,0,0,1-.58.65,1.29,1.29,0,0,1,.72-1.7c1.2-.43-1.7-.18-1.7-.18s.33-1,1.05-1.19-.61-1-.61-1,.9-.08,1.33-.08-.65-1.88-.65-1.88a3.74,3.74,0,0,0,1.49.4c.72,0,1.81-1,1.81-1a16.46,16.46,0,0,0-1.89,0,2,2,0,0,1,1.78-1.08,33.26,33.26,0,0,1,3.51,0c.29.11-2-1.23-2-1.23a24.46,24.46,0,0,1,2.53.8,13.22,13.22,0,0,0,4.89.18c1.27-.29,10.28,0,11.11.72a12.51,12.51,0,0,0,4.52,2.24,14.66,14.66,0,0,0,3.08.29l-2,.51a15.21,15.21,0,0,1,1.74,2.39c.22.61,1.3,1.19,1.3,1.19l-2.13-.61S596.5,49,596.57,50s1.49,1.56,1.49,1.56l-1.31-.4a20.66,20.66,0,0,1,1,3.51c-.11.4.58,1.27.69,1.27s-.83-.15-.83-.15,1.37,1.81,0,3-1.2,1.19-1.2,1.19l.91.08-1.09.43A9.38,9.38,0,0,0,595,64.29a11.86,11.86,0,0,1-1,3.84v-1a7,7,0,0,0-1.45,2.46c-.43,1.41-.57,2-.57,2l-.11-1.49a5.23,5.23,0,0,1-.76,2.68,4.25,4.25,0,0,1-1.92,1.81l1.19-1.92s-1.48,1.3-1.52,1.63a.57.57,0,0,1-.18.43,5.26,5.26,0,0,1,.4-1.95,7.68,7.68,0,0,0-.76,1.95l.07.44a4,4,0,0,1-.32-1.23c0-.51-1,1.37-1,1.37l.47-1.77A7.49,7.49,0,0,0,586,75.15l-.47.79.15-1.26s-.87,0-.9.61a6.21,6.21,0,0,0,0,1s-.58-.87-.26-1.45-.72.94-.72.94l-.18.22s2.93,1.59,1.91,4.09a16.18,16.18,0,0,1-3,4.52s2.82,2.68,2.42,5.4-1.59,3.32-.18,4.27,4,4.55,3.8,6.33,1.88,6.33,3.13,8.5,3.42,6.14,3,6.62-.6.82-.6.82,2.07,3.31,3,4.83a20,20,0,0,1,2.12,4c.05.59,1.19.76,1.19.76s1.68,8.68,2,11.72.92,4.07.16,5.65-.16,3.25,0,4.23-1.47,10-2,12.86-1.41,3.53-.54,4.73,4.61,14.06,6,17.37,3.37,7.22,5.1,7.27,2.45.92,2.5,1.68,2.82,1.09,2.82,2.61.6,2.11.6,3.31,1.3,1.79.81,2.17-.59,0-.48.38,3.58,2.77,2.22,5.21-5.21,5.65-5.86,6.73-8.2,7.28-9.55,7.76-7.77.49-8.58-1.84.11-3.53,2.33-4.89,2.56-2.71,2.56-3.2-1.58-.16-.66-1.63-2-.49-1.57-1.79-2.44-1.63-1.63-3.15-1.19-1.57-.22-2.49-7-10.7-7-10.7l.87,4.73s3,4.55,1.46,6.94-8.3,3.42-13.95,1.52-11.72-3.74-11.45-6.67.93-3.21,3.15-3.21a12.12,12.12,0,0,0,3.15-.21c.38-.11-.27-3.8.54-4.51s-2-2.06-1.46-3.09-3.91-3-2.83-5.7-2.33-2.88-1.84-4.83-1.58-11.94-.93-14.71,3.15-17.1,4.67-20.9,3.8-8.2,3.8-8.2Z" transform="translate(0 -8.68)" style="fill:#00a69c"/><path d="M625.44,102.86a14.74,14.74,0,0,1,3-.55,15.57,15.57,0,0,1,2.37.86l3.87-.91a16.87,16.87,0,0,1,.19-2.8c.18-.22,1.09-.58,1.46.87a19,19,0,0,0,.7,2.21s1.56.54,1.71.56,2.71-1.64,3.91-.9,2.34,0,2.74.28.83-.8,2.1-.25.7-.91,2-.49.57.37,2.53.06a50.1,50.1,0,0,0,8.83-2.48,4.91,4.91,0,0,0,1.65-1.5,14,14,0,0,1,2.43-2c.42-.33,6.45-5.45,7.18-5.88a20.87,20.87,0,0,1,3.13-1.87,12.55,12.55,0,0,0,2.28-1.23l-.54-1.7s-3.89.81-4.73.22a6.71,6.71,0,0,1-2.2-2.85,4.42,4.42,0,0,1-.08-1.16,34,34,0,0,0-1.59-3l-.26-.22a7.1,7.1,0,0,1-.46-3.51,12.92,12.92,0,0,1,.69-2,2.22,2.22,0,0,0-.1-2.09c-.67-1-1.36-2-1.26-2.73s.29-3.29.29-3.29a6.77,6.77,0,0,0-.29,1.4l.08.11a5,5,0,0,1-.5-1.25c0-.25-.31.85-.31.85a1.72,1.72,0,0,1-.07-1.07c.1-.78-1,.12-1.56.4s0-.64.39-1-.16-.66-1.21-.46l-1.06.21a3,3,0,0,1,1.44-.92c.68-.07-1.62-.1-1.62-.1a5,5,0,0,0,1.29-.75,2.6,2.6,0,0,0,.94-1.27l-1.13.58a4.53,4.53,0,0,1,1-1.78c.87-1-.64-1.43-.64-1.43l2.16-.82a3.06,3.06,0,0,1-1.54-.44,1.31,1.31,0,0,1-.47-1,2.25,2.25,0,0,0,1.88.8,5.69,5.69,0,0,0,2.15-1.27s-.7-.2-.91.13a1.83,1.83,0,0,1-.68.54s-.25-.06.91-1.25a3.42,3.42,0,0,1,2.44-1.26,2.25,2.25,0,0,0,1-.41,7.81,7.81,0,0,1-2.59.22,5.08,5.08,0,0,1-2-.72s3.47.64,3.7.32a4.93,4.93,0,0,1,1-1.21,13.18,13.18,0,0,1,2.11-1.22,13.11,13.11,0,0,0-3,.37,6.73,6.73,0,0,1,2-1.26c1-.28,3.17-.75,3.17-.75l-2.76-.38A10.1,10.1,0,0,1,675,48c.82,0,3.39.43,3.39.43s-1-.62-1.42-.82,2.63.07,4.16,1.15,1.69-1.16,1.69-1.16,1.67,1.14,2.87,1.83-1.16-1-1-1a3.08,3.08,0,0,1,2.7,1.28c1.38,1.54,2.18-.13,2.18-.13a4.94,4.94,0,0,0,.7,1.54c.38.38.25.27,1.27-.5s.56,1.46.56,1.46a8.11,8.11,0,0,1,2.59.36,13.33,13.33,0,0,1,2.19.87l-1.11,0s.41,1.55,1,1.87,1.67,1.09,1.67,1.09l-1.6-.17a7,7,0,0,1,1.27,2.62,5.13,5.13,0,0,0,.56,1.85l-1.38-1.15a14.66,14.66,0,0,1,.23,3.24,3.85,3.85,0,0,0,.72,2.45c.13.12-.74-.87-.74-.87a15.41,15.41,0,0,1,.21,2.33c-.07.52.91,1.76.91,1.76s-1.39-.76-1.45-1a5.73,5.73,0,0,1,.08,3.32c-.59,1.45-.85,2-.85,2l.36-2.3a16.81,16.81,0,0,1-1.71,3.41c-.74.86-.92,1.12-.74.86s1.46-2.63,1.2-2.52a11.27,11.27,0,0,0-1.61,3.37,7.59,7.59,0,0,0,0,1.54l-.3-1.29s-.71,2.06-.79,2.62-.13-.83-.13-.83a8.74,8.74,0,0,1-.76,2.44c-.39.42-.21-.56-.21-.56s-1.21,1.13-1,1.64a5.36,5.36,0,0,0,.83,1.26l-1.35-1,1,1.82-1.14-.45-.94-.12.42,1.83s3.72.55,3.7,1.7a28.65,28.65,0,0,0,.18,5c.31,1.62-.41,6.13.17,9.66s-1.06,10.21-1.58,14-.63,5.33.12,7.16,1.41,6.53,1.86,8.84a31.81,31.81,0,0,0,2.11,5.66c.17.5.25,2.72-.06,2.87a4.71,4.71,0,0,1-1,.24,79.09,79.09,0,0,1-2.5,13c-1.88,6.41-6.42,12.55-6.73,14.81s-.42,3.11.68,4.51,2.73,10.59,3,13,.51,3.24.7,5.71.15,2.8.74,4.08,1.34,4.6,1.67,5,1.06,1,.53,1.7,1.89.59.67,2.11,1,3.2.66,4.69-.53,4.58-1.33,5.53-2.85,1.19-4.84,2.74-9.5,5.27-13.5,3-3.4-4.21-1.44-5.57a29,29,0,0,0,4-3.38c.07-.14.72-2.11.72-2.11a5.45,5.45,0,0,1-1.3-3.49c.2-1.75,0-2.15.13-3.39s-1.09-1.15-.88-2.32a20.71,20.71,0,0,0-.08-3.61,22.81,22.81,0,0,0-2.45,1.44c-1.14.61-6.81,1-8,1.11s-8,1.93-9.26,1.8-4.89.34-6.71-.77-2.37-2.63.15-3.53,4.77-.5,5.4-1.28.39-1.05,1.21-2.18-1.56-2.95-.8-4.67-.91-2.42-.78-3.41-4-9.9-4-11.67,1.83-14.76,4.54-20.53,6.09-8.81,7.62-11.19a25.35,25.35,0,0,1,2.48-3.4,6.14,6.14,0,0,1-.14-4.24c.73-2.54,1.93-5.4,2.45-7s1.26-10.29,1.51-12.07.32-5.19.32-5.19l0-.77s-5.71,2.86-7.48,3.87a10.4,10.4,0,0,1-4.08,1.45c-.68,0-6.58-.32-9.11,0s-4.73.7-5.31.61-2.42-.18-2.42-.18a3.34,3.34,0,0,1-1.09-1.88,25.47,25.47,0,0,1-.56-2.57L638,108.9a17.59,17.59,0,0,1-3.72,2.65l-1.7.66a6.75,6.75,0,0,0-1.31,2.43c-.29,1.26-1.23,2-1.59,1.44s.07-2.44.43-3.49a9,9,0,0,0,.4-1.36s0-.77-1-.21-3.27,2-4.27,2.1-.65-1,.25-2A25.76,25.76,0,0,1,629,108.6a3.29,3.29,0,0,0-2.83.57c-1.06,1-2.11.67-2,0a3.5,3.5,0,0,1,1.62-2.34,19,19,0,0,1,3.38-1.27s-.13-.42-1.07-.74S622.58,105,625.44,102.86Z" transform="translate(0 -8.68)" style="fill:#ee4036"/><path d="M198.64,195.73s1.45-2.22.54-3-1.53,0-1.69-2.14,1.76-1.45-.61-2.6-2.14-1.45-2.83-3.9-.46-3.06-1.38-4.29.15-1.76-.92-4a40.76,40.76,0,0,1-1.6-4c-.77-1.83-3.22-4.13-3.06-6.27s-1.38-2.22-2-4.21.38-13.24-.16-16.3-1-6.81-1.68-8.49a15.65,15.65,0,0,0-1-2.14l1-.84s.15-5.9-1.3-9.26a50.05,50.05,0,0,1-2.68-11,6,6,0,0,1,.57-1.53s3.68-3,2.91-9.07-.84-7-.92-7.23-.42-9-3.86-11.44-4.36-2.83-5-3.67A6,6,0,0,1,172,79l-.69-.95.65.19a5.88,5.88,0,0,0-.46-1.23c-.23-.34.62.46.62.46s-.16-1-.19-1.49.53.8.53.8a4.68,4.68,0,0,0-.11-1.49c-.19-.61.84.23,1.49-.76s2.33-3.14,2.48-4.29l.16-1.14.57,1a4.18,4.18,0,0,0-.11-1.72,7.62,7.62,0,0,1-.46-1.08l2.22,1.34a4,4,0,0,1-1.26-1.34c-.27-.65.19-.34.19-.34V64.77c0-.46.42.8.42.92a23.51,23.51,0,0,0,0-3.14c-.12-1.19.57-.34.57-.34l-.46-1.8s1.15,1.61.88.88a14.49,14.49,0,0,1-.42-2.57l-.27-.95a1.07,1.07,0,0,1,.5.65l.08.42a4.57,4.57,0,0,0-.35-2.37c-.53-1.19-.84-1.3-.84-1.3s1.22.38,1.49,1,.42,1,.42,1,0-2-.92-2.75a5.78,5.78,0,0,0-1.57-1s2.11.38,2.53,1l.42.58s-.65-1.88-1.64-2.26l-1.8-.69s.73-1,1.22-.57l.5.42s-1.15-2-2.22-2.07l-1.07,0a6.63,6.63,0,0,0,.88-2.45c.3-1.64-.27-2-.27-2a6.15,6.15,0,0,1-1.07,2.06c-.57.5-1.15-.15-1.45-1.6s-.62-2.72-.62-2.72a5.56,5.56,0,0,1-1,1.49c-.35.19-1-2-1-2.37s-.84.61-.84.61l-.53-1.79s-.35,1.29-.43,1.41a5.37,5.37,0,0,1-1.33-2,5.63,5.63,0,0,0-.35-1,16.46,16.46,0,0,1,0,2c-.08.15-.34-.85-.42-1.08s-.34-1-.34-1a12,12,0,0,1-.43,1.87c-.22.58-.8-1.87-.8-1.87a9.6,9.6,0,0,1-.53,1.84c-.27.46.72,1.76-.35.65s-3.75-1.53-4.13-1.5,2.53.88,2.83,1,.5,1,.5,1l-3.64,0a17.9,17.9,0,0,0-2.6.38s2.38.24,2.49.31-1.49,1.3-1.49,1.3l-4.06,1.46a8.17,8.17,0,0,0,2,0c.73-.16-3.25,3.17-3.75,4.2a5.65,5.65,0,0,1-1.22,1.76c-.16.12.57-.23.57-.23s-1.76,2.3-1.87,2.49,1.41-.46,1.41-.46a15.46,15.46,0,0,0-1.41,3.29l-.19,1.11.88-1.6a12.56,12.56,0,0,1-.65,2.37,5.72,5.72,0,0,1-.69.69l.72.49v1.46l.08,1.76a6.8,6.8,0,0,0-.23,3c.35,1.11.27,4.48.61,4.78a1.76,1.76,0,0,0,1,.31s.57,4,1.57,4.67l1.18.72L154,78.12l.5-.19.19,1.53-.26.61.53-.34,1,2s-5.74,2.37-7.16,3.63A18.62,18.62,0,0,0,146.07,88c-.3.5-3.33,4.63-3.59,7.23a21,21,0,0,1-1.84,7.58,31.28,31.28,0,0,1-2.95,4.48c-1,1.41-1.14,4.13-3.59,5.5s-3.6,1.08-3.6,2.18a2.93,2.93,0,0,1-.46,1.76c-.26.66-.72.58-.92,1s-.72.11-.87.69a7.72,7.72,0,0,1-.89,1.6l-3.52,2.15a10.7,10.7,0,0,0-.87,4.16c0,2.34-.16,3.41,1.1,4.06s2.53.69,2.76.34.38-.72-.19-1.07-.81-.49-.81-.49,2.53.42,3,.07.88-1,.5-1.26l-.39-.23.77-.46.8.16s2.57,1.14,3.33,0,1.34-1.11,2-2,1.53.23,1.84-.8,1.11.12,1.41-1.15,1.65,0,1.8-1.3,2.79-2.06,3.18-2.87,2.18-3.32,2.26-3.67,1.75-.92,1.75-2.18,1.92-2.75,1.92-2.75,1.18,4.24.49,6.88-.57,2.49-.07,4.36,2.75,6.81,1.87,8.76-1.49,2-.3,3.07,1,1.56.38,2.79a3.24,3.24,0,0,1-1.84,1.57l.92.3s-1.11,2.72-3.14,6.51a36.14,36.14,0,0,0-3.17,7.23c-.92,2.68-2.37,12-2.76,16.79s0,4.9-1.68,6.89-1.38,5-3.9,7.65-3.6,3.29-3.6,5.59-1.3,2.68-.84,4.89-2.22,2.68-1.38,5.05-.84,3.6-.69,5a6.25,6.25,0,0,1-.76,3.06s-4.21.3-5.2.3a3.24,3.24,0,0,0-3,3.68c.15,2.75.69,5.89,5.82,6s11.09.61,13.85.77,7.27.07,7.88-1.92-1.3-5.58-1.76-6.35,1.45.46.46-1.83,1.45-.77-.23-2.76.84-.61-.77-2.75,1.46-.92,1.46-2.37,2.06-3.29,3.06-4.67,11.78-15.76,11.78-15.76l8.65-12.32s1.76,12,3.9,13.85,3.14.84,3.37,3.06-.69,2.75.15,3.9,2.14.53,1.45,2.45-2.06,1.91-.92,3.14,2.22,2.44,2.22,2.82-2.83,1.08-3.67,1.08-7,1.53-3.9,5,6.66,3.67,8.19,3.14,7.19-1.46,9.33-.84,7.88-.92,8.8-2.15S201.09,197.18,198.64,195.73Z" transform="translate(0 -8.68)" style="fill:#fff100"/><path d="M433.38,40.8a7.58,7.58,0,0,0,2.73,3.38c1.37.85,3.52,2.32,4.75,2.92s6,6.77,6,6.77-1,1.58-1.05,1.74a37.69,37.69,0,0,0,4.08,6.11c.91.75,1.16,1.54,2.19,2.28s2.2.91,2.28,2.07a3.27,3.27,0,0,0,1.53,2.61c.92.63,1.74,3.07,2.36,4.06s1.08,1,1.12,2,2,1.41,2.7,3.11a10,10,0,0,0,3,3.85,9.84,9.84,0,0,1,2.61,6.3c0,2.61-.29,13.63-1.29,17.4s-2.9,11.39-3.85,14.5-1.82,4.88-2.07,5-.12,1.36.42,1.57.66,1.54.66,1.54-1.58,3.35-2.24,4.88-3.64,7.46-4.51,9.45-6.05,9.73-5,13.46.75,2.82-.33,6.71-2.07,4.23-1.82,6.63-1.57,4.14-1.08,5.55-1.57,7.13-1,9.12-1.91,2.15-1.33,4.06-.83,4.47-.83,4.88-1.07,1.25-.74,2.24-1.57,2.4-.83,3.31a6.21,6.21,0,0,1,.75,3.07,24.46,24.46,0,0,1-1.33,4.48c-.62,1.07-1,4.22,1.2,5.75s6.38,1.87,7.71.79,2.52-4.18,2.77-6.63a9.78,9.78,0,0,1,.5-2.86s2.69-.83,2.4-1.78.79-.5.29-1.86.5-1.83-.08-2.86.87-1.41.29-2.4,1.28-.25.91-2.24-.66-1.86.46-4.76,9.77-17.4,9.77-17.4-.66,5.55-.66,6.87,1.74,7.79.87,10.19-3.06,7.88-3.06,9.12-.92,1.28-.42,3.06-2.48,4.93-2,6-.12,1.7.21,2.2-.41,2.07-.29,2.36a12.85,12.85,0,0,1,0,2.11,10.05,10.05,0,0,1-.58,2.94c-.46.87-1,7,4.27,6.67s6.58.13,7.5-3.44a12.73,12.73,0,0,0,.24-6s4.27-2.94,3.61-4.27,1.41-1.57,1.28-2.24.58-1.9-.29-4,.62-.7-.7-3,2.44-7.83,3.81-10.15,4.89-7.46,6-11.72,2.86-11.89,3.44-15.46,1.7-13.5,1-16.48,1.67-10.55,1.67-10.55l.38-1.92s6-.75,6.77-1.62-.06-1.74-.68-6.34.56-12.24.56-14.91a20.64,20.64,0,0,1,.87-6.59c.8-3.35,5.09-11.55,5.15-13.6s.75-2.55,1.49-4.91,2.3-5.47,3.05-7.77,3.79-10.32,3.17-14.23S511.9,46.79,512.21,46s.25-1-.12-1a7.13,7.13,0,0,0-1.18.12c-.31.13-1.31-4.66-1.25-5.59A4,4,0,0,1,511,36.6c1.24-1.49,4.41-4.57,4.63-5.19s.34-2.05-.5-1.86A3.24,3.24,0,0,0,513.39,31a1.9,1.9,0,0,1-1.15.77h-.71s1.05-2.45,1.21-3,0-1.55-.34-1.68-1.18.44-1.8,2a5.63,5.63,0,0,1-.81,1.68s-1.21.43-.72-1.28.94-2.88.16-3.38-1.52-.09-1.71,1.09-.43,2.2-.81,2.33a2,2,0,0,1-.71.09s0-3.08-.75-3.7-1.55.38-1.58,1.4-.19,2.11-.22,2.83a1.55,1.55,0,0,1-.47,1.08l-.52.13a2.85,2.85,0,0,1-.47-1.77,1.74,1.74,0,0,0-.68-1.87c-.53-.28-.38.25-.62.69s-1.06,2.17-.81,3a26.86,26.86,0,0,0,2.39,4.26c.59.81,1.8,7,2,8.42a15.34,15.34,0,0,1,.22,1.89s-2.08-.46-2.05.75.8,6.34.8,6.34h-.66l.17.49a9.79,9.79,0,0,0-1-1.16c-.25-.16-1.24-.74-1.24-.74l1.91-.08s-.92-.5-1.66-.83-.91-2-1.49-2.82a15.22,15.22,0,0,0-3.57-2.74c-.33-.08.75,1.83.75,2.24s-.83-1-.83-1l.21.91s-.13-.54-1.58-1.2S491,44.82,491,44.82L493,46a40.64,40.64,0,0,1-4.39-1.41c-.62-.37-1.08-.58-1.08-.58l1.66,1.7a26.23,26.23,0,0,0-3.61-1.2c-1.4-.29-4.76-.37-4.88-.08s.08-.08,1,.21S485,45.78,485,45.78a54.57,54.57,0,0,1-5.63-.25c-1.41-.25-1.62-.58-1.62-.58s.63.95,1.12,1.12-1.45-.34-1.66.37-1.53,1.45-1.53,1.45l1.33-.75,1-.12a10.09,10.09,0,0,1-1.74,1.49A22,22,0,0,1,474,49s1.07.42,1.32.46-2.07,1.16-2.24,2S471,53.07,471,53.07s1.29-.3,2.32-.67-.74.87-1.32,1.49a2.79,2.79,0,0,1-1.78.63,14.22,14.22,0,0,0,1.45.16c.74,0-1.83,1.08-1.91,1.91a11.63,11.63,0,0,1-1,2.65l1-1.08s-.54,2.15-.58,2.4a3.1,3.1,0,0,1-.54.83s1-.29,1.24-.91-.53,2.28-.29,3a7.46,7.46,0,0,0,.54,1.2V62.72l.79,2.11c.12.33,0-1.28,0-1.28s.58,2.36.7,2.65.29-.5.29-.5l1.21,2.49s.12,2.48.08,2.94-.75.66-.75.66-3.89-1.82-3.85-3.11.29-2.48-1.28-3.14a6.66,6.66,0,0,1-2-1c-1-.66-2.82-3.31-3.11-3.68s.58-1.91-.29-1.83-.62-1.2-1.24-1.2-.5-2.15-1.29-2.07-.41-1.12-1.16-1.12-1.4-1-1.57-1a13.47,13.47,0,0,1-1.82-2.65c-.29-.62-1-1.91-1.58-1.95a3.49,3.49,0,0,0-1.32.25s-3.4-3.77-3.52-4.35.12-4.12,0-5.34-.6-4.89-1.16-5.1-1.37.25-1.41,1.62a20.16,20.16,0,0,1-.11,2.42c-.06.17-1.28-.15-1.92-1.14s-2.67-4.66-3.5-4.85-1.41,0-1.08,1,1.68,2.77,1.91,3.37.2,1.14.06,1.24a.63.63,0,0,1-.39.11c-.09,0-3.69-4.14-4.07-4.46s-1.73,0-1.34.88a34.53,34.53,0,0,0,2.5,3.72c.56.79.88,1.27.88,1.27s0,.62-.34.21-3.56-3.9-4-3.84-1.23.87-.69,1.6,3.21,3.77,3.36,4.14-.06.41-.06.41a24.11,24.11,0,0,1-2.59-2.17C434.23,39.64,433.21,40.14,433.38,40.8Zm63.33,38L497.3,80,497.15,78l.59-1.62.15,1,1-1.92.07.89.52-2.8s0,1.4.22,1,1-2.43,1-2.43l.07.81.51-1.77.23.59.44-1.62A24.25,24.25,0,0,1,500.69,76a21.08,21.08,0,0,1-2.06,3.46,3.28,3.28,0,0,1-1.7,1Z" transform="translate(0 -8.68)" style="fill:#1b75bb"/>
	</g>
	<g class="isd-children-playing__kids-right" id="isd-children-playing__kids-right">
		<path d="M1037.28,154.7a.49.49,0,0,1-.66-.52,3.06,3.06,0,0,1,.52-1.93c.52-.94.95-2.55,1.42-3.68s.09-1.61.19-3a58.75,58.75,0,0,1,2.17-11.14c1.25-3.64,2.22-4.91,2.22-5.62a131.46,131.46,0,0,1,5.34-14.64,17.6,17.6,0,0,1,6.18-6.38c1.23-.52,1.84-.8,1.84-.8l-.09-.71a8.8,8.8,0,0,1-1,.09c-.33,0-1.13-.14-.89-1.22a3.06,3.06,0,0,0,0-2.32c-.38-1.08-.61-1.65-1.32-1.84a11.49,11.49,0,0,1-5.2-4.68c-1.13-2.45-1.26-2.65-.86-6.22a22.79,22.79,0,0,1,1.38-6.16c.61-2,4.7-6.63,7-7.76s5-3.39,8-3.29,4.38.39,4.72.62.28-.09.8-.37.8-.1.8-.1-.52-.47-.38-.66.81-.23.81-.23-.48-.38-.48-.57.62-.38.76-.28a3.59,3.59,0,0,1-1.32-1c-.33-.52-1.66-2.88-1.47-4.11s.64-2.8,1.39-3.13,7.55-1,7.86,2.13a8.56,8.56,0,0,1-.53,4.25c-.19.33-1.63.91-2.2,1.43s.19.85-.71,1.37,0,.61-.56.85,1.18.37.09.71,4.58,3.54,5.2,4.2,3.42,5.89,2.86,9.29-.46,7-2.44,8.32-2.5,3.74-2.22,4.49,2.46,4.2,4.68,5,6,3.54,7.41,4.68,6.19,6.09,7,11.8,2.36,13.79,3.54,16.86,1.23,3.54,1.94,5.43,1.79,6.28,2.45,7.65,2,1.09,1.14,2-1.32,1.37-1.32,1.37,1.79,2.46,2.69,3.73,3.16,4.25,2.93,5.86a9.35,9.35,0,0,1-2.18,4.06.77.77,0,0,1-1.13.05,3.6,3.6,0,0,1-.33-.66s-.71.09-.85-.14a1.65,1.65,0,0,1-.14-.67,1.5,1.5,0,0,1,.19-1.08,11.36,11.36,0,0,0,.8-1.7,6,6,0,0,0-1.42-2.27,14.59,14.59,0,0,0-2.27-1.32,18.34,18.34,0,0,0,.29,3.16c.23.66-.33,2.51-.9,2.32s-1.09-1.56-1.09-2.18a14.58,14.58,0,0,0-.8-3.39,11.54,11.54,0,0,1-.75-3.22c0-.56-1-.33-1.85-1s-2-.52-1.7-1.41-.23-1,0-2.18-2-2.12-2.07-3.26-3.55-6.65-3.59-8.64-.05-1.37-.76-3.64-2.88-9.72-2.88-9.72-3.35,11-3.35,12.23-1.61,5.85-1,8.12,1.41,2.08.85,2.79-1,.8-.29,1.32,1.09.42,1.09,1-.14,1.47-.14,1.7,5,5.43,7.08,8.12,7.75,11.86,9.35,13.46a18.72,18.72,0,0,1,3,4.16l7.55,12.56s1.66,2.88,1.51,3.59a1.19,1.19,0,0,0,.57,1.14,6.18,6.18,0,0,0,1.09,2.73c.8.85,1.22,1.56,1.51,1.85a5.22,5.22,0,0,0,1.79,1.22c.62.15,3.12,2.74,4,3.31s4.77,3.54,5.81,3.92a3.47,3.47,0,0,1,1.93,3.87c-.52,1.75-3.45,2.46-6.18,2.18s-5.81-1.09-6.66-1.71.42-.75-2.13-1-6.09-.24-6.8-3.36-.19-3.59.14-4.3-4.86-7.27-5.76-8.54-1.42-1.7-2.88-3.59a147.61,147.61,0,0,0-11.1-11.62c-2-1.61-8.45-7.93-11.38-8.88s-9.3-2-12.33-1.37a38.56,38.56,0,0,0-11.47,4.87c-5,2.92-16.48,10.24-18.84,12.23s-5.06,6.28-6.14,7.27-6.71,6.23-7,7.27.33.71-.43,1.42a8.8,8.8,0,0,0-1.13,1.37,4.21,4.21,0,0,0-.57.94s.62,2.88,0,4.25-2.18,1.51-3.59,2-2.08.7-2.08.7a24,24,0,0,1-4.77,2.93,10.08,10.08,0,0,1-6-.71c-1.08-.61-2.69-4.15-.47-5.62s3.87-1.79,4.3-2.31a31,31,0,0,0,1.94-2.55c.71-1.09,2.74-2,3.16-3a24.15,24.15,0,0,1,1.56-2.69s6-8.22,7.08-11,4.35-6.51,7.56-10.48,9.4-10.81,9.63-11.24-.89-1.09-1.32-2.55-1.13-3.68.1-5.57S1037.28,155.18,1037.28,154.7Z" transform="translate(0 -8.68)" style="fill:#bed63a"/><path d="M1270,118.83s-.18,5.51-.49,6.94-4,12.43-2.79,19.24a73.14,73.14,0,0,0,2,9.28c.13.56-.68,5.7-.49,6.44s.43.8.43.8-1,7.43-1,8.85a16.13,16.13,0,0,1-1,4.52,53.7,53.7,0,0,0-.93,11c0,4.83.25,12.69.25,13.18s-2.29,2.54-4.08,5.26a36.24,36.24,0,0,1-3.22,4c-.5.75-1.73,3.59.25,5.08s5.38,2.22,7,1.67,3.28-1.73,3.4-2.66a6.43,6.43,0,0,1,.44-1.61s2.41-.62,2.91-1.36a6.68,6.68,0,0,0,.74-3.9c-.19-1.49-.56-3-.56-3s.37-2.53.68-5.63,2.6-10.27,3.1-12.74a54.68,54.68,0,0,0,1-7.37c.06-1.79.74-2.72,1.79-5.26a77.71,77.71,0,0,0,2.41-8.48l8.3.25s-.31,5.2-.25,6.31a11.14,11.14,0,0,0,1.79,5.51,37.64,37.64,0,0,1,4.34,7.55c1.11,2.91,4.21,11.32,4.7,12.62a22.08,22.08,0,0,1,.68,6.44,24.3,24.3,0,0,1-1.24,3.78c-.31.49-6.25,7.05-6.25,7.85s-.62,3.35,2.67,4.15a17.81,17.81,0,0,0,9.58-.49c1.92-.87,2.67-2.85,3.22-3.28s3.59-1.61,3.66-2.48.31-3.53-.56-5.2-.81-3.65-1-3.9a2.07,2.07,0,0,0-.56-.37s-.74-3.46-1.18-7.55-.43-11.45-3.09-15.35-3.53-5.44-3.53-5.44l-.12-11.39a10.43,10.43,0,0,1,.93-.8c.55-.44,1.92-4.89,1.36-7.06s-1-2.41,0-4.83,1.36-9.83.25-12.87a22.29,22.29,0,0,0-1.43-3.46s2.17-6,2.79-7.18,2-10.21.74-12.94a13,13,0,0,1-1.36-4.82c-.25-1.49-.87-7.8-1.3-9.29s-2.54-7-4.4-8.29-1.3-1-1.3-1,1.18.43,1.74.56-.31-.25-.74-.87-1.43-.86-1.55-1.61,1.11,1,1.11,1a15.21,15.21,0,0,0-.93-3.09,5.23,5.23,0,0,1-.31-4.15,25.6,25.6,0,0,0,.5-10.52c-.74-5-4.08-14.79-7.86-16.52s-12.87-1.74-16.09-.06-7.18,5.2-7.92,9-.93,7.61-.31,8.91l.62,1.3A19.38,19.38,0,0,1,1267,69c.19-1.18.43-2.54.43-2.54s.56,5.51.62,6.25a8.16,8.16,0,0,1-.49,2.29,6.85,6.85,0,0,0,1-3.09c.06-1.68-.13-4.15-.13-4.15s.69,5.07.37,6.34a5.79,5.79,0,0,0,.72,3.81c.55,1,1.67,2.94,2.07,3.68s1.55,3.74,2.29,4.15a6.44,6.44,0,0,0,2.75.95c1.12.07-3.25,1.74-4.45,1.74a8.06,8.06,0,0,0-4.83,2.84,73.94,73.94,0,0,0-2.51,7.4c-.61,1.86-2.53,7.77-3,9.13s.25,1.61-.61,2.23-2-.1-1.4,1.3.78,1.48-.28,1.85a7.37,7.37,0,0,0-3,3.25,2,2,0,0,1-.58,1.67,2,2,0,0,0-.47,2.11c.31.49.09.77-.34,1.45s-1.64,2.54-1.73,2.72-1,.28-1.67.5-2.54.68-2.73,1.3a5.74,5.74,0,0,0-.21,1.14,1.31,1.31,0,0,0-.78,1.09,2.67,2.67,0,0,0,.31,1.26s-.37.81,0,1.21a22,22,0,0,0,1.49,2.48,7,7,0,0,0,3.4,1.58c1.08,0,1.33-.44,1.39-.72s.25-.62.19-.8l-.06-.19,1.42-1,.19.75s1.51-.81,2.66-1.58,1.54-2,2.35-3,1.39-.34,2-1.43.59-1.2.93-1.85,2.88-4.06,3.34-4.61.77-1.83,1.27-2S1270,118,1270,118.83Z" transform="translate(0 -8.68)" style="fill:#ec297b"/><path d="M1506.6,102.18a1.75,1.75,0,0,0-.19-1.77l.14-.7c.14-.69-.83-1.85-1.53-1.76a13.74,13.74,0,0,1-3-.6s-2.46-3-2.88-3.72-1.54-.33-1.77.46.65,2,1,2.47,0,1.44,0,2-.14.18-.51.65a3.72,3.72,0,0,0-.47,1.67c-.09.51-1.86,2.19-1.86,2.19s0-.28.33-3a48.85,48.85,0,0,0-.09-8.92c-.24-3.57-6-5.8-7.76-6.64s-4-4.09-4.51-6.5.7-5,1.49-6.32a70.72,70.72,0,0,0,3.85-8c1.3-3.2,0-9,0-9a1.06,1.06,0,0,0,1-.19c.61-.37.28-1.34.28-1.34l1.35.18c1,.14,2.18,1.81,3,4a7.25,7.25,0,0,1,.6,2.85c.09-.7.33-2.11.65-.67.42,1.86.14,2.37-1.2,5.11s-.7,5.11-.7,4,2.14-3.16,1.25-1.44-.55,3-1.34,5.53,1.48,4.27,1.48,4.27a12.57,12.57,0,0,0-.74-2.5c-.74-2.14,1.86-3.72,1.86-3.72s.32,2.83-.28,4a4.07,4.07,0,0,0,.18,2.93l.19-1.11c.18-1.12,2.28-3.21,2.28-2.61a34,34,0,0,1-2.41,4.9c.4-.62,1.13-1.68,2.41-3.36,2.78-3.67.51-4.23-.56-6.6s1.39-3.53,2.92-9-3.71-7.67-5.57-9-4.78-.7-4.78-.7l4.13-1.9-4.92,2,1.21-2.6s-1.77,2.6-1.91,2.65a5.15,5.15,0,0,1-.74-1.35,3.06,3.06,0,0,1,.18.56,3.81,3.81,0,0,1-.09,1.25s-.23-.6-.61-.65-.69.47-.69.47l-.79-.75s-2.51-1.16-5-2.18-8-.88-12.08.51-7.52,6.83-8.92,9.67.23,8,.51,9.1a21.75,21.75,0,0,0,1.91,3.72s-.11,1-.11,2.19a4.83,4.83,0,0,0,1.17,3.1c.75.93,3.29,3.9,3.29,3.9a12,12,0,0,1-3.91,1.74c-3,.93-5.32,1-7.55,2.66-1,.75-1.93,1.2-2.74,1.74,0,.62-.08,1.28-.13,2a2.45,2.45,0,0,1,.61.46c.14.13.27.28.4.42a11.68,11.68,0,0,1,1.61-2.29c1.86-2.1.5,7.37-.25,8.86s-1.85,7.25-2.17,8.36-.55,1.36-2.22,1.3-.56.5-1.86.68-2-.24-3.72-1-2.29-.55-2.29-.55-.5-1.24-.68-1.86a1,1,0,0,0-1.43-.56c-.55.25-.86,1.92-.86,1.92l-1.37,1c-1.36,1-.74,4-.24,5.58s4.58,2.78,4.64,3a32.08,32.08,0,0,0,3.59,2.66c2.42,1.74,8.24-1.55,8.24-1.55s-.8,6-.93,6.26a57.29,57.29,0,0,1-2,5.57,33.9,33.9,0,0,1-2.72,3.66l2.29.62s-.81.87-2,4.64-2.1,5.46-1.67,7.62,1.92,1.86,1.92,1.86l-1.24,5.45a30.94,30.94,0,0,0,4,.87l4.34.56s-.56,5.32-.56,6.69.31,3.28.24,5.2.62,5,.56,6.32a22.54,22.54,0,0,1-.31,2.66c-.12,1,.19.74.07,1.24s.3.49.3.49-.55.31-1.3.81-.56,1.61-.06,1.61,1.36-1.67,1.36-1.67a15.67,15.67,0,0,1-.55,2.78c-.56,2.23-.5,9-.5,13.57s.06,7.68.06,7.68a1.37,1.37,0,0,1-1.17-.25c-.68-.43-.44,1.8-2.23,3.59s-4.09,2.48-6.26,5-1.49,3.41,2.35,5.51,9.17-1.36,10.22-1.92,2.73-.12,4.83-.93,1.24-4.09.56-5.63a11.94,11.94,0,0,1-.56-6c.38-1.43,1.86-8.3,2.73-11s2.11-9.29,2.11-9.29,1,2.17,1.54,1.61-1.42-2.17-1.42-2.17l.31.07a1.94,1.94,0,0,0,1.11-.13c.75-.24,0,0,.25-.18a1.63,1.63,0,0,0,.5-1.18c0-.49-.68-2.72-.56-3.65s.43-2.6.43-3.16.62-5.21.62-5.21.19,1.8.19,2.54.06.93.06,1.92a18.71,18.71,0,0,0,.19,2c.06.86.62.43.8,1.54s.25.75.25,1.55-.06.93,0,1.86-.06,1.24.5,2,1,.44,1,.44-1.68,1.24-1.92,2.35,1.11-.19,1.92-.74c.49-.34.61-.59.63-.73a59.67,59.67,0,0,1,.36,6.12c-.06,2.35,1.36,10.28,1.36,12.94s-.31,4.71-.31,5.33a7.84,7.84,0,0,1-1,3,22,22,0,0,1-4,5.08c-1.61,1.55-3.71,3.66-3.71,4.9s4.15,3.46,7.74,3.9,7.25-3.16,7.87-3.53a14.49,14.49,0,0,1,1.48-.87,3.76,3.76,0,0,0,1.37-4c-.5-1.17-.62-6.25-1-7.61a18.31,18.31,0,0,1,.37-8.06c.87-3.71,1.36-15.73,1.36-15.73a2.52,2.52,0,0,0,1.73,2c1.49.37,1.12-.62,1.12-.62l-2.85-1.85.87-.25c.86-.25,0,0,0-1.49a38.91,38.91,0,0,0-1.74-7.06,46.92,46.92,0,0,1,.38-9.17,15.22,15.22,0,0,0,.61-4.09c.25-2.6-1.61-10-1.61-10a3.7,3.7,0,0,0,1.24,0,6.46,6.46,0,0,0,3.84-2c1.49-1.61,0-4.46-.12-5.58s.25-7.18.25-7.18l1-.37a1.44,1.44,0,0,0,.86-1.49l-3-3.1-2.26-14.89s1,1.67,1.26,2.18a7.66,7.66,0,0,0,1.76,2.18c1.16,1.16.88.42,1.49,1s1.81.65,3.25.41a9.89,9.89,0,0,0,5.06-2.74c1.49-1.53,1-2.09,2.32-3s1.07-2,1.26-3.44a19,19,0,0,1,1.91-4.37s.13-.27.32-.6-.14-1.67-.14-1.67S1506.09,103,1506.6,102.18Z" transform="translate(0 -8.68)" style="fill:#ec1c24"/><path d="M967.06,35.13s6.89,1.75,7.87,4,3.39,5.35,3.39,6.64,1.17,1.66,1.26,4.34.41,4.24,1.48,5.72.42,2,1.14,2.34a14.49,14.49,0,0,1,1.84,1.1,1.94,1.94,0,0,0,1.37-.86c.54-.8,1.08-.61,1.79-2.76A63.51,63.51,0,0,1,990.06,49c.84-1.72.84-.74,1.13-2.95s-.23-2.34.84-2.83a10.51,10.51,0,0,0,2.08-1.35s.24-5.54.9-5.79a13.17,13.17,0,0,1,2.2-.43s1.49-.67.54-3A16.29,16.29,0,0,1,996.5,27c0-1.11-1.13-2.53-2.09-2.16s-2.5.37-2.14-.49.41-1,1-1.23a5.26,5.26,0,0,1,1.31-.18s-.83.18-.42-1.11a1.88,1.88,0,0,1,2.27-1.42,23.43,23.43,0,0,1,2.74.44,27.85,27.85,0,0,0-2.8-3.63c-1.19-1.17-3.28-3.94-3.1-4.56s1.49-.73,2.8.86,4.71,4.5,5,5.11a2.58,2.58,0,0,0,.72.92s1,.5,1.73-1.23a39.08,39.08,0,0,1,4.64-6.39c.9-1,2.45-1.18,2.15-.19s-2,2.4-2.8,4.06a37,37,0,0,0-2.21,5.84,34.63,34.63,0,0,0-.23,5.73c.12,3.81.06,7-.24,7.69l-.48,1.17.89.36s-1,5.42-1.25,8.8.12,4.25-1.25,6.21a32.37,32.37,0,0,0-2.74,5.54c-1,2-5.42,10.64-5.48,11.32s1.91.62.77,3-3.69,3.87-2.2,5.72,3.4,2.76,4,1.41a5.7,5.7,0,0,0,.54-2.4,2.28,2.28,0,0,1,.42,3A4,4,0,0,1,995.19,81c-.24,0,2,1.48,1.54,2.46l-.47,1a1.13,1.13,0,0,0-.12-1.29c-.54-.56-3.1-1-3.46-2s-.83,3.69,1,4.24,3,1,3,1a2.86,2.86,0,0,1-3.1.8,5,5,0,0,1-2.86-2.53,27,27,0,0,1-1.49-3.57,12.67,12.67,0,0,1-.72,3.39c-.65,1.84-.77,2.77-.06,3.38s-1.61-.37-1.61-2-.29-.44-1.13.67a5.92,5.92,0,0,1-2.56,1.66,4.16,4.16,0,0,0,1.49-2.15c.24-1.23-1.31.8-1.49.92s.3-1.72.3-2.09-1,1.78-1.19,3.2-2.45,5.6-2.45,9.47c0,4.1,2.27,10.65,3,13.78.68,2.73,1.43,9.78.66,12.18s.36,11.75.59,13.66.66,12.61.18,15.93-1.79,11.51-1.61,14S984,180.62,984,183.14s.18,8.62-.59,10,2.08.43.54,1.85-.48.8-.42,2.15,1,1.66.18,2.83,3.21,12.06,3.57,12.8,1,4.67-2.68,5.23-6.43-.5-7.81-5.23-3-7.82-3.09-9.29-.36-3-.36-4.06.48.61,0-1.85,1.07-2.4-.42-2.95-.77-2.34-.65-3a39.18,39.18,0,0,0-1-6.76c-.17,0-.06-1.48-.35-3.33s-1.31-7.81-1.55-8.86-1.55-8.73-1.55-10-1.73-9.29-1.73-9.29-1.13,8.18-1.13,9.23-.78,14-.9,18.39,2.27,9.91.42,12.18,1.07,1.23.72,2,.53.74.06,2a4.74,4.74,0,0,0-.18,2.83,60.4,60.4,0,0,1-1.61,9.35c-.54,1.73-4.47,8.49-5.6,9.35s-9.06,2.34-10.07,0-.48-3.87.89-5.1a21,21,0,0,0,4.05-4.37,25,25,0,0,0,1.91-4.61,12.28,12.28,0,0,0,.42-3.94c-.18-.55-.48.25-.9-1.23A4.83,4.83,0,0,1,954,197c.06-.36-1.67-11.81-2.21-14.27s-.36-9.78-.36-11.38-1.37-8.12-1.37-10a31.9,31.9,0,0,0-.65-4.55c-.18-1.6-1.67-15.75-1.67-18s-2.27-14.4-2.27-14.4a5.56,5.56,0,0,1-1-2,5.78,5.78,0,0,1-.18-3.26c.18-.61-1.52-2.94-1-5.1s-.21-2.65.45-4.56,1.13-14,1.13-16-.83-2.28-.66-.92l.18,1.35a11.81,11.81,0,0,1-1.07-4.12c.06-1.66.06-2.71.06-2.71s-1.25,3.39-2.32,4.06-3.88.74-4-.55a2.7,2.7,0,0,1,.48-2s-.36,1,0,1.29.6,1.11,1.19.12A16.42,16.42,0,0,0,940,87.91c0-.18-1.19.49-1.25.68s-.24.37-.24-.74.42-.43.66-1.85-1.61,1.42-2.56,2.1a7,7,0,0,1-1.79.92s.89-.31,1.73-2.09a5.17,5.17,0,0,0,.47-3.2l-.06-.68s-2.14,1.79-1.72,2.59.06.8.06.8-1.49-.49-.9-2.77a11.16,11.16,0,0,1,2.68-4.31s-3.75-2.46-5.18-3.2-2.62.74-4.17-1.78-2.32-5.23-3.34-6-6.49-5.84-8.46-7.44-5.27-8.37-5.63-10.49-2-7.26-2-8.68-.15-8.39.21-9.9,1.16-2.61,1.39-1.14a25.45,25.45,0,0,1,.39,3.6c0,.83.18,3.08.18,3.08s1.28-2.59,1.52-3.11,1.82-3.48,2.32-3.69a.78.78,0,0,1,1.17.74,17.64,17.64,0,0,1-1.46,4,28.9,28.9,0,0,0-1.08,2.93c0,.15-.12,2.61-.18,2.83l-.05.21a18.83,18.83,0,0,0,1.54-1.44c.12-.22,4.29-5.11,4.74-5.35s1.22-.19,1.22.61-1.52,2.77-2.59,4a13.88,13.88,0,0,0-2.41,3.51c-.06.49-.3,1.57-.06,1.66a5.09,5.09,0,0,0,2.8-1.36c.62-.8,2.14-2.49,2.68-2.43s.92.19.86.8a10.34,10.34,0,0,1-3.07,4,4.7,4.7,0,0,0-1.69,2,14.1,14.1,0,0,0,.59,3.08c.36.61,4,1.35,4.2,2.15s.39,1.44,1.94,1.84,4.92,2.74,5.39,3.88a6.05,6.05,0,0,0,2.27,2.43c.62.4,4.79,2.06,5.24,2.49a19.09,19.09,0,0,0,2.35,1.45l2.33.64a6,6,0,0,0,2.77-1.84c1.1-1.39,1.58-3.14,3.24-4.46s2-.77,2-2.16a40.78,40.78,0,0,1,1.55-7.19,9.68,9.68,0,0,1,2.29-3.29c.66-.4,1.22-2.74,1.67-3.6s2.86-4.65,5.1-5.79S963.64,34.79,967.06,35.13Z" transform="translate(0 -8.68)" style="fill:#eb008b"/><path d="M1373.52,114.43s-3.38-1-3.35-3.05.57-2.79.69-3.85-1.58-3.18-.25-6,1.09-7.79.88-8.89,0-12.33-.44-14.09-.45.83-.46,1.36a4.1,4.1,0,0,1-.63,1.46l-.54.24s.74-.79.64-1.47-.62-1.56-.34-2.2-1,.9-1,1.24a3.35,3.35,0,0,0,.31.83,2.2,2.2,0,0,1-1-2.13c.27-1.34.8-1.57,1-2.2s-.92-2.31-.92-2.31-1.33-4.08-.84-4.87-.82-2.28-1.13-3.67,0-6-.87-7.29-3-5.82-2.85-8.09-2.42-6.53-2.62-8.5a27.32,27.32,0,0,0-.73-3.89s-2.54-7.3-2.25-7.85.67-.61.67-.61-1.53-5.24-1.76-6.34-.65-4.45-1.3-5.84a25,25,0,0,0-2.54-3.58c-.29-.45-.27-.77.32-.65s.71.32.71.32a24.24,24.24,0,0,1-1.57-3.27c-.1-.59.85-1,1.78.3s2.17,3.69,2.17,3.69l.23.23a1.83,1.83,0,0,0,.59-1.51c-.06-1-.32-2.33.07-2.43s1.23,0,1.41,1.09a24.05,24.05,0,0,1,.17,2.84,1.33,1.33,0,0,1,.93,1.53,10.39,10.39,0,0,0-.09,2.29,10.89,10.89,0,0,0,1.91,2.18l.54.22s1.3-.21,1.63-.31,1.34.3.9,1.1-.89,1.2-.69,1.73a5.29,5.29,0,0,1-.12,2.7,9.8,9.8,0,0,0,0,2.82s.16.19,1.74,0,2.18.37,2.31,1.28a54.16,54.16,0,0,0,2.93,7.39c1,2,5.15,13.21,5.18,15.06a12.77,12.77,0,0,0,1.26,4.92l2.74,3s.68-7.89.63-8.23,1.75-8.41,4.62-10.37a9.55,9.55,0,0,1,6.23-1.46,7.92,7.92,0,0,1,6.63,1.15c3,2.29,5,7.36,5.93,8.74s3,8.32,3,8.32,4.49-13.05,5.66-15.38,3.08-5.46,4-7.87,3.05-4.88,3.43-4.92,3.12-.27,3.12-.27,1.34-1,1.15-2.17a11.84,11.84,0,0,1,.82-4.95l.53-1.14s.47-1.27-.85-3.36-2.13-4-1.3-4.37,1.51.16,2.34,1.68,2.09,4.15,2.83,4.06.61-.36.61-.36-1.81-6.67-1.93-7.67,1.26-1.74,1.7-.72.75,2.67,1.25,3.65a28.27,28.27,0,0,1,1.19,3.28s-.31,1.08.73,0a39.12,39.12,0,0,0,4-6.24c.33-.78,2.08-1.55,2-.55s-1.73,4.27-1.71,5a2.25,2.25,0,0,1-.26,1.19,30.83,30.83,0,0,1,2.79-2.68c.91-.66,3.33-1,2.15.43s-4.87,5.58-4.87,5.58l-1.14,1.67s.56.34,0,1.12-2.17,2.43-2.5,2.93-3.06,5.88-3.17,6.21a1,1,0,0,0,.14.71l-3.16,8.29c-.82,2.12-2.09,2.5-3.3,4.09s-3.66,5.87-3.35,6.64-1,3.45-1.71,4.54c-3.08,4.46-5.59,9.73-6.2,13.49a78.94,78.94,0,0,1-1.78,8.88s-2.77,6.74-2,11.66,1.16,16,1.23,19.28.26,5-.57,5.84l-.83.8s4.83,6.33,5.5,10.75,1.07,12.36,1.67,17.94c.4,3.76-1.09,5.3-2.16,6.7a4,4,0,0,0-1,2.17c-.16,2.62,1,14.94,1.84,16.91s1.74,14.81,1.86,17.68.93,5.18,1.32,4.59c.17-.23.41,6.82.42,7.33s.85,7.63,1.13,9,3.65,6.53-.49,8-7.65,1.28-8.89-.18-1.15-5.11-.79-6.83-.1-7.31-.22-8.1-1.69-3.66-1.34-6.76,0-3.39.17-5.2-3.42-9.86-4.1-12.25-2.47-9.43-2.84-10.65-3.46-12.68-3.79-14.83-4.89-2-4.73-.52a72,72,0,0,1-.93,11.84c-.61,2.67-.46,12.08-1.18,15.68a65.88,65.88,0,0,0-.74,10,37.22,37.22,0,0,1,2.23,5.36c.31,1.57,1.82,3.63.25,5.38s-4.69,4.1-5.49,6.28-4.1,5.46-6.75,5.49-5.33-2.11-3.49-5.4,3.57-5.22,4.25-7.84,1.18-7.18.88-8.76-2.61-12.94-2.64-16.05-.64-8.29-.76-10.41c-.46-8.06-1.09-12.11-2.9-13.63-1.63-1.36-4.46-.41-4.81-2.77-.19-1.25-.54-10.62.18-15s4.83-12.06,4.8-13.09S1373.52,114.43,1373.52,114.43Z" transform="translate(0 -8.68)" style="fill:#37b34a"/><path d="M1155.76,141.06s-2.22-2.26-.9-4.66,2-8.64,2-10.93.33-4,.15-6.08.56-12.11.34-15-.4-6.91-3.28-10.46-10.5-10.12-12-13.47-3.3-8.71-3.87-9.47-1.79-.81-1.23-1.35-.13-1.32.25-1.57-1.24-.64-.68-1.5-1.45-2.56-.59-3,.36-1.81.86-1.72.78-1,.78-1,.24-6.52-.24-7.39-2.21-1.74-2.83-2.81-1.3-2.42-1.69-3.28-2-5-1.29-5.8,1.45-.11,2,1.73.79,1.72.62.82-1.41-5.61-1-6.44,1.26-.66,1.62.36.65,2.21.65,2.21l.23.61a28.43,28.43,0,0,1-.44-4.63c.2-.57,1.46-1.45,1.91.85a34.9,34.9,0,0,0,1.48,5.53c.15.07-.39-4.45-.4-5.06s.14-1.36.6-1.53,1.23.37,1.77,3.38a16.23,16.23,0,0,0,1.3,4.42s.27-2.51.35-3.1,1.32-1.91,1.55-.21.87,3.55.87,4.63a33.73,33.73,0,0,1-.6,4.61,4.28,4.28,0,0,0-.23,2.51c.29,1.14,1.19,8.73,1.19,8.73s2.2.25,1.87.84.36,1.67-.17,2.18,1.9.93,1.08,1.38a2.42,2.42,0,0,0-1.09,1.34s3.5,7.11,3.64,7.26,1.83,1.27,1.9,1.81,2.38,1.81,2.56,2.62,2.48,1.31,2.48,1.31l2.11,1.59a4.87,4.87,0,0,1-.49-2.14c0-1.11-.63-3,.76-6.3s1.67-3.84,1.67-3.84a30.24,30.24,0,0,0-2.15,3.44l-.1.5a5.55,5.55,0,0,1,.81-3.22c.91-1.13,1.23-1.63,1.23-1.63s2.15-8.67,3.91-11a10.59,10.59,0,0,1,7-4.16,12.53,12.53,0,0,1,5.48.56s4.75,0,6.36,1.7,5,7.58,4.88,8.27,1.41,2.07,1.07,3-.85,1.55-.48,2,1,1.15.6,1.71.51,2.54.09,3.21-1.13,1.43-.71,2.42.72,1.15.24,1.8-.85,1.17-.85,1.17.72-1.32.56-1.68a3.63,3.63,0,0,1-.25-2.74c.48-1.11.83-2.41.53-3s.2-1.19,0-1.66a4.89,4.89,0,0,1-.62-1.33,7,7,0,0,1,0-1.19,17.69,17.69,0,0,0-.56,2.36c0,.39-.55,7-1,9.07s-.7,4.25-1.52,5.07A3.07,3.07,0,0,0,1185,85s5.16-2.75,6-3.79,2.72-2.59,3.77-3.65,1.56-1,2.69-1.94,5.39-6.11,5.87-7.67.69-2.63,1.34-2.85.73-1.94,1.31-1.83,1-2.58,1.45-2.49,1.21-1.32,1.48-.92,2.45-2.55,3-3.86,1-2.2.6-3.05a38.1,38.1,0,0,1-1.72-3.8c-.37-1.25-.86-2-.55-3.19s.2-2.08.56-2.4,1.23-.5,1.31.82a6.89,6.89,0,0,0,1,3.23l.34.28a16.58,16.58,0,0,0,1.62-4.27c.19-1.61,1-5.83,1.65-5.75s1,.45.86,1.78-.69,4.41-.51,4.79l.19.39a4.74,4.74,0,0,0,.88-2.26c.33-1.71,1.24-3.91,1.72-4.16s1.55-.18,1,1.76-.73,3.1-.82,3.52-.12.84-.12.84A49.42,49.42,0,0,1,1222.1,40c.39-.45,1.79-.74,1.41.75s-1,3.7-1.23,4.31-.49,2.07-.49,2.07a7.24,7.24,0,0,0,1-1.72c.23-.73.8-2.09,1.39-2s.76.36.64,1a40.5,40.5,0,0,1-1.61,5.36,36.83,36.83,0,0,1-3.5,6.33,59.22,59.22,0,0,0-3.6,6.66,8.59,8.59,0,0,0-.51,2.59,3.66,3.66,0,0,1-.53,1.59c-.2.13-2.15,3.65-2.12,4.39a1.22,1.22,0,0,1-.73,1.07s-3.91,7.77-6.62,9.67-2.59,5-4,5.8-5.3,4.46-7.1,6.58-2.57,3.18-2.57,3.18-1.07,21.11-.61,23.63.9,4.25.44,6.15.75,9.85,1.11,11.57a2.87,2.87,0,0,1-1.84,3.2c-1,.41-2.73,1.11-2.73,1.11s.47,16.12-.1,19.48-3.12,13.25-3.24,13.84,1,1.52.72,2.31,2,1.43.77,2-.34,2.41-.54,2.76-1.19.74-1.19.74-1,10-1.38,13-1.27,7.48-1,8.26a65.57,65.57,0,0,0,4.92,6.75c1.37,1.63,5,5,3,6.71s-5.56,2.48-7.43,1.4-2.69-2.87-3.93-3.5-5.43-3.8-5.76-4.77-.8-4.84,0-6,1.09-1.29,1.09-1.29-.06-7.29-.09-9.44-1.11-7.95-.85-9.27-1-1.17-.85-1.92-.28-.9-.11-1.78-.92-2.26-.92-2.26l.3-8.52-1.32-9.81s-4.27,9.17-4.62,11-.92,6.65-1.5,7.64-.1,1.8-1,2.66.67,1.56.15,1.58a.88.88,0,0,0-.71.32s-2.37,10.39-2.66,11.89-1.49,7.58-.7,9.49,1.05,5-.26,6.32-4.43,1-6,1.62-8.49,5.55-11.79,3.14-3.79-5.22-1-6.76l7-3.89s3.73-2.13,4.16-3.34.66-14.95.56-16.41-1.62-3.69-.76-4.76-1.55-1-.4-2.22a6,6,0,0,0,1.32-3.45c.14-.69,1-10.07,1.25-12s-.16-13.74,1.23-18.22,0-2.72-.55-2.12-1.89,1.32-2.1,2.38-.65,2-1.48,2.25a8.25,8.25,0,0,1-2.35.06l.06-1s1.38.6,1.66.14a32.63,32.63,0,0,1,2-2.74,10.34,10.34,0,0,1,2.66-2.6c.78-.36-2.17.1-2.59.92a15.42,15.42,0,0,0-.79,2.06l-.71-1a4.21,4.21,0,0,1,1.23-2c.83-.55,2-1.31,2.76-1.15s1.46.22,1.46.22Z" transform="translate(0 -8.68)" style="fill:#f6921e"/><path d="M1317.55,132s-4.88-1-4.62-4.61,1.46-8.78,1.83-8.79-.21-11.77,1.09-13.14l1.3-1.37s-1.08-4-.5-4.85l.58-.86s-8.25-8.76-11-10.26-4.93-7.15-5.13-9.93a48.39,48.39,0,0,0-.53-6.18c-.26-.6-1.93-8.32-.63-9.45l1.31-1.13s-.26-4-.22-4.75.83-1.38,1.63-1.62.86-.29,1.09-.08-.19-.76.79-.84a5.81,5.81,0,0,1,2,.27s.26-2.34.86-2.41a3.28,3.28,0,0,1,1.86.82l.17.21s1-6,1.62-6.22,1.28-.63.8,3.55-1.18,6.49-1.15,7.57a26.21,26.21,0,0,1-.74,4.69l-.1.16a20.7,20.7,0,0,0-.26,2.34c0,.6.67,4.54,1,6.15s-.22,2,.14,3.31,1.82,3.15,2.78,4.47,3.32,2.51,6,3.47,2.62.8,2.83.57a43.09,43.09,0,0,0,3.1-3.71c.2-.5.18-1.15,1.85-1.63s1.12-.68,2.37-.71a3.77,3.77,0,0,0,2.2-.93s-3.46-5.44-3.5-6.79-.07-4.5-.59-5.79a9.15,9.15,0,0,1-.73-2.63c0-.44-.07-.92-.07-.92a20.5,20.5,0,0,0-2.07-2.17c-.55-.36-2.3-4.92.22-7.92s3.46-4,6.55-4.09a27.67,27.67,0,0,1,7.47,1.37s4.66-.13,7.25,1.59,7.54,9.82,7.06,12.11l-.48,2.3h0s-.54,1.91-.38,1.9.56.69.56.69l-.49-.2.2,1.3-.35-.7L1353,68l-.45-.53-.22,1.79-.23-.53.22,2.32-.18-.86a6.79,6.79,0,0,1,0,1.46c-.1.17-.23-.32-.23-.32l-.18,1.15,0-.65s-1.2,1.87-1.57,2.26-.27,0-.27,0l-.14.71s3.71.76,4.54,1.5,1.62,1.69,1.9,1.9,7.93,4.5,8.26,4.7,2.62,4.54,2.13,6.61S1366,92,1366,92s3.31,9.83,4.13,11.92,1.82,7.11,3.83,11.34,3.06,10.49,5,14.77,2.41,5,2.11,6.07a13.59,13.59,0,0,0-.38,1.75s1.43,6.52.89,6.91a3.48,3.48,0,0,1-1.5.48s-.9,2.84-2.5,3.75-2.63.84-2.86.35l-.24-.48s-1.25-.29-1.27-1.16-.13-2.7-.13-2.7-1,.46-1.06-1.11a21.28,21.28,0,0,0-1.17-4.85c-.17-.48-.87-2.09-.12-2.65s.75-2.19.74-2.47-3.71-6.67-3.94-7.31-3.29-7.23-3.29-7.23a15.93,15.93,0,0,1-.51,5.27,25.87,25.87,0,0,1-2.15,4.61s1.41,5.77.35,8.51-2.23,3.85-3.63,4.38a35.82,35.82,0,0,0-3.31,1.56,31.74,31.74,0,0,1-.17,7.92c-.64,4.08-1.82,14.47-2.21,18.06s-2.59,14.17-2.41,16.77,2.16,5.74.21,7.69-2.2,6.62-2.07,7.43-.08,1-1.19,2-1.46,2.43-1.06,3.17a6.38,6.38,0,0,1,.09,3.26c-.16,0-.41.6-.41.6s2,5.26,2,5.64-.45,3.37-2.86,4.31-8.28.61-9.24-.62-.71-4.26-.21-5.9a31.52,31.52,0,0,0,.81-3.82,6.59,6.59,0,0,0-.21-1.78,16.38,16.38,0,0,0-.88-4.26c-.76-2.1-2.29-2.65-1-4.31s2.38-4.29,1.94-6.51-1.25-2.13-.44-4.05-2.92-5.61-2-9.11a31,31,0,0,0,.68-10.48c-.36-1.57.24-5.11.27-6s-.12-4.38-.12-4.38L1330.92,172c-1.78,6.18-3.59,11.6-3.14,14s-.71,5.83-1.72,6.4a2.38,2.38,0,0,0-1.27,3,6.93,6.93,0,0,1,.64,3.89,32.85,32.85,0,0,1-2.14,6.62c-.78,1.49-.6,4.14-1,5a13.05,13.05,0,0,1-1.3,2c-.11.16-.81,4.19-2.53,4.89s-8.28.39-9.39-.5-2.26-3.24-.06-6.23,2.65-4,3.24-4.48.1-2.12.64-4,.51-3.38-.33-4.39-1.41-2-1.49-4.67-.08-2.82-.21-5.74-.54-7.8.94-13.1.93-17.54,1.2-21.56,1.88-8.45,2.91-12.22A67.64,67.64,0,0,0,1317.55,132Z" transform="translate(0 -8.68)" style="fill:#90278e"/><path d="M1223.25,132.86l-5.51-4.27s2.73-5.41,2.92-7.72-.73-15.77-.79-16.89-13.35-6.54-15.88-8.42-4.29-1.88-5.75-3.37-1.25-2.51-2.38-3.29a6.38,6.38,0,0,1-1.9-3c0-.13-2.43-1.64-2.53-2.07s.06-1,.48-1.06.23-1.15.73-1.33a3.16,3.16,0,0,1,1-.18s.15-1.68.92-1.61l.77.06s1.1-1.35,1.67-1.23a9.63,9.63,0,0,1,2.28.82c.46.27,1,.61,1.16.69s2.88,1,3.23,1.84,1.61.69,2.4,2,.31,1.9,1.51,2.6a86.62,86.62,0,0,0,9.13,3.67c.94.18,1.53-.71,2.55-.51s3.45-2.26,4.16-3,2.63-3.94,2.92-4.25-.26-.56-.5-1.44-.22-1-.33-1.12-1.25-.67-1.12-1.33.19-.93.19-.93a1,1,0,0,0-.84-.91c-.8-.11-1.11-.4-1-1s.15-1.45.15-1.45a3.55,3.55,0,0,0-.87-1c-.46-.27-1.48-1.17-.5-1.89a2.92,2.92,0,0,0,1.27-2,17.42,17.42,0,0,0-1.43-4.89,6.68,6.68,0,0,1-.38-3.16V61s-7.67-2.69-8.57-4.43a8.25,8.25,0,0,1-1-2.73,57,57,0,0,1,7.28-.63,31.76,31.76,0,0,0,5.92-.57s7-6.54,11.29-6.69,11.4.38,13.62,2.9,6.17,9.75,6.28,11.76-.69,2.76-1,2.92l-.35.17-.48.77a17.87,17.87,0,0,0-1.2,2.3c-.08.45-1.78,4.07-2.38,4.09l-.6,0a1.3,1.3,0,0,0-.45,1.34c.12,1-.29.77-.29.77a6.7,6.7,0,0,0-.39.8c0,.13-.1-.43-.1-.43l-.34,1-.14-.44-.42,1-.6.2.32-.44-.28.73-.53-.15a26.55,26.55,0,0,0,3.61,1.13c.77.06,4.27,5.37,6.05,7.34s4.24,3,5,4.13a7,7,0,0,1,.68,3.54c0,.18,2.28,4.28,2.11,5.82s-1.38,9.73-3,10.52-2,1.07-2.49.7a7.25,7.25,0,0,0-1.6-.74s.37,6.21.61,9.16-1.18,11-.85,14.91a62.71,62.71,0,0,0,1,6.74c.13.95,2.12,4.85.76,5.91s-4.13.79-4.65.87-2.67,4.82-2.83,6.35-3,10.84-1.88,14.29,3.18,5.29,3.61,6.16,1.28,8.83,1.63,11.25a47.44,47.44,0,0,0,1.73,8c.74,2,1.74,2.6.76,4.25s-.16,4.76-.41,6.24,0,2.71-.34,3.57-.35,1-.35,1,2,2.75,1.38,4.65-1.45,7.5-3,8.8-10.45,1.51-11.93-.3-.58-3.34.47-5.35,1.55-2.23,1.94-3.76a19,19,0,0,0-.33-7.35c-.56-1.59-.19-2.53-1.16-4.8s-9.65-15.24-9.7-16.59.47-9.31-.43-12.16a57,57,0,0,0-2.4-6s-1.19.63-1.84.92a2.45,2.45,0,0,0-1.36,1.25,8.75,8.75,0,0,0-.66,3.79c.11,2.23,0,3.86,1.75,5.79s2,1.82,1.73,3.34-.13,6,.55,7.44,2.46,4.54,2,5l-.45.42s2.84,4.71.58,6.11A10.08,10.08,0,0,1,1225,199c-2.63-.71-9.5-1.16-12.1-1.31s-6.68-1.14-5.88-3.57,2.09-2.39,4.4-2.16,2.82-.27,4.41-.6a5.59,5.59,0,0,0,2.36-1,27.38,27.38,0,0,0,.2-4c-.15-.86-4.2-2.5-5-4.08s-4.62-12.21-4.26-15.87.8-8.83,3.44-13.79,4.29-8.32,5.27-10.25S1221.72,133.17,1223.25,132.86Z" transform="translate(0 -8.68)" style="fill:#2e3191"/><path d="M874.86,146.88s8.79-7.84,10-12,1.69-5.36,1.69-5.36a55.77,55.77,0,0,0-5.49-2.43c-.91-.16-1.11-.4-1.11-.4a38.58,38.58,0,0,0,4.8-2.26c1.37-.91,3-1.26,3.75-2.21s1.93-2,2.23-2.51,3-1.39,3.18-2l.2-.58s3.33-2.15,3.33-3.35-.62-1.2-1-1.14-.35-1.46-.88-1.62l-1-.37s-.31-1.52-.76-1.79a1.19,1.19,0,0,0-.94-.11,2.52,2.52,0,0,0-1.75-.25,7.53,7.53,0,0,1-1.53.22s-.32-.93-.87-1a1.92,1.92,0,0,0-1.56,1.1l-.12.7a8.56,8.56,0,0,0-1.52.08c-.45.11-.88.55-1.12,1.52a3.63,3.63,0,0,1-1.33,2.29,20.41,20.41,0,0,1-1.79,1.16,4.77,4.77,0,0,1-1.95.9c-1.13.27-1.25.59-1.84.34s-3.34-1.11-3.31-3.19a21.53,21.53,0,0,1,.45-4.72,34.16,34.16,0,0,0,.91-5.8,18.58,18.58,0,0,0-.87-3.59,4.49,4.49,0,0,0,1.26-.16c.26-.16.33-.85.24-1.41a1.31,1.31,0,0,1,.17-.9s1.64.81,2,.66.62-.82.66-1.22a2.91,2.91,0,0,1,.49-1s1.15.4,1.62.14.93-.32.7-1.28-.55-2.51.28-3.43a30,30,0,0,1,2.73-2.24c.47-.45,2.6-3.42,2.6-3.42s3.81,1.68,6.93.83a10.85,10.85,0,0,0,4.62-2.36s.44-.59-.53-1.41-8.57-5.44-9-5.67l-.77-.39s-.85-2.54-1.32-3.49-1.12-4.05-2.91-5.93-8.33-5.4-9.17-5.49a6.23,6.23,0,0,0-1.57,0s.31-.31,0-.53a3,3,0,0,0-1.77-.15.75.75,0,0,0,0,.34s-.29-.22-3.74.85-9.42,4.82-10.38,6-1,3.8-1.26,6.36-1.11,4.4-.12,4.89a7.82,7.82,0,0,1,1.16.63s-.16,3.55-.43,3.81.56-.47.56-.47l-.1,1.37.34-.56.26,1.67.12-.71.23,1.15-.15,1,.52-.66-.32,2.1a28.44,28.44,0,0,1-5,.53c-1.94-.06-6.6,4.19-9,5.6s-1.18,2.25-3.84,2.22-4.76,5-5.48,6.61-2.45,4.58-1.56,6.68,1.81,6.34,2.64,6.77.87.22.87.22.94,3.91-.4,5.15-7.39,7.84-11.38,10-7,6.29-10.23,6.06l-3.28-.22s6.32,7.67,12,10.48,14.66,4.35,15.67,4.54a1.64,1.64,0,0,1,1.21,1.25s3.55,7.18,7.74,11.17,8.93,5.36,10.86,6.77l1.93,1.41s-1,2.21,0,3.36,2.17.82.93,1.89-3,0-3.14,2.34,1.42,4.9,0,5.39-1.7.31-1.81,2.26-.07,1.7-.25,3.57a46.1,46.1,0,0,1-1.95,6.87c-.25.78-2.68,3.48-.58,5.38s3.46,2,4.76,1.79a33,33,0,0,0,5.49-2.14c1-.48,6-2,7.17-2.4s3.62-1.35,3.67-3.34a3.16,3.16,0,0,0-2.93-3.38c-1.43.06-3.44.49-3.68.5s.44-.78.53-1.18,1-.93.9-1.47-.68.79.53-1.19a26.79,26.79,0,0,0,2.14-4.89l.67-6.8s1.92,2.57,3.67,3,2.39.77,2.54,1a16.88,16.88,0,0,1,.71,2.57c.31,1.28,1.34,3.14,1.46,3.64s-.68,3.2.21,4.09a9,9,0,0,0,1.88,1.42s0,1.77.08,2.53-.07,1.7-.08,2.47a15,15,0,0,0,.75,3.72c.35.83,1.35,2.22,1.86,3.3a4.7,4.7,0,0,1,.37,3.14,1.54,1.54,0,0,0-.23.87,22.53,22.53,0,0,1,.21,3.65c-.16.76-.2,6,4.3,5.27s8.25-3.09,10.34-4,9.87-2.57,10.27-5.07-1.83-6.63-3.77-6.69-3.45,1.07-4.89,1.08a8.71,8.71,0,0,1-3.81-1.06c-.88-.46-1-.72-1-1.06s1.21-3.18,1.3-3.82a36.73,36.73,0,0,0-1.17-4.87c-.15-.59,1.69-7.33,1.31-9.5s-.45-9.27-2.82-12.93-5.49-9-8.11-11.52-8.86-8.45-10.13-9.73S874.86,146.88,874.86,146.88Z" transform="translate(0 -8.68)" style="fill:#29b473"/><path d="M1558.57,130.38s3.33,1,4.24-.14.57-3.68-.07-6.44-2-16.27-2.75-20.87a42.47,42.47,0,0,1,.49-16c1.27-5.45,1.84-6.23,1.84-6.23s9.83-9.62,13.8-15.21,7.07-10.26,7.78-10.68,2.4-6.3,2.12-7.15l-.28-.85,1.41-2,3.79-3.82c.56-.56.6-.35.56-.56s3.79-3.47,3.75-4.14-.56-.92-1.73.21-2.16,1.84-2.76,1.8-.64-.78,0-1.45a37.65,37.65,0,0,0,3.6-5.59c.07-.56.07-1.3-.63-1.16l-.71.14s.57-1.28.28-1.63-1.16-.32-1.94.43l-.78.74s.11-1.24-.36-1.35-2.93,1.56-3.92,2.76-2.23,3.15-2.44,3.19-2.87.32-3.36,1.59-1.53,3.89-1.7,4.49a7.39,7.39,0,0,0-.32,1,32.48,32.48,0,0,0-2.76,3.43,28.31,28.31,0,0,0-2.37,4.35,68.83,68.83,0,0,1-4.63,6.51c-1,1.31-.67,1.34-2.23,2.69s-1.74.46-2.41,1.56-1.34,1.55-2.12,1.34-1.17-.74-2.58,0-6.48.57-7.18.85-3.26-.39-3.26-.39l.85-1.94a9.8,9.8,0,0,0,1.63-2.8,13.2,13.2,0,0,0,.64-2.93,44.36,44.36,0,0,1,1.38-5.45s5.36,1.83,6,1.69.39-2.45-.11-3.26-4.93-2.85-4.93-2.85-.92-6.69-1.84-8.35-4.25-5.48-7.36-6.3-9.75-.78-11.71.64c-2.58,1.87-3.51,2.69-4.5,4.18a18.31,18.31,0,0,0-2.08,5.4c-.07.78-.17,3-.17,3.17,0,1.59.59,1.89.66,3.38s-.49.78-.81,2.16-.78,4.17,0,5.83,1.27,2,1.48,2a.6.6,0,0,1,.39.24,23.37,23.37,0,0,0,.92,3.68c.53,1.35,1,2.72,1,2.72s-.39,2.48-1.1,2.87-4.14-.14-5.41,0-3.78,1-5,.56-.53-1.38-2.3-.56-3.4,2.19-5.48,2.83-2.73-.22-6,.63-6.09,1.28-6.76.82-.14-3.65-2.9-4.85-3.5-.42-4-1.91-1.06-4.17-2.83-5.62a7.7,7.7,0,0,1-2.54-3.22c-.43-.89-2.44-1.24-2.44-1.38a39.13,39.13,0,0,0-3.47-3.86,3.34,3.34,0,0,1-.78-.11c-.35-.1-5.94-5.27-7.22-5.69s-2.3-.92-2.47-.71a1.7,1.7,0,0,1-.36.32,3.63,3.63,0,0,0-1.41-.46c-.43.07-1.14.42-.85,1l.28.57a.86.86,0,0,0-.32,1.55c1,1.1,1.17,1.24,1.35,1.28s.64,1,.64,1-.5.67-.71.74-.75.36-.11,1.32,1.91,1.41,2.3,1.94,1.52,1.52,1.77,1.8,1,1.21,1,1.21l-.42.28s1.66,3.22,2.33,4.46,1.42,2,2,3.11,3.58,3.4,4.6,4.6,3.75,3.68,6.69,7.14,7.89,8.1,12.24,9.2a40.5,40.5,0,0,1,8.73,3.61s-3,9.69-3.39,12.56-2.55,16.41-4.57,20.13-8.27,8.7-3.71,9.65,11-.84,15.6-.74l4.56.11a126.52,126.52,0,0,0-2.86,13.9c-.64,5.52-1.06,13.69-1.06,18.47s-1.38,12.94-1.38,16.23-2.65,4.78-1.81,7.75,4.89,9,3.51,11.36-1.28,3.92-.75,4.67.32,0-.32,2.12a6.1,6.1,0,0,0-.42,2.86s-1.27,4.14-2.23,5-5.41,3.19-4.88,4.67,5.41,2.55,9.13,2.76,5.52-1.17,5.94-1.91,4.35-1.17,4.88-2.76,1.17-3.82,0-5.41-1-2.23-1-2.23a28.57,28.57,0,0,0,2.33-6.05,18.62,18.62,0,0,0,.32-4.77c0-3.3-1.27-1.7,0-5.84s3.5-9.87,4.46-13.59a58.91,58.91,0,0,0,1.27-8.8c.32-2.44,2.55-8.28,2.55-8.28s1.48,7.64,2.86,11,2.23,8.39,2.66,10a67.79,67.79,0,0,0,4.24,8.81c.74,1.17,2.12,2.65,1.59,4.67a30.28,30.28,0,0,0,.11,8.91,6.17,6.17,0,0,1,.21,3.19,7.27,7.27,0,0,0-.1,2l.42.11s-1.91,7.11-2,7.43-.74,4,1.07,4.56,10.18-.64,11.24-1.91,2.13-5.94,1.28-8.91-.43-2-.43-2,1.6-.42,1-2.44.21-3.4,1.27-4.78,2.55-1.06.32-3.18,1.27-6.05.74-8.7-1.59-4-1.48-7.11.1-13-.11-16.35-.74-17.83-.85-23.77A51.71,51.71,0,0,0,1558.57,130.38Z" transform="translate(0 -8.68)" style="fill:#57b6dd"/><path d="M1020.61,131.08a10.54,10.54,0,0,1,2-2.77c1.2-1.09,2.61-2.34,2.61-2.34s2.6,1.74,3.31,1.14,1.41-2.82,2.39-4.77,7.38-15.2,8.84-20.41,2.34-12.65,1.85-16-.6-4.34-.6-4.34,2.93-1.74,6.68-3.86,3-1.63,6.35-3.47,10.69-5.21,10.69-6.08.93,0,.93-1,1.19-.33,1.19-1.14a12.84,12.84,0,0,1,.22-2,7.25,7.25,0,0,0,2.6-1,11.21,11.21,0,0,0,2.75-3.62c.51-1.26,1.3-3.43,2.79-4.41s2.24-2.25,1.66-2.79-1.55-.21-2.13.22-1.56,1-1.56,1,.36-1.12.65-1.3,1.78-.62,1.89-1a2.71,2.71,0,0,0,.1-.55s.76-1.84-.47-1.7a5.55,5.55,0,0,0-3.65,2c-.76,1.13-.83,1.81-1.52,2.36a19,19,0,0,0-2.75,4.08l-.54,1.09L1064,59.55s-.66,0-.76-.18-.33-.58-.62-.18-.61.07-1.23.25a13,13,0,0,0-2,.91,32.51,32.51,0,0,1-4.45,2.57c-2.39,1-1.2.32-3.3,1.08a9.81,9.81,0,0,0-3.61,1.88c-.48.51-1.53.62-1.78,1.2a4.52,4.52,0,0,1-2.6,1.59c-1.27.4-1.38,1-2.93,1.27l-5.22.94s4.27-8.69,5.32-10a13.66,13.66,0,0,0,2.9-4.38c.61-1.88,3.33-12.08,4-13.53a12.58,12.58,0,0,0,1.23-3.15,2.46,2.46,0,0,0-.55-1.59l.47-2.43a7.42,7.42,0,0,0,2.64-2.6,18,18,0,0,0,1.92-4.89,3.56,3.56,0,0,1,1.7-2.46c1.13-.79,2.5-1.81,1.27-2.24s-1.92.58-2.89,1.23a16.64,16.64,0,0,1-1.56.94s.07-2.61.65-3.15a1.77,1.77,0,0,0,.43-2,1.12,1.12,0,0,0-1.52-.08c-.14.29-.43.8-.43.8s-.36-.4-1.08.07a4.78,4.78,0,0,0-1.74,2.1c-.25.72-.33,1-.33,1s-.47-.22-1.19.76a9.29,9.29,0,0,0-1.2,3.66,29.15,29.15,0,0,1-1.26,3.76L1042,36.68l-1.16,0s-.33,1.05-.47,1.41a5.12,5.12,0,0,0-.51,1.38c-.07.54-2.42,2.56-2.13,2.93s-1,.61-.94,1-.51,1.08-.51,1.41-1.16,1-1.09,1.52-1.16,1.59-1.16,1.7-.86,2.82-1,3.19-1,1.8-1,2a10.1,10.1,0,0,1-.62,1.37s-.79-2.39-1.3-3.51a12.78,12.78,0,0,0-2.06-2.68l1.52.62s-.51-.83-.87-1l-.36-.14s1.15-.47,1.41,0a2.12,2.12,0,0,0,.58.65,1.29,1.29,0,0,0-.73-1.7c-1.19-.43,1.7-.18,1.7-.18s-.32-1-1-1.19.62-1,.62-1-.9-.08-1.34-.08.65-1.88.65-1.88a3.73,3.73,0,0,1-1.48.4c-.73,0-1.81-1-1.81-1a16.28,16.28,0,0,1,1.88,0,2,2,0,0,0-1.77-1.08,33.2,33.2,0,0,0-3.51,0c-.29.11,2-1.23,2-1.23a25.25,25.25,0,0,0-2.53.8,13.16,13.16,0,0,1-4.88.18c-1.27-.29-10.28,0-11.11.72a12.48,12.48,0,0,1-4.53,2.24,14.54,14.54,0,0,1-3.07.29l2,.51a14.66,14.66,0,0,0-1.73,2.39c-.22.61-1.31,1.19-1.31,1.19l2.14-.61S998.76,49,998.68,50s-1.48,1.56-1.48,1.56l1.3-.4a20.72,20.72,0,0,0-1,3.51c.1.4-.58,1.27-.69,1.27s.83-.15.83-.15-1.37,1.81,0,3,1.19,1.19,1.19,1.19L998,60l1.09.43a9.38,9.38,0,0,1,1.23,3.87,11.72,11.72,0,0,0,1,3.84v-1a6.84,6.84,0,0,1,1.45,2.46c.43,1.41.58,2,.58,2l.11-1.49a5.23,5.23,0,0,0,.76,2.68,4.2,4.2,0,0,0,1.92,1.81l-1.2-1.92s1.49,1.3,1.52,1.63a.62.62,0,0,0,.18.43,5.38,5.38,0,0,0-.39-1.95,7.48,7.48,0,0,1,.75,1.95l-.07.44a3.86,3.86,0,0,0,.33-1.23c0-.51,1,1.37,1,1.37l-.47-1.77a7.49,7.49,0,0,1,1.52,1.63l.47.79-.14-1.26s.86,0,.9.61a6.21,6.21,0,0,1,0,1s.58-.87.25-1.45.73.94.73.94l.18.22s-2.93,1.59-1.92,4.09a16.09,16.09,0,0,0,3,4.52s-2.82,2.68-2.43,5.4,1.6,3.32.18,4.27-4,4.55-3.8,6.33-1.88,6.33-3.13,8.5-3.42,6.14-3,6.62.6.82.6.82-2.06,3.31-3,4.83a19,19,0,0,0-2.12,4c-.06.59-1.19.76-1.19.76s-1.69,8.68-2,11.72-.92,4.07-.17,5.65.17,3.25.06,4.23,1.46,10,2,12.86,1.41,3.53.54,4.73-4.61,14.06-6,17.37-3.36,7.22-5.1,7.27-2.44.92-2.5,1.68-2.82,1.09-2.82,2.61-.59,2.11-.59,3.31-1.31,1.79-.82,2.17.6,0,.49.38-3.58,2.77-2.23,5.21,5.22,5.65,5.87,6.73,8.19,7.28,9.55,7.76,7.76.49,8.58-1.84-.11-3.53-2.34-4.89-2.55-2.71-2.55-3.2,1.58-.16.65-1.63,2-.49,1.58-1.79,2.44-1.63,1.63-3.15,1.19-1.57.21-2.49,7-10.7,7-10.7l-.86,4.73s-3,4.55-1.47,6.94,8.3,3.42,13.95,1.52,11.73-3.74,11.45-6.67-.92-3.21-3.14-3.21a12.12,12.12,0,0,1-3.15-.21c-.38-.11.27-3.8-.55-4.51s2-2.06,1.47-3.09,3.91-3,2.82-5.7,2.34-2.88,1.85-4.83,1.57-11.94.92-14.71-3.15-17.1-4.67-20.9-3.8-8.2-3.8-8.2Z" transform="translate(0 -8.68)" style="fill:#00a69c"/><path d="M969.81,102.86a14.62,14.62,0,0,0-3-.55,15.8,15.8,0,0,0-2.38.86l-3.86-.91a15.93,15.93,0,0,0-.2-2.8c-.17-.22-1.08-.58-1.46.87a20.67,20.67,0,0,1-.69,2.21s-1.57.54-1.71.56-2.72-1.64-3.91-.9-2.35,0-2.75.28-.83-.8-2.09-.25-.7-.91-2-.49-.57.37-2.53.06a50.6,50.6,0,0,1-8.83-2.48,4.87,4.87,0,0,1-1.64-1.5,14.36,14.36,0,0,0-2.43-2c-.43-.33-6.45-5.45-7.18-5.88A21,21,0,0,0,920,88.1a12.3,12.3,0,0,1-2.27-1.23l.53-1.7s3.9.81,4.73.22a6.55,6.55,0,0,0,2.2-2.85,4.42,4.42,0,0,0,.08-1.16,31.91,31.91,0,0,1,1.6-3l.26-.22a7.1,7.1,0,0,0,.46-3.51,14.44,14.44,0,0,0-.69-2,2.19,2.19,0,0,1,.1-2.09c.66-1,1.35-2,1.25-2.73s-.28-3.29-.28-3.29a6.8,6.8,0,0,1,.28,1.4l-.08.11a5,5,0,0,0,.5-1.25c0-.25.31.85.31.85a1.66,1.66,0,0,0,.08-1.07c-.11-.78,1,.12,1.55.4s0-.64-.39-1,.17-.66,1.22-.46l1.05.21a3,3,0,0,0-1.44-.92c-.68-.07,1.62-.1,1.62-.1a5.09,5.09,0,0,1-1.28-.75,2.66,2.66,0,0,1-1-1.27l1.14.58a4.53,4.53,0,0,0-1-1.78c-.88-1,.63-1.43.63-1.43L929,57.18a3.06,3.06,0,0,0,1.54-.44,1.27,1.27,0,0,0,.47-1,2.22,2.22,0,0,1-1.87.8A5.76,5.76,0,0,1,927,55.25s.71-.2.91.13a1.91,1.91,0,0,0,.69.54s.24-.06-.91-1.25a3.42,3.42,0,0,0-2.44-1.26,2.26,2.26,0,0,1-1-.41,7.85,7.85,0,0,0,2.59.22,5.08,5.08,0,0,0,2-.72s-3.46.64-3.7.32a4.62,4.62,0,0,0-1-1.21A13.14,13.14,0,0,0,922,50.39a13.11,13.11,0,0,1,3,.37,6.57,6.57,0,0,0-2-1.26c-1-.28-3.17-.75-3.17-.75l2.76-.38a10,10,0,0,0-2.29-.42c-.83,0-3.4.43-3.4.43s1-.62,1.43-.82-2.63.07-4.16,1.15-1.7-1.16-1.7-1.16-1.66,1.14-2.86,1.83,1.15-1,1-1a3.1,3.1,0,0,0-2.7,1.28c-1.37,1.54-2.17-.13-2.17-.13a5,5,0,0,1-.71,1.54c-.37.38-.25.27-1.26-.5S903.1,52,903.1,52a8.11,8.11,0,0,0-2.59.36,12.94,12.94,0,0,0-2.18.87l1.11,0s-.42,1.55-1,1.87-1.67,1.09-1.67,1.09l1.61-.17a7,7,0,0,0-1.27,2.62,5.24,5.24,0,0,1-.57,1.85l1.38-1.15a15.33,15.33,0,0,0-.23,3.24A3.85,3.85,0,0,1,897,65.1c-.13.12.75-.87.75-.87a15.41,15.41,0,0,0-.21,2.33c.07.52-.91,1.76-.91,1.76s1.38-.76,1.44-1a5.78,5.78,0,0,0-.07,3.32c.58,1.45.85,2,.85,2l-.37-2.3a17,17,0,0,0,1.72,3.41c.74.86.92,1.12.74.86s-1.46-2.63-1.21-2.52a11,11,0,0,1,1.61,3.37,6.84,6.84,0,0,1,0,1.54l.3-1.29a25.78,25.78,0,0,1,.79,2.62c.08.57.13-.83.13-.83a8.5,8.5,0,0,0,.77,2.44c.39.42.21-.56.21-.56s1.21,1.13,1,1.64a5.29,5.29,0,0,1-.84,1.26l1.36-1L904,83.13l1.14-.45.94-.12-.42,1.83s-3.71.55-3.7,1.7a26.82,26.82,0,0,1-.18,5c-.3,1.62.41,6.13-.16,9.66s1.06,10.21,1.57,14,.64,5.33-.12,7.16-1.41,6.53-1.86,8.84a31.21,31.21,0,0,1-2.1,5.66c-.17.5-.25,2.72.05,2.87a4.71,4.71,0,0,0,1,.24,78.51,78.51,0,0,0,2.51,13c1.88,6.41,6.41,12.55,6.72,14.81s.43,3.11-.68,4.51-2.72,10.59-3,13-.52,3.24-.71,5.71-.14,2.8-.73,4.08-1.34,4.6-1.68,5-1.06,1-.53,1.7-1.88.59-.67,2.11-1,3.2-.65,4.69.53,4.58,1.33,5.53,2.85,1.19,4.83,2.74,9.5,5.27,13.5,3,3.41-4.21,1.44-5.57a29.71,29.71,0,0,1-4-3.38c-.06-.14-.72-2.11-.72-2.11a5.45,5.45,0,0,0,1.3-3.49c-.19-1.75,0-2.15-.13-3.39s1.09-1.15.88-2.32a20.44,20.44,0,0,1,.09-3.61,24,24,0,0,1,2.45,1.44c1.14.61,6.81,1,8,1.11s8,1.93,9.27,1.8,4.89.34,6.7-.77,2.38-2.63-.14-3.53-4.77-.5-5.41-1.28-.38-1.05-1.21-2.18,1.57-2.95.8-4.67.92-2.42.78-3.41,4-9.9,4-11.67-1.82-14.76-4.53-20.53-6.1-8.81-7.62-11.19a26.54,26.54,0,0,0-2.48-3.4,6.14,6.14,0,0,0,.14-4.24c-.73-2.54-1.94-5.4-2.45-7s-1.27-10.29-1.51-12.07-.33-5.19-.33-5.19l0-.77s5.72,2.86,7.49,3.87a10.34,10.34,0,0,0,4.08,1.45c.67,0,6.57-.32,9.11,0s4.72.7,5.31.61,2.42-.18,2.42-.18a3.41,3.41,0,0,0,1.09-1.88,23.74,23.74,0,0,0,.55-2.57l1.36-.23a17.46,17.46,0,0,0,3.73,2.65c1.39.53,1.69.66,1.69.66a6.86,6.86,0,0,1,1.32,2.43c.29,1.26,1.23,2,1.58,1.44s-.06-2.44-.43-3.49a11.17,11.17,0,0,1-.4-1.36s0-.77,1-.21,3.27,2,4.26,2.1.65-1-.24-2a26.31,26.31,0,0,0-3.52-2.54,3.31,3.31,0,0,1,2.84.57c1,1,2.11.67,2,0a3.5,3.5,0,0,0-1.62-2.34,19.31,19.31,0,0,0-3.38-1.27s.13-.42,1.07-.74S972.67,105,969.81,102.86Z" transform="translate(0 -8.68)" style="fill:#ee4036"/><path d="M1396.62,195.73s-1.46-2.22-.54-3,1.53,0,1.68-2.14-1.76-1.45.61-2.6,2.15-1.45,2.84-3.9.46-3.06,1.37-4.29-.15-1.76.92-4,.84-2.14,1.61-4,3.21-4.13,3.06-6.27,1.38-2.22,2-4.21-.38-13.24.15-16.3,1-6.81,1.69-8.49a14.08,14.08,0,0,1,1-2.14l-1-.84s-.15-5.9,1.31-9.26a49.29,49.29,0,0,0,2.67-11,5.61,5.61,0,0,0-.57-1.53s-3.67-3-2.91-9.07.84-7,.92-7.23.42-9,3.86-11.44,4.37-2.83,5-3.67a6,6,0,0,0,.92-1.42l.69-.95-.65.19a5.88,5.88,0,0,1,.46-1.23c.23-.34-.61.46-.61.46s.15-1,.19-1.49-.54.8-.54.8a4.83,4.83,0,0,1,.12-1.49c.19-.61-.84.23-1.49-.76s-2.34-3.14-2.49-4.29l-.15-1.14-.58,1a4.06,4.06,0,0,1,.12-1.72,9.26,9.26,0,0,0,.46-1.08l-2.22,1.34a4.15,4.15,0,0,0,1.26-1.34c.27-.65-.19-.34-.19-.34V64.77c0-.46-.42.8-.42.92a23.51,23.51,0,0,1,0-3.14c.11-1.19-.57-.34-.57-.34l.46-1.8s-1.15,1.61-.88.88a15.52,15.52,0,0,0,.42-2.57l.26-.95a1,1,0,0,0-.49.65l-.08.42a4.63,4.63,0,0,1,.34-2.37c.54-1.19.85-1.3.85-1.3s-1.23.38-1.5,1-.42,1-.42,1,0-2,.92-2.75a5.78,5.78,0,0,1,1.57-1s-2.1.38-2.53,1l-.42.58s.65-1.88,1.65-2.26l1.8-.69s-.73-1-1.23-.57l-.49.42s1.14-2,2.22-2.07l1.07,0a6.42,6.42,0,0,1-.88-2.45c-.31-1.64.26-2,.26-2a6.15,6.15,0,0,0,1.07,2.06c.58.5,1.15-.15,1.46-1.6s.61-2.72.61-2.72.61,1.3,1,1.49,1-2,1-2.37.84.61.84.61l.54-1.79s.34,1.29.42,1.41a5.25,5.25,0,0,0,1.34-2,5.2,5.2,0,0,1,.34-1,18.8,18.8,0,0,0,0,2c.08.15.35-.85.42-1.08l.35-1a11.63,11.63,0,0,0,.42,1.87c.23.58.8-1.87.8-1.87a9.1,9.1,0,0,0,.54,1.84c.27.46-.73,1.76.34.65s3.75-1.53,4.13-1.5-2.52.88-2.83,1-.49,1-.49,1l3.63,0a17.9,17.9,0,0,1,2.6.38s-2.37.24-2.49.31,1.5,1.3,1.5,1.3l4,1.46a8.17,8.17,0,0,1-2,0c-.72-.16,3.26,3.17,3.75,4.2a5.43,5.43,0,0,0,1.23,1.76c.15.12-.58-.23-.58-.23s1.76,2.3,1.88,2.49-1.42-.46-1.42-.46a15.34,15.34,0,0,1,1.42,3.29l.19,1.11-.88-1.6a11.84,11.84,0,0,0,.65,2.37,5.72,5.72,0,0,0,.69.69l-.73.49v1.46l-.07,1.76a6.69,6.69,0,0,1,.22,3c-.34,1.11-.26,4.48-.61,4.78a1.72,1.72,0,0,1-1,.31s-.58,4-1.57,4.67-1.19.72-1.19.72l.27,1.53-.5-.19-.19,1.53.27.61-.54-.34-.95,2s5.74,2.37,7.15,3.63a17.54,17.54,0,0,1,2.64,2.68c.31.5,3.33,4.63,3.6,7.23a21.2,21.2,0,0,0,1.83,7.58,32.16,32.16,0,0,0,3,4.48c1,1.41,1.15,4.13,3.6,5.5s3.59,1.08,3.59,2.18a2.93,2.93,0,0,0,.46,1.76c.27.66.73.58.92,1s.73.11.88.69a7.36,7.36,0,0,0,.88,1.6l3.52,2.15a10.6,10.6,0,0,1,.88,4.16c0,2.34.15,3.41-1.11,4.06s-2.53.69-2.75.34-.39-.72.19-1.07l.8-.49s-2.52.42-2.94.07-.89-1-.5-1.26l.38-.23-.77-.46-.8.16s-2.56,1.14-3.33,0-1.34-1.11-2-2-1.53.23-1.83-.8-1.11.12-1.42-1.15-1.64,0-1.8-1.3-2.79-2.06-3.17-2.87-2.18-3.32-2.26-3.67-1.76-.92-1.76-2.18-1.91-2.75-1.91-2.75-1.19,4.24-.5,6.88.57,2.49.08,4.36-2.76,6.81-1.88,8.76,1.5,2,.31,3.07-1,1.56-.38,2.79a3.24,3.24,0,0,0,1.83,1.57l-.92.3s1.11,2.72,3.14,6.51a35.7,35.7,0,0,1,3.18,7.23c.91,2.68,2.37,12,2.75,16.79s0,4.9,1.68,6.89,1.38,5,3.91,7.65,3.59,3.29,3.59,5.59,1.3,2.68.85,4.89,2.21,2.68,1.37,5.05.84,3.6.69,5a6.33,6.33,0,0,0,.77,3.06s4.2.3,5.2.3a3.23,3.23,0,0,1,3,3.68c-.15,2.75-.69,5.89-5.81,6s-11.1.61-13.85.77-7.27.07-7.88-1.92,1.3-5.58,1.76-6.35-1.46.46-.46-1.83-1.45-.77.23-2.76-.84-.61.76-2.75-1.45-.92-1.45-2.37-2.07-3.29-3.06-4.67-11.79-15.76-11.79-15.76l-8.64-12.32s-1.76,12-3.9,13.85-3.14.84-3.37,3.06.69,2.75-.15,3.9-2.15.53-1.46,2.45,2.07,1.91.92,3.14-2.22,2.44-2.22,2.82,2.83,1.08,3.67,1.08,7,1.53,3.91,5-6.66,3.67-8.19,3.14-7.19-1.46-9.34-.84-7.88-.92-8.79-2.15S1394.17,197.18,1396.62,195.73Z" transform="translate(0 -8.68)" style="fill:#fff100"/><path d="M1160.76,40.08a24.11,24.11,0,0,1-2.59,2.17s-.21,0-.06-.41,2.81-3.42,3.35-4.14-.25-1.54-.68-1.6-3.65,3.42-4,3.84-.33-.21-.33-.21.31-.48.87-1.27a34.61,34.61,0,0,0,2.51-3.72c.39-.89-1-1.19-1.35-.88s-4,4.46-4.06,4.46a.61.61,0,0,1-.39-.11c-.15-.1-.17-.64.06-1.24s1.57-2.46,1.9-3.37-.24-1.14-1.07-1-2.86,3.85-3.5,4.85-1.87,1.31-1.93,1.14-.06-1.06-.1-2.42-.85-1.83-1.41-1.62-1.06,3.87-1.16,5.1.14,4.76,0,5.34-3.52,4.35-3.52,4.35a3.56,3.56,0,0,0-1.33-.25c-.62,0-1.28,1.33-1.57,1.95a13.91,13.91,0,0,1-1.82,2.65c-.17,0-.83,1-1.58,1s-.37,1.2-1.16,1.12-.66,2.07-1.28,2.07-.38,1.28-1.25,1.2,0,1.45-.29,1.83-2.07,3-3.1,3.68a6.93,6.93,0,0,1-2,1c-1.58.66-1.33,1.86-1.29,3.14s-3.85,3.11-3.85,3.11-.7-.21-.74-.66.08-2.94.08-2.94l1.2-2.49s.17.79.29.5.7-2.65.7-2.65-.12,1.61,0,1.28.79-2.11.79-2.11v1.94a7.46,7.46,0,0,0,.54-1.2c.25-.7-.5-3.6-.29-3s1.24.91,1.24.91a3.13,3.13,0,0,1-.53-.83c0-.25-.58-2.4-.58-2.4l1,1.08a11.63,11.63,0,0,1-1-2.65c-.09-.83-2.66-1.87-1.91-1.91s1.45-.16,1.45-.16a2.79,2.79,0,0,1-1.78-.63c-.58-.62-2.36-1.86-1.33-1.49s2.32.67,2.32.67-1.9-.75-2.07-1.62-2.48-2-2.24-2,1.33-.46,1.33-.46a22.62,22.62,0,0,1-2.28-.45,10.49,10.49,0,0,1-1.74-1.49l1,.12,1.32.75s-1.32-.75-1.53-1.45-2.15-.21-1.66-.37,1.12-1.12,1.12-1.12-.21.33-1.61.58a54.74,54.74,0,0,1-5.64.25s2.4-.87,3.32-1.16,1.11.08,1-.21-3.48-.21-4.89.08a25.9,25.9,0,0,0-3.6,1.2l1.65-1.7s-.45.21-1.07.58a40.64,40.64,0,0,1-4.39,1.41l1.94-1.16s-1.82.62-3.27,1.29-1.57,1.2-1.57,1.2l.2-.91s-.82,1.45-.82,1,1.07-2.32.74-2.24a15.4,15.4,0,0,0-3.56,2.74c-.58.83-.75,2.49-1.49,2.82s-1.66.83-1.66.83l1.91.08s-1,.58-1.25.74a9.53,9.53,0,0,0-1,1.16l.17-.49H1092s.78-5.13.81-6.34-2-.75-2-.75a15.34,15.34,0,0,1,.22-1.89c.21-1.43,1.43-7.61,2-8.42a26.17,26.17,0,0,0,2.4-4.26c.25-.81-.56-2.55-.81-3s-.09-1-.62-.69a1.73,1.73,0,0,0-.68,1.87,2.92,2.92,0,0,1-.47,1.77l-.53-.13a1.6,1.6,0,0,1-.47-1.08c0-.72-.18-1.8-.21-2.83s-.87-2-1.59-1.4-.74,3.7-.74,3.7a2,2,0,0,1-.72-.09c-.37-.13-.62-1.15-.81-2.33s-.93-1.59-1.7-1.09-.35,1.68.15,3.38-.71,1.28-.71,1.28a5.63,5.63,0,0,1-.81-1.68c-.62-1.55-1.43-2.11-1.8-2s-.5,1.12-.34,1.68,1.21,3,1.21,3H1083a1.9,1.9,0,0,1-1.15-.77,3.24,3.24,0,0,0-1.71-1.49c-.84-.19-.71,1.24-.49,1.86s3.38,3.7,4.63,5.19,1.24,2,1.3,2.92-.93,5.72-1.24,5.59a7.13,7.13,0,0,0-1.18-.12c-.38-.06-.44.18-.13,1s-1.3,12-1.92,15.91,2.42,11.93,3.17,14.23,2.3,5.41,3,7.77,1.43,2.86,1.49,4.91,4.35,10.25,5.16,13.6a20.64,20.64,0,0,1,.87,6.59c0,2.67,1.18,10.32.56,14.91s-1.43,5.47-.68,6.34,6.77,1.62,6.77,1.62l.37,1.92s2.42,7.57,1.68,10.55.37,12.92,1,16.48,2.36,11.19,3.44,15.46,4.6,9.4,6,11.72,5.13,7.83,3.81,10.15.16.91-.71,3-.16,3.36-.29,4,2,.91,1.29,2.24,3.6,4.27,3.6,4.27a12.83,12.83,0,0,0,.25,6c.91,3.57,2.19,3.15,7.5,3.44s4.72-5.8,4.26-6.67a10.41,10.41,0,0,1-.58-2.94,12,12,0,0,1,0-2.11c.12-.29-.63-1.87-.29-2.36s-.29-1.12.2-2.2-2.48-4.23-2-6-.41-1.82-.41-3.06-2.19-6.71-3.07-9.12.88-8.86.88-10.19-.67-6.87-.67-6.87,8.66,14.5,9.78,17.4.83,2.77.45,4.76,1.5,1.24.92,2.24.87,1.36.29,2.4.41,1.49-.09,2.86.58.91.29,1.86,2.41,1.78,2.41,1.78a10.24,10.24,0,0,1,.49,2.86c.25,2.45,1.45,5.55,2.78,6.63s5.55.74,7.7-.79,1.83-4.68,1.2-5.75a24.23,24.23,0,0,1-1.32-4.48,6.28,6.28,0,0,1,.74-3.07c.75-.91-1.16-2.32-.82-3.31s-.75-1.82-.75-2.24-1.41-3-.83-4.88-1.9-2.08-1.32-4.06-1.49-7.71-1-9.12-1.32-3.15-1.08-5.55-.74-2.73-1.82-6.63-1.41-3-.33-6.71-4.1-11.47-5-13.46-3.85-7.91-4.52-9.45-2.23-4.88-2.23-4.88.12-1.33.66-1.54.66-1.49.41-1.57-1.11-1.87-2.07-5-2.85-10.73-3.85-14.5-1.28-14.79-1.28-17.4a9.78,9.78,0,0,1,2.61-6.3,10.05,10.05,0,0,0,3-3.85c.66-1.7,2.65-2,2.69-3.11s.5-1,1.12-2,1.45-3.43,2.36-4.06a3.27,3.27,0,0,0,1.53-2.61c.09-1.16,1.25-1.32,2.28-2.07s1.29-1.53,2.2-2.28a37.69,37.69,0,0,0,4.08-6.11c0-.16-1.06-1.74-1.06-1.74s4.81-6.17,6-6.77,3.38-2.07,4.74-2.92a7.68,7.68,0,0,0,2.74-3.38C1162,40.14,1161,39.64,1160.76,40.08Zm-62.44,40.39a3.28,3.28,0,0,1-1.69-1,20.39,20.39,0,0,1-2.06-3.46,23.32,23.32,0,0,1-1.18-5.82l.44,1.62.22-.59.52,1.77.07-.81s.74,2.06,1,2.43.22-1,.22-1l.51,2.8.08-.89,1,1.92.14-1,.59,1.62L1098,80l.59-1.11Z" transform="translate(0 -8.68)" style="fill:#1b75bb"/>
	</g>
</svg>